/* XPM */
static char *_751f35c14794c27b9b71ecc7b0d0e60W7FwHxK38D5AotSs[] = {
/* columns rows colors chars-per-pixel */
"64 64 113 2 ",
"   c #DA531F",
".  c #DB561E",
"X  c #DC571E",
"o  c #DE5F1E",
"O  c #DF611F",
"+  c #E7741B",
"@  c #EA7F1E",
"#  c #DD6B26",
"$  c #DE6E27",
"%  c #D5763A",
"&  c #D87E3A",
"*  c #E07023",
"=  c #E77D20",
"-  c #EF7E2F",
";  c #EF7D30",
":  c #C2785B",
">  c #C07C62",
",  c #EB801A",
"<  c #EC811A",
"1  c #ED841A",
"2  c #EB811C",
"3  c #EF8C1B",
"4  c #F08B19",
"5  c #F08C19",
"6  c #F39318",
"7  c #F49618",
"8  c #F59918",
"9  c #F59E1D",
"0  c #F89B1F",
"q  c #F99F1D",
"w  c #F8A117",
"e  c #FDAD16",
"r  c #FBA619",
"t  c #F9A11C",
"y  c #F8AB1B",
"u  c #FDAF19",
"i  c #FAAA1D",
"p  c #FAAC1F",
"a  c #FDB519",
"s  c #FDB31D",
"d  c #FDBB1B",
"f  c #FEBC1B",
"g  c #EB8620",
"h  c #EB8924",
"j  c #EC8F2A",
"k  c #F48F26",
"l  c #F2872A",
"z  c #F28929",
"x  c #F59224",
"c  c #F79A20",
"v  c #EC9833",
"b  c #EC9A35",
"n  c #F9AA20",
"m  c #FDBA23",
"M  c #F3AB33",
"N  c #F7B430",
"B  c #F9BB30",
"V  c #FABD32",
"C  c #FEC31E",
"Z  c #FEC61F",
"A  c #FECB20",
"S  c #FECC21",
"D  c #FEC12A",
"F  c #FEC52E",
"G  c #FFD524",
"H  c #FEC731",
"J  c #FECD37",
"K  c #FBCB39",
"L  c #FECE38",
"P  c #FED13B",
"I  c #BD9474",
"U  c #BE9B77",
"Y  c #BB9F7E",
"T  c #BAA07E",
"R  c #CF884E",
"E  c #D28246",
"W  c #CF8850",
"Q  c #C38762",
"!  c #C48863",
"~  c #C28A66",
"^  c #D1BE73",
"/  c #D1BE74",
"(  c #FACB41",
")  c #FAD343",
"_  c #FCD543",
"`  c #F8D546",
"'  c #FED842",
"]  c #FEDB45",
"[  c #FFDC46",
"{  c #F9D748",
"}  c #FAD848",
"|  c #FFDF49",
" . c #E9C552",
".. c #E7CC5D",
"X. c #FFE04A",
"o. c #FFE24C",
"O. c #DEC160",
"+. c #DFC561",
"@. c #D3C073",
"#. c #D7C774",
"$. c #D2C479",
"%. c #E1C862",
"&. c #B99E80",
"*. c #BAAF8B",
"=. c #BFB184",
"-. c #BDB68E",
";. c #B0A292",
":. c #B2AB95",
">. c #B0AA98",
",. c gray65",
"<. c #AAA7A0",
"1. c #C0B283",
"2. c #C3B581",
/* pixels */
",.,.,.,.,.,.,.,.,.,.,.,.,.,.,.,.,.,.,.,.,.,.,.,.,.,.,.,.,.,.,.,.,.,.,.,.,.,.,.,.,.,.,.,.,.,.,.,.,.,.,.,.,.,.,.,.,.,.,.,.,.,.,.,.",
",.,.,.,.,.,.,.,.,.,.,.,.,.,.,.,.,.,.,.,.,.,.,.,.,.,.,.,.,.,.,.,.,.,.,.,.,.,.,.,.,.,.,.,.,.,.,.,.,.,.,.,.,.,.,.,.,.,.,.,.,.,.,.,.",
",.,.,.,.,.,.,.,.,.,.,.,.,.,.,.,.,.,.,.,.,.,.,.,.,.,.,.,.,.,.,.,.,.,.,.,.,.,.,.,.,.,.,.,.,.,.,.,.,.,.,.,.,.,.,.,.,.,.,.,.,.,.,.,.",
",.,.,.,.,.,.,.,.,.,.,.,.,.,.,.,.,.,.,.,.,.,.,.,.,.,.,.,.,.,.,.,.,.,.,.,.,.,.,.,.,.,.,.,.,.,.,.,.,.,.,.,.,.,.,.,.,.,.,.,.,.,.,.,.",
",.,.,.,.,.,.,.,.,.,.,.,.,.,.,.,.,.,.,.,.,.,.,.,.,.,.,.,.,.,.,.,.,.,.,.,.,.,.,.,.,.,.,.,.,.,.,.,.,.,.,.,.,.,.,.,.,.,.,.,.,.,.,.,.",
",.,.,.,.,.,.,.,.,.,.,.,.,.,.,.,.,.,.,.,.,.,.,.,.,.,.,.,.,.,.,.,.,.,.,.,.,.,.,.,.,.,.,.,.,.,.,.,.,.,.,.,.,.,.,.,.,.,.,.,.,.,.,.,.",
",.,.,.,.,.,.,.,.,.,.,.,.,.,.,.,.,.,.,.,.,.,.,.,.,.,.,.,.,.,.,.,.,.,.,.,.,.,.,.,.,.,.,.,.,.,.,.,.,.,.,.,.,.,.,.,.,.,.,.,.,.,.,.,.",
",.,.,.,.,.,.,.,.,.,.,.,.,.,.,.,.,.,.,.,.,.,.,.,.,.,.,.,.,.,.,.,.,.,.,.,.,.,.,.,.,.,.,.,.,.,.,.,.,.,.,.,.,.,.,.,.,.,.,.,.,.,.,.,.",
",.,.,.,.,.,.,.,.,.,.,.,.,.,.,.,.,.,.,.,.,.,.,.,.,.,.,.,.,.,.,.,.,.,.,.,.,.,.,.,.,.,.,.,.,.,.,.,.,.,.,.,.,.,.,.,.,.,.,.,.,.,.,.,.",
",.,.,.,.,.,.,.,.,.,.,.,.,.,.,.,.,.,.,.,.,.,.,.,.,.,.,.,.,.,.,.,.,.,.,.,.,.,.,.,.,.,.,.,.,.,.,.,.,.,.,.,.,.,.,.,.,.,.,.,.,.,.,.,.",
",.,.,.,.,.,.,.,.,.,.,.,.,.,.,.,.,.,.,.,.,.,.,.,.,.,.,.,.>.=.=.=.=.=.=.*.,.,.,.,.,.,.,.,.,.,.,.,.,.,.,.,.,.,.,.,.,.,.,.,.,.,.,.,.",
",.,.,.,.,.,.,.,.,.,.,.,.,.,.,.,.,.,.,.,.,.,.,.,.,.,.,.,./ o.o.o.o.o.o.} ,.,.,.,.,.,.,.,.,.,.,.,.,.,.,.,.,.,.,.,.,.,.,.,.,.,.,.,.",
",.,.,.,.,.,.,.,.,.,.,.,.,.,.,.,.,.,.,.,.,.,.,.,.,.,.,.,./ o.o.o.o.o.o.} ,.,.,.,.,.,.,.,.,.,.,.,.,.,.,.,.,.,.,.,.,.,.,.,.,.,.,.,.",
",.,.,.,.,.,.,.,.,.,.,.,.,.,.,.,.,.,.,.,.,.,.,.,.,.,.,.,./ o.o.o.o.o.o.} ,.,.,.,.,.,.,.,.,.,.,.,.,.,.,.,.,.,.,.,.,.,.,.,.,.,.,.,.",
",.,.,.,.,.,.,.,.,.,.,.,.,.,.,.,.,.,.,.,.,.@.{ { { { { { K m m m m m m D { { { { { { ` ,.,.,.,.,.,.,.,.,.,.,.,.,.,.,.,.,.,.,.,.,.",
",.,.,.,.,.,.,.,.,.,.,.,.,.,.,.,.,.,.,.,.,.#.o.o.o.o.o.o.J e e e e e e m o.o.o.o.o.o.| ,.,.,.,.,.,.,.,.,.,.,.,.,.,.,.,.,.,.,.,.,.",
",.,.,.,.,.,.,.,.,.,.,.,.,.,.,.,.,.,.,.,.,.#.o.o.o.o.o.o.J e e e e e e m o.o.o.o.o.o.| ,.,.,.,.,.,.,.,.,.,.,.,.,.,.,.,.,.,.,.,.,.",
",.,.,.,.,.,.,.,.,.,.,.,.,.,.,.,.,.<.=.=.=.%.] ] ] ( ( ( B w w w w w w n ( ( ( _ ] ] ' =.=.=.:.,.,.,.,.,.,.,.,.,.,.,.,.,.,.,.,.,.",
",.,.,.,.,.,.,.,.,.,.,.,.,.,.,.,.,.1.o.o.o.F e e e .                           5 e e u o.o.o.#.,.,.,.,.,.,.,.,.,.,.,.,.,.,.,.,.,.",
",.,.,.,.,.,.,.,.,.,.,.,.,.,.,.,.,.1.o.o.o.F e e e .                           5 e e u o.o.o.#.,.,.,.,.,.,.,.,.,.,.,.,.,.,.,.,.,.",
",.,.,.,.,.,.,.,.,.,.,.,.,.,.,.,.,.1.o.o.o.F e e e .                           5 e e u o.o.o.#.,.,.,.,.,.,.,.,.,.,.,.,.,.,.,.,.,.",
",.,.,.,.,.,.,.,.,.,.,.,.,.,.~ > > W H H H F H H H < , , , , , , , , , , , , , , , , 2 H H H  .$.$.$.:.,.,.,.,.,.,.,.,.,.,.,.,.,.",
",.,.,.,.,.,.,.,.,.,.,.,.,.,.$     o e e e H o.o.o.e e e e e e e e e e e e e e +       e e e F o.o.o.=.,.,.,.,.,.,.,.,.,.,.,.,.,.",
",.,.,.,.,.,.,.,.,.,.,.,.,.,.$     o e e e H o.o.o.e e e e e e e e e e e e e e +       e e e F o.o.o.=.,.,.,.,.,.,.,.,.,.,.,.,.,.",
",.,.,.,.,.,.,.,.,.,.,.,.,.,.$     o e e e H o.o.o.e e e e e e e e e e e e e e +       e e e F o.o.o.=.,.,.,.,.,.,.,.,.,.,.,.,.,.",
",.,.,.,.,.,.,.,.,.,.,.,.,.,.$     O o.o.o.o.o.o.o.e e e f G G G G G G S e e e +             v o.o.o.=.,.,.,.,.,.,.,.,.,.,.,.,.,.",
",.,.,.,.,.,.,.,.,.,.,.,.,.,.$     O o.o.o.o.o.o.o.e e e f G G G G G G S e e e +             v o.o.o.=.,.,.,.,.,.,.,.,.,.,.,.,.,.",
",.,.,.,.,.,.,.,.,.,.,.,.,.,.$     O o.o.o.o.o.o.o.e e e f G G G G G G S e e e +             v o.o.o.=.,.,.,.,.,.,.,.,.,.,.,.,.,.",
",.,.,.,.,.,.,.,.,.,.;.! ! ! = + + @ o.o.o.' L L L 0 0 0 p Z Z Z Z Z Z C f f f 3 + + +       j L L L O.^ ^ 2.,.,.,.,.,.,.,.,.,.,.",
",.,.,.,.,.,.,.,.,.,.U       6 e e s o.o.o.H e e e - ; ; k e e e e e e a G G G d e e e       , e e e [ o.o...,.,.,.,.,.,.,.,.,.,.",
",.,.,.,.,.,.,.,.,.,.U       6 e e s o.o.o.H e e e - ; ; k e e e e e e a G G G d e e e       , e e e [ o.o...,.,.,.,.,.,.,.,.,.,.",
",.,.,.,.,.,.,.,.,.,.U       6 e e s o.o.o.H e e e - ; ; k e e e e e e a G G G d e e e       , e e e [ o.o...,.,.,.,.,.,.,.,.,.,.",
",.,.,.,.,.,.,.,.,.,.U       6 e e s o.o.o.H e e e - ; ; k e e e e e e a G G G d e e e       , e e e [ o.o...,.,.,.,.,.,.,.,.,.,.",
",.,.,.,.,.,.,.,.,.,.U       6 e e s o.o.o.H e e e - ; ; k e e e e e e a G G G d e e e       , e e e [ o.o...,.,.,.,.,.,.,.,.,.,.",
",.,.,.,.,.,.,.,.,.,.U       6 e e s o.o.o.H e e e - ; ; k e e e e e e a G G G d e e e       , e e e [ o.o...,.,.,.,.,.,.,.,.,.,.",
",.,.,.,.,.,.,.,.,.,.&.# # # 3 7 7 9 o.o.o.J m m m z z z x t t t t t t i A A A y 7 7 7       g m m m ) { { +.,.,.,.,.,.,.,.,.,.,.",
",.,.,.,.,.,.,.,.,.,.,.,.,.,.$     O o.o.o.o.o.o.o.e e e c ; ; ; ; ; ; l e e e +             v o.o.o.=.,.,.,.,.,.,.,.,.,.,.,.,.,.",
",.,.,.,.,.,.,.,.,.,.,.,.,.,.$     O o.o.o.o.o.o.o.e e e c ; ; ; ; ; ; l e e e +             v o.o.o.=.,.,.,.,.,.,.,.,.,.,.,.,.,.",
",.,.,.,.,.,.,.,.,.,.,.,.,.,.$     O o.o.o.o.o.o.o.e e e c ; ; ; ; ; ; l e e e +             v o.o.o.=.,.,.,.,.,.,.,.,.,.,.,.,.,.",
",.,.,.,.,.,.,.,.,.,.,.,.,.,.$     o D D D P o.o.o.e e e r 0 0 0 0 0 0 q e e e +       4 4 4 N o.o.o.=.,.,.,.,.,.,.,.,.,.,.,.,.,.",
",.,.,.,.,.,.,.,.,.,.,.,.,.,.$     o e e e H o.o.o.e e e e e e e e e e e e e e +       e e e F o.o.o.=.,.,.,.,.,.,.,.,.,.,.,.,.,.",
",.,.,.,.,.,.,.,.,.,.,.,.,.,.$     o e e e H o.o.o.e e e e e e e e e e e e e e +       e e e F o.o.o.=.,.,.,.,.,.,.,.,.,.,.,.,.,.",
",.,.,.,.,.,.,.,.,.,.,.,.,.,.$     o e e e H o.o.o.e e e e e e e e e e e e e e +       e e e F o.o.o.=.,.,.,.,.,.,.,.,.,.,.,.,.,.",
",.,.,.,.,.,.,.,.,.,.,.,.,.,.,.,.,.Y       1 e e e X.o.o.o.o.o.o.o.o.o.o.o.o.o.D e e u o.o.o.#.,.,.,.,.,.,.,.,.,.,.,.,.,.,.,.,.,.",
",.,.,.,.,.,.,.,.,.,.,.,.,.,.,.,.,.Y       1 e e e X.o.o.o.o.o.o.o.o.o.o.o.o.o.D e e u o.o.o.#.,.,.,.,.,.,.,.,.,.,.,.,.,.,.,.,.,.",
",.,.,.,.,.,.,.,.,.,.,.,.,.,.,.,.,.Y       1 e e e X.o.o.o.o.o.o.o.o.o.o.o.o.o.D e e u o.o.o.#.,.,.,.,.,.,.,.,.,.,.,.,.,.,.,.,.,.",
",.,.,.,.,.,.,.,.,.,.,.,.,.,.,.,.,.;.> > > & , , , b b b M H H H H H H V b b b h , , < $.$.$.-.,.,.,.,.,.,.,.,.,.,.,.,.,.,.,.,.,.",
",.,.,.,.,.,.,.,.,.,.,.,.,.,.,.,.,.,.,.,.,.:             + e e e e e e 8             X ,.,.,.,.,.,.,.,.,.,.,.,.,.,.,.,.,.,.,.,.,.",
",.,.,.,.,.,.,.,.,.,.,.,.,.,.,.,.,.,.,.,.,.:             + e e e e e e 8             X ,.,.,.,.,.,.,.,.,.,.,.,.,.,.,.,.,.,.,.,.,.",
",.,.,.,.,.,.,.,.,.,.,.,.,.,.,.,.,.,.,.,.,.:             + e e e e e e 8             X ,.,.,.,.,.,.,.,.,.,.,.,.,.,.,.,.,.,.,.,.,.",
",.,.,.,.,.,.,.,.,.,.,.,.,.,.,.,.,.,.,.,.,.;.Y Y Y Y Y Y R o o o o o o * Y Y Y Y Y Y T ,.,.,.,.,.,.,.,.,.,.,.,.,.,.,.,.,.,.,.,.,.",
",.,.,.,.,.,.,.,.,.,.,.,.,.,.,.,.,.,.,.,.,.,.,.,.,.,.,.,.Q             # ,.,.,.,.,.,.,.,.,.,.,.,.,.,.,.,.,.,.,.,.,.,.,.,.,.,.,.,.",
",.,.,.,.,.,.,.,.,.,.,.,.,.,.,.,.,.,.,.,.,.,.,.,.,.,.,.,.Q             # ,.,.,.,.,.,.,.,.,.,.,.,.,.,.,.,.,.,.,.,.,.,.,.,.,.,.,.,.",
",.,.,.,.,.,.,.,.,.,.,.,.,.,.,.,.,.,.,.,.,.,.,.,.,.,.,.,.I % % % % % % E ,.,.,.,.,.,.,.,.,.,.,.,.,.,.,.,.,.,.,.,.,.,.,.,.,.,.,.,.",
",.,.,.,.,.,.,.,.,.,.,.,.,.,.,.,.,.,.,.,.,.,.,.,.,.,.,.,.,.,.,.,.,.,.,.,.,.,.,.,.,.,.,.,.,.,.,.,.,.,.,.,.,.,.,.,.,.,.,.,.,.,.,.,.",
",.,.,.,.,.,.,.,.,.,.,.,.,.,.,.,.,.,.,.,.,.,.,.,.,.,.,.,.,.,.,.,.,.,.,.,.,.,.,.,.,.,.,.,.,.,.,.,.,.,.,.,.,.,.,.,.,.,.,.,.,.,.,.,.",
",.,.,.,.,.,.,.,.,.,.,.,.,.,.,.,.,.,.,.,.,.,.,.,.,.,.,.,.,.,.,.,.,.,.,.,.,.,.,.,.,.,.,.,.,.,.,.,.,.,.,.,.,.,.,.,.,.,.,.,.,.,.,.,.",
",.,.,.,.,.,.,.,.,.,.,.,.,.,.,.,.,.,.,.,.,.,.,.,.,.,.,.,.,.,.,.,.,.,.,.,.,.,.,.,.,.,.,.,.,.,.,.,.,.,.,.,.,.,.,.,.,.,.,.,.,.,.,.,.",
",.,.,.,.,.,.,.,.,.,.,.,.,.,.,.,.,.,.,.,.,.,.,.,.,.,.,.,.,.,.,.,.,.,.,.,.,.,.,.,.,.,.,.,.,.,.,.,.,.,.,.,.,.,.,.,.,.,.,.,.,.,.,.,.",
",.,.,.,.,.,.,.,.,.,.,.,.,.,.,.,.,.,.,.,.,.,.,.,.,.,.,.,.,.,.,.,.,.,.,.,.,.,.,.,.,.,.,.,.,.,.,.,.,.,.,.,.,.,.,.,.,.,.,.,.,.,.,.,.",
",.,.,.,.,.,.,.,.,.,.,.,.,.,.,.,.,.,.,.,.,.,.,.,.,.,.,.,.,.,.,.,.,.,.,.,.,.,.,.,.,.,.,.,.,.,.,.,.,.,.,.,.,.,.,.,.,.,.,.,.,.,.,.,.",
",.,.,.,.,.,.,.,.,.,.,.,.,.,.,.,.,.,.,.,.,.,.,.,.,.,.,.,.,.,.,.,.,.,.,.,.,.,.,.,.,.,.,.,.,.,.,.,.,.,.,.,.,.,.,.,.,.,.,.,.,.,.,.,.",
",.,.,.,.,.,.,.,.,.,.,.,.,.,.,.,.,.,.,.,.,.,.,.,.,.,.,.,.,.,.,.,.,.,.,.,.,.,.,.,.,.,.,.,.,.,.,.,.,.,.,.,.,.,.,.,.,.,.,.,.,.,.,.,.",
",.,.,.,.,.,.,.,.,.,.,.,.,.,.,.,.,.,.,.,.,.,.,.,.,.,.,.,.,.,.,.,.,.,.,.,.,.,.,.,.,.,.,.,.,.,.,.,.,.,.,.,.,.,.,.,.,.,.,.,.,.,.,.,."
};
