/* XPM */
static char *_d27be6877b44f9fbda744bf0dd9e226aXTiqRo4Bo7MB6jJ[] = {
/* columns rows colors chars-per-pixel */
"64 64 165 2 ",
"   c #0C0C0C",
".  c #12100E",
"X  c #151414",
"o  c #1D1D17",
"O  c #201F1C",
"+  c #252323",
"@  c #282323",
"#  c #2B2B25",
"$  c #2A2929",
"%  c #332F2C",
"&  c #36302F",
"*  c #343433",
"=  c #3B3434",
"-  c #3C3A37",
";  c #3E3939",
":  c #433D3D",
">  c #454242",
",  c #4B4444",
"<  c #4B4943",
"1  c #4D4A4A",
"2  c #504646",
"3  c #534C4C",
"4  c #594E4E",
"5  c #54524E",
"6  c #5A504F",
"7  c #555352",
"8  c #5B5454",
"9  c #595956",
"0  c #5F5758",
"q  c #5D5B5B",
"w  c #625656",
"e  c #625E5D",
"r  c #62615C",
"t  c #6A625F",
"y  c #646362",
"u  c #6B6463",
"i  c #6B6A64",
"p  c #6D6C6B",
"a  c #716666",
"s  c #716768",
"d  c #736C6C",
"f  c #7B6D6D",
"g  c #74726C",
"h  c #7A726F",
"j  c #79786D",
"k  c #747373",
"l  c #7B7271",
"z  c #7B7B73",
"x  c #7B7B7B",
"c  c #806F6F",
"v  c #847575",
"b  c #827A74",
"n  c #847C7B",
"m  c #8B7C7C",
"M  c #907F7F",
"N  c #828277",
"B  c #85827C",
"V  c #8B837E",
"C  c #91807F",
"Z  c #848383",
"A  c #8C8483",
"S  c #8C8C87",
"D  c #8C8C8C",
"F  c #948484",
"G  c #988787",
"H  c #928A86",
"J  c #988987",
"K  c #948B8B",
"L  c #9B8B8B",
"P  c #94928D",
"I  c #9A948D",
"U  c #9D9A8D",
"Y  c #9B8F90",
"T  c #939393",
"R  c #9B9592",
"E  c #9D9B95",
"W  c #9C9C9C",
"Q  c #A08F8F",
"!  c #A49494",
"~  c #A99797",
"^  c #A49C95",
"/  c #A49D9A",
"(  c #AD9C9C",
")  c #B09F9F",
"_  c #A3A296",
"`  c #A4A39A",
"'  c #ABA39C",
"]  c #ADAB9D",
"[  c #B0A69F",
"{  c #A6A6A6",
"}  c #ADA5A1",
"|  c #AEABA1",
" . c #AEAEAC",
".. c #B3A3A3",
"X. c #B5AAA3",
"o. c #B8AFA6",
"O. c #B4ADAA",
"+. c #BBAAAA",
"@. c #B4B3A5",
"#. c #B7B8A7",
"$. c #B7B4A8",
"%. c #BCB4AC",
"&. c #BCBAAC",
"*. c #B4B3B2",
"=. c #BBB0B0",
"-. c #BCBCB2",
";. c #BCBCBA",
":. c #C0AFAF",
">. c #C4B6B3",
",. c #C3BCB3",
"<. c #C1BCBC",
"1. c #CBBDBD",
"2. c #BEC0AE",
"3. c #C4C2B4",
"4. c #C8C3B7",
"5. c #C8C9B7",
"6. c #CBC5BB",
"7. c #CCCBBB",
"8. c #D0C4BF",
"9. c #D0CEBE",
"0. c #C2C1C1",
"q. c #CBC3C2",
"w. c #CDCDC5",
"e. c #CECECE",
"r. c #D0CCC4",
"t. c #D8CFC7",
"y. c #DBCCCA",
"u. c #D3D3CC",
"i. c #DBD2CB",
"p. c #DCD9CB",
"a. c #D3D3D3",
"s. c #DAD6D1",
"d. c #DCDCD4",
"f. c #DEDDDB",
"g. c #E0D2CF",
"h. c #E3D4D3",
"j. c #E4D8D3",
"k. c #E8D9D7",
"l. c #E3DDDB",
"z. c #EDDCDC",
"x. c #EEDDDD",
"c. c #E2E1D9",
"v. c #E0E0DF",
"b. c #EBE3DF",
"n. c #E3E2E3",
"m. c #E4E0E0",
"M. c #E7E7E0",
"N. c #E5E5E5",
"B. c #EFE3E3",
"V. c #EDEDEA",
"C. c #EFEFEF",
"Z. c #F1E2E2",
"A. c #F1E4E4",
"S. c #F3EBEB",
"D. c #F7EEEE",
"F. c #F9EFEE",
"G. c #F1F1EF",
"H. c #F7EFF0",
"J. c #F3F3F2",
"K. c #F5F4F2",
"L. c gray97",
"P. c #F9F8F7",
"I. c #F9F9F8",
"U. c #FCFBFB",
"Y. c gray99",
/* pixels */
"{ { { { { { { { { { { { { { { { { { { { { { { { { { { { { { { { { { { { { { { { { { { { { { { { { { { { { { { { { { { { { { { { ",
"{ { { { { { { { { { { { { { { { { { { { { { { { { { { { { { { { { { { { { { { { { { { { { { { { { { { { { { { { { { { { { { { { ",
"{ { { { { { { { { { { { { { { { { { { { { { { { { { { { { { { { { { { { { { { { { { { { { { { { { { { { { { { { { { { { { { { { ",
"{ { { { { { { { { { { { { { { { { { { { { { { { { { { W T W W { { { { { { { { { { { { { { { { { { { { { { { { { { { { { { { { { ",
"{ { { { { { { { { { { { { { { { { { { { { { { { { { Z p p p p k x x x x x x x W { { { { { { { { { { { { { { { { { { { { { { { { ",
"{ { { { { { { { { { { { { { { { { { { { { { { { W k E e.v.n.a.W p n K K H H A p y D W { { { { { { { { { { { { { { { { { { { { { ",
"{ { { { { { { { { { { { { { { { { { { { { { { W k W -.| w.V.L.I.N.<.s.c.p.p.p.$.^ e p S { { { { { { { { { { { { { { { { { { { { ",
"{ { { { { { { { { { { { { { { { { { { { { { { k q S d d P &.M.Y.Y.L.s.$.] &.2.4.9.,.I d Z { { { { { { { { { { { { { { { { { { { ",
"{ { { { { { { { { { { { { { { { { { { { { { W y x a.n.l.h.y.,.c.K.Y.P.r.[ [ ` / R ^ %.^ d Z { { { { { { { { { { { { { { { { { { ",
"{ { { { { { { { { { { { { { { { { { { { { { S W C.I.I.I.S.x.y.@.,.l.l.B.6.X.%.,.@._ K F L d n { { { { { { { { { { { { { { { { { ",
"{ { { { { { { { { { { { { { { { { { { { D k S J.G.V.V.G.U.S.b.7.@.] &.A.x.6.[ &.9.7.` n v F e x p p W { { { { { { { { { { { { { ",
"{ { { { { { { { { { { { { { { { { { { k x p  .u.w.w.w.w.u.u.r.&.5.3.6.h.x.x.6.| ` _ &.+.L p d q f 7 Z { { { { { { { { { { { { { ",
"{ { { { { { { { { { { { { { { { { W k *.N.N.C.V.G.K.K.C.f.d.d.s.-.@.] ' 8.i.7.3.@.` P n m K K G G v y W { { { { { { { { { { { { ",
"{ { { { { { { { { { { { { { { { { k { J.I.I.Y.Y.Y.Y.Y.Y.I.D.Z.Z.B.B.B.r.o.X.,.7.7.7.3.} ..+.X.L G F 7 A { { { { { { { { { { { { ",
"{ { { { { { { { { { { { { { { { W k a.I.Y.Y.Y.Y.Y.Y.Y.Y.H.x.x.x.x.x.x.x.t.X.' ' ' 4.4.+.+...! F f 3 y W { { { { { { { { { { { { ",
"{ { { { { { { { { { { { { { { { Z { J.c.d.d.d.d.d.d.b.F.A.x.x.x.x.x.x.x.r.,.X.Y n A n n n n l d k q k { { { { { { { { { { { { { ",
"{ { { { { { { { { { { { { { { W k ;.-.S P E E E E R ` %.&.%.%.6.j.h.h.h.7.7.4.>.' A m m d v K A F l y { { { { { { { { { { { { { ",
"{ { { { { { { { { { { { { { { D i / n n &.3.3.@.` E Z k x x n S ` / / %.&.5.7.7.7.o.( ( ! F F v M m 8 T { { { { { { { { { { { { ",
"{ { { { { { { { { { { { { { { T r A m n } O.*.*.6.6.} ..q.%.4.&...( / K K I } 4.5.4.+.+.+.+.! d d v 4 Z { { { { { { { { { { { { ",
"{ { { { { { { { { { { { { { { { x e R q.f.B.B.B.Z.x.h.h.x.x.j.i.7.7.,.%.L n d 1 - * ; A +.+...L l y q W { { { { { { { { { { { { ",
"{ { { { { { { { { { { { { { { W p A m.A.x.x.x.x.x.x.x.x.x.x.x.r.B g g u ; * 9 k k 7   7 L ..) L L e q { { { { { { { { { { { { { ",
"{ { { { { { { { { { { { { { { { x 0.x.x.x.x.x.x.x.x.x.x.x.x.y.3 X * > y *.0.C.Y.I.W   w f m ! G L f e { { { { { { { { { { { { { ",
"{ { { { { { { { { { { { { { { { x *.B.x.x.x.x.x.x.x.x.x.x.x.h.d   p f.L.Y.Y.Y.I.;.+ @ F L v f m G m 8 T { { { { { { { { { { { { ",
"{ { { { { { { { { { { { { { { { D z i.x.x.x.x.x.x.j.h.i.y.j.j.%.: O y ;.e.e.e.W * X 8 ..) Z k d m G 4 Z { { { { { { { { { { { { ",
"{ { { { { { { { { { { { { { { { T u ,.k.x.x.g.6.6.} E E / R R R n 7 @ $ $ $ @ X X , ! X.( G n k d m 4 Z { { { { { { { { { { { { ",
"{ { { { { { { { { { { { { { { { { Z i 6.i.| R A P ' o.%.%.' / ^ ^ ' ^ u , : ; 2 t f v v F G G x k 7 , Z { { { { { { { { { { { { ",
"{ { { { { { { { { { { { { { { { { { q H ^ l L ..,.5.7.7.7.7.7.7.5.>.>.>.:.+...( Q L n l d d v L u $ u W { { { { { { { { { { { { ",
"{ { { { { { { { { { { { { { { { { { S e e G ..+.>.,.4.&.3.%.! m F M M M M G ......( L G A n d 7 7 A W { { { { { { { { { { { { { ",
"{ { { { { { { { { { { { { { { { { T e e q K +.+.( R l 7 a v m F G m c c c f f f f d v m m F d > D { { { { { { { { { { { { { { { ",
"{ { { { { { { { { { { { W D { { W y } <.u u F K n , } 1.4 m L G F f L L L L R K m m n u 8 q e D { { { { { { { { { { { { { { { { ",
"{ { { { { { { { { { { W k d Z W Z d +.1.l Z p 8 m 4 1.+.d 8 G ~ d d v +.X.( ( Q L v 3 , > k W { { { { { { { { { { { { { { { { { ",
"{ { { { { { { { { { { p A q.l Z k m 1.! p W W Z 7 1 n y.L 3 ..v m q.n a L v f t % > q u k 7 S { { { { { { { { { { { { { { { { { ",
"{ { { { { { { { { { { k a ( y.d u m X.l x W { { W q e X.G w 8 n y.Q 7 & 6 % O o < R ' F x e p { { { { { { { { { { { { { { { { { ",
"{ { { { { { { { { { { W 1 m ~ ~ ! ..G u p d W W x d u m ) ! F ~ ..f . o # < 5 j ` ' u G l a 7 W { { { { { { { { { { { { { { { { ",
"{ { { { { { { { { { { { D u G L ~ ( +.>.=.O.7 7 / 1.+.>.( ( ~ L A : i N I $.H 8 - 3 a f M F 3 Z { { { { { { { { { { { { { { { { ",
"{ { { { { { { { { { { { { Z 7 ! ....( ( f l g g s a ! ..( X...G 3 U _ %.V 7 @ ; 7 , C L ! G w e W { { { { { { { { { { { { { { { ",
"{ { { { { { { { { { { { { D : m F ! ! h t j ^ n , : u ! ! F C m , A 8 4 e * 1 9 D 7 ' %.' m c = D { { { { { { { { { { { { { { { ",
"{ { { { { { { { { { { { { { x : , 3 4 8 < 6 , u p k x 4 3 , : 3 g 8 k S x 7 7 k { x b 6.%.! v - T { { { { { { { { { { { { { { { ",
"{ { { { { { { { { { { { { { { D Z Z S T A Z D { W { { D > : @ 5 @.l x x 7 8 q W { A g 4.&.E m : T { { { { { { { { { { { { { { { ",
"{ { { { { { { { { { { { { { { { { { { { { { { { { { { W 1 4 , x e 8 > = , q W { { W u I ' R v ; T { { { { { { { { { { { { { { { ",
"{ { { { { { { { { { { { { { { { { { { { { { { { { { { Z 7 7 y { S Z y 7 y W { { { W i @.4.' F : T { { { { { { { { { { { { { { { ",
"{ { { { { { { { { { { { { { { { { { { { { { { { { { { x 8 9 p { { { W W { { { { { W i ] 3.' m ; K { { { { { { { { { { { { { { { ",
"{ { { { { { { { { { { { { { { { { { { { { { { { { { W p u 8 Z { { { { { { { { { { W i ' %.! R > T { { { { { { { { { { { { { { { ",
"{ { { { { { { { { { { { { { { { { { { { { { { { { { T 3 f 7 W { { { { { { { { { { T g 4.8.! l = K { { { { { { { { { { { { { { { ",
"{ { { { { { { { { { { { { { { { { { { { { { { { { { x e u p { { { { { { { { { { { B i #.' L m > T { { { { { { { { { { { { { { { ",
"{ { { { { { { { { { { { { { { { { { { { { { { { { { x 4 ; Z { { { { { { { { { { { Z i @.' Q d d { { { { { { { { { { { { { { { { ",
"{ { { { { { { { { { { { { { { { { { { { { { { { { { W x p W { { { { { { { { { { T y ] 4.R v 4 x { { { { { { { { { { { { { { { { ",
"{ { { { { { { { { { { { { { { { { { { { { { { { { { { { { { { { { { { { { { W x 9 r 4.%.A f 3 T { { { { { { { { { { { { { { { { ",
"{ { { { { { { { { { { { { { { { { { { { { { { { { { { { { { { { { { { { { Z r g B b U $.J v 8 W { { { { { { { { { { { { { { { { ",
"{ { { { { { { { { { { { { { { { { { { { { { { { { { { { { { { { { { { { S g V ^ F w 7 3.X.m 8 W { { { { { { { { { { { { { { { { ",
"{ { { { { { { { { { { { { { { { { { { { { { { { { { { { { { { { { { { Z g @.m w 3 7 x l ` v 7 T { { { { { { { { { { { { { { { { ",
"{ { { { { { { { { { { { { { { { { { { { { { { { { { { { { { { { { { Z g _ A 0 7 Z { { q z ' a d { { { { { { { { { { { { { { { { ",
"{ { { { { { { { { { { { { { { { { { { { { { { { { { { { { { { { { T 5 U A q Z W { { { T g V m w x { { { { { { { { { { { { { { { ",
"{ { { { { { { { { { { { { { { { { { { { { { { { { { { { { { { { { k j m e D { { { { { { T y u m e x W { { { { { { { { { { { { { ",
"{ { { { { { { { { { { { { { { { { { { { { { { { { { { { { { { W D r h 3 Z { { { { { { { { T 9 , w 8 q k S { { { { { { { { { { { ",
"{ { { { { { { { { { { { { { { { { { { { { { { { { { { { { { W k i b f 9 W { { { { { { { { { { Z q , H m 8 T { { { { { { { { { { ",
"{ { { { { { { { { { { { { { { { { { { { { { { { { { { { { { p h ( m , Z { { { { { { { { { { { W q l v l e W { { { { { { { { { { ",
"{ { { { { { { { { { { { { { { { { { { { { { { { { { { { { W y > 3 1 Z { { { { { { { { { { { { W 1 5 > 8 T { { { { { { { { { { { ",
"{ { { { { { { { { { { { { { { { { { { { { { { { { { { { { { { { { { { { { { { { { { { { { { { { { { { { { { { { { { { { { { { { ",
"{ { { { { { { { { { { { { { { { { { { { { { { { { { { { { { { { { { { { { { { { { { { { { { { { { { { { { { { { { { { { { { { { ",
"{ { { { { { { { { { { { { { { { { { { { { { { { { { { { { { { { { { { { { { { { { { { { { { { { { { { { { { { { { { { { { { { { ",
"{ { { { { { { { { { { { { { { { { { { { { { { { { { { { { { { { { { { { { { { { { { { { { { { { { { { { { { { { { { { { { { { { ",
"{ { { { { { { { { { { { { { { { { { { { { { { { { { { { { { { { { { { { { { { { { { { { { { { { { { { { { { { { { { { { { { { { ",
"{ { { { { { { { { { { { { { { { { { { { { { { { { { { { { { { { { { { { { { { { { { { { { { { { { { { { { { { { { { { { { { { { "
};
