/* XPM */
static char *a8174a7f87ff4734e0df50178916cdf1xeO7uT7rddKVMkjB[] = {
/* columns rows colors chars-per-pixel */
"64 64 244 2 ",
"   c #0F0A18",
".  c #170F1A",
"X  c #1C1214",
"o  c #16101A",
"O  c #1B131C",
"+  c #270F13",
"@  c #22131D",
"#  c #281818",
"$  c #2B1A1C",
"%  c #32191B",
"&  c #362B1E",
"*  c #1C1423",
"=  c #1A1329",
"-  c #1C1737",
";  c #221523",
":  c #251627",
">  c #251A23",
",  c #2B1B23",
"<  c #251C2C",
"1  c #2B1D2B",
"2  c #361C26",
"3  c #241A34",
"4  c #341D34",
"5  c #1E2021",
"6  c #2B2926",
"7  c #2D222B",
"8  c #382926",
"9  c #34242C",
"0  c #3E312A",
"q  c #2B2533",
"w  c #26233D",
"e  c #2A2738",
"r  c #332434",
"t  c #332C33",
"y  c #3A2D34",
"u  c #37293A",
"i  c #3A3538",
"p  c #3B323C",
"a  c #402F28",
"s  c #45322C",
"d  c #4D3335",
"f  c #453638",
"g  c #453D3A",
"h  c #4B3C3D",
"j  c #6F322C",
"k  c #514A29",
"l  c #45413D",
"z  c #4C453C",
"x  c #5C4539",
"c  c #664933",
"v  c #6A6031",
"b  c #1B1743",
"n  c #1F1C53",
"m  c #241B44",
"M  c #221D4C",
"N  c #271F57",
"B  c #2B2547",
"V  c #342A45",
"C  c #2E3045",
"Z  c #3C3243",
"A  c #373349",
"S  c #2E2657",
"D  c #36295A",
"F  c #383454",
"G  c #281C62",
"H  c #1E2060",
"J  c #25296C",
"K  c #2F2C6E",
"L  c #372A69",
"P  c #3C3868",
"I  c #2D2977",
"U  c #393377",
"Y  c #433C44",
"T  c #453948",
"R  c #463957",
"E  c #4E3955",
"W  c #453B65",
"Q  c #423C75",
"!  c #3F4268",
"~  c #4B4646",
"^  c #5E4C44",
"/  c #564848",
"(  c #544A4C",
")  c #5D544C",
"_  c #4A4759",
"`  c #544B53",
"'  c #564A55",
"]  c #5B5658",
"[  c #5C555C",
"{  c #634843",
"}  c #65554B",
"|  c #655557",
" . c #645A5C",
".. c #7A644E",
"X. c #6B6259",
"o. c #76665A",
"O. c #494565",
"+. c #544867",
"@. c #585668",
"#. c #45437A",
"$. c #544274",
"%. c #585577",
"&. c #6E5465",
"*. c #665A64",
"=. c #635975",
"-. c #696367",
";. c #75686A",
":. c #7C736B",
">. c #686578",
",. c #786B76",
"<. c #787675",
"1. c #855950",
"2. c #8A685B",
"3. c #807953",
"4. c #824A6B",
"5. c #816267",
"6. c #887869",
"7. c #847A7A",
"8. c #A97F6B",
"9. c #978F58",
"0. c #8A827A",
"q. c #95857A",
"w. c #A9826C",
"e. c #D08E75",
"r. c #E0957D",
"t. c #372984",
"y. c #36318D",
"u. c #3F3BAA",
"i. c #453B89",
"p. c #453796",
"a. c #443CAF",
"s. c #4A4989",
"d. c #54498F",
"f. c #565788",
"g. c #4C4E93",
"h. c #555A9B",
"j. c #745F84",
"k. c #675B95",
"l. c #5F6585",
"z. c #756A8A",
"x. c #716E8B",
"c. c #696B9D",
"v. c #74779B",
"b. c #4747A9",
"n. c #5351AE",
"m. c #484ABA",
"M. c #5C5BBD",
"N. c #615CAD",
"B. c #675EB3",
"V. c #5B77B3",
"C. c #6567A5",
"Z. c #6E72AC",
"A. c #6A6AB7",
"S. c #7878B5",
"D. c #4B55C7",
"F. c #5855C6",
"G. c #4A4BD9",
"H. c #4D52D3",
"J. c #655BD0",
"K. c #5B67C6",
"L. c #5769DF",
"P. c #6766C8",
"I. c #6263DC",
"U. c #6E79D2",
"Y. c #5864EB",
"T. c #7A7BE5",
"R. c #6E69F4",
"E. c #837B86",
"W. c #817A97",
"Q. c #807CAD",
"!. c #6F83BA",
"~. c #7E90DB",
"^. c #7291EA",
"/. c #858383",
"(. c #8A8585",
"). c #8D8A8B",
"_. c #948985",
"`. c #94908C",
"'. c #8C8897",
"]. c #938A97",
"[. c #969594",
"{. c #999595",
"}. c #9C9995",
"|. c #94949C",
" X c #9C9B9B",
".X c #A79386",
"XX c #BB9889",
"oX c #A5979B",
"OX c #A19D9C",
"+X c #A1A09F",
"@X c #A8A09D",
"#X c #B9A99C",
"$X c #8887A6",
"%X c #958DA4",
"&X c #9E9EA3",
"*X c #9898A9",
"=X c #8589B7",
"-X c #8E91BA",
";X c #9698B3",
":X c #9C9CB4",
">X c #AC99A9",
",X c #9DA2A9",
"<X c #9EA2B5",
"1X c #A6A6A6",
"2X c #AAA7A4",
"3X c #AEA8A3",
"4X c #A4A4A9",
"5X c #ABA9AD",
"6X c #B4AAA6",
"7X c #BAADA3",
"8X c #A6A8B5",
"9X c #B1A8B3",
"0X c #B3B2BD",
"qX c #C39B88",
"wX c #D4908C",
"eX c #EE9C84",
"rX c #C9AB97",
"tX c #D2A995",
"yX c #CEB39C",
"uX c #D6B499",
"iX c #E7B09B",
"pX c #C8B5A8",
"aX c #D4B8A6",
"sX c #D3B1B0",
"dX c #E1BEA3",
"fX c #DFC99F",
"gX c #F1C39E",
"hX c #8D90C9",
"jX c #8E93CF",
"kX c #8899D8",
"lX c #98AAD5",
"zX c #B9BBCB",
"xX c #ACB4DD",
"cX c #8395E4",
"vX c #949AE6",
"bX c #91A6E8",
"nX c #9AB4ED",
"mX c #A9B5E8",
"MX c #B4BDE9",
"NX c #A9C6F4",
"BX c #B6D2F2",
"VX c #C3CACA",
"CX c #C4D7EA",
"ZX c #C0CCF6",
/* pixels */
"1X1X1X1X1X1X1X1X1X1X1X1X1X1X1X1X1X1X1X1X1X1X1X1X1X1X1X1X1X1X1X1X1X1X1X1X1X1X1X1X1X1X1X1X1X1X1X1X1X1X1X1X1X1X1X1X1X1X1X1X1X1X1X1X",
"1X1X1X1X1X1X1X1X1X1X1X1X1X1X1X1X1X1X1X1X1X1X1X1X1X1X1X1X1X1X1X1X1X1X1X1X1X1X1X1X1X1X1X1X1X1X1X1X1X1X1X1X1X1X1X1X1X1X1X1X1X1X1X1X",
"1X1X1X1X1X1X1X1X1X1X1X1X1X1X1X1X1X1X1X1X1X1X1X1X1X1X1X1X1X1X1X1X1X1X1X1X1X1X1X1X1X1X1X1X1X1X1X1X1X1X1X1X1X1X1X1X1X1X1X1X1X1X1X1X",
"1X1X1X1X1X1X1X1X1X1X1X1X1X1X1X1X1X1X1X1X1X1X1X1X1X1X1X1X1X1X1X1X1X1X1X1X1X1X1X1X1X1X1X1X1X1X1X1X1X1X1X1X1X1X1X1X1X1X1X1X1X1X1X1X",
"1X1X1X1X1X1X1X1X1X1X1X1X1X1X1X1X1X1X1X1X1X1X1X1X1X1X1X1X1X1X1X1X1X1X1X1X1X1X1X1X1X1X1X1X1X1X1X1X1X1X1X1X1X1X1X1X1X1X1X1X1X1X1X1X",
"1X1X1X1X1X1X1X1X1X1X1X1X1X1X1X1X1X1X1X1X1X1X1X1X1X1X1X1X1X1X1X1X1X1X1X1X1X1X|.1X1X1X1X1X1X1X1X1X1X1X1X1X1X1X1X1X1X1X1X1X1X1X1X1X",
"1X1X1X1X1X1X1X1X1X1X1X1X1X1X1X1X1X1X1X1X1X1X1X1X1X1X1X1X1X1X1X3X1X1X1X1X1X1X7.4X1X1X1X1X1X1X1X1X1X1X1X1X1X1X1X1X1X1X1X1X1X1X1X1X",
"1X1X1X1X1X1X1X1X1X1X1X1X1X1X1X1X1X1X1X1X1X1X1X1X1X1X#XpX2X3X#XdX2X1X1X1X1X1X_.&.E.4X1X1X1X1X1X1X1X1X1X1X1X1X1X1X1X1X1X1X1X1X1X1X",
"1X1X1X1X1X1X1X1X1X1X1X1X1X1X1X1X1X1X1X1X1X1X1X1X1X6XgXgXrXaXXXgX7X1X1X1X1X1X1Xd ,.%.zX1X1X1X1X1X1X1X1X1X1X1X1X1X1X1X1X1X1X1X1X1X",
"1X1X1X1X1X1X1X1X1X1X1X1X1X1X1X1X1X1X1X1X1X1X1X1X1X#XeXsXXXrX%.rXdXaX1X1X2XrXpX| $.) F =X&X1X1X1X1X1X1X1X1X1X1X1X1X1X1X1X1X1X1X1X",
"1X1X1X1X1X1X1X1X1X1X1X1X1X1X1X1X1X1X1X1X1X1X1X1X1X.X4.C.,.c.n.%XwX>X].1X1Xe.sX;.L &X9 M $X1X1X1X1X1X1X1X1X1X1X1X1X1X1X1X1X1X1X1X",
"1X1X1X1X1X1X1X1X1X1X1X1X1X1X1X1X1X1X1X1X1X1X1X1X1X7.U s.g.m.K.A.$.xX+.0X1X&.>X' = [  .< ,X1X1X1X1X1X1X1X1X1X1X1X1X1X1X1X1X1X1X1X",
"1X1X1X1X1X1X1X1X1X1X1X1X1X1X1X1X1X1X1X1X1X1X1X1X1X| S W m.p.m.I.i.k.=.+.*X_ _ > m R =.>.1X1X1X1X1X1X1X1X1X1X1X1X1X1X1X1X1X1X1X1X",
"1X1X1X1X1X1X1X1X1X1X1X1X1X1X1X1X1X1X1X1X1X1X1X1X].2 2 2 B K L p.J.W jXW A ~ f > m 7 A :X;X1X1X1X1X1X1X1X1X1X1X1X1X1X1X1X1X1X1X1X",
"1X1X1X1X1X1X1X1X1X1X1X1X1X1X1X1X1X1X1X1X1X1X1X1X-.2 % : 3 G L p.R.d.d.vXF t y O - O 7 : C.4X1X1X1X1X1X1X1X1X1X1X1X1X1X1X1X1X1X1X",
"1X1X1X1X1X1X1X1X1X1X1X1X1X1X1X1X1X1X1X1X1X1X1X1X*.8 Y : 3 H.a.p.a.D r T.U.* > X * o > p ,X1X1X1X1X1X1X1X1X1X1X1X1X1X1X1X1X1X1X1X",
"1X1X1X1X1X1X1X1X1X1X1X1X1X1X1X1X1X1X1X1X1X1X1X Xu T r O : D.G.t.N - : N.T.B * O . . q |.1X1X1X1X1X1X1X1X1X1X1X1X1X1X1X1X1X1X1X1X",
"1X1X1X1X1X1X1X1X1X1X1X1X1X1X1X1X1X1X1X1X1X1X1X;.$ / y @ , ] s.p.I - : n.M.P * @ * @ f.1X1X1X1X1X1X1X1X1X1X1X1X1X1X1X1X1X1X1X1X1X",
"1X1X1X1X1X1X1X1X1X1X1X1X1X1X1X1X1X1X1X1X@.|.{., a 9.v X & fX3.b.I : ; L T &.' X @ b kX4X1X1X1X1X1X1X1X1X1X1X1X1X1X1X1X1X1X1X1X1X",
"1X1X1X1X1X1X1X1X1X1X1X1X1X1X1X1X1X1X1X1X).C ' ; a 9.c @ , k i G.N = L A.3XtXj.X O K ^.V.v.1X1X1X1X1X1X1X1X1X1X1X1X1X1X1X1X1X1X1X",
"1X1X1X1X1X1X1X1X1X1X1X1X1X1X3X1XrXrX2X X<.= B 3 , % 8 @ * = - J D c | mX7XiXd.t.; J V.NXlX6X3X1X1X3X1X1X1X1X1X1X1X1X1X1X1X1X1X1X",
"1X1X1X1X1X1X1X1X1X1X1X1X1X2XtX#X .OXrX2.q P S = = # $ @ = y.S F 2 c ,.vX6XwXn.G.n.3 O 3 ! qXaX1X1XyX7X1X7X1X1X1X1X1X1X1X1X1X1X1X",
"1X1X1X1X1X1X1X1X1X1X1X1X1XyXw.T e ).'.;.; c.hXf.3 5 [ $ > #.u g.# s +.NX:XXXF.Y.L.A.T 3 * ( pX3X1X6X'.5XaX6X1X1X1X1X1X1X1X1X1X1X",
"1X1X1X1X1X1X1X1X1X1X1X1X3X.Xf q < < G b , R _ -XB 6 <.[. X1Xl l.$ s &.BX].r.B.^.cXP.&X_ e t qXaX1X'.O.kXW.aX#X1X1X1X1X1X1X1X1X1X",
"1X1X1X1X1X1X1X1X1X1X1X1XuX| A q q O 3 O + R -.-.Z 6 /.1X1X1X[.@.9 9 T cXoXe.z.^.BXF.1X4X>.t { pX,.A w U.C.9XuX6X1X1X1X1X1X1X1X1X",
"1X1X1X1X1X1X1X1X1X1X1XXX8.9 A e C ; =._.j '.1X Xi ;. X[ f.c.'.!.Z , u #.W.1.+.~.bXI.1X1X1XT B 2.XXZ q S Z.kXoX1X1X1X1X1X1X1X1X1X",
"1X1X1X1X1X1X1X1X1X1X1X.Xs A u F U 3 4 .X5.0X1X.X%.&XR 1 D b.@.Z 7 ; y Y ' c T b.U.F.1X1X1X1X|..XtXh > u b.U.S.5X1X1X1X1X1X1X1X1X",
"1X1X1X1X1X1X1X1X1X1X1Xq.8 C A L p.3 E j.5.9X1X1X@X@.3 m > W >.( 0 , g g F { ( m.H.A.1X1X1X1X1X1Xq.( O 1 L Q bXzX1X1X1X1X1X1X1X1X",
"1X1X1X1X1X1X1X1X1X1X1X6.t w L.b.t.3 O.k.W.5X1X1X` w M m 1.#X1X(.8 , s y V ^ ' g.^.F.A.4X1X1X1X1X` B < 2 r E nXMX1X1X1X1X1X1X1X1X",
"1X1X1X1X1X1X1X1X1X1X1Xo.f t y.a.Q ,.+.2 B.4X).p - M n b P 1X1X1Xs , , V 1 x / h.NXP.i.f.4X1X1X1X~ L  X] d ^ =XZX5X1X1X1X1X1X1X1X",
"1X1X1X1X1X1X1X1X1X1XOX} ~ Z n.f.&X1X,./ D M.< M = b = H m.&X1X] $ $ 7 , : d / c.CXM.1 U S.1X1X1XT k.1X).x ..,.MXVX1X1X1X1X1X1X1X",
"1X1X1X1X1X1X1X1X1X1X6.} z f.cX4X1X1X7.7.1 K N < * o   = m.1X X6 X # # > : s / c.CXp.Y r m.$X1X1XY C.1X1Xo...o.jXCX1X1X1X1X1X1X1X",
"1X1X1X1X1X1X1X1X1XOXX.) l Z.:X1X1X1X1X X( r r , B : - o b.4X` * R (.8 # X 8 { f.BXQ.,.r R H.v.1XY C.1X1X{...o.$XZX1X1X1X1X1X1X1X",
"1X1X1X1X1X1X1X1X1Xq.X.z i v.1X1X1X1X1X1X[.d f > D B - B I '., : c.1X).( X ( { %.BX4X1X` f Q G.C.O.P.1X1X1X6...W.mX0X1X1X1X1X1X1X",
"1X1X1X1X1X1X1X1X+Xo.] l l  X1X1X1X1X1X1X1X{.,.,.g p d.x.J O., m $X1X1X1X XOXx O.BX4X1X<.p p i.u.u.P.1X1X1X}...,.lXzX1X1X1X1X1X1X",
"1X1X1X1X1X1X1X1X0.} l i /.1X1X1X1X1X1X1X1X1X1X1X/ +.S. Xw 7 , I $X1X1X1X1X1X} O.NX8X1X1XY y T t.y.A.1X1X1X1X7.X.=XxX1X1X1X1X1X1X",
"1X1X1X1X1X1X1X1Xo.] i ] 1X1X1X1X1X1X1X1X1X1X1X1X/ l.-X1Xp 1 > t.$X1X1X1X1X1Xo.R NX<X1X1X(.9 y m L $X1X1X1X1X1X..z.jX1X1X1X1X1X1X",
"1X1X1X1X1X1X1X`. .%.l  X1X1X1X1X1X1X1X1X1X1X1X1X~ C.:X1XY 7 ; y.*X1X1X1X1X1X:.T nX8X1X1X1X[.-.] [ 1X1X1X1X1X1X0.*.=X4X1X1X1X1X1X",
"1X1X1X1X1X1X1X:.l.%.<.1X1X1X1X1X1X1X1X1X1X1X1X1Xz S.4X1X[ , 1 S.1X1X1X1X1X1X7.T kX8X1X1X1X1X1X1X1X1X1X1X1X1X1X{.{ v.:X1X1X1X1X1X",
"1X1X1X1X1X1X1XX.C.@.1X1X1X1X1X1X1X1X1X1X1X1X1X1X~ kX1X1X XR >.1X1X1X1X1X1X1X/.f !.<X1X1X1X1X1X1X1X1X1X1X1X1X1X1X} @.-X1X1X1X1X1X",
"1X1X1X1X1X1X).[ +.<.1X1X1X1X1X1X1X1X1X1X1X1X1X+X_ jX1X1X1X1X1X1X1X1X1X1X1X1X`.h h.:X1X1X1X1X1X1X1X1X1X1X1X1X1X1X7.) $X1X1X1X1X1X",
"1X1X1X1X1X1X:.` ~ 1X1X1X1X1X1X1X1X1X1X1X1X1X1X X_ hX1X1X1X1X1X1X1X1X1X1X1X1X Xh s.;X1X1X1X1X1X1X1X1X1X1X1X1X1X1X_.^ v.1X1X1X1X1X",
"1X1X1X1X1X1X) i <.1X1X1X1X1X1X1X1X1X1X1X1X1X1X{._ -X1X1X1X1X1X1X1X1X1X1X1X1X1X/ #.;X1X1X1X1X1X1X1X1X1X1X1X1X1X1X[.x x.1X1X1X1X1X",
"1X1X1X1X1X).~ g 1X1X1X1X1X1X1X1X1X1X1X1X1X1X1X[._ *X1X1X1X1X1X1X1X1X1X1X1X1X1X .P =X1X1X1X1X1X1X1X1X1X1X1X1X1X1X+Xx *.1X1X1X1X1X",
"1X1X1X1X1X<.g ] 1X1X1X1X1X1X1X1X1X1X1X1X1X1X1X[._ *X1X1X1X1X1X1X1X1X1X1X1X1X1X;.P =X1X1X1X1X1X1X1X1X1X1X1X1X1X1X1X^ ( 4X1X1X1X1X",
"1X1X1X1X1X| 8 /.1X1X1X1X1X1X1X1X1X1X1X1X1X1X1X[._ &X1X1X1X1X1X1X1X1X1X1X1X1X1X<.F S.1X1X1X1X1X1X1X1X1X1X1X1X1X1X1Xo.h &X1X1X1X1X",
"1X1X1X1X Xg p 1X1X1X1X1X1X1X1X1X1X1X1X1X1X1X1X[._ ,X1X1X1X1X1X1X1X1X1X1X1X1X1X7.Z A.1X1X1X1X1X1X1X1X1X1X1X1X1X1X1X7.s |.1X1X1X1X",
"1X1X1X1X0.i >.1X1X1X1X1X1X1X1X1X1X1X1X1X1X1X1X[.O.4X1X1X1X1X1X1X1X1X1X1X1X1X1X).p N.1X1X1X1X1X1X1X1X1X1X1X1X1X1X1X(.0 '.1X1X1X1X",
"1X1X1X1X-.R ].1X1X1X1X1X1X1X1X1X1X1X1X1X1X1X1X[.+.1X1X1X1X1X1X1X1X1X1X1X1X1X1X Xy h.1X1X1X1X1X1X1X1X1X1X1X1X1X1X1X`.0 ).1X1X1X1X",
"1X1X1X1X( =.1X1X1X1X1X1X1X1X1X1X1X1X1X1X1X1X1X[.+.1X1X1X1X1X1X1X1X1X1X1X1X1X1X1Xg s.1X1X1X1X1X1X1X1X1X1X1X1X1X1X1X{.0 (.1X1X1X1X",
"1X1X1X X_ '.1X1X1X1X1X1X1X1X1X1X1X1X1X1X1X1X1X X_ 1X1X1X1X1X1X1X1X1X1X1X1X1X1X1X) #.1X1X1X1X1X1X1X1X1X1X1X1X1X1X1X+X0 /.1X1X1X1X",
"1X1X1X7.%.*X1X1X1X1X1X1X1X1X1X1X1X1X1X1X1X1X1X X_ 1X1X1X1X1X1X1X1X1X1X1X1X1X1X1X-.P 1X1X1X1X1X1X1X1X1X1X1X1X1X1X1X1Xs E.1X1X1X1X",
"1X1X1X-.v.4X1X1X1X1X1X1X1X1X1X1X1X1X1X1X1X1X1X X` 1X1X1X1X1X1X1X1X1X1X1X1X1X1X1X<.F |.1X1X1X1X1X1X1X1X1X1X1X1X1X1X1X/ <.1X1X1X1X",
"1X1X1X*.$X1X1X1X1X1X1X1X1X1X1X1X1X1X1X1X1X1X1XOX` 1X1X1X1X1X1X1X1X1X1X1X1X1X1X1X7.A '.1X1X1X1X1X1X1X1X1X1X1X1X1X1X1X).[.1X1X1X1X",
"1X1X1X=.*X1X1X1X1X1X1X1X1X1X1X1X1X1X1X1X1X1X1X1X,.1X1X1X1X1X1X1X1X1X1X1X1X1X1X1X).Z W.1X1X1X1X1X1X1X1X1X1X1X1X1X1X1X1X1X1X1X1X1X",
"1X1X1X%.&X1X1X1X1X1X1X1X1X1X1X1X1X1X1X1X1X1X1X1X1X1X1X1X1X1X1X1X1X1X1X1X1X1X1X1X Xy x.1X1X1X1X1X1X1X1X1X1X1X1X1X1X1X1X1X1X1X1X1X",
"1X1X/.=.1X1X1X1X1X1X1X1X1X1X1X1X1X1X1X1X1X1X1X1X1X1X1X1X1X1X1X1X1X1X1X1X1X1X1X1X1Xi >.1X1X1X1X1X1X1X1X1X1X1X1X1X1X1X1X1X1X1X1X1X",
"1X1X)./.1X1X1X1X1X1X1X1X1X1X1X1X1X1X1X1X1X1X1X1X1X1X1X1X1X1X1X1X1X1X1X1X1X1X1X1X1X( @.1X1X1X1X1X1X1X1X1X1X1X1X1X1X1X1X1X1X1X1X1X",
"1X1X1X1X1X1X1X1X1X1X1X1X1X1X1X1X1X1X1X1X1X1X1X1X1X1X1X1X1X1X1X1X1X1X1X1X1X1X1X1X1X .~ 1X1X1X1X1X1X1X1X1X1X1X1X1X1X1X1X1X1X1X1X1X",
"1X1X1X1X1X1X1X1X1X1X1X1X1X1X1X1X1X1X1X1X1X1X1X1X1X1X1X1X1X1X1X1X1X1X1X1X1X1X1X1X1X<.Y 1X1X1X1X1X1X1X1X1X1X1X1X1X1X1X1X1X1X1X1X1X",
"1X1X1X1X1X1X1X1X1X1X1X1X1X1X1X1X1X1X1X1X1X1X1X1X1X1X1X1X1X1X1X1X1X1X1X1X1X1X1X1X1X1X1X1X1X1X1X1X1X1X1X1X1X1X1X1X1X1X1X1X1X1X1X1X",
"1X1X1X1X1X1X1X1X1X1X1X1X1X1X1X1X1X1X1X1X1X1X1X1X1X1X1X1X1X1X1X1X1X1X1X1X1X1X1X1X1X1X1X1X1X1X1X1X1X1X1X1X1X1X1X1X1X1X1X1X1X1X1X1X",
"1X1X1X1X1X1X1X1X1X1X1X1X1X1X1X1X1X1X1X1X1X1X1X1X1X1X1X1X1X1X1X1X1X1X1X1X1X1X1X1X1X1X1X1X1X1X1X1X1X1X1X1X1X1X1X1X1X1X1X1X1X1X1X1X",
"1X1X1X1X1X1X1X1X1X1X1X1X1X1X1X1X1X1X1X1X1X1X1X1X1X1X1X1X1X1X1X1X1X1X1X1X1X1X1X1X1X1X1X1X1X1X1X1X1X1X1X1X1X1X1X1X1X1X1X1X1X1X1X1X"
};
