/* XPM */
static char *_68e23f109e54c06dc15e3645c5982915hRcXwNGOia0jCUP[] = {
/* columns rows colors chars-per-pixel */
"64 64 175 2 ",
"   c gray3",
".  c #131313",
"X  c #181717",
"o  c #1E1D1C",
"O  c #231F1F",
"+  c #1F201D",
"@  c #232221",
"#  c #292626",
"$  c #292921",
"%  c #2D2A2A",
"&  c #322C2C",
"*  c #323227",
"=  c #34322D",
"-  c #37382E",
";  c #3A3A2E",
":  c #353232",
">  c #3B3534",
",  c #3B3833",
"<  c #3F3738",
"1  c #3D3C3B",
"2  c #413C37",
"3  c #413D3C",
"4  c #464738",
"5  c #444242",
"6  c #4A4545",
"7  c #4E4A46",
"8  c #4D4C4B",
"9  c #524646",
"0  c #534D4C",
"q  c #584E4E",
"w  c #505043",
"e  c #54514C",
"r  c #59524F",
"t  c #545252",
"y  c #5B5454",
"u  c #5B5A55",
"i  c #5D5B5B",
"p  c #635757",
"a  c #625C5C",
"s  c #695D5D",
"d  c #63625D",
"f  c #68605E",
"g  c #646362",
"h  c #6B6464",
"j  c #6C6866",
"k  c #676868",
"l  c #6D6B6B",
"z  c #736666",
"x  c #716A67",
"c  c #746C6B",
"v  c #7A6E6D",
"b  c #717166",
"n  c #74726C",
"m  c #7F746F",
"M  c #747373",
"N  c #7C7473",
"B  c #7B7975",
"V  c #7C7B7B",
"C  c #847474",
"Z  c #887777",
"A  c #837877",
"S  c #847A7A",
"D  c #8B7D7D",
"F  c #907F7F",
"G  c #85827C",
"H  c #8A837E",
"J  c #90807F",
"K  c #848483",
"L  c #8B8382",
"P  c #878887",
"I  c #8E8984",
"U  c #8C8C8C",
"Y  c #948484",
"T  c #988787",
"R  c #948B85",
"E  c #948A89",
"W  c #9B8B8B",
"Q  c #949287",
"!  c #95948C",
"~  c #9A958D",
"^  c #9A998E",
"/  c #959595",
"(  c #9B9292",
")  c #9D9A93",
"_  c #9C9C9C",
"`  c #A08F8F",
"'  c #A39393",
"]  c #A89797",
"[  c #A39C95",
"{  c #A59B99",
"}  c #AB9C9B",
"|  c #B09F9F",
" . c #A3A195",
".. c #A4A39B",
"X. c #ABA49D",
"o. c #ACAA9D",
"O. c #B1AC9F",
"+. c #B0B19F",
"@. c #A6A6A6",
"#. c #ADA4A1",
"$. c #A9A9A1",
"%. c #ACA9A8",
"&. c #B3A3A3",
"*. c #B8A7A7",
"=. c #B3ACA3",
"-. c #B9AFA7",
";. c #B5AEAC",
":. c #BBABAA",
">. c #B4B2A5",
",. c #B5B1A9",
"<. c #BBB3AB",
"1. c #BCBAAC",
"2. c #B5B5B5",
"3. c #BBB3B3",
"4. c #BEBCB0",
"5. c #BDBDBC",
"6. c #C0AFAF",
"7. c #C1B3AF",
"8. c #C2B4B4",
"9. c #C4BCB3",
"0. c #C8BEB6",
"q. c #C6BBB9",
"w. c #CBBCBB",
"e. c #C5C3B5",
"r. c #C8C5B7",
"t. c #C7C8B6",
"y. c #C9C9B7",
"u. c #CAC5BA",
"i. c #CBCBBA",
"p. c #D0CDBF",
"a. c #D0D1BF",
"s. c #C3C2C2",
"d. c #CBCBC3",
"f. c #CFCFC8",
"g. c #D5C5C5",
"h. c #D3CCC3",
"j. c #D5CCCB",
"k. c #DCCECB",
"l. c #D2D3C1",
"z. c #D9D3C7",
"x. c #D5D4CC",
"c. c #DDD3CC",
"v. c #D8D9CF",
"b. c #D2D2D2",
"n. c #DBD5D1",
"m. c #DBDAD4",
"M. c #DDDCDB",
"N. c #E5D7D4",
"B. c #E7DAD6",
"V. c #E8DAD7",
"C. c #E2DCDC",
"Z. c #EDDCDC",
"A. c #F0DFDF",
"S. c #E2E2DD",
"D. c #F0E0DE",
"F. c #E4E1E1",
"G. c #E5E5E1",
"H. c #E7E7E7",
"J. c #EFE2E1",
"K. c #EDE9E7",
"L. c #EEE9E9",
"P. c #EEEEEB",
"I. c #F0E1E1",
"U. c #F1E3E2",
"Y. c #F1EBEA",
"T. c #F6EEEE",
"R. c #F3F3EE",
"E. c #F3F3F3",
"W. c #F4F3F3",
"Q. c #F6F6F6",
"!. c #F9F5F5",
"~. c #F8F8F7",
"^. c #F9F9F8",
"/. c #FCFCFC",
"(. c #FDFDFD",
/* pixels */
"@.@.@.@.@.@.@.@.@.@.@.@.@.@.@.@.@.@.@.@.@.@.@.@.@.@.@.@.@.@.@.@.@.@.@.@.@.@.@.@.@.@.@.@.@.@.@.@.@.@.@.@.@.@.@.@.@.@.@.@.@.@.@.@.",
"@.@.@.@.@.@.@.@.@.@.@.@.@.@.@.@.@.@.@.@.@.@.@.@.@.@.@.@.@.@.@.@.@.@.@.@.@.@.@.@.@.@.@.@.@.@.@.@.@.@.@.@.@.@.@.@.@.@.@.@.@.@.@.@.",
"@.@.@.@.@.@.@.@.@.@.@.@.@.@.@.@.@.@.@.@.@.@.@.@.@.@.@.@.@.@.@.@.@.@.@.@.@.@.@.@.@.@.@.@.@.@.@.@.@.@.@.@.@.@.@.@.@.@.@.@.@.@.@.@.",
"@.@.@.@.@.@.@.@.@.@.@.@.@.@.@.@.@.@.@.@.@.@.@.@.@.U M l l V / / _ _ _ _ / _ @.@.@.@.@.@.@.@.@.@.@.@.@.@.@.@.@.@.@.@.@.@.@.@.@.@.",
"@.@.@.@.@.@.@.@.@.@.@.@.@.@.@.@.@.@.@.@.@.@.@._ V V 2.s.s.@.k 0 l h h h h h B P @.@.@.@.@.@.@.@.@.@.@.@.@.@.@.@.@.@.@.@.@.@.@.@.",
"@.@.@.@.@.@.@.@.@.@.@.@.@.@.@.@.@.@.@.@.@.@._ K _ f.x.P.^.E.M.2.;.j.h.h.h.9.G n g U _ @.@.@.@.@.@.@.@.@.@.@.@.@.@.@.@.@.@.@.@.@.",
"@.@.@.@.@.@.@.@.@.@.@.@.@.@.@.@.@.@.@.@.@.@.M n ) g l $.m.~.^.Q.m.u.e.1.e.t.l.r.[ a n _ @.@.@.@.@.@.@.@.@.@.@.@.@.@.@.@.@.@.@.@.",
"@.@.@.@.@.@.@.@.@.@.@.@.@.@.@.@.@.@.@.@.@._ 1 B 2.3.3.q.9.v.Q.(.(.G.=.X.O.o.X.>.<.-.L M _ @.@.@.@.@.@.@.@.@.@.@.@.@.@.@.@.@.@.@.",
"@.@.@.@.@.@.@.@.@.@.@.@.@.@.@.@.@.@.@.@.@.V U M.^.(.!.I.N.9.1.C.!.T.c.-.&.<.=.^ ! ] W S c _ @.@.@.@.@.@.@.@.@.@.@.@.@.@.@.@.@.@.",
"@.@.@.@.@.@.@.@.@.@.@.@.@.@.@.@.@.@.@._ K / H.Q.^.~.^.W.I.c.1.=.>.x.I.k.-.-.y.i.1.L A Y v l / P / @.@.@.@.@.@.@.@.@.@.@.@.@.@.@.",
"@.@.@.@.@.@.@.@.@.@.@.@.@.@.@.@.@._ K M i 5.G.x.x.x.S.P.K.m.y.i.1.n.Z.Z.k.>.-.4.e.9.W N Y a y 5 t _ @.@.@.@.@.@.@.@.@.@.@.@.@.@.",
"@.@.@.@.@.@.@.@.@.@.@.@.@.@.@.@._ V @.s.s.M.m.S.G.S.m.d.f.d.e.>.o.o.7.N.c.i.>.) ! ~ E D V D D W y P @.@.@.@.@.@.@.@.@.@.@.@.@.@.",
"@.@.@.@.@.@.@.@.@.@.@.@.@.@.@.@.K @.E.^.^.(.^.^.(.(.^.E.Y.I.J.m.n.x.=.-.9.y.i.i.t...W ] &.] T W S y _ @.@.@.@.@.@.@.@.@.@.@.@.@.",
"@.@.@.@.@.@.@.@.@.@.@.@.@.@.@._ M b.^.(.(.(.(.(.(.(.(.T.Z.Z.Z.I.I.J.N.9.X.=.1.9.i.r.:.:.&.&.T C h i _ @.@.@.@.@.@.@.@.@.@.@.@.@.",
"@.@.@.@.@.@.@.@.@.@.@.@.@.@.@.K / ~.R.R.R.R.R.R.R.!.!.I.Z.Z.Z.Z.Z.Z.B.i.-.} L I X.{ ' ' Y Z v a 5 / @.@.@.@.@.@.@.@.@.@.@.@.@.@.",
"@.@.@.@.@.@.@.@.@.@.@.@.@.@.@.g M.d...............u.c.z.z.z.V.A.Z.Z.N.i.r.9.&.R N N N j D D S E a V @.@.@.@.@.@.@.@.@.@.@.@.@.@.",
"@.@.@.@.@.@.@.@.@.@.@.@.@.@.g ) $.G G >.1.1.=.{ ( G K K P K X.4.,.w.i.r.i.i.r.<.' ' ` D D W D W z l @.@.@.@.@.@.@.@.@.@.@.@.@.@.",
"@.@.@.@.@.@.@.@.@.@.@.@.@.@.i G L N ) ,.$.$.{ >...I } ..) X...( ( ( W [ -.e.i.i.9.:.:.:.&.C h v Y 0 _ @.@.@.@.@.@.@.@.@.@.@.@.@.",
"@.@.@.@.@.@.@.@.@.@.@.@.@.@./ l N E %.s.M.C.F.J.V.q.N.Z.c.c.p.0.q.:.#.W D L A n c N #.:.:.} Z z j i _ @.@.@.@.@.@.@.@.@.@.@.@.@.",
"@.@.@.@.@.@.@.@.@.@.@.@.@.@.@.8 V C.J.I.J.Z.Z.Z.Z.Z.Z.Z.Z.A.z.o.o.X.H : : 5 , # . o C &.:.] W L 7 M @.@.@.@.@.@.@.@.@.@.@.@.@.@.",
"@.@.@.@.@.@.@.@.@.@.@.@.@.@.@.i C.Z.Z.Z.Z.Z.Z.Z.Z.Z.Z.Z.A.w.x + = : 8 M P b.F.M.t . s Z ' ' Y ' q B @.@.@.@.@.@.@.@.@.@.@.@.@.@.",
"@.@.@.@.@.@.@.@.@.@.@.@.@.@.@.i L.I.Z.Z.Z.Z.Z.Z.Z.Z.Z.Z.A.3.# o / 5.F.(.(.(.Q.2.@ % W D C Y Y W j c @.@.@.@.@.@.@.@.@.@.@.@.@.@.",
"@.@.@.@.@.@.@.@.@.@.@.@.@.@.@.M { J.Z.Z.Z.Z.Z.Z.Z.D.V.Z.Z.I.N X 6 5.E.Q.Q.E.s.5   y &.' N z C Y Y 0 _ @.@.@.@.@.@.@.@.@.@.@.@.@.",
"@.@.@.@.@.@.@.@.@.@.@.@.@.@.@.U j B.Z.Z.Z.B.N.c.<.,.$.;.,.,...h @ % i g g i # . 6 ' :.] D V c N Y 7 _ @.@.@.@.@.@.@.@.@.@.@.@.@.",
"@.@.@.@.@.@.@.@.@.@.@.@.@.@.@._ h { N.c.r.#.) ) { { #.{ E E R E H h & @ O O % 9 N W W W W L M l v 0 _ @.@.@.@.@.@.@.@.@.@.@.@.@.",
"@.@.@.@.@.@.@.@.@.@.@.@.@.@.@.@.U a 0.} N E ] <.9.i.i.i.r.y.i.e.9.9.&.] W T T T Z z z C Z Y L t : a _ @.@.@.@.@.@.@.@.@.@.@.@.@.",
"@.@.@.@.@.@.@.@.@.@.@.@.@.@.@.@._ V j v Y &.<.e.r.a.l.l.y.X.] ] ' ' ' ' | 6.:.*.| Y L N N z z 7 l / @.@.@.@.@.@.@.@.@.@.@.@.@.@.",
"@.@.@.@.@.@.@.@.@.@.@.@.@.@.@.@.@._ M g | *.:.*.*.) R R J Z Z Z C C C C Z D D D Z Y Y Y Y c 5 K _ @.@.@.@.@.@.@.@.@.@.@.@.@.@.@.",
"@.@.@.@.@.@.@.@.@.@.@.@.@.@.@.@.@.@.@.B A &.] D v S Y Y Y ` ' ` D Z Z Z S S N N N z z z h 8 K @.@.@.@.@.@.@.@.@.@.@.@.@.@.@.@.@.",
"@.@.@.@.@.@.@.@.@.@.@.@.@.@.@.@.@.@.@._ V a j E ] &.&.' Y Y T W &.:.:.&.&.&.' W D z 0 6 l _ @.@.@.@.@.@.@.@.@.@.@.@.@.@.@.@.@.@.",
"@.@.@.@.@.@.@.@.@.@.@.@.@.@.@.@.@.@.@.@._ U a h ' } Y W | &.:.&.] } } ' W W v 0 6 5 i i l _ @.@.@.@.@.@.@.@.@.@.@.@.@.@.@.@.@.@.",
"@.@.@.@.@.@.@.@.@.@.@.@.@.@._ g i l 0 l _ @._ V 6 5 0 t j a a D W D v z 3 = o @ n E S M 6 U @.@.@.@.@.@.@.@.@.@.@.@.@.@.@.@.@.@.",
"@.@.@.@.@.@.@.@.@.@.@.@.@._ c 8.n.S } 2.l _ @._ M s.g.N ;.Z.g.x t 2 $ $ ; - e o.=.Y E V a g $.$.@.@.@.@.@.@.@.@.@.@.@.@.@.@.@.@.",
"@.@.@.@.@.@.@.@.@.@.@.@._ M #.w.I.q.D #.a / @.U i ;.' Y J.I.g.:.3 4 * * b [ ~ c a s Z S z t _ @.@.@.@.@.@.@.@.@.@.@.@.@.@.@.@.@.",
"@.@.@.@.@.@.@.@.@.@.@.@._ M 8.Y :.' ' ] _ M / M _ 3.' ' } q.Y :.r * b Q X.H > O s Z D ` Y 6 P @.@.@.@.@.@.@.@.@.@.@.@.@.@.@.@.@.",
"@.@.@.@.@.@.@.@.@.@.@.@._ g } W C Z &.:.3.1 u 1 :.g.&.] z C Y &.7 I =.N 3 # 1 a ' *.X.D Z 0 K @.@.@.@.@.@.@.@.@.@.@.@.@.@.@.@.@.",
"@.@.@.@.@.@.@.@.@.@.@.@.@.M q } &.C W D A N <.f N W W D Z } &.h e s y t : 0 8 M H <.=.E D 5 K @.@.@.@.@.@.@.@.@.@.@.@.@.@.@.@.@.",
"@.@.@.@.@.@.@.@.@.@.@.@.@.@.K h W F z : y y 6 3 > 3 z D Y W h 0 d h P P t 8 M M G h.r.' Y t K @.@.@.@.@.@.@.@.@.@.@.@.@.@.@.@.@.",
"@.@.@.@.@.@.@.@.@.@.@.@.@.@.@.V 6 6 5 : 5 g P P U V 6 % @ < B d K / / g i 8 _ _ u ~ o.[ Y 0 K @.@.@.@.@.@.@.@.@.@.@.@.@.@.@.@.@.",
"@.@.@.@.@.@.@.@.@.@.@.@.@.@.@.@._ _ _ _ _ @.@.@.@.@./ : & 0  .^ j g y 7 t U @.@.8 { <.( Y y K @.@.@.@.@.@.@.@.@.@.@.@.@.@.@.@.@.",
"@.@.@.@.@.@.@.@.@.@.@.@.@.@.@.@.@.@.@.@.@.@.@.@.@.@._ y 9 6 i j r > & 0 U @.@.@.8 o.i.<.W q P @.@.@.@.@.@.@.@.@.@.@.@.@.@.@.@.@.",
"@.@.@.@.@.@.@.@.@.@.@.@.@.@.@.@.@.@.@.@.@.@.@.@.@.@.@.K 6 t l U V V V U @.@.@.@.8 ^ =.) ] i P @.@.@.@.@.@.@.@.@.@.@.@.@.@.@.@.@.",
"@.@.@.@.@.@.@.@.@.@.@.@.@.@.@.@.@.@.@.@.@.@.@.@.@.@.@._ g N t / @.@.@.@.@.@.@.@.8 ,.h.] E 7 P @.@.@.@.@.@.@.@.@.@.@.@.@.@.@.@.@.",
"@.@.@.@.@.@.@.@.@.@.@.@.@.@.@.@.@.@.@.@.@.@.@.@.@.@.@.@.K a z i @.@.@.@.@.@.@.K b 1.>.E S q P @.@.@.@.@.@.@.@.@.@.@.@.@.@.@.@.@.",
"@.@.@.@.@.@.@.@.@.@.@.@.@.@.@.@.@.@.@.@.@.@.@.@.@.@.@.@._ i v a U @.@.@.@.@.@.M n +.X.' D i / @.@.@.@.@.@.@.@.@.@.@.@.@.@.@.@.@.",
"@.@.@.@.@.@.@.@.@.@.@.@.@.@.@.@.@.@.@.@.@.@.@.@.@.@.@.@.@.V a C 0 / @.@.@.@.@.M N <.{ Y s i @.@.@.@.@.@.@.@.@.@.@.@.@.@.@.@.@.@.",
"@.@.@.@.@.@.@.@.@.@.@.@.@.@.@.@.@.@.@.@.@.@.@.@.@.@.@.@.@._ t t V _ @.@.@.@.@.M B h.#.D p a @.@.@.@.@.@.@.@.@.@.@.@.@.@.@.@.@.@.",
"@.@.@.@.@.@.@.@.@.@.@.@.@.@.@.@.@.@.@.@.@.@.@.@.@.@.@.@.@.@._ _ @.@.@.@.@._ U j e  .~ Z y i @.@.@.@.@.@.@.@.@.@.@.@.@.@.@.@.@.@.",
"@.@.@.@.@.@.@.@.@.@.@.@.@.@.@.@.@.@.@.@.@.@.@.@.@.@.@.@.@.@.@.@.@.@.@.@.P l S X.-.=.-.} p l @.@.@.@.@.@.@.@.@.@.@.@.@.@.@.@.@.@.",
"@.@.@.@.@.@.@.@.@.@.@.@.@.@.@.@.@.@.@.@.@.@.@.@.@.@.@.@.@.@.@.@.@.@.@.K l ) i.1.o.L q t l _ @.@.@.@.@.@.@.@.@.@.@.@.@.@.@.@.@.@.",
"@.@.@.@.@.@.@.@.@.@.@.@.@.@.@.@.@.@.@.@.@.@.@.@.@.@.@.@.@.@.@.@.@.@._ M <.R S h , # g U _ @.@.@.@.@.@.@.@.@.@.@.@.@.@.@.@.@.@.@.",
"@.@.@.@.@.@.@.@.@.@.@.@.@.@.@.@.@.@.@.@.@.@.@.@.@.@.@.@.@.@.@.@.@.@.@.S H m > 7 w 8 @.@.@.@.@.@.@.@.@.@.@.@.@.@.@.@.@.@.@.@.@.@.",
"@.@.@.@.@.@.@.@.@.@.@.@.@.@.@.@.@.@.@.@.@.@.@.@.@.@.@.@.@.@.@.@.@.@.@.U l C > u 6 P @.@.@.@.@.@.@.@.@.@.@.@.@.@.@.@.@.@.@.@.@.@.",
"@.@.@.@.@.@.@.@.@.@.@.@.@.@.@.@.@.@.@.@.@.@.@.@.@.@.@.@.@.@.@.@.@.@.@._ h C 0 - l @.@.@.@.@.@.@.@.@.@.@.@.@.@.@.@.@.@.@.@.@.@.@.",
"@.@.@.@.@.@.@.@.@.@.@.@.@.@.@.@.@.@.@.@.@.@.@.@.@.@.@.@.@.@.@.@.@.@.@.K G R 7 : i / @.@.@.@.@.@.@.@.@.@.@.@.@.@.@.@.@.@.@.@.@.@.",
"@.@.@.@.@.@.@.@.@.@.@.@.@.@.@.@.@.@.@.@.@.@.@.@.@.@.@.@.@.@.@.@.@.@.U y ~ h : r 7 t / @.@.@.@.@.@.@.@.@.@.@.@.@.@.@.@.@.@.@.@.@.",
"@.@.@.@.@.@.@.@.@.@.@.@.@.@.@.@.@.@.@.@.@.@.@.@.@.@.@.@.@.@.@.@.@.@./ M V : 0 a a 3 l @.@.@.@.@.@.@.@.@.@.@.@.@.@.@.@.@.@.@.@.@.",
"@.@.@.@.@.@.@.@.@.@.@.@.@.@.@.@.@.@.@.@.@.@.@.@.@.@.@.@.@.@.@.@.@.@.@.@.@.y 5 6 6 3 B @.@.@.@.@.@.@.@.@.@.@.@.@.@.@.@.@.@.@.@.@.",
"@.@.@.@.@.@.@.@.@.@.@.@.@.@.@.@.@.@.@.@.@.@.@.@.@.@.@.@.@.@.@.@.@.@.@.@.@.@.@.@.@.@.@.@.@.@.@.@.@.@.@.@.@.@.@.@.@.@.@.@.@.@.@.@.",
"@.@.@.@.@.@.@.@.@.@.@.@.@.@.@.@.@.@.@.@.@.@.@.@.@.@.@.@.@.@.@.@.@.@.@.@.@.@.@.@.@.@.@.@.@.@.@.@.@.@.@.@.@.@.@.@.@.@.@.@.@.@.@.@.",
"@.@.@.@.@.@.@.@.@.@.@.@.@.@.@.@.@.@.@.@.@.@.@.@.@.@.@.@.@.@.@.@.@.@.@.@.@.@.@.@.@.@.@.@.@.@.@.@.@.@.@.@.@.@.@.@.@.@.@.@.@.@.@.@.",
"@.@.@.@.@.@.@.@.@.@.@.@.@.@.@.@.@.@.@.@.@.@.@.@.@.@.@.@.@.@.@.@.@.@.@.@.@.@.@.@.@.@.@.@.@.@.@.@.@.@.@.@.@.@.@.@.@.@.@.@.@.@.@.@.",
"@.@.@.@.@.@.@.@.@.@.@.@.@.@.@.@.@.@.@.@.@.@.@.@.@.@.@.@.@.@.@.@.@.@.@.@.@.@.@.@.@.@.@.@.@.@.@.@.@.@.@.@.@.@.@.@.@.@.@.@.@.@.@.@.",
"@.@.@.@.@.@.@.@.@.@.@.@.@.@.@.@.@.@.@.@.@.@.@.@.@.@.@.@.@.@.@.@.@.@.@.@.@.@.@.@.@.@.@.@.@.@.@.@.@.@.@.@.@.@.@.@.@.@.@.@.@.@.@.@."
};
