/* XPM */
static char *_88e5a4c4c74476bb38071e11cf7b1c6Ay1Z8KoB1HYhKyrH[] = {
/* columns rows colors chars-per-pixel */
"64 64 96 2 ",
"   c #020202",
".  c #0B0B0B",
"X  c #180E09",
"o  c #12120F",
"O  c #1D120D",
"+  c #141414",
"@  c #191916",
"#  c #1D1D1C",
"$  c #271912",
"%  c #201F1D",
"&  c #22221E",
"*  c #3A251B",
"=  c #242424",
"-  c #2A2926",
";  c #2C2C2A",
":  c #32322D",
">  c #323231",
",  c #3B3A35",
"<  c #3F3F3F",
"1  c #43291C",
"2  c #623E2B",
"3  c #414233",
"4  c #43433B",
"5  c #73452E",
"6  c #454543",
"7  c #484240",
"8  c #494942",
"9  c #4B4B4B",
"0  c #504F48",
"q  c #52524C",
"w  c #555553",
"e  c #5D5C53",
"r  c #5C5C5C",
"t  c #606052",
"y  c #64635C",
"u  c #6A685F",
"i  c #636363",
"p  c #6B6B66",
"a  c #6D6D6D",
"s  c #737369",
"d  c #78776B",
"f  c #7C7B6F",
"g  c #747474",
"h  c #7C7B75",
"j  c #7C7C7C",
"k  c #828275",
"l  c #86857C",
"z  c #89877B",
"x  c #8C8B7D",
"c  c #848484",
"v  c #8A8A81",
"b  c #8C8C8C",
"n  c #908F82",
"m  c #959486",
"M  c #989787",
"N  c #97968C",
"B  c #9C9A8B",
"V  c #949493",
"C  c #9D9D92",
"Z  c #9C9C9C",
"A  c #A09F8F",
"S  c #A2A294",
"D  c #A4A49B",
"F  c #ABA99A",
"G  c #B2B09F",
"H  c #A6A6A6",
"J  c #ADADA2",
"K  c #B4B2A3",
"L  c #B7B5A3",
"P  c #B3B3A7",
"I  c #B7B5A5",
"U  c #B9B7A5",
"Y  c #BBB9A7",
"T  c #B6B6A9",
"R  c #BAB9AA",
"E  c #BCBAA8",
"W  c #B8B8AD",
"Q  c #BCBBAC",
"!  c #BDBCAD",
"~  c #BDBDB1",
"^  c #C0C0B2",
"/  c #C2C2B6",
"(  c #C4C4B6",
")  c #C7C7BA",
"_  c #C8C8BB",
"`  c #C9C9BC",
"'  c #D0D0C4",
"]  c #D6D6CD",
"[  c #DBDBD2",
"{  c #DCDCD3",
"}  c #E5E5DE",
"|  c #E5E5E0",
" . c #E8E8E3",
".. c #EEEEE9",
"X. c #FBFBFB",
"o. c white",
/* pixels */
"H H H H H H H H H H H H H H H H H H H H H H H H H H H H H H H H H H H H H H H H H H H H H H H H H H H H H H H H H H H H H H H H ",
"H H H H H H H H H H H H H H H H H H H H H H H H H H H H H H H H H H H H H H H H H H H H H H H H H H H H H H H H H H H H H H H H ",
"H H H H H H H H H H H H H H H H H H H H H H H H H H H H H H H H H H H H H H H H H H H H H H H H H H H H H H H H H H H H H H H H ",
"H H H H H H H H H H H H H H H H H H H H H H H H H H H V V V V V V V V V V V Z H H H H H H H H H H H H H H H H H H H H H H H H H ",
"H H H H H H H H H H H H H H H H H H H H H H H H H H c @ + + + + + + + + + + p H H H H H H H H H H H H H H H H H H H H H H H H H ",
"H H H H H H H H H H H H H H H H H H H H H H H b b b g % # # # # # # # # # # r b Z H H H H H H H H H H H H H H H H H H H H H H H ",
"H H H H H H H H H H H H H H H H H H H H H H V # . . ; S F F F F F F F F F F 0 . g H H H H H H H H H H H H H H H H H H H H H H H ",
"H H H H H H H H H H H H H H H H H H H H H b h ; & & 4 L E E E E E E E E E E y & i c Z H H H H H H H H H H H H H H H H H H H H H ",
"H H H H H H H H H H H H H H H H H H H H V # & A G G K Y E E E E E E E E E E L G 4 . h H H H H H H H H H H H H H H H H H H H H H ",
"H H H H H H H H H H H H H H H H H H H c h > , F E E E E E E E E E E E E E E E E e - p c Z H H H H H H H H H H H H H H H H H H H ",
"H H H H H H H H H H H H H H H H H H Z # + B U Y E E E E E E E E E E E E E E E E U U :   c H H H H H H H H H H H H H H H H H H H ",
"H H H H H H H H H H H H H H H H H H Z # + S E E E E E E E E E E E E E E E E E E E E :   j H H H H H H H H H H H H H H H H H H H ",
"H H H H H H H H H H H H H H H H H H Z # + S E E E E E E E E E E E E E E E E E E E E :   l H H H H H H H H H H H H H H H H H H H ",
"H H H H H H H H H H H H H H H H H h a 6 8 F E E E E E E E E E E E E E E E E E E Y U e , i g Z H H H H H H H H H H H H H H H H H ",
"H H H H H H H H H H H H H H H H H = . B E E E E E E E E E E E E E E E E E E E E I K K K -   c H H H H H H H H H H H H H H H H H ",
"H H H H H H H H H H H H H H H H H = . B E E E E E E E E E E E E E E E E Y U U U R Q Q R ;   c H H H H H H H H H H H H H H H H H ",
"H H H H H H H H H H H H H H H H H = . B E E E E E E E E E E E E E E E E U K K K ^ ` ` ) ;   c H H H H H H H H H H H H H H H H H ",
"H H H H H H H H H H H H H H H H H = . x F U E E E E E E E E E E E E Y U R ! ! ! ( ` ` ) ;   c H H H H H H H H H H H H H H H H H ",
"H H H H H H H H H H H H H H H H Z = . f B L E E E E E E E E E E E E U K ! ` ` ` ` ` ` ) ; . c H H H H H H H H H H H H H H H H H ",
"H H H H H H H H H H H H H H H H Z = . f M S F Y E E E E E E E E Y U R ~ ( ` ` ` ` ` ` ) ; . c H H H H H H H H H H H H H H H H H ",
"H H H H H H H H H H H H H H H H Z = . f m m B U E E E E E E E E U K ! ` ` ` ` ` ` ` ` ) ;   c H H H H H H H H H H H H H H H H H ",
"H H H H H H H H H H H H H H H H H = . f m m M S S S m 8 8 8 u I R ^ ( ` ` ` W P / ` ` ) ;   c H H H H H H H H H H H H H H H H H ",
"H H H H H H H H H H H H H H H H H = . f m m m m m m d       > K W ` ` ` ` ` P S W ` ` ) ;   c H H H H H H H H H H H H H H H H H ",
"H H H H H H H H H H H H H H H H H = . f m m m m k > 4 l v v N K W ` ` ` { ..C t m J / ) p w V H H H H H H H H H H H H H H H H H ",
"H H H H H H H H H H H H H H H H H = . f m m m m f . - / ` ` / K W ` ` ` } o.m 3 k S ~ _ v h Z H H H H H H H H H H H H H H H H H ",
"H H H H H H H H H H H H H H H H H c g > : l m m f . - / ` ` / K W ` ` ` ' ] W D T ~ ) _ S N H H H H H H H H H H H H H H H H H H ",
"H H H H H H H H H H H H H H H H H H Z = + h m m f . ; ~ ) ` / K Q ` ` ` _ _ _ ` ` ` ` _ F S H H H H H H H H H H H H H H H H H H ",
"H H H H H H H H H H H H H H H H H H H b h ; : z n d y ; q ` ) ( ) ` ` ` W F ! ` ` ` ` _ F S H H H H H H H H H H H H H H H H H H ",
"H H H H H H H H H H H H H H H H H H H H V # # h x m d . > ) _ ` ` ` ` ` T S W ` ) ) ) / F S H H H H H H H H H H H H H H H H H H ",
"H H H H H H H H H H H H H H H H H H H H H b h = ; z x f z U ! ` ` ` ` ` T S W ` P F m l Z H H H H H H H H H H H H H H H H H H H ",
"H H H H H H H H H H H H H H H H H H H H H H V # = z n z x S F W W W T T D m D T C m l h Z H H H H H H H H H H H H H H H H H H H ",
"H H H H H H H H H H H H H H H H H H H H H H H V V D c @ + @ = , , , ; # @ + @ # @ + h Z H H H H H H H H H H H H H H H H H H H H ",
"H H H H H H H H H H H H H H H H H H H H H H H H H H c @ +   . # # = +       . + + + j H H H H H H H H H H H H H H H H H H H H H ",
"H H H H H H H H H H H H H H H H H H H H H H H H H H H V a   . # = ; - & o   w V V V H H H H H H H H H H H H H H H H H H H H H H ",
"H H H H H H H H H H H H H H H H H H H H H H H H H H H H j   . = = ; ; - @ . i H H H H H H H H H H H H H H H H H H H H H H H H H ",
"H H H H H H H H H H H H H H H H H H H H H H H H H H H H j   . ; ; # # # : 3 h H H H H H H H H H H H H H H H H H H H H H H H H H ",
"H H H H H H H H H H H H H H H H H H H H H H H H H H Z c i   + > ; # # = : 4 p c Z H H H H H H H H H H H H H H H H H H H H H H H ",
"H H H H H H H H H H H H H H H H H H H H H H H H H H c . . = ; > ; # = ; , 4 &   a H H H H H H H H H H H H H H H H H H H H H H H ",
"H H H H H H H H H H H H H H H H H H H H H H H H H H c   . = ; > = + = > > , @   a H H H H H H H H H H H H H H H H H H H H H H H ",
"H H H H H H H H H H H H H H H H H H H H H H H H H H c   . = ; > #   + > = # .   a H H H H H H H H H H H H H H H H H H H H H H H ",
"H H H H H H H H H H H H H H H H H H H H H H H H H H c   . = ; > #   + > = # .   a H H H H H H H H H H H H H H H H H H H H H H H ",
"H H H H H H H H H H H H H H H H H H H H H H H H H H c   . = ; > #   + > = # .   a H H H H H H H H H H H H H H H H H H H H H H H ",
"H H H H H H H H H H H H H H H H H H H H H H H H H H c   . = < h i 8 > # = = .   a H H H H H H H H H H H H H H H H H H H H H H H ",
"H H H H H H H H H H H H H H H H H H H H H H H H H H c   . = i X. .` s   @ > +   a H H H H H H H H H H H H H H H H H H H H H H H ",
"H H H H H H H H H H H H H H H H H H H H H H H H H H c   . = y | [ ` s   @ > +   a H H H H H H H H H H H H H H H H H H H H H H H ",
"H H H H H H H H H H H H H H H H H H H H H H H H H H c   . = w ` ` ` s   @ > +   a H H H H H H H H H H H H H H H H H H H H H H H ",
"H H H H H H H H H H H H H H H H H H H H H H H H H H c   . = , y y y 4 + # ; +   a H H H H H H H H H H H H H H H H H H H H H H H ",
"H H H H H H H H H H H H H H H H H H H H H H H H H H c   . = @       + = = = +   a H H H H H H H H H H H H H H H H H H H H H H H ",
"H H H H H H H H H H H H H H H H H H H H H H H H H H V i 9 + + @ @ @ = = @ o < r b H H H H H H H H H H H H H H H H H H H H H H H ",
"H H H H H H H H H H H H H H H H H H H H H H H H H H H H j   . > > > ; = +   i H H H H H H H H H H H H H H H H H H H H H H H H H ",
"H H H H H H H H H H H H H H H H H H H H H H H H H H H H j   . > > > ; = +   i H H H H H H H H H H H H H H H H H H H H H H H H H ",
"H H H H H H H H H H H H H H H H H H H H H H H H H H H H j   . > > > ; = +   i H H H H H H H H H H H H H H H H H H H H H H H H H ",
"H H H H H H H H H H H H H H H H H H H H H H H H H H H H j   . = = = = # .   i H H H H H H H H H H H H H H H H H H H H H H H H H ",
"H H H H H H H H H H H H H H H H H H H H H H H H H H H H j   . # # # # # .   i H H H H H H H H H H H H H H H H H H H H H H H H H ",
"H H H H H H H H H H H H H H H H H H H H H H H H H H H H j   O 2 2 2 *   6 j V H H H H H H H H H H H H H H H H H H H H H H H H H ",
"H H H H H H H H H H H H H H H H H H H H H H H H H H H H j   $ 5 5 5 1   w H H H H H H H H H H H H H H H H H H H H H H H H H H H ",
"H H H H H H H H H H H H H H H H H H H H H H H H H H H H Z c y X X X 7 c V H H H H H H H H H H H H H H H H H H H H H H H H H H H ",
"H H H H H H H H H H H H H H H H H H H H H H H H H H H H H H g . . . w H H H H H H H H H H H H H H H H H H H H H H H H H H H H H ",
"H H H H H H H H H H H H H H H H H H H H H H H H H H H H H H Z b b b V H H H H H H H H H H H H H H H H H H H H H H H H H H H H H ",
"H H H H H H H H H H H H H H H H H H H H H H H H H H H H H H H H H H H H H H H H H H H H H H H H H H H H H H H H H H H H H H H H ",
"H H H H H H H H H H H H H H H H H H H H H H H H H H H H H H H H H H H H H H H H H H H H H H H H H H H H H H H H H H H H H H H H ",
"H H H H H H H H H H H H H H H H H H H H H H H H H H H H H H H H H H H H H H H H H H H H H H H H H H H H H H H H H H H H H H H H ",
"H H H H H H H H H H H H H H H H H H H H H H H H H H H H H H H H H H H H H H H H H H H H H H H H H H H H H H H H H H H H H H H H ",
"H H H H H H H H H H H H H H H H H H H H H H H H H H H H H H H H H H H H H H H H H H H H H H H H H H H H H H H H H H H H H H H H "
};
