/* XPM */
static char *_f66f7c19b2e4b7280f739059a54ebcdvDQ2M5uVJK1rBdYA[] = {
/* columns rows colors chars-per-pixel */
"64 64 114 2 ",
"   c #1F1C37",
".  c #1F1D38",
"X  c #231C37",
"o  c #211E38",
"O  c #281F38",
"+  c #23213A",
"@  c #29253D",
"#  c #2C293F",
"$  c #3E2237",
"%  c #30273E",
"&  c #3E2438",
"*  c #452336",
"=  c #49263A",
"-  c #432A3B",
";  c #492B3C",
":  c #47313E",
">  c #4C303F",
",  c #2D2A42",
"<  c #312E44",
"1  c #2B3E43",
"2  c #323043",
"3  c #383146",
"4  c #323F43",
"5  c #4D2F40",
"6  c #4C3243",
"7  c #4C3B47",
"8  c #4E3649",
"9  c #513345",
"0  c #53374A",
"q  c #543A4B",
"w  c #553E50",
"e  c #2E4646",
"r  c #2F4847",
"t  c #324446",
"y  c #314847",
"u  c #314748",
"i  c #3B4749",
"p  c #344949",
"a  c #3A4C4D",
"s  c #3D504F",
"d  c #3C4F50",
"f  c #3D5151",
"g  c #404A4D",
"h  c #404E51",
"j  c #554052",
"k  c #5C4E51",
"l  c #445356",
"z  c #5D5455",
"x  c #5D5857",
"c  c #615656",
"v  c #615957",
"b  c #645C5A",
"n  c #67605E",
"m  c #676160",
"M  c #686362",
"N  c #65656A",
"B  c #6C666A",
"V  c #676C6D",
"C  c #6C6B6E",
"Z  c #716E6E",
"A  c #6E6E70",
"S  c #716F71",
"D  c #6F7271",
"F  c #6F7379",
"G  c #767676",
"H  c #787777",
"J  c #777877",
"K  c #787877",
"L  c #777778",
"P  c #787778",
"I  c #7A797B",
"U  c #7A7F81",
"Y  c #867584",
"T  c #897786",
"R  c #877E8B",
"E  c #8C7D8D",
"W  c #8D7F90",
"Q  c #7C8183",
"!  c #7F878A",
"~  c #8F828F",
"^  c #90808F",
"/  c #8E8491",
"(  c #908592",
")  c #938794",
"_  c #948795",
"`  c #908B96",
"'  c #958996",
"]  c #978998",
"[  c #998A9A",
"{  c #998B9A",
"}  c #97909E",
"|  c #8996A3",
" . c #8B9EA7",
".. c #899BA9",
"X. c #899CA9",
"o. c #9992A0",
"O. c #8FA2AC",
"+. c #8DA4AE",
"@. c #8FA6AF",
"#. c #90A2AD",
"$. c #92A4AF",
"%. c #8CA7B2",
"&. c #8CA8B3",
"*. c #90A7B2",
"=. c #92ABB6",
"-. c #94A9B5",
";. c #95ABB8",
":. c #92ACB9",
">. c #97ADB9",
",. c #98ABB8",
"<. c #95B2BE",
"1. c #96B3BF",
"2. c #97B4C0",
"3. c #98B7C3",
/* pixels */
"] ] ] ( G N   < K U <.>.' ] ] ] ] ] ] ] ] ] ] ] ] ' G G o   G G <.>.' ] ] ] ] ] ] ] ] ] ] ] ] ] ] ] I G #   C G %.<.} ] ] ] ] ] ",
"( ( ( ~ I A O 3 Q ! @.O.( ( ( ( ( ( ( ( ( ( ( ( ( / I I O O U Q @.@.( ( ( ( ( ( ( ( ( ( ( ( ( ( ( ( I I % O F Q  .@.` ( ( ( ( ( ",
"G G G I ] T * j 2.*.G G G G G G G G G G G G G G G P [ _ * * :.<.G G G G G G G G G G G G G G G G G G _ ] 5 * ..<.Q G G G G G G G ",
"G G G I ( Y * w >.#.G G G G G G G G G G G G G G G L ( ( * * *.-.G G G G G G G G G G G G G G G G G G / ( 5 * | ;.Q G G G G G G G ",
"G G G G G B * q [ ( G G G G G G G G G G G G G G G G G G * * _ ' G G G G G G G G G G G G G G G G G G G G ; * T ] I G G G G G G G ",
"G G G G G B - q [ ( G G G G G G G G G G G G G G G G G G - - _ ' G G G G G G G G G G G G G G G G G G G G : - T ] I G G G G G G G ",
"G G G G v x e l [ ( G G G G G G G G G G G G G G G G v v e e _ ' G G G G G G G G G G G G G G G G G G b v u e R ] I G G G G G G G ",
"G G G G v x e l [ ( G G G G G G G G G G G G G G G Z v v e e _ ' G G G G G G G G G G G G G G G G G G b v t 4 R ] I G G G G G G G ",
"G G G G v x e l [ ( G G G G G G G G G G G G G G v v v v e e _ ' G G G G G G G G G G G G G G G G G G b v = * T ] I G G G G G G G ",
"G G G G v x t l [ ( G G G G G G G G G G G G G G b b v v t t _ ' G G G G G G G G G G G G G G G G G G b v - - T ] I G G G G G G G ",
"G G G G v z * q [ ( G G G G G G G G G G G G v b G G v v * * _ ' G G G G G G G G G G G G G G G G G G b v u e R ] I G G G G G G G ",
"G G G Z c k * 0 ' / P P G G G G G G G G G G v b G G z z * * ( ) I I G G G G G G G G G G G G G G G G v c t e R _ I I G G G G G G ",
"v v v z * $ . < J I ] _ G G v v v v v v v v v v v c * * .   G G ] ' G G G G G G b v G G b v v v v v = * o   C G ( ] I G G G G G ",
"x x c k * & . , S G ( E D C z z z z z z x x x x c z * * o   C A E E S S S S A A z z A A c c c c x x - * o   N C E ^ G S A A A A ",
"e t * * . . o     O * * e e   . . . . o e e e t * * . . o o     * * * * * * X   . .     * * * * t e + . o o     $ * * * O       ",
"f h 9 6 , , , , , < 9 6 f a , #   o , , f f f d 9 6 , , , , , , 5 5 9 9 9 9 , , o o , , 8 0 9 9 a f < , , , , , 6 9 5 5 o . # , ",
"<.,.[ [ [ [ [ [ [ [ [ [ [ ' K C   # I I <.<.[ [ [ [ [ [ [ [ [ [ J I [ [ [ [ I I + o G J <.2.[ [ [ [ [ [ [ [ [ [ [ [ I J ,   N K ",
"=.$._ _ _ _ _ _ _ _ _ _ _ ( P A X # I I =.=._ _ _ _ _ _ _ _ ( ( G G ' _ _ ' I I @ o J I *.=.] _ _ _ _ _ _ _ _ _ _ _ I P < X N G ",
"G G G G G G G G G G G G G G [ E * 6 3.>.G G G G G G G G G G v v v v G G G G ' [ ; * >.<.G G G G G G G G G G G G G G ( [ 0 * B G ",
"G G G G G G G G G G G G G P ' E * 6 2.:.G G G G G G G G G G b b b b G G G G ) ' ; * :.>.J G G G G G G G G G G G G G ( ' 9 * B G ",
"G G G G G G G G G G G G G G G C * 5 [ ' G G G G G G G G v v _ ] G G G G G G G G ; * _ ] G G G G G G G G G G G G G G G G 6 * B G ",
"G G G G G G G G G G G G G G G C * 6 [ ' G G G G G G G G b v _ ' G G G G G G G G ; * _ ] G G G G G G G G G G G G G G G G 6 * B G ",
"G G G G G G G G G G G G G G v x e a [ ' G G G G G G v b ' ] G G G G G G G G b v u u _ ] G G G G G G G G G G G G G G b v p e V G ",
"G G G G G G G G G G G G G G v x e d [ ' G G G G G G b b _ ' G G G G G G G G b v u t _ ] G G G G G G G G G G G G G G b v p e V G ",
"G G G G G G G G G G G G G G v x e a [ ' G G G G G G G G G G G G G G G G G G b v = * _ ] G G G G G G G G G G G G G G n b p e V G ",
"G G G G G G G G G G G G G G v x e a [ ' G G G G G G G G G G G G G G G G G G b v = * _ ] G G G G G G G G G G G G G G n b p e V G ",
"G G G G G G G G G G G G G G v x e a [ ' G G G G G G G G G G G G G G G G G G b v = * _ ] G G b v G G G G G G G G G G b v p e V G ",
"G G G G G G G G G G G G G G v z e a [ ' G G G G G G G G G G G G G G G G G G v v - * _ ' P G b v G G G G G G G G G G b v p e V G ",
"] ( G G v b G G v b b b v c * * . # K G ] ] G G G G G G v v v v b b b b v b = * o o G G ' ] I G b v v v v v v v b v ; * o   N G ",
"[ ( G G b n K G b b b b b c * * . # I I [ [ J J J J K G b b b b b b b b b b = * o o G G ] [ I K b b b b b b b b b b ; * o   N K ",
"= - u t * * + + o o o o * * o o o o + + = = = = = * + + o o o o * - * * t u + o o o + + - = p u u y + o o o o o & * O o o o o + ",
"* - u t * * o o o o o o * * o o o o o o * * * * * * o o o o o o - - * * u u + o o o o o * = t u u u + o o o o o * * @ o o o o o ",
"_ _ ' ' _ / G N   , G J :.=._ _ _ _ _ _ _ _ _ _ _ ) G G o   G G :.:._ _ ' ' _ _ _ _ _ _ _ _ ' ' ' ' L G #   N G O.:.[ _ _ _ _ _ ",
"' ' ' ' ' ( G N   , I I >.;.' ' ' ' ' ' ' ' ' ' ' _ G G o X G I :.>._ ' ' ' ' ' ' ' ' ' ' ' ' ' ' ' I G #   C G @.>.[ ' ' ' ' ' ",
"G G G G G I [ T * q 2.=.G G G G G G G G G G G G G H [ _ * * :.<.G G G G G G G G G G G G G G G G G G _ ] 5 * X.2.Q G G G G G G G ",
"G G G G G I ] Y * q <.=.G G G G G G G G G G G G G P ] _ * * :.<.G G G G G G G G G G G G G G G G G G _ ] 5 * ..<.Q G G G G G G G ",
"G G G G G G G B * 9 [ ) G G G G G G G G G G G G G G G G * * _ ] G G G G G G G G G G G G G G G G G G G G ; * T ] I G G G G G G G ",
"G G G G G G G B * 9 [ ) G G G G G G G G G G G G G G G G * * _ ' G G G G G G G G G G G G G G G G G G G G ; * T ] I G G G G G G G ",
"G G G G G G b z * 9 [ ) G G G G G G G G G G G G G G v b t e _ ' G G G G G G G G G G G G G G G G G G b b = * T ] I G G G G G G G ",
"G G G G G G v z * 9 [ ) G G G G G G G G G G G G G G v v e e _ ' G G G G G G G G G G G G G G G G G G b v ; * T ] I G G G G G G G ",
"G G G G G G v x e h [ ) G G G G G G G G G G G G G G v v * * _ ' G G G G G G G G G G G G G G G G G G b v p e R ] I G G G G G G G ",
"G G G G G S v x e f [ ) G G G G G G G G G G G G G G v v * * _ ' G G G G G G G G G G G G G G G G G G b v p e R ] I G G G G G G G ",
"G G G G G G v x e f [ ) G G G G G G G G G G G G G G v v t e ) ' G G G G G G G G G G G G G G G G G G b b p e R ] I G G G G G G G ",
"G G G G G G v x e f [ ) G G G G G G G G G G G G G G v v e e _ ' G G G G G G G G G G G G G G G G G G b b u e R ] I G G G G G G G ",
"G G G G G G v z * 9 [ ) G G G G G G G G G G G G G G v v e e _ ' G G G G G G G G G G G G G G G G G G b b = * T ] I G n b G G G G ",
"G G G G G G b z * 9 [ ' G G G G G G G G G G G G G G b b r e _ ] G G G G G G G G G G G G G G G G J J b b = * T [ I G b v G G G G ",
"b b b b b z = - o < I I _ ( G G b b b b b b b b b v = ; + + G I ) ( G G G G G G b b b b b b b b b b ; ; o X C P ~ _ P G n b b b ",
"b b b b b z * & . , I I [ ' K G b b b b b b b b b v * * o   G I [ [ G J J J K I b b b b b b b b b b = * o   C G ( [ I J n b b b ",
"; ; ; ; ; - o o o o , , 9 6 , # # # @ # p p p p ; ; o o o   , , d d ; 5 5 5 , , # # # # p p p p : ; O o o   # # a f 6 5 ; ; # # ",
"* * * * * $           X * *     o o   . e e e e * *             e e * * * * X   o o     e e e e - * X           1 e - * * * O   ",
"^ ^ ^ ^ ^ E A G W E E E ^ E A N   # G D %.%./ / ^ ~ E E E E E E / / ^ ^ ^ ( S A + o C A @.&./ / ^ ^ E E E E E E / / ~ ^ ^ ^ E E ",
"] ] ] ] ] ( G I [ ] ] ] ] _ G C   # J J <.<.] ] ] ] ] ] ] ] ] ] ] ] ] ] ] [ H G + o G G :.<.[ ] ] ] ] ] ] ] ] ] ] ] ] ] ] ] ] ] ",
"I I I I I G b M I I I I I I _ T * 6 >.*.I I I I I I I I I I I I I I I I I P ( ' ; * *.=.I I I I I I I I I I I I I I I I I I I I ",
"G G G G G G v b G G G G G I [ E * 6 2.:.G G G G G G G G G G G G G G G G G G ' [ ; * :.<.J G G G G G G G G G G G G G G G G G G G ",
"G G G G G G G Z b M G G G G I S * 6 o.[ G G G G G G G G G G G G G G G G G G I I ; * [ [ G G G G G G G G G G G G G G G G G G G G ",
"G G G G G G G G v b G G G G G Z * 5 [ ' G G G G G G G G G G G G G G G G G G G G ; * _ ] G G G G G G G G G G G G G G G G G G G G ",
"G G G G G G G G G G G G G G n b 4 a [ ' G G G G G G G G G G G G G G G G G G n n t t _ ] G G G G G G G G G G G G G G G G G G G G ",
"G G G G G G G G G G G G G G v x e a [ ' G G G G G G G G G G G G G G G G G G b b u t _ ] G G G G G G G G G G G G G G G G G G G G ",
"G G G G G G G G G G G G G G v x e a [ ' G G G G G G G G G G G G G G G G G G b v u t _ ] G G G G G G G G G G G G G G G G G G G G ",
"G G G G G G G G G G G G G G v x e a [ ' G G G G G G G G G G G G G G G G G G b v u t _ ] G G G G G G G G G G G G G G G G G G G G ",
"G G G G b M G G b b b n n b ; - + , I I ( ( G G G G G G b b G G b b b n n n > ; + + P I ( ( P G G G G G m b G G M b b b b n n n ",
"G G G G v n G G v v v v b c * * . # I P ] ' G G G G G G v v G G b v v v v b = * o o G G ' [ I G G G G G b v G G n v v v v v b b ",
"9 7 f a a a f g ; > > 6 a i O o o o 2 2 q q 9 6 f f f f a a f f > > > > a a @ O o o < 2 q q h f f f f f a a s f a a 6 > i a 2 # ",
"* - e e e e e t * * * - e e o o o o o o * * * * e e e e e e e e * * * * e r + o o o o o * * t e e e e e e e e e e e - * t e + o "
};
