/* XPM */
static char *_0b4b1e007aa407fcc608a1c71da847dw1hZzU1zmKCEv5Hh[] = {
/* columns rows colors chars-per-pixel */
"64 64 217 2 ",
"   c #6B141A",
".  c #6B1A1C",
"X  c #73151C",
"o  c #7B161C",
"O  c #751B1B",
"+  c #6E1D24",
"@  c #7A1C22",
"#  c #6C2421",
"$  c #6D2B23",
"%  c #6F3427",
"&  c #78452D",
"*  c #754932",
"=  c #765435",
"-  c #7A6A3C",
";  c #7D763D",
":  c #7B7A42",
">  c #84181D",
",  c #8E191E",
"<  c #931B1E",
"1  c #9A1A1F",
"2  c #99251C",
"3  c #933B19",
"4  c #A22E1C",
"5  c #AB351C",
"6  c #851823",
"7  c #841924",
"8  c #8B1A24",
"9  c #941A22",
"0  c #9C1B22",
"q  c #951A29",
"w  c #9C1B2A",
"e  c #A21D25",
"r  c #A21C2D",
"t  c #AA1E2B",
"y  c #B31F2D",
"u  c #A41C30",
"i  c #AA1F30",
"p  c #B21E30",
"a  c #90332B",
"s  c #983B2E",
"d  c #A5242B",
"f  c #AB202C",
"g  c #B1212F",
"h  c #AE2130",
"j  c #B32230",
"k  c #BB2234",
"l  c #BA293B",
"z  c #C22236",
"x  c #C62439",
"c  c #CB243B",
"v  c #B14A17",
"b  c #B74819",
"n  c #BC4B18",
"m  c #8C502A",
"M  c #AF4F32",
"N  c #81733E",
"B  c #C75817",
"V  c #C45618",
"C  c #D26615",
"Z  c #D07314",
"A  c #E77F12",
"S  c #D67A39",
"D  c #913C43",
"F  c #C92A43",
"G  c #D42B47",
"H  c #C83448",
"J  c #D2334E",
"K  c #C73552",
"L  c #D83452",
"P  c #E1385B",
"I  c #E33F62",
"U  c #8D4A4E",
"Y  c #8C7347",
"T  c #AE6E51",
"R  c #D74C61",
"E  c #E65A77",
"W  c #DC6878",
"Q  c #D7727E",
"!  c #7D8647",
"~  c #7A9647",
"^  c #79A04B",
"/  c #72AF48",
"(  c #75B14B",
")  c #79B34E",
"_  c #7EB94F",
"`  c #7CB453",
"'  c #7EB852",
"]  c #B49136",
"[  c #AEA93F",
"{  c #B5A73C",
"}  c #DA8719",
"|  c #F79B0F",
" . c #F69D0F",
".. c #EC8616",
"X. c #F48912",
"o. c #F58D11",
"O. c #EF9711",
"+. c #ED9C12",
"@. c #E4941E",
"#. c #EC9319",
"$. c #F49311",
"%. c #F59B11",
"&. c #DEB611",
"*. c #DBBC11",
"=. c #F6A40F",
"-. c #EBBC0E",
";. c #F7B30D",
":. c #F5BB0D",
">. c #F8BB0D",
",. c #E7A713",
"<. c #E1B610",
"1. c #F3B213",
"2. c #C79B29",
"3. c #DA9924",
"4. c #D29D2A",
"5. c #CD9F30",
"6. c #D3903D",
"7. c #E59922",
"8. c #C6A637",
"9. c #D4A831",
"0. c #EDB029",
"q. c #BBC92E",
"w. c #DDD10F",
"e. c #D8C611",
"r. c #D3CB17",
"t. c #F7C50C",
"y. c #F6CC0C",
"u. c #E7D40D",
"i. c #F5D30C",
"p. c #F8D40B",
"a. c #F6DB0B",
"s. c #F8DD0A",
"d. c #F5E20B",
"f. c #F8E40C",
"g. c #F7EC09",
"h. c #F8ED09",
"j. c #F4E610",
"k. c #D2C522",
"l. c #F9ED21",
"z. c #848D49",
"x. c #918A4D",
"c. c #83944B",
"v. c #899A4D",
"b. c #879957",
"n. c #929459",
"m. c #89A34E",
"M. c #96AD4D",
"N. c #83A353",
"B. c #8BA353",
"V. c #89A858",
"C. c #81B657",
"Z. c #8BB555",
"A. c #83BC54",
"S. c #82B759",
"D. c #84B95B",
"F. c #8DBA58",
"G. c #89BD5D",
"H. c #99B75B",
"J. c #B7AC45",
"K. c #ADB14B",
"L. c #A5B559",
"P. c #95AB63",
"I. c #87BA61",
"U. c #8ABC63",
"Y. c #8FBD69",
"T. c #96BB61",
"R. c #90BE6B",
"E. c #A3AF67",
"W. c #C6B647",
"Q. c #F4AB50",
"!. c #F3BB72",
"~. c #8CC35C",
"^. c #8FC85A",
"/. c #9CC354",
"(. c #90C75E",
"). c #92C95C",
"_. c #A4C45B",
"`. c #8EC161",
"'. c #8FC068",
"]. c #91C463",
"[. c #94CB61",
"{. c #99CD66",
"}. c #93C36A",
"|. c #9BC468",
" X c #96C96A",
".X c #9ACD6B",
"XX c #9DD06C",
"oX c #9DCC72",
"OX c #9FD170",
"+X c #B1C664",
"@X c #A0CF74",
"#X c #A2D175",
"$X c #A3D175",
"%X c #A4D377",
"&X c #A5D378",
"*X c #A5D379",
"=X c #F9D84A",
"-X c #EBE355",
";X c #F7E96E",
":X c #DB7885",
">X c #E17A8A",
",X c #D28D97",
"<X c #EA8E9E",
"1X c #CDAFB2",
"2X c #E9A8B2",
"3X c #F7D084",
"4X c #F7ED8C",
"5X c #F1DDB8",
"6X c #DFBBC0",
"7X c #F2BFC8",
"8X c #F4CDD3",
"9X c #F9ECCB",
"0X c #F7DEE1",
"qX c #EEE1E2",
"wX c #F9E1E6",
"eX c #FAECEE",
"rX c #FFFFFF",
/* pixels */
").).).~.D.D.D.(.[.[.XX%X*X*X*X*X%X].) / ( `.#X*X@X}.R.Y.U.D.D.D.[.[.).A.( / ( (.[.[.~.D.S.S.D.D.D.D.).).).G.D.D.D.D.D.D.~.).).).",
").).).~.D.D.D.(.[.[.XX%X*X*X*X*X%X].) / ( `.#X*X@X}.R.Y.U.D.D.D.[.[.).A.( / ( (.[.[.~.D.S.S.D.D.D.D.).).).G.D.D.D.D.D.D.~.).).).",
").).).~.D.D.D.(.[.[.XX%X*X*X%X%X#X].) / ) `.#X%X@X}.R.R.U.D.D.D.[.[.).A.( ( ) (.[.[.~.D.S.S.D.D.D.D.).).).G.D.D.D.D.D.D.~.).).).",
").).).~.D.D.D.(.).)..X%X*X%XXX.X.X].` ` ` ~..XXX.XoXoXoX'.D.D.D.[.[.[.~.A.A.A.).).).~.D.S.S.D.D.D.U..X.X.X`.D.D.D.~.~.~.^.).).).",
").).).~.U.U.U.).).).{.%X*X%X{.).).^.D.S.D.~.[.[.{.#X*X#X}.D.D.D.[.[.[.).).).).).).).~.D.D.D.D.D.D.'.#X%X#X}.D.D.D.^.).).).).).).",
").).).~.U.U.U.).).).{.%X*X%X[.).).^.D.D.D.~.[.[.{.%X*X%X}.D.D.D.[.F.c.z.z.z.z.F.).).~.D.D.D.D.D.D.].#X*X#X}.D.D.D.).).).).).).).",
").).).~.U.U.U.^.).).{.@X#X#X{.).).(.D.D.D.~.[.[.[.oX#XoX}.D.D.D.].v.          m.).^.~.D.D.D.D.D.D.].#X#X#X].D.D.G.).).).).).).).",
").).).~.U.U.U.D.D.D.D.D.D.U. X#X#X XY.Y.U.U.D.D.D.D.D.D.D.U.U.V.- =           = - C.G.^.).).[.[.[.[.).).).).).).).).).).~.D.D.D.",
").).).~.U.U.U.D.D.D.D.D.D.D. X%X*XoX}.R.Y.U.D.D.D.D.D.D.D.U.U.N.#   + + X X X   # N.G.).).).[.[.[.[.).).).).).).).).).).~.D.D.D.",
").).^.~.U.U.U.D.D.D.D.D.D.D. X*X*XoX}.R.Y.U.D.D.D.D.D.D.D.U.U.N.# D 1X,XK l p 8 X a m & & & & v.[.[.).).).).).).).).).).~.D.D.D.",
"A.A.A.D.D.D.D.D.D.D.U.}.}.}.oX*X*XoX}.R.Y.U.D.D.D.~.~.~.~.~.~.V.$ U qX2XI G x w X , 0 @ +     ! F.]..X.X.X.X.X.X{.).).).~.D.D.D.",
"( ( ( ` S.D.D.D.D.D.'.@X#X#X*X*X*X@X}.R.Y.U.D.D.D.[.[.[.).).).~.^ z.U D l k j f r j H ,X1XU   # % V.#X%X*X%X%X%X#X).).).~.D.D.D.",
"/ / / ` S.D.D.D.D.D.].#X*X*X*X*X*X@X}.R.Y.I.D.D.D.[.[.[.).).).~.N.:   6 f g g g j k H 2X6XU     . B.#X*X*X*X*X*X#X).).).~.D.D.D.",
"( ( ( ` D.D.D.S.S.D.'.@X#X#X#X%X#XoXR.Y.Y.U.D.D.G.[.[.[.).).).Z.$ .   o 0 r g g j j l H H 8     . B.@X#X#X#X#X#XoX).).(.~.D.D.D.",
"~.~.~.G.U.Y.U.` ) ) D.Y.R.}.[.[.[.].D.D.D.~.^.^.^.[.[.[.].}.}.V.3 a U s 5 d f f f f f j p 7   % * P.`.~.`.}.}.}.}.U.U.U.~.^.^.^.",
").).).].R.R.U.` / ( ` U.U.U.^.).).~.D.S.D.~.).).).[.[.[.].R.R.H...Q.9X3X..V 2 9 < < < 9 , X   n.*XoXD.D.D.U.R.R.Y.U.U.U.~.).).).",
").).).].R.R.U.` ( ( ` U.U.U.^.).).~.D.S.D.~.).).).[.[.[.].R.J.8.1.0.4X3XQ.S b 2 < < 9 > o     n.#XoXD.S.S.U.Y.Y.Y.U.U.U.~.).).).",
").).).].].].`.A._ _ A.~.`.~.~.~.~.G.` ` ` G.~.~.~.[.[.[.].G.7. .s.f.l.;X9X!...b 2 1 9 o       z. X}.D.S.S.U.U.U.U.`.`.`.~.~.~.~.",
").).).).).).).^.^.^.).).).^.D.D.D.S.` ` ` ` D.D.D.[.[.[.{ 4.1.;.t.y.y.=X4X=X1.6.T M b v 3 m ! N.D.D.D.D.D.D.D.D.D.[.[.[.~.D.D.D.",
").).).).).).).).).).).).).).D.D.D.S.` ` ` ` D.D.D.[.[.(.4.%.p.p. .$.$.1.l.j.f.;X5XQ...A A ] D.D.D.D.D.D.D.D.D.D.D.[.[.[.~.D.D.D.",
").).).).).).).).).).).).).^.D.D.D.S.` ` ` ` S.S.D.[.x.M V Z :.>.$.o.o.=.t.i.u.-X4XQ.o.X.3.M.D.D.D.D.D.D.D.D.D.D.D.[.[.[.~.D.D.D.",
"XXXX.X{.).).)..X.X.X{.`.`.~.D.D.D.S.` ` ` ` ) ` C.|.T e 2 4 A o.X.X.X.X.o.,.e.r.k.,.o.o.#.J.}. X X X~.~.~.~.~.~.~.[.[.[.).~.~.~.",
"%X%X%X.X).).).#X%X#X XU.U.U.D.D.D.D.D.D.S.` ~ ~ ~ Y d e 0 2 n B B B B B B } ,.,.,.O.o.7.8.T.oX%X%X#X[.[.[.).).).).[.[.[.[.[.[.[.",
"*X*X%X.X).).).#X*X%X XU.U.U.D.D.D.D.D.D.S.^ $ . . O w g e 0 < < < < < < < V ..X.X.X.} B.U.U.@X*X*X#X[.[.[.).).).).[.[.[.[.[.[.[.",
"#X#X#X{.~.~.~..X#X@X XU.U.U.G.D.D.D.~ ! ! ; .   o 8 t g y t 0 < < < < 9 9 5 V B B B n m z.N.oX@X@X.X[.[.[.).).).).(.(.(.(.(.(.(.",
").).).A.` ` A.).).).).).).).).).(.~.*         X w g j k x z e 0 0 0 0 0 0 9 < < < 0 9 o   = U.U.U.`.).).).).[.[.(.G.D.D.D.D.D.D.",
").).).A.` ` ` ^.).).).).).).).).m.- %   X > 8 w t j F J c x t t e 0 0 0 e 0 0 1 < 0 9 o   % - b.U.`.).).).).[.[.(.D.D.D.D.D.D.D.",
").).).A.` ` ' ^.).).).).).).).).;       o < r j l l L P G x j g r r r r u 0 0 0 0 0 9 o       ! U.`.).).).).[.[.(.D.D.D.D.D.D.D.",
").).).~.G.G.~.).).).^.~.~.~.).).;   X > q t k H :X2XW G z k j j h h h i u e e e e 0 0 < , , , % * V.~.~.~.~.~.~.~.}.}.}.U.D.D.D.",
").).).).[.[.[.).).).~.D.D.D.~.(.N   o , d l x J 2X0XQ c k j j j j j j i u r r r r 0 0 0 0 0 < X . b.D.D.D.D.D.D.G.oX%X#X}.D.D.D.",
").).).).[.[.[.).).).~.D.S.D.v.s a   8 j :X2X>XP R R H j j j j j j j j j j u u u u F F r < 0 < X . b.D.D.D.D.D.D.D.#X*X%X}.D.D.D.",
").).).).[.[.[.).).).~.D.D.D.v.0 , X d H <XwX<XP G x k j j j j j j j j j j i u u u F L h 0 0 < o   b.D.D.D.D.D.D.D.oX#X@X}.G.D.D.",
"D.D.D.~.).).).#X#X#X XD.D.D.v.  8 j Q 8XeXeX>XF c c k j j j j j j j j j j i u u u k F L J d < < 9 c.S.D.D.D.D.D.D.U.U.U.~.^.).).",
"D.D.D.~.).).).#X*X*X XD.D.D.v.  8 z >XeXrXeX:Xc c z k j j j j j j j j j h i u u u k c L J d , 9 9 ~ S.D.D.D.D.D.D.U.U.U.~.).).).",
"D.D.D.~.).).).#X*X%X XD.D.D.v.  8 z >XeXrXeX:Xc k g j j j j j j j j j i u u u u u k c c x e , o X ~ S.D.D.D.D.D.D.U.U.U.~.).).).",
"U.U.U.G.~.~.^.@X*X%X.X~.~.~.c.  8 z Q 7X8X7XW x k j j j j h h h h h h i u r w w w p k x z e , X . ~ D.D.D.D.D.D.D.~.~.~.~.~.~.~.",
"Y.Y.Y.U.D.D.G.oX*X%X.X).).(.c.  8 z L E E R J x k j j j i u u u u u u u u w 9 9 9 q e k z e , X . B.D.D.D.U.U.U.U.(.).).~.U.U.U.",
"R.R.Y.U.D.D.D.oX*X%X.X).).).c.  7 t F L G c x z k j j h u u u u u u r r w q , , , , 9 t y 0 , X . B.D.D.D.U.U.U.U.).).).~.U.U.U.",
"}.}.}.U.D.D.G.oX#X#X.X).).^.c.    X w x c c k j j j i u u u u u u u r w 9 9 , < , , , 9 9 < , X . B.G.D.D.U.U.U.U.).).).~.U.U.U.",
"#X#X#X.X[.[.].G.D.D.D.D.D.D.!   X o q k z z k j h h u u u u r r w w w q , , , , , , , , , > o X . m.[.[.[..X@X#XoX).).).~.D.D.D.",
"*X*X%XXX[.[.[.D.D.D.D.S.S.S.~ . o < r g j j j j i u u u u r r w 9 9 9 , , , , , , , , , , X     . m.[.[.[.XX%X*X#X).).).~.D.S.D.",
"%X%X#X.X[.[.[.D.D.D.D.S.S.S.C.: @ > q t i i h j i u u u u r w q , , , , , , , , , , , , , X   o > B.[.[.[..X%X%X#X).).).~.D.D.D.",
"}.}.}.{.[.[.[.U.U.U.D.S.S.S.G.G.-   6 w r t i j i u u r r r 9 , , , , < < < < < < < < , > X   , s H.].].]. XXXXX.X).).).~.D.D.D.",
"D.D.D.~.[.[.[.'.Y.Y.U.D.D.D.~.).;   o 8 q r i i u u u r w q , , , , , 4 n n n n n n b 2 o X   s E.oXU.U.U.].[.[.[.).).).~.U.U.U.",
"D.D.D.~.[.[.[.}.R.Y.U.D.D.D.~.).;       6 w r r r r r r 9 , , , , , < n X.o.o.o.o.o.A 3       n.*X@XU.U.U.].[.[.[.).).).~.U.U.U.",
"D.D.D.~.).).[.}.}.}.U.D.D.D.~.^.v.- $   o 6 6 6 6 6 9 q 8 , , , , 2 n Z :.>.:.>.>.>.1.Z v m Y P.#XoXU.U.U.].[.[.[.).).(.~.G.U.U.",
"D.D.S.` ` ) A.oX@X@X X^.^.^.G.D.D.U.=               > < , , , , , 5 ..;.g.g.h.g.h.h.f.=.X.8.}.U.U.~.(.).).).[.[.[.U.U.G.A.` ) ) ",
"D.D.S.` ( / ) oX*X%X.X).).(.D.D.D.U.P.n.n.: .       X o n C C C C C X.;.g.h.h.h.g.y.;.$.o.7.4.4.4.4.9./.).).[.[.[.U.U.I.` ( / / ",
"D.D.S.` ( / ) oX%X#X.X).).(.D.D.D.U.#X*X#XV.#     .   O Z o.o.o.X.X.o.;.g.h.h.h.f.;.o.o.o.o.o.o.o.o.#./.).).[.[.[.U.U.I.` ( / / ",
"D.D.S.` ) ) ` }. X X}.].].].G.G.G.].#X*X#XG.~ ~ ~ B.] Z -.p.p.y.<.,.$.$.=.=.=.=.=.$.o.o.$.>.p.p.p.p.i.k.q.{..X.X XD.D.S.` ) ) ) ",
"D.D.D.S.S.S.S.D.D.D.U.Y.R.H.H././._.#X*X#X}.D.D.G.+X9.$.i.g.g.d.e.*.$.o.$.$.$.$.$.o.o.$.=.p.h.h.h.h.d.e.k.XX#X%XoXA.` ` ` C.C.C.",
"D.D.D.D.D.D.D.D.D.D.U.Y.H.@.#.#.#.#.K.*X#X}.D.D.K.#.o.$.-.w.w.w.e.*.$.+.&.&.&.&.&.+.$.>.p.f.h.h.h.h.a.,.9.OX*X*XoXC.` ` ` S.S.S.",
"D.D.D.D.D.D.D.D.D.D.U.L.J.%.%.%.%.%.W.+X@X}.D.D.L.7.#.o.<.*.*.*.*.<.$.+.*.e.e.e.e.,.%.t.s.s.s.s.s.s.y.7.9..X#X%XoXC.` ` ` C.C.C.",
"~.~.~.G.U.U.U.D.D.D.Z.@.%.y.a.a.a.a.:.$.L.U.D.D.D.'.8.o.$.O.$.$.$.$.o.$.O.-.d.u.e.,.o.$.| | | | | | ,.T.}. X{.{.].D.` ` ` ) ) ) ",
").).).~.U.U.U.D.D.D.Z.@.| d.h.h.h.h.t.$.L.U.D.D.D.D.K.2.2.2.2.2.5.5.5.3.o.;.p.u.<.+.o.o.o.@.2.2.2.2.8.T.R.].).).^.D.D.S.` ( / / ",
").).).~.U.U.U.D.D.D.Z.@.| d.h.h.h.h.t.$.L.I.D.D.D.D.D.S.` / / ( D.U.U.{ o.$.=.%.%.$.o.o.o.8.) / / ` Y.R.R.].).).^.D.D.S.` / / / ",
").).).`.U.U.U.D.D.D.D.[ +.y.p.p.p.p.;.8.T.I.S.S.S.D.D.S.` ) ) ) U.U.U.M.{ { { J.W.J.J.[ [ M.) / / ` U.Y.Y.].).).^.D.D.S.` ( ( ( ",
").).)..X#X#X@X}.Y.Y.U.D.[ %.| | | | 8.Z.D.` ( ( ) S.D.D.U.U.U.U.[.[.[.[.[.[.^.` ) ) ` ` ` ` ) / / ) D.D.D.~.).).(.D.D.D.S.S.S.S.",
").).)..X%X*X#X}.R.Y.U.D.D.[ 3.{ 2.4.K.D.S.` / / ) S.D.D.U.Y.R.}.[.[.[.[.[.[.).) / / ) ` ` ` ) / / ) S.D.D.~.).).).D.D.D.D.D.D.D.",
").).)..X#X#X@X}.R.Y.U.D.D.D.M.Z.Z.Z.Z.D.D.` / / ) D.D.D.U.Y.R.}.[.[.[.[.[.[.).` ( ( ) ` ` ` ) ( ( ) S.D.D.~.).).).D.D.D.D.D.D.D.",
").).).^.~.`.`.].].].G.D.D.D.D.D.D.D.~.~.~.` / / ) ~.~.~.`.].].].`.`.`.].).).).~.~.~.G.` ` ` A.A.A.D.U.U.U.]..X.X{.D.D.D.D.U.U.U.",
").).).A.) ( ) ^.).).~.D.D.D.D.D.D.D.^.).^._ ( / ) (.[.[.[.[.[.[.U.U.U.~.).).).oX#X#X}.D.S.D.~.^.(.`.Y.Y.R.oX#X%XoXD.D.D.U.Y.Y.Y.",
").).).A.( / ( ^.).).~.D.D.D.D.D.D.D.(.).^._ ( / ) ).[.[.[.[.[.[.U.U.U.~.).).).#X*X#X}.D.D.D.~.).).].R.R.R.oX*X*XoXD.D.D.U.Y.R.R.",
").).).A.( / ( ^.).).~.D.D.D.D.D.D.D.).).^._ ( / ) ).[.[.[.[.[.[.U.U.U.~.).).).#X*X#X}.D.D.D.~.).).].R.R.R.oX*X*XoXD.D.D.U.Y.R.R."
};
