/* XPM */
static char *result[] = {
/* columns rows colors chars-per-pixel */
"64 64 215 2 ",
"   c #5C2E29",
".  c #6B392E",
"X  c #7A4736",
"o  c #4F7D75",
"O  c #517F76",
"+  c #A83538",
"@  c #B03E3E",
"#  c #844C36",
"$  c #985633",
"%  c #AD562D",
"&  c #B24439",
"*  c #B94B38",
"=  c #BA503A",
"-  c #AC6432",
";  c #DB4E29",
":  c #DC532A",
">  c #DD5C2D",
",  c #C25A3B",
"<  c #DE5C33",
"1  c #DE622D",
"2  c #DF692E",
"3  c #CE673A",
"4  c #DA6C34",
"5  c #D16B39",
"6  c #CA753E",
"7  c #DD7234",
"8  c #D8793B",
"9  c #E06C2F",
"0  c #E0702F",
"q  c #E06C30",
"w  c #E0653A",
"e  c #E16B39",
"r  c #E17231",
"t  c #E37B35",
"y  c #E3743C",
"u  c #E47B3C",
"i  c #8E5C47",
"p  c #9C5658",
"a  c #AD4C4A",
"s  c #B74346",
"d  c #B3454B",
"f  c #B9444B",
"g  c #BD4C49",
"h  c #BA534C",
"j  c #A54F53",
"k  c #BD5B55",
"l  c #9A6A5C",
"z  c #9C7659",
"x  c #B16D56",
"c  c #A37958",
"v  c #8E6864",
"b  c #AC7765",
"n  c #C14F47",
"m  c #C45445",
"M  c #C65C46",
"N  c #C35448",
"B  c #CB6245",
"V  c #CE6845",
"C  c #D26D47",
"Z  c #D57443",
"A  c #DA7C42",
"S  c #D9764C",
"D  c #C2655B",
"F  c #D7795F",
"G  c #E57B45",
"H  c #E5754C",
"J  c #C56C61",
"K  c #C87165",
"L  c #CD7B6C",
"P  c #D47D6F",
"I  c #538077",
"U  c #56837B",
"Y  c #59857D",
"T  c #678879",
"R  c #788A74",
"E  c #7E917B",
"W  c #DD833E",
"Q  c #DB883C",
"!  c #E38037",
"~  c #E3843A",
"^  c #E68E3F",
"/  c #E6903F",
"(  c #A88758",
")  c #B58C55",
"_  c #B2915C",
"`  c #948465",
"'  c #8B8F72",
"]  c #859179",
"[  c #B68568",
"{  c #BB896C",
"}  c #A7956A",
"|  c #BE9870",
" . c #B8A47A",
".. c #CA874B",
"X. c #DD8340",
"o. c #D98C4A",
"O. c #D6934F",
"+. c #D28854",
"@. c #CB9659",
"#. c #D39654",
"$. c #E58444",
"%. c #E68A48",
"&. c #E69242",
"*. c #E79846",
"=. c #E8964A",
"-. c #E98D52",
";. c #E7875B",
":. c #EA9056",
">. c #EA9B53",
",. c #EB955C",
"<. c #EC9F5C",
"1. c #DBA954",
"2. c #E8A54A",
"3. c #EBAD4D",
"4. c #EDA75C",
"5. c #EDB25B",
"6. c #C18F6F",
"7. c #D3826B",
"8. c #D48674",
"9. c #C79171",
"0. c #CE9D79",
"q. c #D39E7C",
"w. c #DA9878",
"e. c #EA8C64",
"r. c #ED9C64",
"t. c #E99468",
"y. c #ED966C",
"u. c #EC9C6B",
"i. c #F09D72",
"p. c #C6A06E",
"a. c #EDA866",
"s. c #EFA36C",
"d. c #F0A36D",
"f. c #F0AC6F",
"g. c #F0A572",
"h. c #F1AB73",
"j. c #F2A87B",
"k. c #F2B577",
"l. c #F2B47C",
"z. c #F5BB7F",
"x. c #5E8A82",
"c. c #628E84",
"v. c #639087",
"b. c #659289",
"n. c #6B968D",
"m. c #6D988F",
"M. c #779586",
"N. c #6F9B92",
"B. c #729D94",
"V. c #76A097",
"C. c #77A198",
"Z. c #7CA59C",
"A. c #8F9687",
"S. c #859C8B",
"D. c #B1988F",
"F. c #85A89C",
"G. c #9BAA95",
"H. c #ACA684",
"J. c #ABAA8D",
"K. c #A6A992",
"L. c #A1B29C",
"P. c #83ABA2",
"I. c #89AFA5",
"U. c #89B0A6",
"Y. c #8EB4AA",
"T. c #92B6AC",
"R. c #99B6AA",
"E. c #94B8AE",
"W. c #97BAB0",
"Q. c #9BBDB3",
"!. c #A8BAA9",
"~. c #B6BCA6",
"^. c #DF9C85",
"/. c #C39E94",
"(. c #DBB288",
"). c #C8A393",
"_. c #D0B094",
"`. c #E6A888",
"'. c #EFB08F",
"]. c #F4B483",
"[. c #F5BD82",
"{. c #F5B68C",
"}. c #F7BB8B",
"|. c #ECB393",
" X c #E6BF9B",
".X c #F2B692",
"XX c #F6BB95",
"oX c #F8BD94",
"OX c #F6BE99",
"+X c #F8BF98",
"@X c #CDB4AD",
"#X c #B9C2AD",
"$X c #F8C28C",
"%X c #E2C19E",
"&X c #EEC59F",
"*X c #F9C495",
"=X c #F4C69A",
"-X c #F6C29C",
";X c #FAC49D",
":X c #FBC99D",
">X c #D7C6A6",
",X c #E4C4A1",
"<X c #EAC7A6",
"1X c #F4C5A1",
"2X c #F9C7A1",
"3X c #F6C9A3",
"4X c #FCCCA4",
"5X c #F6CEAA",
"6X c #FACEA9",
"7X c #FDD0A7",
"8X c #F5D1AD",
"9X c #FED4AA",
"0X c #FED8AF",
"qX c #FCD6B1",
"wX c #FED9B1",
/* pixels */
"9X9X9XwXwXwX0X0X0X0X0X9X0X9X0X0X0X0X0X0X9X0X0X9X0X0X9X0X9X0X9X0X0X9X0X0X0X0X0X0X8X8X0X9X0X9X9X0X9X9X0X9X0X9X9X7X7X7X9X7X7X9X9X9X",
"9X9X9X9X9X9XwX0X0X0X9X0X9X0X0X9X9X0X9X9X0X9X0X9X9X9X9X9X0X0X9X0XwX0X0X0X0X9X9X%XD.@X9X9X9X9X9X0X9X0X9X0X9X9X7X9X7X9X7X4X7X7X9X0X",
"9X7X7X9X9X9X9X9X9X9X0X0X0X0X0X0XwX0X0X0X0X0X9X9X0X0X0X0X0XwX0X0X0X9X0X7X7X7X7X4X&X4X4X4X7X7X9X9X9X9X7X7X7X7X7X7X9X7X9X9X9X9X9X0X",
"7X4X9X7X9X4X9X7X9X9X9X9X9X9X9X9X9X9X0X9X0X0X0X0X0X0X9X0X0X9X9X9X0X9X9X9X7X7X:X7X4X7X7X7X4X7X9X9X9X9X9X7X7X7X7X7X7X7X7X7X7X9X7X9X",
"5X6X4X9X7X7X9X9X9X9X9X9X9X9X7X9X9X9X7X9X9X9X9X9X9X9X9X7X9X7X7X9X9X7X7X9X7X7X:X7X4X4X7X9X9X9X0X9X0X9X0X9X7X7X7X7X7X7X7X4X7X7X4X7X",
"@X@X7X9X7X7X4X9X7X7X7X9X9X7X9X7X9X7X7X9X9X9X9X9X7X7X7X7X7X7X7X7X7X7X7X7X7X7X7X7X9X0X9X0X0XwX0XwX0X0XwXwXwXqX9X0X7X7X4X4X7X4X7X:X",
"8X5X6X4X4X4X7X4X7X7X9X7X7X7X7X7X7X4X7X4X7X7X7X6X7X7X4X7X7X4X7X4X4X7X3X9X7X7X7X7X0X9X7X1X-X-XXX.X}..XXX.XXXXX3X3X3X2X9X9X7X7X7X7X",
"9X9X9X7X9X9X7X7X7X7X7X7X7X7X7X7X7X4X4X7X4X4X4X7X4X7X4X7X7X4X7X7X4X7X7X7X0X0X7X3XOXXX-X:X4X4X4X4X:X7X7X4X5X7X3X3X2X-X-X-X3X7X7X9X",
"9X7X7X7X9X7X7X7X4X7X4X7X4X4X4X4X9X4X4X4X4X9X7X4X4X7X7X7X9X7X9X9X9X9X9X5X2X-X:X-X-X;X:X4X;X4X4X4X4X7X2X3X:X:X:X4X4X4X4X4X4X4X2X4X",
"9X9X9X9X7X7X7X9X7X:X7X4X9X7X4X7X4X4X4X4X6X4X7X7X9X4X9X9X7X7X4X2X=X;X X~.F.M.G. X:X;X4X:X4X4X2X4X4X7X7X4X4X4X2X2X2X2X:X2X2X4X4X4X",
"1X<X5XqX0X0X9X9X7X7X*X*X9X9X9X9X9X9X9X9X0X7X6X7X4X3X2X2X1X:X4X4X>X!.Z.N.N.N.v.I H.;X:X4X:X4X4X4X7X7X4X4X4X4X4X:X4X:X4X4X4X4X4X4X",
"oX-XXX.X`.^.=Xk.>./ / ^ >.2X8X6X6X5X3X2X;X;X;X2X2X4X4X4X4X4X4X~.E.P.N.N.N.N.N.b.o M.&X4X4X4X4X4X7X7X7X7X4X4X4X4X4X4X4X4X4X4X7X7X",
":Xx / / Z N 8 ~ / / ^ r ^ g.-X-X*X=X:X:X4X:X:X4X7X7X7X7X>X~.T.E.T.N.N.N.N.N.N.N.v.o x.%X2X4X4X2X4X7X7X7X7X9X7X2X4X:X4X7X4X4X4X4X",
"f./ / / V M - - Q / ~ ^ ~ S {.4X4X7X7X7X7X7X9X7X9X7X>XR.W.Y.Z.P.I.F.N.N.N.N.N.N.m.x.o T ,X4X4X4X4X4X4X7X9X7X7X4X4X7X4X7X4X4X4X3X",
"*.~ ~ ^ m d g g n g g f f f P 4X7X7X9X7X9X9X9X7X9X~.E.T.W.U.V.N.N.N.N.N.N.N.N.N.m.O o O O K.,X3X7X7X7X4X7X9X7X4X4X1X_.9X4X7X7X4X",
"a.^ *.! @ z B N g g g g g s F 7X7X9X7X7X9X7X9X9X!.U.V.B.Z.U.Y.I.C.N.N.N.N.N.N.N.x.o O x.b.O o S.<X7X9X9X7X9X7X7X3XD.D.7X4X4X4X7X",
"9X9X9Xu.p ` ^ ^ / ~ ! 5 & X.u :X9X9X7X9X7X9X9X#XP.N.N.N.N.N.B.C.Z.Z.V.N.N.N.n.U o U m.N.m.O O n.C._.7X7X4X9X7X7X4X).<X7X4X7X4X7X",
"7X9X9X1Xv Y 0 7 8 4 * * W &.u h.7X7X9X7X7X7X%XZ.N.N.N.N.N.N.N.N.N.N.N.N.N.v.I o c.N.N.N.Y O x.P.F.8 $.*X7X4X4X4X4X4X7X9X7X9X7X7X",
"9X0X0Xw.A.c.p.3 * = 8 ^ / / ~ -.7X7X7X9X7X7X#XP.N.N.N.N.N.N.N.N.N.N.N.N.x.o x.N.N.N.N.c.o x.T.R.@.t r u :X9X9X4X9X9X7X7X7X7X7X7X",
"9X9X7XD _.J.7X7.~ / / ^ / ^ ^ t L |.9X0X9X7XR.Q.Y.V.N.N.N.N.N.N.N.N.b.U x.N.N.N.N.N.b.o x.Y.E. .^ / ! r -.6X9X9X9X9X9X9X9X9X9X9X",
"9X9XwXx 8X0X9X:X^ ^ ^ / ^ ^ &.5 k OX.X`.[.>.@.T.Q.E.I.N.N.N.B.m.N.N.N.N.N.N.N.B.N.v.o b.T.Q.H.^ ^ ^ / t r ,.9X9X9X9X9X9X9X9X9X9X",
"9X6X6Xk =X-X-X3X>.^ ^ ^ ^ &.~ & $.t.f f *.^ / #.L.E.W.W.Z.N.N.B.N.N.N.N.N.N.N.N.c.U V.W.T.J./ ^ ^ ^ ^ ^ r r G :X9X9X9X9X9X9X9X9X",
"6X4XXXL 4X4X7X7Xh.^ ^ ^ ^ ^ & 8 &.~ f f A ^ / / &. .T.Q.E.Y.C.B.N.N.N.N.N.N.N.x.x.I.E.Q.H./ ^ ^ ^ / ^ ^ ~ r 2 H 9X9X9X9X7X9X7X7X",
"4X4X`.8.4X4X4X4X:X&.^ ^ &.* 5 ^ &.&.g f Z / ^ ^ / / O.J.E.Q.Q.U.V.N.N.N.N.b.c.N.I.W.W. .^ ^ ~ ^ ^ ^ ^ / / r r > i.9X7X9X7X7X9X7X",
"6X4X`.w.4X4X9X7X9X<.^ ^ , , / / ^ ^ B f B ^ &.^ ^ ^ ^ ^ #.J.Q.E.Q.I.C.V.m.m.Z.W.T.T.p./ ^ / t ^ ^ &.^ &.&.q r j.e 7X9X6X4X4X7X4X",
"4X6X^.8.9X9X9X7X7X:Xt , , / / / ^ ^ Z f N ^ ^ ^ ^ ^ ^ ^ ~ / #.H.E.W.E.Y.P.U.Q.E.R.@./ ^ ^ ^ t / ^ ~ A Z B N f .XG j.4X2X4X4X4X9X",
"4X6X|.K 9X6X9X9X9X9XD , ~ / ^ ^ ^ %.X.f h &.A X.Q $./ ! ~ ^ ^ &.o.| L.E.Q.T.Q.K.+.X.A A Z B m N n f f f d d d |.g.,.4X4X4X4X4X4X",
"9X9X6Xd 9X9X4X6X4XD P r.9 t ^ ^ ^ &.~ b k g f d d f f f f g g g g g g h d f f f f f f f f f j f f f f f v m C 4XoXy 2X4X4X4X4X4X",
"9X9X9XL 8.9X9X`.k `.9X4Xg.r r t ! ~ / x a V M k p f f f f p f f f f f j f f f f p f f f g g l B C Z u o.E 0 $.7X6Xr 4X4X4X4X4X4X",
"9X9X9X4XL D J 8.2X4X7X6X4X*X-.r r r r + + 4 3.( ( &.~ r 4 ` A Z Z Z Z c Z Z Z A ` ..~ r 0 0 E ) ^ &.^ #.Y 6 1 3X4Xy 2X9X0X9X7X9X",
"4X4X9X9X9X9X9X4X4X9X4X4X4X4X4X*Xh.,.$.+ + o.3.S.` / ^ 0 7 c.) &./ / _ E ^ ^ ^ ^ ] z r t :.s.M.R / / ^ } b.c ; {.4Xy j.4X4X4X2X4X",
"4X9X9X9X4X4X4X9X4X4X9X9X9X7X7X9X9X9X0X'.q.6X1.N.T / ^ 0 8 m.R ~ ^ ^ ' x.X.t t 7 B.T $X9X9X0Xn.x.^ / / ..c 6 ; y.7XG 4 7X7X9X9X9X",
"9X9X9X4X9X7X4X4X7X9X9X9X9X9X9X9X0X0XqX9X7X3X3._ ) ^ &.t 2 ] R r r r ' x.Z u s.=XS.S.0X9X9X9X(.../ / / / t > ; w 0Xe > 9X0X9X0X9X",
"4X4X4X9X4X4X7X4X4X7X9X9X0X0X0XwX9X7X1X;XOX=X3.&.^ %.^ oXe > 9 9 4 %.s.(.*X7X7X7X6X9X9X9X9X9X9X=./ / / / t > ; ; }.y.> 9X9X0X9X9X",
"<X6X4X4X7X7X7X9X4X7X7X0X0X0X4X;X-XOX;X:X3X2X3./ ^ ^ &.4Xl.> ; ; ; ;.3XqX9X9X7X7X9X9X9X9X9X9X9X:X*.^ / / ! q ; ; H 9Xj.9X9X9X9X9X",
"6X6X4X7X7X7X9X9X9X0XwX9X3X=X;X-X:X2X4X4X2X2X3./ ^ ^ <.4X2Xr.r 9 > : ;X2X3X5XqX9X9X6X6X9X9X9X9X9X*X&./ / ! > ; ; : {.9X9X9X0X9X9X",
"9X9X4X9X7X9X9X0X0X7X3X-X;X2X4X4X4X4X4X4X7X7X3./ ^ ^ f.4X4X:Xu r r : y.4X3X4X;X2X6X9X6X9X6X9X6X9X9Xk.&.^ ~ 9 ; q q < :X9X9X9X9X9X",
"6XwX0XwX0X0X7X3X1X-X;X4X4X4X4X4X9X4X4X0X9X9X3./ ^ / $X7X7X7X].r r q w 4X4X4X4X4X;X;X2X4X9X9X9X9X9X4X&.^ ^ r : 9 9 9 < j.9X9X9X4X",
"4X4X3X4X4X2X;X2X2X4X4X7X7X7X7X9X7X9X0X9X9X9X2.^ ^ &.7X7X9X9X9X-.r r : {.9X4X9X7X9X4X4X;X;X2X4X9X4X9Xa.^ ^ r H 9 9 9 r : y.7X7X7X",
"4X2X;X4X2X4X4X4X7X4X9X9X9X9X7X7X9X9X0X9X0X0X2.^ ^ 4.0X9X9X0X9X;Xr 9 q e.9X9X9X4X4X9X4X;X-XXXXX+X2X6Xl.^ ^ t {.h.t 0 0 9 : {.7X7X",
"4X4X4X4X7X7X7X9X9X7X9X9X7X4X7X9X7X9X9X7X9X:X3./ ^ z.9X9X9X9X9X9Xr.r 9 w 9X9X9X9X7X9X7X7X4X4X:X-XXX.X].^ &.t d.4XoX$.r 0 q t.6X6X",
"7X7X9X9X9X9X9X7X7X9X4X7X7X9X7X9X7X9X7X9X7X$X2.^ &.4X9X9X9X7X7X9X:Xr r : :X9X9X0X9X9X7X7X7X7X4X4X2X2X*X^ ^ ^ :.;X;X;Xu 0 9 e.+X+X",
"7X9X7X0X9X9X7X4X4X7X9X9X9X7X9X9X9X9X9X7X7Xz./ / a.6X7X9X7X7X4X4X4X,.r q y.4X4X4X9X9X9X7X4X4X4X4X4X2X4X&.^ ^ u 4X2X4Xg.0 0 y.+X;X",
"9X9X4X4X7X7X9X9X7X6X4X4X7X9X9X9X9X9X9X9X7X5.2./ k.7X7X4X7X4X7X4X4Xg.9 9 < ;X4X4X4X:X7X7X9X9X7X7X7X4X4X^ ^ ^ u 4X4X4X;X9 r ].4X6X",
"4X9X9X9X9X9X9X9X4X6X4X4X4X4X4X7X9X9X0X9X:X3./ / $X4X7X9X4X7X9X4X7X:Xt 9 > i.4X:X:X4X9X9X9X9X9X9X9X9X4X=.^ ! <.4X7X4X4X$.r }.4X9X",
"9X0X0X9X0X0X9X9XqX6X6X;X:X;X4X4X:X4X:X7Xz.3./ *.7X7X7X4X9X9X9X9X7X4Xr.0 q ;.4X4X4X4X4X4X7X9X0X9X9X9X9X=.^ t *X7X9X7X7X:.0 ;X7X7X",
"9X0X9X2X+X;X+XXXoXXX+X2X6X4X2X;X:X;X:X:Xz.*./ z.4X4X4X4X4X4X7X4X4X4X4XG q H ;X4X4X4X4X4X4X7X9X7X9X9X9X^ ^ -.9X7X7X9X9Xs.r }.9X9X",
"9X3X+X+X;X;X;X2X;X+X2X;X;X+X2X3X4X4X:X:Xk./ 4.:X4X4X4X4X4X4X2X:X:X:X;Xw.9 H 2X;X:X4X4X4X4X4X7X7X7X9X7X/ ~ ].7X9X9X9X9Xd.r }.9X9X",
";X+X+X+X*X+X;X;X;X;X+X;X;X;X;X;X+X2X6X4X4.^ l.4X4X4X4X2X;X:X2X4X2X2XOX@Xe q oX+X;X4X7X4X9X9X9X7X7X9X*X/ ~ 0X9X9X9X0X0Xs.r k.9X9X",
"+X+X+X+X-X;X;X4X4X;X4X:X;X+X;X+X;XoXoX;X*.&.*X4X4X4X4X4X4X4X4X;X4X4X2X1X-.q y.;X2X6X9X9XwX9X0X0X0X0X[.^ s.0X9X0X0X9X9Xr.r s.9X9X",
"+X-X2X2X:X:X:X:X4X4X4X4X7X7X4X;X-X-X*Xk.*.>.4X4X4X;X;X;X;X4X;X;X2X4X4X2X].r G 6X2X+X-X-X+X+X-X;X;X2Xa.^ ;XwX9X0X9X0X9X:.r %.9X0X",
";X4X4X9X9X7X7X7X4X4X4X4X7X6X4X4X4X4X:X4./ f.;X4X4X;X4X;X;X;X4X4X4X2X4X4X4Xy q {.4X2X;X2X;X;X;X2X;X:X=.%.oX+X6X6X0X0X9X[.r 2 +.:X",
"7X4X7X7X7X4X7X9X9X9X7X7X7X7X4X7X4X:X*X*.^ }.:X:X2X4X6X9X6X6X4X6X4X4X6X2X:X-.r y.2X4X4X4X:X2X:X;X4X]./ f.3X-X+X+XXX2X6XwX-.2 X 0.",
"4X9X7X9X9X7X9X9X7X9X9X7X7X9X9X9X9X9Xa./ &.4X4X:X;X;X;X4X4X6X6X4X4X2X2X2X:Xd.r y 4X7X7X4X7X:X4X4X}.&./ }.7X7X4X:X;X;X+XoXj.%   0.",
"7X7X9X9X9X9X0X9X0X9X0X9X9X9X7X4X[ . . $ +.7X7X4X4X4X4X4X4X4X4X4X4X4X4X4Xw.# $ % `.7X7X7X4X7X7X6.# - ..7X7X7X7X9X6X4X4X:X2XX . {.",
"9X0X9X0X0X9X9X9X0X9X9X9X0X9X0Xc         i 7X7X7X9X4X4X4X4X4X4X4X4X4X4X{         [ 4X4X4X4X:X[       X 4X7X7X4X4X4X4X4X4X4Xq.`.;X",
"0X9X9X0X7X0X0X9X9X0X0X9X9X0X0X{ [ | 0.`.3X0X9X7X7X7X9X9X9X9X9X7X4X7X7X{ [ { 9.q.*X4X:X4X2X:X{ b { 0.:X9X9X7X7X4X4X4X4X4X2X;X:X2X",
"9X9X0X9X9X9X9X0X9X9X9X9X9X9X0X9X9X9XqX9X9X0X0X9X9X9X9X9X7X7X9X9X9X9X9X9X7X7X7X9X7X7X7X7X4X2X4X4X4X9X4X4X9X4X9X7X4X4X4X4X4X4X4X4X",
"9X0X9X7X9X9X9X6X9X9X7X9X9X9X9X0X9XqX0X9X0X9X9X0X9X0X9X9X9X9X9X9X9X9X0X9X9X9X9X7X9X9X7X7X7X4X7X7X4X4X4X4X4X4X4X7X1X/.4X4X4X4X4X4X",
"9X9X9X9X9X9X9X9X9X0X9X9X9X7X4X4X4X4X4X9X0X0X9X9X9X9X9X9X9X9X9X9X9X9X9X0X9X9X9X9X9X9X9X9X9X7X7X9X9X9X9X4X9X7X4X6X4X4X4X9X7X4X4X4X",
"9X9X7X7X9X4X9X9X4X4X4X7X7X7X4X4X2X2X;X2X4X6XqX9X9X9X9X9X0X9X9X9X9X0X0X9X9X9X7X9X0X9X9X9X9X9X9X9X9X9X9X9X9X7X9XwX9X9X9X6X9X6X9X9X",
"7X7X7X7X9X9X4X4X4X4X4X4X4X:X2X:X2X+X;X;X;X;X2X4X9X9X9X7X4X9X9X7X9X9X9X9X9X9X7X9X9X9X0X9X9X0X9X9X9X9X0XwX0X0X9X4X2X2X2X+X;X;X2X2X",
"9X9X9X0X9X4X4X4X4X4X4X;X4X:X;X:X;X_.).;X;X;X+X;X;X;X4X9X0X6X7X4X7X7X7X7X7X9X7X9X9X0X0X9X0X0XwX0X0XwX0X7X4X4X;X;X2X2X;X;X+X+X+X+X",
"9X0X9X9X9X9X9X4X4X;X;X4X4X4X4X4X9X4X4X4X4X;X;X;X;X;X4X2X2X4X9X9X9X7X9X7X9X9X9X0X0X0X9X0X9X7X9X7X7X4X:X;X2X;X;X4X2X4X;X2X2X;X+X+X"
};
