/* XPM */
static char *result[] = {
/* columns rows colors chars-per-pixel */
"64 64 228 2 ",
"   c #17141A",
".  c #1A151D",
"X  c #211B1E",
"o  c #1E1A21",
"O  c #231C23",
"+  c #261F28",
"@  c #262226",
"#  c #2A2325",
"$  c #2C242B",
"%  c #2B2B2B",
"&  c #33292C",
"*  c #332A2D",
"=  c #2D322E",
"-  c #31322F",
";  c #2E2631",
":  c #2F2830",
">  c #302733",
",  c #342B34",
"<  c #392F35",
"1  c #362C38",
"2  c #392E3A",
"3  c #333333",
"4  c #3B3235",
"5  c #353B35",
"6  c #3D323B",
"7  c #3A3C39",
"8  c #413536",
"9  c #433937",
"0  c #42353C",
"q  c #463A3C",
"w  c #4A3D3E",
"e  c #3C443B",
"r  c #42453E",
"t  c #4D423F",
"y  c #3D3D45",
"u  c #453640",
"i  c #453941",
"p  c #4C3D42",
"a  c #453B4C",
"s  c #483D4A",
"d  c #503F42",
"f  c #493E50",
"g  c #3D4644",
"h  c #3C4D52",
"j  c #31555D",
"k  c #345C62",
"l  c #37656D",
"z  c #376D77",
"x  c #3A6B74",
"c  c #3B727A",
"v  c #4E4241",
"b  c #444B42",
"n  c #4B4C44",
"m  c #4A4B4C",
"M  c #534345",
"N  c #544A44",
"B  c #5A4A46",
"V  c #564649",
"C  c #584748",
"Z  c #554A48",
"A  c #5C4A4A",
"S  c #485147",
"D  c #4B544A",
"F  c #4E594D",
"G  c #535349",
"H  c #5C534B",
"J  c #505A4E",
"K  c #484853",
"L  c #554A56",
"P  c #4A5755",
"I  c #535D52",
"U  c #5C5C53",
"Y  c #575459",
"T  c #614E4C",
"R  c #64524D",
"E  c #67564F",
"W  c #655652",
"Q  c #645B53",
"!  c #6A5C53",
"~  c #4B625A",
"^  c #566255",
"/  c #596456",
"(  c #5A6659",
")  c #5D6A5C",
"_  c #65625A",
"`  c #6E645A",
"'  c #626D5E",
"]  c #6C6A5B",
"[  c #746053",
"{  c #72655B",
"}  c #75695E",
"|  c #5C5467",
" . c #575568",
".. c #635866",
"X. c #655A6D",
"o. c #695E6E",
"O. c #695D70",
"+. c #496669",
"@. c #466F6E",
"#. c #556667",
"$. c #5A736B",
"%. c #5B6A75",
"&. c #43737B",
"*. c #4C7478",
"=. c #577979",
"-. c #686B64",
";. c #746E63",
":. c #7A6C61",
">. c #647263",
",. c #6A7565",
"<. c #68756A",
"1. c #6C7B6B",
"2. c #757769",
"3. c #6E6374",
"4. c #746A79",
"5. c #667774",
"6. c #7C7271",
"7. c #827365",
"8. c #847569",
"9. c #887A6A",
"0. c #8E7872",
"q. c #8E7E71",
"w. c #89787A",
"e. c #47807E",
"r. c #71806F",
"t. c #67837A",
"y. c #748472",
"u. c #7A8877",
"i. c #8B826C",
"p. c #93836C",
"a. c #96886F",
"s. c #8A8775",
"d. c #938274",
"f. c #9A8978",
"g. c #91927B",
"h. c #A48C78",
"j. c #AB937B",
"k. c #A8957B",
"l. c #B7997E",
"z. c #C89E7E",
"x. c #3D7C85",
"c. c #487C83",
"v. c #567D81",
"b. c #7F7485",
"n. c #867A85",
"m. c #3D838E",
"M. c #4A868A",
"N. c #548789",
"B. c #5B938C",
"V. c #448A92",
"C. c #4A8B91",
"Z. c #568E93",
"A. c #4B9497",
"S. c #599798",
"D. c #67998E",
"F. c #73948B",
"G. c #649996",
"H. c #5BA49E",
"J. c #68A49D",
"K. c #7AA496",
"L. c #64ABA2",
"P. c #69AAA3",
"I. c #73ADA1",
"U. c #6CB1A6",
"Y. c #76B8A9",
"T. c #7CC1AF",
"R. c #7DC2B1",
"E. c #869887",
"W. c #969588",
"Q. c #AA9586",
"!. c #AA9289",
"~. c #B89C83",
"^. c #95A38F",
"/. c #83A99B",
"(. c #ACA38A",
"). c #BBA489",
"_. c #B4AC93",
"`. c #B5B49A",
"'. c #84B7A6",
"]. c #ACBBA4",
"[. c #C29E80",
"{. c #C7A687",
"}. c #CAA585",
"|. c #CCAB8B",
" X c #D6A886",
".X c #D2AD8A",
"XX c #D5B28E",
"oX c #DBB28E",
"OX c #C6AB91",
"+X c #C3B698",
"@X c #DCB591",
"#X c #DEB995",
"$X c #D6B899",
"%X c #E5B28E",
"&X c #E9B18D",
"*X c #E3B692",
"=X c #EDB792",
"-X c #E3BA95",
";X c #ECBC96",
":X c #E4BE99",
">X c #EABE99",
",X c #F5BB95",
"<X c #F6BE98",
"1X c #CABBAA",
"2X c #97C6AF",
"3X c #85C9B5",
"4X c #AAC6AC",
"5X c #B8C5A8",
"6X c #D8C09F",
"7X c #E7C39C",
"8X c #ECC29C",
"9X c #F4C49D",
"0X c #F9C39C",
"qX c #F6C89F",
"wX c #C9C5A6",
"eX c #D8C7A5",
"rX c #EAC6A5",
"tX c #EDCAA2",
"yX c #F3C6A0",
"uX c #F5CBA3",
"iX c #F8CBA7",
"pX c #FBCDA4",
"aX c #EAD3AE",
"sX c #FDD0A7",
"dX c #F6D1AB",
"fX c #FED4AA",
"gX c #FBD7B1",
"hX c #FED9B2",
/* pixels */
"fXfXfXhXhXhXhXfXfXhXhXfXfXhXfXhXfXhXfXfXfXfXfXhXfXhXfXfXfXfXfXfXhXfXhXfXfXhXhXgXdXhXfXfXfXhXfXhXfXhXfXfXfXfXfXfXsXsXfXfXsXfXfXfX",
"fXfXfXfXfXfXhXhXhXhXfXfXhXfXfXfXfXhXfXfXfXhXfXfXfXfXfXfXdXfXfXdXhXhXhXhXfXfXfXeX!.1XfXfXfXfXfXfXfXfXfXfXfXfXfXfXsXfXsXpXpXfXfXfX",
"sXsXsXfXfXfXfXfXfXfXhXfXhXhXhXfXdXdXdXdXdXdXfXuXdXfXaXdXeXdXdXfXfXfXfXfXsXpXpXqX8XuXsXsXpXfXfXfXfXfXfXfXfXpXfXfXfXfXfXfXfXfXfXfX",
"sXsXsXfXfXpXfXfXfXfXfXfXsXfXfXuXuXtXyXtXtXuXdXdXuXtXqX7Xk.#XtXqXuXuXuXuXqX8XqXqXqXqXqXqXpXsXfXfXfXfXfXfXfXpXpXsXpXsXpXfXfXfXfXfX",
"iXiXsXgXiXiXsXsXsXfXfXsXuXuXuX7X8X-X{.~.OX7X7X8X7X7X#X(.) #X7X8X8X7XqX8X7X7X7X7X7X8X5X5X4XwXfXfXfXfXfXfXsXsXpXpXsXpXpXpXsXsXpXsX",
"1X1XsXsXsXsXsXsXsXfXsXdXuXqX7X#X~.a.k.|.oX@X#X@X|.k.g.>.k.@X#X7X7X7X|.).).l.).XX#XK.H.Y.3XeXdXfXhXhXhXhXhXhXfXfXpXfXpXpXsXpXpXpX",
"dXsXsXsXsXiXsXiXsXsXsXwX'.K._.(.a.l.l.k.s.i.s.>.r.) F k.z..Xk.i.,.' ( / I F ^ ) r.m.A.H._.%X&X=X,X=X,X<X,X<XuXiXiXpXfXfXsXsXsXpX",
"gXsXsXsXfXfXsXsXsXtX2X3XJ.A.V.:.k.g.u.r.) ^ F D F F ( i.i.[ H r r r e = % = e e b @.t.s..XoX-X8X9XqXqXqXsXpXpXuXyX0X0X0XuXsXfXfX",
"fXsXsXfXsXsXsXsXsXsXwXK.S.D.;.q.s.u.) D g 5 = = = = e r J / #.J t 5 . . .     @ % e F r.s.|.oX*X9XuX0X0XpX0XqXpXpXiXpXqXpX0XpXpX",
"fXfXfXiXsXsXfXsXsXqXuX8X#XQ.Q y.1.F b % o .     . # #   o % 9 G D J ^ ^ D b e 3 3 O = D r.g. XoX;XqXuXpXpXqXpX0XpX0XqXqXpXpXiXpX",
"yXiXdXgXhXfXfXsXsXpXuX7X|.:.' 1.S e . . o o o v q.9.7.} r   . 4 ! Q G n U ` ] W *     @ D u.k..X*X8X9XuXpXpXpXqXpX0XpXpXpXpXpXpX",
"<X<X,X,X9XiXsXsXfXdXtX7X).Q ,.J g o . O ; h @.%.q 3 * M } } , . . t t t q t :.d.f.:.{ ] } ( s.).XX-X9XuXpXpXpXpXpXpXpXpXpXpXsXpX",
"iXpX0X<X,X,X,X<X,X,X&X%Xj.] ( e O o @ ; y P.A.x.; +     < [ 8.q.{ Q W :.q.d.8.;.H n q 9 Z U r.i..XoX8XuXpXfXpXpXpXpXiXsXpXpXpXpX",
"sXiXpXiXqXpX0XqX0X9X;X*Xa.>.S % o y ; ; %.3XL.k 1 , @ . O O V { 7.q.q.8.{ R v 4 # . . o # N ^ 1.l.oX-X9XiXfXsXpXpXpXiXiXpXpXpXpX",
"sXpXpXpXsXsXsXsXsXqX8X#X,.( e . + P ; ; K +.y ; 1 > $ @ > + o + 4 7 9 0 $ o . + > ; $ $ O 4 J ,.a..X*X8XuXpXfXpXpXyX$XiXpXpXpXpX",
"fXfXfXsXfXfXsXsXsXqX8X@X) S S =.g Y , ; 1 1 > ; y y ; @ 1 > > ; + + + + @ $ @ 1 1 > 4 2 $ $ G ^ ' .X@X8XuXpXsXpXiX!.).pXsXpXpXpX",
"fXhXfXfXfXfXsXfXsXqX7Xl.' e ( B.c ) 3 ; 2 2 1 > u 2 2 + 1 1 1 1 ; ; 1 1 > ; + 1 2 =.=.U , O N ^ I z.XX-X8XuXsXpXpXOXrXpXpXsXpXsX",
"sXsXfXfXfXfXfXsXsXuX7Xa.( e [ % 4 ) 3 : 2 2 y > u 2 2 > 1 1 1 2 > ; y 2 1 > $ 1 K Y.Y.M.2 + D I / h..X-X8XuXuXuXpXiXsXfXfXsXsXfX",
"fXfXfXfXfXfXfXfXdXqX7Xa.( e } B D / @ h P 1 1 > 0 2 2 > 2 1 1 y > > 2 2 2 > $ 1 y y M.c V $ U I ( 9.j.@X+X4X5XsXfXpXfXsXfXsXpXsX",
"fXfXfXfXfXfXfXfXpXqX7Xp.( b t 2.<.I k L.Y.K y 1 0 0 y , 1 2 1 L L > 1 y 2 > $ 1 2 1 $ i H + Q I ' 7.W.(.U.Y.eXdXfXfXfXfXfXfXfXfX",
"fXfXfXfXhXfXfXfXqX8X*Xq.( S 4 } >.7 j +.a 2 u 2 4 p 2 > 2 1 y s.E.i 0 2 2 > $ 1 2 2 ; 4 { i ! F ' 7.h.c.C._.yXpXfXfXfXfXfXfXfXfX",
"fXsXsXqX0X0XqXqX9X8X*Xp.) S $ r.I , + ; 2 2 2 y 2 p 0 1 2 6 <.y.E.-.0 0 0 > $ 2 u 2 > o 7.8.` F ' ] w.W.|.>X9XpXfXfXfXfXfXfXfXfX",
"sXpXpXpXsXpXsXsXqX9X-Xp.) J D ,.J q + ; 0 2 0 2 2 M 6 1 2 L y.u.s.<.-.2 y > $ 1 u 2 > + N q.;.F ( ] f.s.|.*XrXiXfXfXfXfXsXfXsXsX",
"qXsXsXsXpXpXpXpXuX9X;Xa.( / >.^ n ! + ; 2 1 1 u 6 M 6 2 6 m m 1.1.m U 0 6 1 ; 2 2 0 > @ # } ;.S / ] s.x V.].8XiXfXsXfXpXfXsXfXsX",
"sXpXsXsXpXsXsXsXpXyX:Xh.^ $.' r r 7.v @ 2 1 2 0 0 d 0 1 2 2 + 2.1.3 8 u 0 1 $ 2 2 u > $ + :.} S / ` n.M.U.U.6XsXpXfXpXfXpXpXpXpX",
"sXsXsXsXfXsXfXsXpXyX7Xk.^ ,.( e O [ { O 8 < 2 0 u d 0 2 2 u < y.1.P w p u 1 $ 2 u u , > + 7.{ b / U w.v.Y.3XwXqXpXpXpXpXpXpXpXsX",
"sXsXsXfXfXfXsXsXsX8X:X~.F >.J 5 @ t 7.* 8 1 1 u u d u 1 0 u 2 _ ( y w d 0 2 , 2 u 0 1 , O 9.7.b ^ / 3.8.(.T.7X8XpXpXpXpXpXpXpXpX",
"sXfXfXfXfXfXsXpXuX8X#XQ.F >.D 5 . 4 8.q & 1 1 0 u d u 2 0 q 0 & $ $ M w 0 < , 2 p 0 2 , + { q.N I I O.7. X+X8XqXuXpXpXiXpXpXpXsX",
"fXfXfXfXsXfXsXpXuX8XoX!.I -.F 5 # 4 7.r & < 1 0 0 d u 2 0 u 0 d 0 , M M u 2 , 6 p u 2 , $ M Q.H J J X.0.XX#XqXqXpXpXsXsXpXpXiXpX",
"fXfXfXfXfXfXsXpXqX>X!.!.] ) F - & 3 :.H & 1 2 0 u p u 2 u d 0 d 0 , V d u 2 , u p 0 4 , * 4 f.:.G I | h.z.oX7XqXpXpXsXfXfXfXfXsX",
"qXsXfXfXsXsXwXqX8X>Xh.n.7.) ^ - * 8 7.E & < 0 0 p p 0 2 0 p u d 0 , M M u 0 1 0 d p 0 , , # 8.8.G ^ Y ~..XoX8XqXqXsXpXqXpXpXpXpX",
"sXsXsXsXsXuX2X2X8X-X!.6.i.' / e , t 9.M 8 < 0 0 p u u 8 u p u 0 u 1 v M u 4 1 u p p 0 1 , $ H i.H I ..}..X7XqXpXsXsXsXsXsXsXsXfX",
"fXfXsXpXuXyX/.Y.`.-X!.4.a.^ ' S $ R p.w 8 0 0 0 p u u 2 u d u 0 0 1 M d q 0 2 u d d 0 < 2 $ q 7.` D ] {.XX:XtXfXfXdXfXfXfXfXfXhX",
"pXpXpXiXuXyX^.C._.*XQ.O.k.^ 1.D $ { q.9 8 0 0 2 p u p < i V i 0 0 < M d p 4 4 u p M 0 < < $ 9 ! } G ' ).XX:XtXfXfXfXhXfXfXhXfXfX",
"rXsXiXiX$XE.&.*.*X@Xj.O.k.^ r.D B Q.} X 8 q 0 0 p p u < i V i 0 u < V p i 0 0 i d V i 4 < $ w H 7.D ,.k..X#X7XdXfXfXfXfXfXhXfXfX",
"iXsXiXiXJ.V.M.%.XX@XQ.o.j.J u.S 8.Q.T X w w 0 0 u p u < u C p u 0 < M p i 0 0 i p V i 1 < $ L B 8.H >.i.|.#X8XuXuXfXfXfXfXfXfXfX",
"fXfXsXiXI.S.S.!.n..X0.O.f.F y.S s.:.4 @ t d q 0 p p u 2 0 C p u 0 < C p p u 0 p -.;.Q 4 & $ Y A i.E ( y.z.oX:X$XpXfXfXfXfXfXfXfX",
"fXgXgXaX].1XyX>Xw.3.4.3.6.F 1.S ;.B X # M p 0 < p p 0 6 0 T p u 0 < C p p u 9 L E.u.1.2 & + | W f.! J u.l.oX:XqXpXsXsXfXfXfXfXsX",
"pXiXiXiXyX0X,X>X*X!.3.o.3.I >.e H 9 X 4 B p 0 < p p 0 4 0 T p u 0 4 B p p 0 0 V u.<._ < & $ | { f.` n y.h..X#XqXsXsXfXfXfXsXsXsX",
"pX0XpX0XpXuXyXyX,X;XoX0.Y I / b N # $ q B p 4 , p p 0 0 4 C p p 0 0 C p p p 0 p 1.E.U 8 $ & ..:.Q._ Z 1.p..X#X8XqXsXsXsXfXsXsXsX",
"pXpXpXpXsXsXpXpXuX8X#X.X_ I / b 9 # < q B d 4 , d d y 0 < C p p 0 0 B p p p 4 Y 1.^.( 6 $ < ..{ Q.:.G ,.2.{.oX8XuXuXpXsXsXsXsXfX",
"sXsXfXfXfXfXfXsXuX8X*X{.U ^ I r # * < w M w 0 & d d 1 2 < T d p 0 9 C q d d n u.>.^.1.4 # < o.W Q.9.H $.t.l. X%X8XqXqXqX0X0X<X<X",
"sXfXsXfXfXfXsXpXuX>X*Xd.J / I % * 4 4 M M p 4 < d d < 8 & T d p q q C w d d < J ' E.u.0 # 0 O.T f.s.H c H.J._.*X9XqX0X0X<X0X<X0X",
"fXfXpXsXsXtX4X2X].:X.X{ J / S = 9 4 4 V M w 4 0 d d < 0 , T d p 0 q M w M d $ # J u.u.0 $ m 3.L 8.q._ ~ H.T.].7X8XqXpXpXpXpXpXpX",
"fXfXfXfXfXfX5X3XL.G.Q.Q ^ ( r & w < 4 V d q 4 M V p < 0 2 T V d q w C p d d < # b 1.' q # L 4.a { q._ I ( h._.#X9XuXpXuXpXsXfXsX",
"fXfXfXfXhXfXiX].H.c.<.Q ) ( b 0 9 < p 5.K.#.u M d p , 9 0 T d d 0 w d w d d 8 & 7 ) ^ q $ V b.a W 9.E J ( p..X#X8XpXpXfXfXfXsXsX",
"fXfXfXiX0X0X<X=X[.u.-./ >.I g s 0 < v.P.P.i p V M p < 9 0 T d V q w C p A d p & - F D q $ v b.K G 9.` D ) i.|.@X8XuXsXfXfXfXfXfX",
"fXiX<X<X<X9X<X*X Xj.{ ( >.S i L 4 p x.C.D 4 M M M w < q p T V C q d d w T d p < # 4 w q $ i b.a L 8.{ S ^ ] {.@X8XuXfXfXhXfXfXfX",
"yX<X<X<X0X,X,X%X Xa.;.>.) e a 4.0 L K q t 4 M M M p < q C T C d q w C u T M d 8 & 9 d q $ u 3.+.D./.2.b ( #.^.|.8XuXdXfXfXfXfXhX",
"0X<X<X0X0X9X;X%X{.f.v.B./ g a 4.Y 3.s w w 0 V V C p < q C T V C w d C q T V C w < d M q * u O.%.C.Y.J.*.N.Z.S._.:XtXdXfXfXfXfXfX",
"<X0X0XpX0X9X8XoX).9.*.P.$.v.y O.3.3.i w w 9 C A C t < w C T C C w d C q E C C d q M M q , 6 | | &.C.C.C.J.N.N.|.#X7XpXfXfXfXfXfX",
"0XpXpXpXsXqX8XoX~.;.D.T.L.N.Z.Z.n.X.0 d q 0 C T C w 4 w C T C C d w C q E C C w q B t 4 3 6 L Q K l V.M.C.C.$.}.$X7XtXfXfXhXfXhX",
"fXpXsXsXpX9X:X|.f.) G.S.U.A.c v.4.| & M 0 q M T C w < q B B C C d w C d E A C w p V m K < 4 a o.u N.Y.L.x.x =.k.z.oX8XpXhXfXfXfX",
"pXsXsXfXpXqX7Xl.8.$.I.L.A.x.c.%.4.s 4 M 0 9 B T B M 4 9 T M A C M 9 A d R T A q w =.x.@.s 2 a 3.0 J.J.S.z x N.i.z. X%X=X9X0XpXpX",
"fXfXfXfXdXqX7Xh.;.1.B.Z.x.z v.Z.4.$ 8 C 8 q B T T d 4 8 T M T C M 9 C M T T A q P J.V. .O.y y 4.K v.c.&.c.c.u./ z..X%X8X0X0X9X0X",
"fXfXfXfXuXeX$Xi.U 1.Z.&.V.A.S. .4.# q d 9 q T M R M 4 < E d C A C 0 M B T W C q D  .V > L O.| b.m Y F.-.=.Z.F.>.h. XoX8X0XqXqXqX",
"fXfXfXfX8XwX3XY.#.,.B.M.H.U.S. .3.O w M 9 q T w R M 8 & ! d T B C 8 w T B E C q p A A # 4 L X.%.Y %.S.>.r $.y.$.r.^._.;X<X0X0XpX",
"fXhXfXsXtX6XJ.H.S.>.,.N.H.Y.N. .o.O w B q q C q E d 8 $ ! M C T A 8 w A T E C w v A A 4 @ K l k &.Z.S.] D ^ r.c c.S.E.-X8XqX0XpX",
"fXfXfXuXwXI.H.A.m.) ) t.M.U.N.v.G.7 w B q 9 B q E w 8 & R T M T A 8 q A T E A q w A A q # ~ J.c.c N.N.[ r ^ k l c t.).*X9X0XuXpX",
"fXfXfXeXR.H.A.m.V.^ ( F N.N.&.C.S.b w B w w B w R M 8 & B T w T T q 8 T B E T w w R A q # h A.V.c c.*.Q D I k e.B.g.{.@X>XqXiXpX",
"fXfXtX2X3XY.J.V.$.^ ^ S P N.*. .X.O p T w q B d R M q & T T w T T w 8 T T E T w w A R v +.N.c.c l +.;.U t / @.e.D.K.}.XX8XuXdXfX",
"fXfXuX5X'.S.M.~ ^ ^ ^ e 5 A.+.K ..# w T q w M M T w q & w R M B T w < T T R T w w T T #.S.S.M.x &.c.` B r I ) ~ *.D.[. X%X=X0XyX",
"fXfXfXtX7X7.N S S I D e 5 v.a f | + w T w w B T T t q & d R B w T d 8 T T E T w w C R v.S.S.*.| } Q Q N 5 S D S S ^ [. X%X=X,X<X",
"fXfXdXuX8X7.! S e S g = 4 f a a W # w B w w t T T M w $ w T T w T M 8 T T R T w w V R  .@.K M ..Q N Z N r 5 e e S /  XoX=X,X<X<X"
};
