/* XPM */
static char *a5a6ce9dad8d4d53dc80f302f0a12c78TnLDfwR1KbBD8wRW[] = {
/* columns rows colors chars-per-pixel */
"64 64 185 2 ",
"   c #030304",
".  c #040609",
"X  c #05090D",
"o  c #060D12",
"O  c #080E14",
"+  c #071016",
"@  c #071319",
"#  c #0A141B",
"$  c #0C181F",
"%  c #0B1621",
"&  c #0C1A23",
"*  c #0E1E2A",
"=  c #111E2A",
"-  c #0F222D",
";  c #102126",
":  c #11222C",
">  c #0F2331",
",  c #112633",
"<  c #132935",
"1  c #142C3B",
"2  c #182F3B",
"3  c #16303D",
"4  c #1C343C",
"5  c #21353F",
"6  c #162F41",
"7  c #163344",
"8  c #193444",
"9  c #1C3843",
"0  c #16374B",
"q  c #1A3749",
"w  c #1C3B4B",
"e  c #1C3E52",
"r  c #233E47",
"t  c #223E4A",
"y  c #1E414E",
"u  c #1D4254",
"i  c #1D455A",
"p  c #1E4B5C",
"a  c #24424D",
"s  c #2B464F",
"d  c #234453",
"f  c #294751",
"g  c #244955",
"h  c #2B4B55",
"j  c #22465A",
"k  c #254B5B",
"l  c #2B4D5A",
"z  c #314D57",
"x  c #27505D",
"c  c #2D525E",
"v  c #32545F",
"b  c #395359",
"n  c #1E4A63",
"m  c #1B596F",
"M  c #1D5C72",
"N  c #244D62",
"B  c #245163",
"V  c #2C5362",
"C  c #2E5867",
"Z  c #24546C",
"A  c #2A556A",
"S  c #265A6C",
"D  c #2C5B6C",
"F  c #315662",
"G  c #395660",
"H  c #355965",
"J  c #3A5A65",
"K  c #345D6B",
"L  c #3A5E6A",
"P  c #245C73",
"I  c #2B5D73",
"U  c #325D72",
"Y  c #35606E",
"T  c #3B616D",
"R  c #256176",
"E  c #2D6275",
"W  c #26657C",
"Q  c #2C657B",
"!  c #2D6A7F",
"~  c #346474",
"^  c #3B6574",
"/  c #3F6876",
"(  c #336679",
")  c #346A7D",
"_  c #3B6B7C",
"`  c #3F707F",
"'  c #425D66",
"]  c #42636D",
"[  c #426672",
"{  c #496771",
"}  c #446A76",
"|  c #4B6A74",
" . c #436C7B",
".. c #4B6E7B",
"X. c #526F79",
"o. c #44707F",
"O. c #4C727E",
"+. c #54727B",
"@. c #5A757E",
"#. c #2D6B82",
"$. c #326D83",
"%. c #3B6E81",
"&. c #357186",
"*. c #3D7184",
"=. c #34748C",
"-. c #3A768C",
";. c #3B798C",
":. c #3E7D94",
">. c #406F81",
",. c #437384",
"<. c #4A7483",
"1. c #4E7987",
"2. c #447689",
"3. c #48778A",
"4. c #46798B",
"5. c #4C7A8B",
"6. c #537682",
"7. c #587780",
"8. c #547986",
"9. c #5B7B85",
"0. c #537C8B",
"q. c #5A7E8B",
"w. c #447E91",
"e. c #4B7F90",
"r. c #637C84",
"t. c #687D85",
"y. c #3F8299",
"u. c #57818F",
"i. c #5B818E",
"p. c #448194",
"a. c #4D8293",
"s. c #46859A",
"d. c #548393",
"f. c #5C8493",
"g. c #528698",
"h. c #53899A",
"j. c #5C8C9B",
"k. c #64838E",
"l. c #6B848C",
"z. c #71848B",
"x. c #77868C",
"c. c #73888F",
"v. c #638692",
"b. c #6A8791",
"n. c #648995",
"m. c #6B8A95",
"M. c #638C9A",
"N. c #6B8D99",
"B. c #738C94",
"V. c #7B8E95",
"C. c #738E99",
"Z. c #788F98",
"A. c #67929F",
"S. c #6D929D",
"D. c #7C9096",
"F. c #75919C",
"G. c #7C939B",
"H. c #5C90A1",
"J. c #6395A3",
"K. c #6A95A2",
"L. c #6698A7",
"P. c #7396A1",
"I. c #7399A4",
"U. c #7D99A1",
"Y. c #849196",
"T. c #81949B",
"R. c #83959C",
"E. c #8A969B",
"W. c #86989E",
"Q. c #8A989E",
"!. c #8B999E",
"~. c #919B9F",
"^. c #869AA1",
"/. c #8C9BA1",
"(. c #919DA1",
"). c #969EA1",
"_. c #989FA2",
"`. c #96A0A3",
"'. c #9BA0A2",
"]. c #9CA1A3",
"[. c #9DA1A3",
"{. c #9DA2A4",
"}. c #A1A3A4",
"|. c #A2A4A5",
" X c gray65",
/* pixels */
" X X X X X X X X X X X X X X X X X X X X X X X X X X X X X X X X X X X X X X X X X X X X X X X X X X X X X X X X X X X X X X X X",
" X X X X X X X X X X X X X X X X X X X X X X X X X X X X X X X X X X X|.|. X X X X X X X X X X X X X X X X X X X X X X X X X X X",
" X X X X X X X X X X X X X X X X X X X X X X X X X X X X X X|.|.|.|.|.}.}.|.|.|.|.|. X X X|.|. X X X X X X X X X X X X X X X X X",
" X X X X X X X X X X X X X X X X X X X X X X X X X X X X|.|.}.}.{.{.{.[.[.[.}.|.|.|.|.|.|.|.}.|. X X X X X X X X X X X X X X X X",
" X X X X X X X X X X X X X X X X X X X X X X X X X X X|.[.'.'.'.'.'.'.'.'.[.}.}.}.}.}.|.|.|.|.|.|.|.|. X X X X X X X X X X X X X",
" X X X X X X X X X X X X X X X X X X X X X X X X X|.}.[.(.!.!.!.(.(.).)._.[.[.[.{.{.{.}.}.}.}.}.|.|.|. X X X X X X X X X X X X X",
" X X X X X X X X X X X X X X X X X X X X X X|.{.[.(.!.W.G.G.G.T.W.!.!.!.(.'.'.'.'.'.[.{.{.{.{.}.}.|. X X X X X X X X X X X X X X",
" X X X X X X X X X X X X X X X X X X X}.{.[._.!.!.F.C.C.C.m.m.C.F.G.R.W.!.!.!.(.).).'.[.[.{.{.{.}.}.|.|. X X X X X X X X X X X X",
" X X X X X X X X X X X X X X X X X|.{.'.).).!.F.C.C.v.f.f.f.f.v.m.C.F.F.R.T.W.!.(.)._.'.[.[.[.[.{.}.}.|.|. X X|. X X X X X X X X",
" X X X X X X X X X X X X X X|.|.[.'._.(.!.!.G.C.v.v.f.0.5.0.q.i.f.b.C.C.F.G.G.R.!.(.)._.'.'.[.[.{.}.{.{.|.|.|. X|. X X X X X X X",
" X X X X X X X X X X X X X}.[._.!.!.!.T.C.C.C.i.0.1.1.*.,.1.1.1.8.q.q.v.C.C.C.C.G.E.!.(.).).'.'.[.{.{.{.|.|.|. X X X X X X X X X",
" X X X X X X X X X X X|.{.).).!.T.F.C.b.f.i.i.1.,._ >._ _  . . .<.<.0.i.b.v.m.m.C.G.T.!.(.).(._.'.{.{.{.|.|.|. X X X X X X X X X",
" X X X X X X X X X X|.{.(.!.!.G.m.v.i.1.,.*.*.%.*.( ( ) %._  .}  ...<.q.k.n.k.v.v.C.D.R.!.(.).).'.[.{.|.|.|. X X|. X X X X X X X",
" X X X X X X X X X}.'.).!.G.m.f.0.3.,.%.%.$.$.) Q Q E ) *.%._ _ ^ ^ _ ..6.i.k.q.k.B.B.D.E.!.(.).'.{.{.|.|. X|.|.|.|. X|. X|. X X",
" X X X X X X X X|.'.(.W.G.n.f.5.2.,.%.) ( ( E P R P M R R ( ~ E D D %._ } ..+.9.9.k.b.b.Z.W.(.).'.{.|.|.|.|. X X X X|.|. X|. X X",
" X X X X X X X|._./.W.F.C.n.f.0.3.,._ _ E E E R M M m M P R S S B k k ~ ^ T ] { 6.@.9.i.N.F.W.(.'.{.|.|.|.|. X X|. X X|.|. X X X",
" X X X X X X|.[.(.G.C.m.n.m.f.5.4.,._ _ ( Q #.! ! W W R P S S B p k g g Y ^ T v T | | 6.f.v.Z.!.(.'.{.}.|.|.|.|.|. X X X X X X X",
" X X X X X|.[.(.!.F.C.m.v.v.f.1.2.*.>._ Q Q ! ) E S S D S A p i N k u a a l K c v ] |  .1.8.B.Z.!.(.[.{.}.|.|.|.|.|. X|.|.|. X X",
" X X X X X'./.G.N.N.C.n.f.q.1.,.%.*.*.*.) ) $.) S I A B k A N j u w d w 9 a k l h v T  .O.+.k.c.V.!.).{.{.}.|.|.|.|.|.|.|.|. X X",
" X X X X|.(.F.m.d.f.m.m.v.0.,.,.*.*.*.) ~ E A B k k u w 7 7 7 7 w 8 7 7 8 9 d x f f h L ..6.9.l.B.Y.!.'.{.}.|.|.|.|.|.|.|.|.|.|.",
" X X X|.{.R.C.n.d.n.N.m.k.0.,.,.*.*.*._ ( D B B N i u 0 7 < < , , < , 1 7 1 9 y k f a h T } @.k.B.Z.!.~.'.{.}.|.|.|.|.}.|.|.|.}.",
" X X}.{./.f.f.M.n.C.Z.C.k.8.1.,.w.p.:.&.Q I Z N n u 0 7 1 , * * * * * * > , 1 1 w a r f v } ..9.l.B.R.!.).[.{.{.|.|.|.|.|.{.{.{.",
" X|.{.).G.n.n.n.N.F.G.Z.k.8.5.w.p.:.-.&.#.P n p e 0 7 1 < , * % # # % % % * , , < 8 9 r h T ] O.k.l.G.T.!.'.{.{.}.|.|.}.{.{.'.[.",
" X{.{.(.F.f.N.F.G.R.T.B.q.1.w.w.:.s.y.#.W Z p i 7 < - * * % # # @ @ @ # # $ % - - , 3 4 f v T } 9.r.C.F.!.).[.[.'.{.[.[.'.'.'.[.",
"|.{.[.).G.n.F.G.R.W.T.N.n.g.2._ *.-.=.W P n 0 , > * % @ + @ o o o o o @ @ @ # % * : < 3 a f K ] +.@.l.F.W.~.'.[.[.[.[._.(.).).{.",
"|.{.'./.n.n.G.!.!.!.G.m.j.H.,.^ %.:.$.Z N 7 - - % # @ @ @ o o X X X X o o o @ # & * - < 4 r c L { +.t.C.G.!.).{.{.[.'.(.!.(.).{.",
"{.{.'.!.N.F.!.).(.E.D.M.j.g.o._ &.=.I k 7 < , % # @ O O X X . . . . . X o X o @ # % * : < 9 g H ] | 9.b.F.W.(.'.'.'._.!.!.!.).|.",
"{.)./.F.N.W.).).~.W.C.M.j.5. .*.-.-.N 8 7 < * # $ @ @ X . .           . . X X o @ # * ; : 4 a v ^ } 6.k.C.G.!.'.[.'.).!.W./._.}.",
"[.(./.W.R.).'._.!.T.N.M.h.,.2.:.=.Q w w , - % $ @ @ X X .                 . X X O @ % * : 1 r c T / <.i.n.C.!.).'._.).!.W.~.[.|.",
"[.(.W.!./.'.{.'.(.T.N.j.h.a.w.:.:.Z w 1 : * % $ @ O X .                   . . X o o # % ; < 4 c T ^ <.8.k.B.R.(._.).(.E.!.(.'.|.",
"[.(.W.!.(.{.{._.!.G.S.J.h.s.p.:.$.j w 1 - % % # @ @ X .                     . X o o # $ * : 4 h F T _ <.k.C.T.~.).).(.R.!.).'.}.",
"[.)./.!.).{.'.)./.U.K.L.h.4.;.&.I d 8 < - & & # @ O X .                     . X X @ $ $ & : 4 h c K / ,.i.v.G.!.(.).(.W.!.).'.|.",
"'.`.(.W.).{.'.)./.^.I.L.h.e._ *.A j 7 < * * & % @ o X                       . X X + # # * : 9 h F F ^ ,.u.k.G.!./.(.(.W.~.'.{.|.",
"[.'././.'.[.'.)./.^.I.L.h.5.,.U B j 0 < : * * % @ X X                         X o + @ $ % : r h F F ^ ,.i.b.G.!.(.).!.W.).'.[.|.",
"[.[.(.(.'.'.'.'.(.^.I.K.h.5.^ K U j e < : - * % @ o . .                       X X @ # # % < r c c T ,.,.i.b.G.!.(.).!.!._.[.[.|.",
"{.'.)./.).'.'.'.(.^.U.K.j.1./ K N k 0 1 : > , * # o X .                     . X o # # $ * 2 a V V /  .<.v.B.T.!.(.(.!.!._.[.}.|.",
"{.'.(.!.(.'.'.'.`./.U.S.M.1.} c g N w 1 , , > - % @ o X                     X X O # # % , 9 d k C ~ ,.1.k.B.T.!.(.).!.!.'.{.}. X",
"|.{.'.).(.'.'.'.)./.G.F.n.0.^ F l d 8 3 < 7 > : & $ O o . .           . . . X o @ # $ * 3 w a V ( %.a.d.n.G.!./.(.(.!.(.'.{.|. X",
"|.{.'.'.`.'.'.{.'.(.W.F.m.9.[ J F r 9 8 1 q , , * & @ O X . . . . . . . . X X @ @ # : , w r g D ) 2.5.f.N.G./././.!.!.).[.}.|. X",
"|.|.{.[.'.`.'.{.[.)./.G.b.9.{ ^ H r 4 8 < 7 6 , * = % # O X X . . X . X X o @ # % * , 1 9 a l ~ *.4.0.n.C.R././.R.R.!.'.{.|. X X",
"|.|.{.{.[.'.{.{.{.)./.G.B.r.X.] H s 5 9 7 7 0 < , : : % @ @ o X X X o @ @ # % & : < 1 7 9 f C ) *.a.d.n.F.R././.R.^.(.[.}. X X X",
" X|.|.|.{.{.{.[.[._.(.W.B.l.9.| [ z r t w 3 0 7 < < , : & # # @ O @ @ @ # % = * , 1 q w l V ( 2.4.d.j.A.P.^./.!.!.(.'.{.|. X X X",
" X|.|.|.|.}.[.[.'.'.).!.V.l.v.8.[ F f t d 4 w i 1 7 6 < , - * & % % % % & = : , < 1 9 g k ( ;.*.4.d.M.K.F.^./.(.).'.{.}. X X X X",
" X X X|.|.|.[.'._.[._.(.Y.c.b.q...L F a f 9 w e q 8 w 7 1 2 , - : : : : , , 1 1 2 9 d g D &.;.p.s.h.J.P.G.!.(.).[.{.}.|. X X X X",
" X X X X X X|.}.'.'.[.~.E.V.B.l.@...T F l a f w e 8 w q 7 1 1 < < < < < 1 1 1 7 w f V D ~ *.*.p.e.a.g.N.F./.).[.}.|.|. X X X X X",
" X X X X X X|.}.[.'.[._.~.T.C.l.r.9... .K l a a j u w w w 8 7 q 7 8 7 8 w d j k V D ~ ~ ~ _ *.,.2.4.4.f.G.).'.}.|. X X X X X X X",
" X X X X X X X|.{.[.[.[.).!.D.z.t.r.7.O.[ H s a f V g w w t w e j j u j d j g x C K Y ~ ( _ *.2.,.,.5.N.!.'.}.|. X X X X X X X X",
" X X X X X X X|.}.{.{.[.'.~.E.x.z.t.r.6.| ] G s h A D k g d a g A D N g k C K ~ ^ ~ ^ _ %._ *.1.0.1.v.R.).{.|. X X X X X X X X X",
" X X X X X X X|.|.}.|.{.[.).E.Y.x.z.l.9.+.| ] b z F ~ D C l f f V V x c V K T ^ ^ ^ _ %.%.*.,.1.0.b.T.).[.|. X X X X X X X X X X",
" X X X X X X X X X|.|.}.'.'.~.E.Y.x.z.l.r.+.{ ' b J Y ( _ ~ F l l v v H H J L [ } T ~ _ %.*.1.0.b.!._.{.|. X X X X X X X X X X X",
" X X X X X X X X X|.|.}.'.).).).E.Y.V.B.b.q.6.} ] ' [  . ._  .K K H L L ] [ { O.o.^ ^ *.5.1.q.b.E.[.|. X X X X X X X X X X X X X",
" X X X X X X X X X|.|.}.[._.).).!.E.R.Z.m.v.0.O.| { { O.<.O. .} ^ / } } ....6.<.,._ ,.,.0.k.C.!.[.|. X X X X X X X X X X X X X X",
" X X X X X X X X X X|.|.{.[.[.'.(.!.W.R.G.m.v.q.7.@.+.6.6.<.<. .o._  .O.<.,.o.,.,.2.5.q.b.T.).[.|. X X X X X X X X X X X X X X X",
" X X X X X X X X X X X|.|.|.}.[.)./.^.^.^.R.Z.l.l.t.r.9.8.1.<.,.` ,.,.1.<.1.,.,.1.0.v.Z.E.'.|.|. X X X X X X X X X X X X X X X X",
" X X X X X X X X X X X X X|.{.{.'.(.^.^././.E.T.D.B.b.f.0.4.4.1.5.0.i.0.0.i.i.i.i.b.T.).[.|. X X X X X X X X X X X X X X X X X X",
" X X X X X X X X X X X X X|.}.{.)././././.(.).(.!.G.N.f.d.e.a.f.f.n.m.m.m.C.C.F.W.!._.}. X X X X X X X X X X X X X X X X X X X X",
" X X X X X X X X X X X X X|.|.{.'.).(.(././.).(.W.G.S.N.M.n.M.N.F.F.R.W.W.W.W.~.'.}.|. X X X X X X X X X X X X X X X X X X X X X",
" X X X X X X X X X X X X|.|.|.}.{.{.'.).(.(./.W.R.F.F.G.G.G.R.W././.(.(.(.)._.{.|. X X X X X X X X X X X X X X X X X X X X X X X",
" X X X X X X X X X X X X X X|.|.|.|.{.[.'.)././.R.G.G./././.(.).).)._._.'.[.{.|. X X X X X X X X X X X X X X X X X X X X X X X X",
" X X X X X X X X X X X X X X X X X|.|.}.{.{.'.)./././.).`.'.'.'.'.[.[.[.{.}. X X X X X X X X X X X X X X X X X X X X X X X X X X",
" X X X X X X X X X X X X X X X X X X X|.|.|.}.[.'.[.'.{.{.{.{.{.}.}.|.|.|. X X X X X X X X X X X X X X X X X X X X X X X X X X X",
" X X X X X X X X X X X X X X X X X X X X X X X|.}.|.}.|.|.|.|.|. X X X X X X X X X X X X X X X X X X X X X X X X X X X X X X X X",
" X X X X X X X X X X X X X X X X X X X X X X X X X X X X X X X X X X X X X X X X X X X X X X X X X X X X X X X X X X X X X X X X",
" X X X X X X X X X X X X X X X X X X X X X X X X X X X X X X X X X X X X X X X X X X X X X X X X X X X X X X X X X X X X X X X X"
};
