/* XPM */
static char *e715d6bad88b48edeb91b5d50f539303uBP1er2zCS3PA8Ck[] = {
/* columns rows colors chars-per-pixel */
"64 64 210 2 ",
"   c #231715",
".  c #2A1712",
"X  c #261816",
"o  c #2A1A16",
"O  c #261A19",
"+  c #2B1D1B",
"@  c #311F1B",
"#  c #2D211E",
"$  c #31211F",
"%  c #3F251D",
"&  c #2E2322",
"*  c #322524",
"=  c #362725",
"-  c #352A25",
";  c #3B2926",
":  c #352B2A",
">  c #3B2D2B",
",  c #393526",
"<  c #3C332C",
"1  c #3A3828",
"2  c #362E30",
"3  c #3C3333",
"4  c #3B3532",
"5  c #3C3638",
"6  c #3E393B",
"7  c #421D11",
"8  c #462316",
"9  c #4D2614",
"0  c #46271B",
"q  c #4C2B1C",
"w  c #522712",
"e  c #542914",
"r  c #5B2D14",
"t  c #572E19",
"y  c #5E3016",
"u  c #55311E",
"i  c #5D3219",
"p  c #623216",
"a  c #6A3414",
"s  c #643519",
"d  c #683719",
"f  c #6B3A1A",
"g  c #723E1B",
"h  c #452C26",
"j  c #47372B",
"k  c #42322D",
"l  c #593826",
"z  c #433533",
"x  c #453A36",
"c  c #4A3A35",
"v  c #433C3B",
"b  c #4A3D3A",
"n  c #513E38",
"m  c #633D26",
"M  c #76411D",
"N  c #7C441D",
"B  c #43422D",
"V  c #46492D",
"C  c #484933",
"Z  c #4C413D",
"A  c #57443C",
"S  c #4C5433",
"D  c #4E5933",
"F  c #525C39",
"G  c #68432B",
"H  c #6C462E",
"J  c #764827",
"K  c #7B4D2B",
"L  c #7F502B",
"P  c #624533",
"I  c #654A3A",
"U  c #684C3B",
"Y  c #764D30",
"T  c #7C5131",
"R  c #5A6A2F",
"E  c #596738",
"W  c #5B6B3C",
"Q  c #5D723D",
"!  c #626F37",
"~  c #636F38",
"^  c #64723B",
"/  c #627A3F",
"(  c #423F41",
")  c #444344",
"_  c #4B4443",
"`  c #464648",
"'  c #4A4649",
"]  c #4D4B4C",
"[  c #514542",
"{  c #534946",
"}  c #5C4B45",
"|  c #544C4A",
" . c #5A4D4B",
".. c #54514F",
"X. c #5C514D",
"o. c #4F4D51",
"O. c #524F51",
"+. c #555353",
"@. c #5B5454",
"#. c #5A5956",
"$. c #56555A",
"%. c #5A5659",
"&. c #5B5B5B",
"*. c #685448",
"=. c #6B5649",
"-. c #715A4B",
";. c #625652",
":. c #635A56",
">. c #625D5C",
",. c #685D5C",
"<. c #5D6841",
"1. c #636D46",
"2. c #677642",
"3. c #647B43",
"4. c #737D47",
"5. c #61615F",
"6. c #68615F",
"7. c #5D5E63",
"8. c #625E61",
"9. c #5F6165",
"0. c #646363",
"q. c #6B6464",
"w. c #6A6966",
"e. c #64656A",
"r. c #676869",
"t. c #66696E",
"y. c #6B6A6C",
"u. c #716D6C",
"i. c #6F706E",
"p. c #6B6D72",
"a. c #6E7177",
"s. c #717071",
"d. c #747374",
"f. c #797676",
"g. c #72757A",
"h. c #76797E",
"j. c #7A7B7D",
"k. c #81471D",
"l. c #844A1E",
"z. c #894D1F",
"x. c #844B21",
"c. c #8B4E20",
"v. c #804F2B",
"b. c #8E5121",
"n. c #84532D",
"m. c #925422",
"M. c #985824",
"N. c #815533",
"B. c #807D7B",
"V. c #6C8F46",
"C. c #6D864B",
"Z. c #75974B",
"A. c #799B55",
"S. c #75A44E",
"D. c #73AF48",
"F. c #75B14B",
"G. c #79B34E",
"H. c #7EB94F",
"J. c #7BA455",
"K. c #7DAA54",
"L. c #7BB452",
"P. c #7EB950",
"I. c #82AB59",
"U. c #82B556",
"Y. c #83BC54",
"T. c #82B65A",
"R. c #8BB759",
"E. c #84B95B",
"W. c #89BD5C",
"Q. c #87AB62",
"!. c #89B463",
"~. c #8ABB62",
"^. c #8FBD69",
"/. c #92B669",
"(. c #91BE6B",
"). c #8CC35C",
"_. c #8FC85A",
"`. c #90C75E",
"'. c #92C95C",
"]. c #8EC162",
"[. c #91C564",
"{. c #94CB61",
"}. c #93C36A",
"|. c #99C869",
" X c #9BCD6A",
".X c #9DD06C",
"XX c #9CC370",
"oX c #9CCB72",
"OX c #A0CF74",
"+X c #A2D175",
"@X c #A3D175",
"#X c #A4D377",
"$X c #A5D379",
"%X c #A6D479",
"&X c #777B80",
"*X c #7A7D81",
"=X c #807D80",
"-X c #7D8186",
";X c #808286",
":X c #82868B",
">X c #85898E",
",X c #878B90",
"<X c #898D92",
"1X c #908F92",
"2X c #8D9196",
"3X c #8F9398",
"4X c #94969A",
"5X c #9A9DA1",
"6X c #9BA0A4",
"7X c #A2A5A8",
/* pixels */
"'.'.'.).E.E.E.`.{.{..X#X%X%X%X%X#X[.F.D.F.].+X$XOX}.(.^.~.E.E.E.{.{.'.Y.F.D.F.`.{.{.).E.T.T.E.E.E.E.'.'.'.W.E.E.E.E.E.E.).'.'.'.",
"'.'.'.).E.E.E.`.{.{..X#X%X%X%X%X#X[.F.D.F.].+X$XOX}.(.^.~.E.E.E.{.{.'.Y.F.D.F.`.{.{.).E.T.T.E.E.E.E.'.'.'.W.E.E.E.E.E.E.).'.'.'.",
"'.'.'.).E.E.E.`.{.{..X#X%X%X#X#X+X[.F.D.F.].+X#XOX}.(.(.~.E.E.E.{.{.'.Y.F.F.G.`.{.{.).E.T.T.E.E.E.E.'.'.'.W.E.E.E.E.E.E.).'.'.'.",
"'.'.'.).E.E.E.`.'.'. X#X%X#X.X X X[.L.L.L.). X.X XoXoXoX].E.E.E.{.{.{.).Y.Y.Y.'.'.'.).E.T.T.E.E.E.~. X X X].E.E.E.).).)._.'.'.'.",
"'.'.'.).~.~.~.'.'.'. X#X%X#X{.'.'._.E.T.E.).{.{.{.+X$X+X}.E.E.E.{.{.{.'.'.'.'.'.'.'.).E.E.E.E.E.E.].+X#X+X}.E.E.E._.'.'.'.'.'.'.",
"'.'.'.).~.~.~.'.'.'. X#X%X#X{.'.'._.E.E.E.).{.{.{.#X%X#X}.E.E.E.{.{.{.'.'.'.'.'.'.'.).E.E.E.E.E.E.[.+X%X+X}.E.E.E.'.'.'.'.'.'.'.",
"'.'.'.).~.~.~._.'.'.|.OX+X+X{.'.'.`.E.E.E.).{.{.|.oX+XoX}.E.E.E.[.{.{.'.`.'.`.'.'._.).E.E.E.E.E.E.[.+X+X+X[.E.E.W.'.'.'.'.'.'.'.",
"'.'.'.).~.~.~.E.E.E.E.E.E.~.|.+X+X|.^.^.~.~.E.T.E.U.U.I.K.I.J.A.I.I.J.K.A.K.U.T.E.E.W._.`.'.{.{.{.{.'.'.'.'.'.'.'.'.'.'.).E.E.E.",
"'.'.'.).~.~.~.E.E.E.E.E.E.E.|.#X$XoXQ.C.C.A.E F 3.V j 1 z < < b < < x - x < B C E V.K.)._.'.{.{.{.{.'.'.'.'.'.'.'.'.'.'.).E.E.E.",
"'.'._.).~.~.~.E.E.E.E.E.E.E.|.$X/.C.4  .Z & :.{ * ,.q.} i.;.:.y.X. .q.n r. .:.w.| > z 1 V W U.{.{.{.'.'.'.'.'.'.'.'.'.'.).E.E.E.",
"Y.Y.Y.E.E.E.E.E.E.E.~.}.}.}.XX2.z b [ f.y.> &.| : r.#.c &.{ Z &.b | >.k &.Z ..#.{  .r.Z q.{ , 3.I.[. X X X X X X X'.'.'.).E.E.E.",
"F.F.F.L.T.E.E.E.E.E.].OX/.<.k : f.w.x 5.0.> #.&.> &...x &.{ Z w.{ X.>.k &.x | r.Z { >.n s.#.k | < <./.#X#X#X#X#X+X'.'.'.).E.E.E.",
"D.D.D.L.T.E.E.E.E.E.].(.C ;.d.< +.&.x | 5.> #.y.k +...z ` Z b >.{ Z ..k &.z | &.k >.0.A 5.{ X.r.{ > B 1.XX$X%X$X+X'.'.'.).E.E.E.",
"F.F.F.L.E.E.E.T.T.K.E C > w.&.| c 5.| x +.z v &.; ' ( k +._ > ) v : 6 ; +.; ` ] k #.| { +.k q.&.b ,.#.< S Q.+X+XoX'.'.`.).E.E.E.",
").).).W.~.^.~.L.D.D { :.: z #.&.c X.&.> ) 3 * 6 # : : # : * & * & & * # : # : : = 5 z ' ) c y...c q.+.* v < A.}.}.~.~.~.)._._._.",
"'.'.'.[.(.(.~.L.V., #.r.&.< x #.+.; v & + + O X X X X X   X           X       X X X O : : Z 0.> q.r.3 3 w.{ < I.^.~.~.~.).'.'.'.",
"'.'.'.[.(.(.~./ < - < %.&.@.; z ] * X O   X & z { %.q.q.0.0.%._ | &.0.0.q.q.+._ : +     O * 3 k &.( * 6.f.+.* V Q.~.~.~.).'.'.'.",
"'.'.'.[.[.[.I.> w.q._ + v +.+.$ + O   : q.1X7X7X5X4X2X2X<X<X,X%.e.<X<X<X3X3X4X6X7X5XB.' O   X : ) = { r.+.$ { { F W.].].).).).).",
"'.'.'.'.'.'.R.- +.f.r._ * : 5 +   & u.7X5X<X<X<X>X:X*Xj.f.:X,X%.t.<X;Xf.j.*X:X>X,X,X2X7X4X_   O + z O.) = ;.0.%.< Z.{.{.).E.E.E.",
"'.'.'.'.'.U.V 3 & > ' +.+.< O   > 1X4X<X:Xw.} j h 0 8 8 8 f.,X%.t.<X,.7 8 8 q h n ;.f.,X2X7Xq.O + > > k u.d.w.#.3 W {.{.).E.E.E.",
"'.'.'.'._.F [ u.,.x & 3 ` 2 O & <X4X:Xq.h 9 w r r f g y t j.<X%.t.,X,.e p g g e y w 8 A j.,X5Xq.O O z &.+.| v : * B R.{.).E.E.E.",
".X.X X{.W.B ' 5.y.y.X.- # +   q.2X>X} 8 r k.g k.f b.b.d i f.,X%.t.>X,.p N b.b.s z.N e e q f.>X5XZ X : 3 : ; c | @.3 C.{.'.).).).",
"#X#X#X X).V * v ' ] +.+.Z + * 5X,X,.9 f l.c.N z.g b.b.d i j.,X%.e.>X,.p l.b.m.s b.x.i M d 0 ;X<X=XO + x @.w.i.&.+.< C.{.{.{.{.{.",
"$X$X#X XZ.> b > + + & 3 : O +.4X:Xh p x.z.x.z.k.g b.b.d i j.>X%.t.,X,.p l.m.b.d x.x.p x.z.7 ;.<X2X3 + v ` _ v : & * J.{.{.{.{.{.",
"+X+XOX{.D v d.d.w.:.{ > + X d.<Xq.e g m.b.N c.k.M m.b.d t *X,X%.t.<X,.p k.m.b.d b.x.p x.m.e j :X<X{ O & > > : 3 v > Z.`.`._.`.`.",
"'.'.'.U.V v +.&.&.+.+.&.> + j.<X .f g m.c.N c.N M m.b.s t j.,X%.t.<Xq.t k.b.c.g b.x.p z.m.d q *X<X%.+ { 5.r.y.f.0.3 3.E.E.E.E.E.",
"'.'.'.Y.D $ = : < : > : + # h.<Xn N M m.x.N b.N M m.x.s u j.,X%.t.<Xq.i N c.z.f m.z.p x.m.d t s.>X&.+ > 6 v v v v - C.T.E.E.E.E.",
"'.'.'.Y.W > &.q.u.6.#.z O & *X,Xc N g b.z.N b.N N m.x.s u j.,X%.e.,X>.t N m.x.d m.b.y c.b.d i y.>X8.@ : < b X.X. .3 2.E.E.E.E.E.",
"'.'.'.).W : o.&.&.] ] 3 O & g.,Xb N g b.k.N c.N N m.z.s u *X,X%.e.,X&.e k.m.z.f m.b.r c.c.s s r.>X0.$ _ &.w.f.d.0.{ D }.~.E.E.E.",
"'.'.'.'.3.# : ; k k x k O & g.,X@.=.=.=.=.=.=.=.=.-.=.}  .-X>X%.e.<X0.[ =.-.=.=.=.-.} =.-.}  .t.>X8.+ * : : < 3 < : <.+X}.E.E.E.",
"'.'.'.'.2.: | @.0.0.5.+.+ & g.,Xg.0.:Xt.g.:X7.>Xt.h.*Xe.-X*X,X@.0.>Xa.e.&X*Xt.:Xe.:Xa.p.:X7.-Xg.>X&.+ :  .b | @.;.b 1.+X}.E.E.E.",
"'.'.'.'.Q : ) ] ' ) ) 6 + * g.>X%.| @. . .@. .@. . .X.| +.h.,X+.0.>Xt.| X.X. .@. .@. . .@.| +.p.>X&.+ v +.+.0.r.&._ F OX}.W.E.E.",
"E.E.E.).Z.+ # + $ ; = + + & g.,Xv r r a p y a r y a a e h g.,X@.0.<X0.8 a a a e a a w a a e u t.>X8.+ & - : * * : * E ~.)._.'.'.",
"E.E.E.).Q 3 >.0.w.u.y.+.# & p.,X_ M g m.N k.x.g N l.k.g l h.>X' 0.,Xr.9 l.x.l.p z.m.s z.m.f m p.>X%.+ z ;.| [ | X.3 3.~.).'.'.'.",
"E.E.E.).E 3 ] +.&.d.d.&.* * p.,X' M g m.M x.c.g k.z.k.M A g.:X_ 8.>Xe.q x.c.k.s b.m.p x.m.f m p.:X+.@ v 0.r.&.&.&.Z W ~.).'.'.'.",
"~.~.~.W./ * : 2 6 v v 3 + & t.>X' M g M.M x.b.M x.z.N M P h.:Xv 7.>Xt.q x.x.k.f z.m.p x.M.f G p.:XO.+ : ` ` v 6 5 : / ).).).).).",
"^.^.^.~.3.> X.Z x [ Z 3 + # t.:X' M g m.N x.b.M x.x.N M P h.:Xv 7.,Xt.u b.b.k.f b.m.p b.M.f H p.>X| O & - - > z z * Z.'.).~.~.~.",
"(.(.^.~.F v 5.f.y.0.>.#.= # t.>X] H G T H Y T G Y Y H H A h.:Xv &.<Xe.c T T H m K T l K N.G U p.,X] + v r.0.0.r.d.x V.'.).~.~.~.",
"}.}.(.~.S 3 +.+.' ` ` ) * # e.>Xt.e.-Xt.g.*X7.-Xt.g.&Xe.h.h.:Xv +.>Xp.e.g.h.t.-X0.*Xp.p.-X7.*Xg.>X] + : 3 5 3 v _ > / '.).~.~.~.",
"+X+X+X XE & = * & $ * # + + 0.<X7.O.t.&.7.e.O.y.$.7.e.+.e.h.:Xz +.>Xt.@.0.e.&.t.+.t.&.%.t.O.e.p.>X` o ; b } { { { > / '.).E.E.E.",
"%X%X#X|.C _ >.B.j.y.6.| # O 0.:X' 9 w r e e r w t r e e j *X:Xz O.>X7.0 r r e w r t 9 r r 9 h p.>X` + ' 0.r.&.&.r.@.E '.).E.E.E.",
"#X#X+X|.C 5 +.0.0.+.] ' & + e.,X| s d l.M M z.f k.k.g M P h.:X3 ] >X7.u l.x.M f l.k.p k.x.s G p.:X` @ 5 +.@.' ] ' 3 W '.).E.E.E.",
"}.}.}.[.3.& 2 3 3 > ; = + + 7.>X+.f g m.N x.b.g b.x.N k.U h.:X3 ] >X0.l b.x.N g b.b.s c.m.f H p.>X_ + # = x b x z - 3.'.).E.E.E.",
"E.E.E.).C.: b  .>.q.y.#.* + &.:X+.f g b.N x.c.g m.x.N k.U h.:X< ] >X7.l x.z.M g b.m.p z.M.g H t.>X_ + [ y.w.y.d.d.| D `.).~.~.~.",
"E.E.E.W.S Z #.&.#.#.&.] * O %.>X+.f g m.N x.c.s m.c.k.l.U &X:X> ' >X7.l b.c.N M b.b.s z.M.g H t.,X_ + v +.+.w.r.5.] 1 ).).~.~.~.",
"E.E.E.E.S : 3 ( 6 3 3 : + O %.>XO.m G v.J K v.m v.K J K A &X:X> ' >X7.l L n.J G K K l K n.m P e.>X( O & * * : 3 3 : B ).).W.~.~.",
"E.E.T.L.S 3 b k Z ;.>.X.& O %.:Xp.e.j.p.g.*Xt.*Xt.g.h.e.h.h.>X> ' >Xp.t.g.h.p.*Xt.j.p.p.*X0.j.p.>Xv O : [ | | @.;.{ j T.U.L.G.G.",
"E.E.T.S., ] &.5.&.' ` +.- o %.,Xp.&.h.0.p.h.$.j.9.p.g.&.h.*X:X; ' >Xp.7.a.g.0.*X&.g.t.e.*X%.j.p.:Xv O z 0.d.i.&.&.+., J.L.F.D.D.",
"E.E.T.S., 3 ( ) ` ) ) 6 & o @.>XO.9 9 t e e t 9 e t e e n h.:X; _ >X7.q t t e 9 t e 9 t t 9 l e.:Xv o * v v 6 2 3 6 - K.L.F.D.D.",
"E.E.T.K.B : > ; = < c k + O @.,X+.p d k.f g k.y k.N g N I &X:X; ' >X7.l k.k.f d k.k.s k.k.s G t.>Xv O & - c Z | Z * V T.L.G.G.G.",
"E.E.T.S.< >.d.f.&.0.&.#.- o @.>X+.s g b.M k.m.p b.b.N x.U *X:X; ' >X9.m m.b.g g b.m.g m.m.d H t.>Xv o z 5.0.d.d.0.@., S.L.U.U.U.",
"E.E.E.S.- ) ] ] ) ) ) ) * o @.>X+.s f x.f M x.i x.J g J I h.:X; _ ,X7.l x.J d d x.x.f N x.i P e.>Xv o : ) v ( v v v - Z.L.T.T.T.",
"E.E.E.K.j > k k ; ; x k + . +.>X7.%.8.q.q.q.q.q.q.q.q.%.%.*X>Xh _ >Xe.%.:.q.q.q.q.q.q.q.q.%.%.p.>Xv O * ; z x x [ x , S.L.U.U.U.",
").).).K.< 0.0.d.y.>.&.+.& . +.,X>X<X2X2X2X2X3X2X2X2X2X,X>X>X,Xh _ >X>X>X<X2X2X2X2X2X2X4X2X<X,X>X:Xc O > 0.j.w.5.r.+., K.L.G.G.G.",
"'.'._.I.< v ) ' ' ` ) 6 & . Z 8.8.8.0.8.8.8.8.8.8.8.8.8.8.8.>.% x 8.8.8.8.8.0.8.0.8.0.8.0.8.8.8.>.k O : ` ) ) ) ) 5 , K.L.F.D.D.",
"'.'.'.W.2., , 1 , , , 1 E Q 4.4.4.4.2.2.2.^ ^ ^ ~ ~ ~ ~ R R R R ^ ^ ^ ^ ! ! ^ 4.4.4.2.^ ^ ~ R R R W W * # # # + # * 3.T.L.D.D.D.",
"'.'.'.].~.^.~.E.T.T.T.T.T.E.|.oXOXoX(.^.^.~.T.T.T.T.T.T.L.F.F.G.~.~.~.E.E.E.W.}.oXoX].E.T.T.G.D.D.L.~.!.Q.~.W.I.K.U.T.T.L.F.F.F.",
"'.'.'. X+X+XOX}.^.^.~.E.E.E.E.E.W.E.E.E.E.L.F.F.F.T.E.E.~.~.~.~.{.{.{.{.{.{._.L.G.G.L.L.L.L.F.D.D.F.E.E.E.).'.'._.E.E.E.T.T.T.T.",
"'.'.'. X#X%X+X}.(.^.~.E.E.E.E.E.E.E.E.E.T.L.D.D.F.T.E.E.~.^.(.}.{.{.{.{.{.{.'.G.D.D.F.L.L.L.F.D.D.F.T.E.E.).'.'.'.E.E.E.E.E.E.E.",
"'.'.'. X+X+XOX}.(.^.~.E.E.E.E.E.E.E.E.E.E.L.D.D.F.E.E.E.~.^.(.}.{.{.{.{.{.{.'.L.F.F.F.L.L.L.F.F.F.F.T.E.E.).'.'.'.E.E.E.E.E.E.E.",
"'.'.'._.).].].[.[.[.W.E.E.E.E.E.E.E.).).).L.D.D.F.).).).].[.[.[.].].].[.'.'.'.).).).W.L.L.L.Y.Y.Y.E.~.~.~.[. X X|.E.E.E.E.~.~.~.",
"'.'.'.Y.F.F.G._.'.'.).E.E.E.E.E.E.E._.'._.P.F.D.G.`.{.{.{.{.{.{.~.~.~.).'.'.'.oX+X+X}.E.T.E.)._.`.].^.^.(.oX+X#XoXE.E.E.~.^.^.^.",
"'.'.'.Y.F.D.F._.'.'.).E.E.E.E.E.E.E.'.'._.H.F.D.G.'.{.{.{.{.{.{.~.~.~.).'.'.'.+X$X#X}.E.E.E.).'.'.[.(.(.(.oX$X$XoXE.E.E.~.^.(.(.",
"'.'.'.Y.F.D.F._.'.'.).E.E.E.E.E.E.E.'.'._.H.F.D.G.'.{.{.{.{.{.{.~.~.~.).'.'.'.+X$X#X}.E.E.E.).'.'.[.(.(.(.oX$X$XoXE.E.E.~.^.(.(."
};
