/* XPM */
static char *_2095def35ff487f865d1792b60a97bbAAecGFUJ67tXVxGY[] = {
/* columns rows colors chars-per-pixel */
"64 64 56 1 ",
"  c #72AF48",
". c #75B14C",
"X c #79B34E",
"o c #7DB94F",
"O c #7BB452",
"+ c #7FB952",
"@ c #7FB658",
"# c #80B757",
"$ c #83BC54",
"% c #82B759",
"& c #83B85B",
"* c #88BE5C",
"= c #87BA61",
"- c #8ABB63",
"; c #8EBD69",
": c #90BE6B",
"> c #87C155",
", c #88C256",
"< c #8CC35C",
"1 c #90C75C",
"2 c #92CA5C",
"3 c #8DC160",
"4 c #8EC461",
"5 c #8FC165",
"6 c #91C463",
"7 c #91C266",
"8 c #92C665",
"9 c #92C960",
"0 c #94CB61",
"q c #95CC61",
"w c #95C966",
"e c #99CD66",
"r c #90C06A",
"t c #93C469",
"y c #94C46A",
"u c #94C66A",
"i c #93C26D",
"p c #97C76D",
"a c #95C869",
"s c #98CB69",
"d c #9BCE69",
"f c #9CCF6A",
"g c #9ACB6F",
"h c #9BCC6D",
"j c #9CCF6C",
"k c #9DD06C",
"l c #98C670",
"z c #9BC972",
"x c #9ECC73",
"c c #9FCF74",
"v c #A0CF72",
"b c #A0CE76",
"n c #A0D171",
"m c #A3D177",
"M c #A5D378",
"N c #A6D479",
/* pixels */
"222<&&&9qqkNNNNNNa   3NNm:::-&&&qqq$   0qq<%%%&&&&222*&&&&&&<222",
"222<&&&9qqkNNNNNNa   3NNm:::-&&&qqq$   0qq<%%%&&&&222*&&&&&&<222",
"222<&&&9qqkNNNNNNa   3NNm:::-&&&qqq$   0qq<%%%&&&&222*&&&&&&<222",
"222<&&&222dNNNkff6OOO4kkjzzz5&&&qqq<$$$222<%%%&&&=fff3&&&<<<<222",
"222<---222eNNNq221&&&<qqqNNNu&&&qqq2222222<&&&&&&5NNNt&&&2222222",
"222<---222eNNNq221&&&<qqqNNNu&&&qqq2222222<&&&&&&5NNNt&&&2222222",
"222<---222eNNNq221&&&<qqqNNNu&&&qqq2222222<&&&&&&5NNNt&&&2222222",
"222<---&&&&&&&gMMx;;;-&&&&&&&------&&&&&&&*22200002222222222<&&&",
"222<---&&&&&&&gNNc:::-&&&&&&&------&&&&&&&*222qqqq2222222222<&&&",
"222<---&&&&&&&gNNc:::-&&&&&&&------&&&&&&&*222qqqq2222222222<&&&",
"$$$&&&&&&&=tttcNNb:::-&&&<<<<<<<&&&%OOO*<<<<<<<<<6dddddde222<&&&",
"   O&&&&&&5NNNNNNm:::=&&&qqq2222&&&O   <22<&&&&&&5NNNNNNm222<&&&",
"   O&&&&&&5NNNNNNm:::=&&&qqq2222&&&O   <22<&&&&&&5NNNNNNm222<&&&",
"   O&&&&&&5NNNNNNm:::=&&&qqq2222&&&O   <22<&&&&&&5NNNNNNm222<&&&",
"<<<3;;;O..#;;;9qq6&&&<111qqq8rrr;;;=%%%222<&&&gbbx***riii===<111",
"2226:::X  O---122<%%%<222qqq8::::::-&&&222<&&&bNNb%%%;:::---<222",
"2226:::X  O---122<%%%<222qqq8::::::-&&&222<&&&bNNb%%%;:::---<222",
"2226777+oo$333<<<*OOO*<<<qqq6---7773***,>>$%%%pggu%%%---;333<<<<",
"22222222222222&&&%OOO@&&&qqq<%%%2222222.  O%%%&&&&&&&&&&&qqq<&&&",
"22222222222222&&&%OOO@&&&qqq<%%%2222222.  O%%%&&&&&&&&&&&qqq<&&&",
"22222222222222&&&%OOO@&&&qqq<%%%2222222.  O%%%&&&&&&&&&&&qqq<&&&",
"kkke222jkka333&&&&@@@OXXOnnn8&&&222ekkk<>>*&&&pggg<<<<<<<0009<<<",
"NNNf222mNNg---&&&&&&&O  XNNNu&&&qqqkNNN2221---mNNmqqq2222qqqqqqq",
"NNNf222mNNg---&&&&&&&O  XNNNu&&&qqqkNNN2221---mNNmqqq2222qqqqqqq",
"mmme<<<nmmg===*&&&&&&OXX#bbbr&&&111sbbb222<---xmmv00022229999999",
"222$OOO22222222221&&&gNNM&&&&&&&   O&&&122<%%%---32222qq9&&&&&&&",
"222$OOO22222222221&&&gNNM&&&&&&&   O&&&122<%%%---32222qq9&&&&&&&",
"222$OOO22222222221&&&gNNM&&&&&&&   O&&&122<%%%---32222qq9&&&&&&&",
"222<***222<<<<222<&&&5uuu<<<=---OOOO%%%222<%%%-;;;<<<<<<<uuu=&&&",
"2222qqq222<&&&<qq<&&&&&&&qqq8:::&&&%%%%222<%%%;::;&&&&&&&NNNu&&&",
"2222qqq222<&&&<qq<&&&&&&&qqq8:::&&&%%%%222<%%%;::;&&&&&&&NNNu&&&",
"2222qqq222<&&&<qq<&&&&&&&qqq8:::&&&%%%%222<%%%;::;&&&&&&&NNNu&&&",
"&&&<222NNNg&&&9qqqqqq*&&&---&&&&   3NNN=&&-:::O  X&&&&&&&---<222",
"&&&<222NNNg&&&9qqqqqq*&&&---&&&&   3NNN=&&-:::O  X&&&&&&&---<222",
"&&&<222NNNg&&&9qqqqqq*&&&---&&&&   3NNN=&&-:::O  X&&&&&&&---<222",
"---*<<<mNNh<<<<<<<<<<<<<<&&&*<<<OOO*uuu%OO%---*$$$&&&&&&=<<<<<<<",
":::-&&&bNNj222*&&&&&&<221&&&<222&&&&&&&OOOO&&&9qq9&&&----222<---",
":::-&&&bNNj222*&&&&&&<221&&&<222&&&&&&&OOOO&&&9qq9&&&----222<---",
":::-&&&bNNj222*&&&&&&<221&&&<222&&&&&&&OOOO&&&9qq9&&&----222<---",
"MMMj000&&&&&&&&&&&222*&&&&&&<222%%%tMMM&%%%&&&<222000jMMm222<&&&",
"NNNkqqq&&&&%%%&&&&222*%%%&&&<222%%%uNNN*%%&&&&<222qqqkNNm222<&&&",
"NNNkqqq&&&&%%%&&&&222*%%%&&&<222%%%uNNN*%%&&&&<222qqqkNNm222<&&&",
"uuuw000=--&%%%*<<*<<<&OOO&&&<222---8jjj&%%&&&&wddd666skkj222<&&&",
"&&&<qqqr::-&&&<22<%%%OOOO&&&<qqq:::6222&%%%&&&bNNm---6qqq222<---",
"&&&<qqqr::-&&&<22<%%%OOOO&&&<qqq:::6222&%%%&&&bNNm---6qqq222<---",
"&&&<qqqr::-&&&<22<%%%OOOO&&&<qqq:::6222&%%%&&&bNNm---6qqq222<---",
"&&&OXXXbmmh111*&&=bbb&  .111<&&&&&&-===<<<wbbb7==<2229qq0===#XXX",
"&&&O   mNNk222&&&=NNN*  .222<&&&&&&&---222dNNN5&&*2222qq0---O   ",
"&&&O   mNNk222&&&=NNN*  .222<&&&&&&&---222dNNN5&&*2222qq0---O   ",
"&&&OXXXggga666***3NNN*XXOeee6***5553333222dNNN;%%*222eddd&&&OXXX",
"&&&&&&&&&&-:::622eNNNt&&=NNNf222NNNf222222eNNN*%%&qqqnNNmOOOO%%%",
"&&&&&&&&&&-:::622eNNNt&&=NNNf222NNNf222222eNNN*%%&qqqnNNmOOOO%%%",
"&&&&&&&&&&-:::622eNNNt&&=NNNf222NNNf222222eNNN*%%&qqqnNNmOOOO%%%",
"<<<*---&&&&===hkkxlll-&&&555*ooouuu3***hkka555OXXOrrraeew@@@OXXX",
"222<---&&&&&&&bNNm:::=&&&&&&O   ---&%%%bNNu&&&X  O:::6221&&&O   ",
"222<---&&&&&&&bNNm:::=&&&&&&O   ---&%%%bNNu&&&X  O:::6221&&&O   ",
"2223---&&&&&&&xMMb:::=&&&&&&O   ---&&&&xmmu&&&X  O:::6221&&&O   ",
"222fNNNi::-&&&&&&&&&&O  .&&&-:::qqqqqqq.  .OOO.  .&&&<222&&&&&&&",
"222fNNNi::-&&&&&&&&&&O  .&&&-:::qqqqqqq.  .OOO.  .&&&<222&&&&&&&",
"222fNNNi::-&&&&&&&&&&O  .&&&-:::qqqqqqq.  .OOO.  .&&&<222&&&&&&&",
"222<333866*&&&&&&&<<<O  .<<<38883336222<33*OOO$$$#---wffd&&&&---",
"222$   222<&&&&&&&222o  .qqqqqqq---<222mNNu&&&<226:::zNNb&&&-:::",
"222$   222<&&&&&&&222o  .qqqqqqq---<222mNNu&&&<226:::zNNb&&&-:::",
"222$   222<&&&&&&&222o  .qqqqqqq---<222mNNu&&&<226:::zNNb&&&-:::"
};
