/* XPM */
static char *result[] = {
/* columns rows colors chars-per-pixel */
"64 64 37 1 ",
"  c #A9918C",
". c #AF9790",
"X c #BC9F92",
"o c #C39E94",
"O c #C1A393",
"+ c #CEA393",
"@ c #D4A895",
"# c #D5B199",
"$ c #F4B792",
"% c #F6BB95",
"& c #F8BE97",
"* c #F6BE99",
"= c #F8BF98",
"- c #C5ACA9",
"; c #D4BAAF",
": c #C7B4B3",
"> c #D2BAB0",
", c #E4BCA2",
"< c #F6C19C",
"1 c #F9C49D",
"2 c #FBC89F",
"3 c #E6C1A1",
"4 c #ECC3A1",
"5 c #EAC6AA",
"6 c #EFCBAB",
"7 c #F4C5A1",
"8 c #F9C6A1",
"9 c #F6C9A4",
"0 c #FCCDA4",
"q c #F6CEAA",
"w c #FACEA9",
"e c #FDD0A7",
"r c #F5D1AD",
"t c #FED4AA",
"y c #FED8AF",
"u c #FCD7B1",
"i c #FED9B1",
/* pixels */
"tttiiiyyyyytytytyyyytyyytytyyytyyyyyyyyy6rytttytytyttttetetetttt",
"ttttttyyyyyttytytyttytyttttyyytyyyyyttt3.;ttttttttttttteeee0eett",
"teettttttyyyyyyyyyytyyttyyyyyyyyyyyettt23eeeeetttttteetetttttytt",
"00tet0ttetttttytytttyyyyyttyttytttttee2e00eeeetttttteeeeeeeeeett",
"qwete0tetettettttettttttttteteeeteete2e2e0ettryyttteeeeee0e0e0ee",
":>0tte0teettteteteettttetteeeeeeeee0eettettttuyuyyyyyyteeee00e00",
"qq000000eeteeeeteeeeeeeeee0e00eee2ett0etyyq22<%$<<$<<42922rttee0",
"ttttttte0eeeee0ee2ee2000000eeee0ee0ttt00<$<200002220002922<<2ett",
"teeeeeeee0e000e0e0e2eeeee2eteeteterr722112222e20e00222220q020209",
"ttteeteee00eee0e00e0eet0teettee222222222222220000ee2020222200000",
"49quyyeeeeetttttttttt0ree222222e02222222222220eeee00000222220200",
"*<%%49e0ttrrwqtwr022<2222e2e2e2e0222<2222200022eeeeeq000e0e0eeeq",
"022<$$$<$<<<*11=2222222eee002ee22220002290e2e22200eeete0020e2e00",
"e000000221128110200eteeeteeeee2eeeeetee020020e0e00eeete00e00e202",
"eee0teeeee20eeeeeeeetttetttteeeteeeteeeee0eeeeeqeee0eeee04#00eee",
"eteettee0eeeeeeetetttteeetteeeeteeeeeee000220e0eeeteette0 X0e000",
"tyteeeettteteeteteetttteeeeettytteteeeee0e00e0eee0ee0t0e0O4e000e",
"eetttytteeee0eeteeeet0e0etttytttttteteee00ttee00eeeet00000etttet",
"ytttttttttettteete0eeettttttttttttettettet000ttteeetttteyt0tte0e",
"tttttytyytttyttyyyyytyttyyytytyttttttteeteett33eee000tettttttttt",
"etryttte099797<*<<<<<<<<<270etttettteeyyeeeee0e0000t000ttttttttt",
"tqe2<1227<00000e20202022221<<$<<27rtyeeeeeee0te0e0000twttttttttt",
"e2e20eee0000tttteeeeee0000222202222222reete2000teeettwttttttttee",
"eeee0e20t00e00eeeeee00eeete00eetteeee227eytyttttt00tttttttete0te",
"0ee2eeeeteeeeteeeeeeeeeeeeeetetettee02e222eytttteeeeeeeett0tw000",
"eeerteeeetttttttttttttttetttttettetteee22222yyttee0e0tete000000e",
"0etttttettttttttttteetttttttttttttttttte0ee22ryyte00000000000000",
"tttttteeeeetttttteeeeetttetttttttttttttttett222rtytee0000000000e",
"tttteteeeeeeeeeeeeeeettteteetetttttytttyttyytt2200etetere00e000w",
"tttttteee00ee000eeettttttttyytttttttttttytttttyer22000002eqettte",
"2etttteeeeeeee0eetttttttttytttytyttttytyttytttyyytte0000e0000000",
"teeeeeee0eeeeeeetttttyyyyttetyttyttytttttyttyttttttttteeeeeeeeet",
"ttt0t00eeetttttttyyyt221<<<<<0tttyttyttttttttttytytttytytyytttty",
"000e00t0eetttyyurt<<<%<1111<1<*<2tyttttttttyttttytytyttttttyyttt",
"50e0we0t0etyyy0<1<11222220020002222rtetttttttttttttttttytttttttt",
"ww0eeetttyytq<11220022000000000222220rttt0ttttttttetttttttttyttt",
"ttwettetrt9<12000000eeeeee00002020222222eteeteettttt00w,tttttttt",
"tuyiyyt92<100000eeettttte0eeeeeete0e00ee1<90tttttettttttttetttee",
"00000<12000eeeteettyyttttttttttttettt0eeee2<120eeettttwtttteeeee",
"010100000eeetteetyttttytytytytttttttt0eeeee21%%<20000tt0teteeete",
"00000tt0ettte0ttettetteetttyttttttttttyteetee221*$*08000eet0wwtw",
"t0tttttttt00tteteteteeee0ttteeettttttttytte00e021811<<<1127111**",
"tttytte0e0tteeetttteeteeteetee00ee00000ettteee2e0000000022111**1",
"t000eette000ttttttttteee0ee0e0e022000222200ttetee00eeee0e0000000",
"0tttttttw000000ettttteeee0et0eeeee0000022eeeetttet0eee0ee00000tt",
"ttyyyiwtuww8210020000eeeeee0ettteee0002000eetttttteeeeeeteettt0w",
"ytt8=11&%%=000812122200200000ee02e2002002002eeeeeyttetteettttyyt",
"t0===1111=11*1800221222200000020222320222ee00eeeetttttetttyttttt",
"1===<&121111<11&=100880000010121087-,1=110e0ttt0ettttttttyytttyt",
"*===111221221111<==8008000000020000811118wttytyyiyyyyttyytttyttt",
"1181222222e0e0221111&108011111811001100w811===11<20tyiyttytyttyt",
"100tteeee0eeee000211118801010110080www1181188111221<*=w0yyttttyt",
"00ee00ettteeeeee0002212210wtw00w00w8111100002222000011=*%2etyyyt",
"0tettttteteeeeteete0e00218100ww00881200e0ee0e20000teee001<<<2<20",
"eettttyttytytttttteeeee00000000000000000ee0eeeeeeeteeeeee002111<",
"yttyytttytttyytttttteeeeee0000000000000000002e20000teee002200222",
"tytyettyytyytytttytyttttteeewtt00we0ee000002022200ttt00000022222",
"ytyttyttytttttyttytttytytttttttttyttteeetee0e22e0e00ette0e0e0000",
"tttetttttttetttyttytyttttyttettttttttttetteeeeee0e0000002o000002",
"tttttttttttteee0000yyytttyyttttttttyytytttteeeeetttt0tt00q00e0e0",
"teee0etteeeeee0001110wutetttttyttyttetetttttttttttteteyytttwtwtt",
"ettett000220022281111880tttetw0tttttteettytyttyyttyiiit0081=1188",
"tttyye00202022221@+1111=110twt00eeeeetettyyttyiiyiyet1188111====",
"ttttetee0122e002ee00211111100wtttttttttyyytyttee00221118808811=="
};
