/* XPM */
static char *_a0c831d487044b2976058b0494613e52ey2BrHUknDkjDqO[] = {
/* columns rows colors chars-per-pixel */
"64 64 122 2 ",
"   c black",
".  c #060606",
"X  c gray4",
"o  c gray5",
"O  c #1C120D",
"+  c #101010",
"@  c gray9",
"#  c gray10",
"$  c #1E1E1E",
"%  c #20150F",
"&  c #2A1911",
"*  c #2F1C13",
"=  c #321E14",
"-  c #342219",
";  c #222222",
":  c #242423",
">  c #272725",
",  c #2A2A27",
"<  c gray16",
"1  c #2D2D2D",
"2  c gray19",
"3  c #373733",
"4  c #343434",
"5  c #393934",
"6  c #3C3B36",
"7  c gray23",
"8  c #3C3C3C",
"9  c #472A1C",
"0  c #4C2E1E",
"q  c #513628",
"w  c #433630",
"e  c #453934",
"r  c #41413D",
"t  c #784830",
"y  c #414141",
"u  c #464643",
"i  c #464646",
"p  c #4E4742",
"a  c #484847",
"s  c #4B4B4B",
"d  c #4D4D48",
"f  c gray31",
"g  c #504946",
"h  c #504F48",
"j  c #50504B",
"k  c #53534E",
"l  c #55554F",
"z  c #515151",
"x  c #555550",
"c  c #575755",
"v  c #5B5B57",
"b  c #5C5C56",
"n  c gray35",
"m  c #5D5D5A",
"M  c #5D5D5D",
"N  c #62615A",
"B  c #67675F",
"V  c #68675F",
"C  c gray38",
"Z  c #656565",
"A  c #6B6B63",
"S  c gray42",
"D  c #6D6D6D",
"F  c #72726A",
"G  c #7A796F",
"H  c #717171",
"J  c #767571",
"K  c #747474",
"L  c #797971",
"P  c #7C7B72",
"I  c #797974",
"U  c #7B7B7B",
"Y  c #7E7E7E",
"T  c #838277",
"R  c #87877E",
"E  c #858582",
"W  c #868686",
"Q  c #8F8E83",
"!  c #8B8A88",
"~  c #8E8E8E",
"^  c #908E82",
"/  c #919187",
"(  c #98968B",
")  c #9A998D",
"_  c #9D9B8D",
"`  c #9F9D8E",
"'  c #959591",
"]  c #999992",
"[  c #9F9D90",
"{  c #9D9C94",
"}  c #9B9B9B",
"|  c #9D9D98",
" . c #A1A196",
".. c #A4A294",
"X. c #A5A496",
"o. c #A8A697",
"O. c #A7A79A",
"+. c #A0A09E",
"@. c #A6A49C",
"#. c #AAA898",
"$. c #ABAA9D",
"%. c #ACAB9D",
"&. c #ADAC9C",
"*. c #A3A3A1",
"=. c gray65",
"-. c #AFAEA0",
";. c #AAAAA5",
":. c #AFAEA4",
">. c #B3B1A2",
",. c #B4B2A3",
"<. c #B2B1A5",
"1. c #B7B5A5",
"2. c #B8B6A5",
"3. c #BAB8A7",
"4. c #BCBAA8",
"5. c #C9C9BC",
"6. c #D0D0C5",
"7. c #D6D6CC",
"8. c #D9D9D0",
"9. c #E0E0D9",
"0. c #E5E5E0",
"q. c #FBFBFB",
/* pixels */
"=.=.=.=.=.=.=.=.=.=.=.=.=.=.=.=.=.=.=.=.=.=.=.=.=.=.=.=.=.=.=.=.=.=.=.=.=.=.=.=.=.=.=.=.=.=.=.=.=.=.=.=.=.=.=.=.=.=.=.=.=.=.=.=.",
"=.=.=.=.=.=.=.=.=.=.=.=.=.=.=.=.=.=.=.=.=.=.=.=.=.=.=.=.=.=.=.=.=.=.=.=.=.=.=.=.=.=.=.=.=.=.=.=.=.=.=.=.=.=.=.=.=.=.=.=.=.=.=.=.",
"=.=.=.=.=.=.=.=.=.=.=.=.=.=.=.=.=.=.=.=.=.=.=.=.=.=.=.=.=.=.=.=.=.=.=.=.=.=.=.=.=.=.=.=.=.=.=.=.=.=.=.=.=.=.=.=.=.=.=.=.=.=.=.=.",
"=.=.=.=.=.=.=.=.=.=.=.=.=.=.=.=.=.=.=.=.=.=.=.=.=.=.=.=.=.=.=.=.=.=.=.=.=.=.=.=.=.=.=.=.=.=.=.=.=.=.=.=.=.=.=.=.=.=.=.=.=.=.=.=.",
"=.=.=.=.=.=.=.=.=.=.=.=.=.=.=.=.=.=.=.=.=.=.=.=.=.=.=.;.;.;.;.;.;.;.;.;.;.;.;.=.=.=.=.=.=.=.=.=.=.=.=.=.=.=.=.=.=.=.=.=.=.=.=.=.",
"=.=.=.=.=.=.=.=.=.=.=.=.=.=.=.=.=.=.=.=.=.=.=.=.=.=.;.,.,.,.,.,.,.,.,.,.,.,.:.=.=.=.=.=.=.=.=.=.=.=.=.=.=.=.=.=.=.=.=.=.=.=.=.=.",
"=.=.=.=.=.=.=.=.=.=.=.=.=.=.=.=.=.=.=.=.=.=.=.;.;.;.:.1.1.1.1.1.1.1.1.1.1.1.<.;.;.;.;.=.=.=.=.=.=.=.=.=.=.=.=.=.=.=.=.=.=.=.=.=.",
"=.=.=.=.=.=.=.=.=.=.=.=.=.=.=.=.=.=.=.=.=.=.;.,.,.,.1.4.4.4.4.4.4.4.4.4.4.4.2.,.,.,.:.=.=.=.=.=.=.=.=.=.=.=.=.=.=.=.=.=.=.=.=.=.",
"=.=.=.=.=.=.=.=.=.=.=.=.=.=.=.=.=.=.=.=.*.| @.1.1.1.2.4.4.4.4.4.4.4.4.4.4.4.3.1.1.1.%.| +.=.=.=.=.=.=.=.=.=.=.=.=.=.=.=.=.=.=.=.",
"=.=.=.=.=.=.=.=.=.=.=.=.=.=.=.=.=.=.=.=.| ^ ` 4.4.4.4.4.4.4.4.4.4.4.4.4.4.4.4.4.4.4.#.^ ] =.=.=.=.=.=.=.=.=.=.=.=.=.=.=.=.=.=.=.",
"=.=.=.=.=.=.=.=.=.=.=.=.=.=.=.=.=.=.*.{ { ` o.4.4.4.4.4.4.4.4.4.4.4.4.4.4.4.4.4.4.4.&.` [ { +.=.=.=.=.=.=.=.=.=.=.=.=.=.=.=.=.=.",
"=.=.=.=.=.=.=.=.=.=.=.=.=.=.=.=.=.=.| ^ _ ,.1.4.4.4.4.4.4.4.4.4.4.4.4.4.4.4.4.4.4.4.2.,...^ ] =.=.=.=.=.=.=.=.=.=.=.=.=.=.=.=.=.",
"=.=.=.=.=.=.=.=.=.=.=.=.=.=.=.=.=.=.| ^ _ 1.2.4.4.4.4.4.4.4.4.4.4.4.4.4.4.4.4.4.4.4.3.1.X.^ ] =.=.=.=.=.=.=.=.=.=.=.=.=.=.=.=.=.",
"=.=.=.=.=.=.=.=.=.=.=.=.=.=.=.=.=.=.| ^ ` 4.4.4.4.4.4.4.4.4.4.4.4.4.4.4.4.4.4.4.4.4.4.4.o.^ ] =.=.=.=.=.=.=.=.=.=.=.=.=.=.=.=.=.",
"=.=.=.=.=.=.=.=.=.=.=.=.=.=.=.=.*.{ { [ o.4.4.4.4.4.4.4.4.4.4.4.4.4.4.4.4.4.4.4.4.4.4.4.&.[ [ { +.=.=.=.=.=.=.=.=.=.=.=.=.=.=.=.",
"=.=.=.=.=.=.=.=.=.=.=.=.=.=.=.=.| ^ _ ,.1.4.4.4.4.4.4.4.4.4.4.4.4.4.4.4.4.4.4.4.4.4.4.4.2.,...^ ] =.=.=.=.=.=.=.=.=.=.=.=.=.=.=.",
"=.=.=.=.=.=.=.=.=.=.=.=.=.=.=.=.| ^ _ ,.1.4.4.4.4.4.4.4.4.4.4.4.4.4.4.4.4.4.4.4.4.4.4.4.2.,...^ ] =.=.=.=.=.=.=.=.=.=.=.=.=.=.=.",
"=.=.=.=.=.=.=.=.=.=.=.=.=.=.=.=.| ^ _ ,.1.4.4.4.4.4.4.4.4.4.4.4.4.4.4.4.4.4.4.4.4.4.4.4.2.,...^ ] =.=.=.=.=.=.=.=.=.=.=.=.=.=.=.",
"=.=.=.=.=.=.=.=.=.=.=.=.=.=.=.=.| ^ _ ,.1.4.4.4.4.4.4.4.4.4.4.4.4.4.4.4.4.4.4.4.4.4.4.4.2.,...^ ] =.=.=.=.=.=.=.=.=.=.=.=.=.=.=.",
"=.=.=.=.=.=.=.=.=.=.=.=.=.=.=.=.| ^ _ ,.1.4.4.4.4.4.4.4.4.4.4.4.4.4.4.4.4.4.4.4.4.4.4.4.2.,...^ ] =.=.=.=.=.=.=.=.=.=.=.=.=.=.=.",
"=.=.=.=.=.=.=.=.=.=.=.=.=.=.=.=.! h V ) X.4.4.4.4.4.4.4.4.4.4.4.4.4.4.4.4.4.4.4.4.4.4.4.&.) G h J =.=.=.=.=.=.=.=.=.=.=.=.=.=.=.",
"=.=.=.=.=.=.=.=.=.=.=.=.=.=.=.=.H   > L Q 4.4.4.4.4.4.4.4.4.4.4.4.4.4.4.4.4.4.4.4.4.4.4.[ L u   s =.=.=.=.=.=.=.=.=.=.=.=.=.=.=.",
"=.=.=.=.=.=.=.=.=.=.=.=.=.=.=.=.H   > L Q 2.2.4.4.4.4.4.4.4.4.4.4.4.4.4.4.4.4.4.4.4.3.2.` L u   s =.=.=.=.=.=.=.=.=.=.=.=.=.=.=.",
"=.=.=.=.=.=.=.=.=.=.=.=.=.=.=.=.H   > L Q ,.1.4.4.4.4.4.4.4.4.4.4.4.4.4.4.4.4.4.4.4.2.,.) L u   s =.=.=.=.=.=.=.=.=.=.=.=.=.=.=.",
"=.=.=.=.=.=.=.=.=.=.=.=.=.=.=.=.! s a r B ,.1.4.4.4.4.4.4.4.4.4.4.4.4.4.4.4.4.4.4.4.2.,.T r u s H =.=.=.=.=.=.=.=.=.=.=.=.=.=.=.",
"=.=.=.=.=.=.=.=.=.=.=.=.=.=.=.=.=.=.D   6 ,.1.4.4.4.4.4.4.4.4.4.4.4.4.4.4.4.4.4.4.4.2.,.B   s =.=.=.=.=.=.=.=.=.=.=.=.=.=.=.=.=.",
"=.=.=.=.=.=.=.=.=.=.=.=.=.=.=.=.=.=.D   5 $.-.2.2.4.4.4.4.4.4.4.4.4.4.4.4.4.4.4.3.2.>.$.N   s =.=.=.=.=.=.=.=.=.=.=.=.=.=.=.=.=.",
"=.=.=.=.=.=.=.=.=.=.=.=.=.=.=.=.=.=.D   3  .O.,.1.4.4.4.4.4.4.4.4.4.4.4.4.4.4.4.2.,.%. .b   s =.=.=.=.=.=.=.=.=.=.=.=.=.=.=.=.=.",
"=.=.=.=.=.=.=.=.=.=.=.=.=.=.=.=.=.=.! f k l F $.-.2.2.2.2.2.2.2.2.2.2.2.2.2.2.2.>.$.R l k f K =.=.=.=.=.=.=.=.=.=.=.=.=.=.=.=.=.",
"=.=.=.=.=.=.=.=.=.=.=.=.=.=.=.=.=.=.=.=.D   3  .O.,.,.,.,.,.,.,.,.,.,.,.,.,.,.,.%. .b   i =.=.=.=.=.=.=.=.=.=.=.=.=.=.=.=.=.=.=.",
"=.=.=.=.=.=.=.=.=.=.=.=.=.=.=.=.=.=.=.=.! f k k A ( [ $.$.$.$.$.$.$.$.$.$.$. .( P k k f K =.=.=.=.=.=.=.=.=.=.=.=.=.=.=.=.=.=.=.",
"=.=.=.=.=.=.=.=.=.=.=.=.=.=.=.=.=.=.=.=.=.=.D   , L R  . . . . . . . . . . ./ L u   i =.=.=.=.=.=.=.=.=.=.=.=.=.=.=.=.=.=.=.=.=.",
"=.=.=.=.=.=.=.=.=.=.=.=.=.=.=.=.=.=.=.=.! c 8 o : d d k k k k k k k k k k k j d 2 o 1 c K =.=.=.=.=.=.=.=.=.=.=.=.=.=.=.=.=.=.=.",
"=.=.=.=.=.=.=.=.=.=.=.=.=.=.=.=.=.=.=.=.D   X $ $ $ +                       o $ $ $ +   i =.=.=.=.=.=.=.=.=.=.=.=.=.=.=.=.=.=.=.",
"=.=.=.=.=.=.=.=.=.=.=.=.=.=.=.=.=.=.! c 8 o @ > > > ; # # # # # # # # # # # $ > > > $ o 1 c K =.=.=.=.=.=.=.=.=.=.=.=.=.=.=.=.=.",
"=.=.=.=.=.=.=.=.=.=.=.=.=.=.=.=.=.=.D   X $ > 2 2 2 2 2 2 2 2 2 2 2 2 2 2 2 2 2 2 2 < $ +   s =.=.=.=.=.=.=.=.=.=.=.=.=.=.=.=.=.",
"=.=.=.=.=.=.=.=.=.=.=.=.=.=.=.=.=.=.D   o > < 2 1 > < 2 2 2 2 2 2 2 2 2 2 2 1 > < 2 1 > @   s =.=.=.=.=.=.=.=.=.=.=.=.=.=.=.=.=.",
"=.=.=.=.=.=.=.=.=.=.=.=.=.=.=.=.=.=.D   + 2 2 2 < $ > 2 2 2 2 2 2 2 2 2 2 2 < $ > 2 2 2 $   s =.=.=.=.=.=.=.=.=.=.=.=.=.=.=.=.=.",
"=.=.=.=.=.=.=.=.=.=.=.=.=.=.=.=.! z 8 # ; 2 1 > $ o # < 1 2 2 2 2 2 2 2 1 < $ o # > < 2 > # 2 z K =.=.=.=.=.=.=.=.=.=.=.=.=.=.=.",
"=.=.=.=.=.=.=.=.=.=.=.=.=.=.=.=.H   + 2 2 2 < $ +   o > < 2 2 2 2 2 2 2 1 > @   o $ > 2 2 2 #   s =.=.=.=.=.=.=.=.=.=.=.=.=.=.=.",
"=.=.=.=.=.=.=.=.=.=.=.=.=.=.=.=.H   + 2 2 2 > o X   o > < 2 2 2 2 2 2 2 1 > @   . o $ 2 2 2 #   s =.=.=.=.=.=.=.=.=.=.=.=.=.=.=.",
"=.=.=.=.=.=.=.=.=.=.=.=.=.=.=.=.H   + 2 2 2 ;       o > < 2 2 2 2 2 2 2 1 > @       @ 2 2 2 #   s =.=.=.=.=.=.=.=.=.=.=.=.=.=.=.",
"=.=.=.=.=.=.=.=.=.=.=.=.=.=.! f c A I } D @ 1 c 7   o < 1 2 2 2 2 2 2 2 1 < #   ; c 8 @ f } E A m f K =.=.=.=.=.=.=.=.=.=.=.=.=.",
"=.=.=.=.=.=.=.=.=.=.=.=.=.=.H   r 5.8.q.=.  7 =.D   + 2 2 2 2 2 2 2 2 2 2 2 $   i =.C   S q.0.5.F   s =.=.=.=.=.=.=.=.=.=.=.=.=.",
"=.=.=.=.=.=.=.=.=.=.=.=.=.=.H   r 5.6.9.'   # f 7 @ $ 2 2 2 4 y y y 7 2 2 2 > @ < f 1   M 9.7.5.F   s =.=.=.=.=.=.=.=.=.=.=.=.=.",
"=.=.=.=.=.=.=.=.=.=.=.=.=.=.H   r 5.5.5.R       o > < 2 2 2 7 f f f y 2 2 2 < > @       x 5.5.5.F   s =.=.=.=.=.=.=.=.=.=.=.=.=.",
"=.=.=.=.=.=.=.=.=.=.=.=.=.=.~ n n b b b v n 7   X ; > < 2 y i f f f s y 7 < > ; @   > n n b b b v n Y =.=.=.=.=.=.=.=.=.=.=.=.=.",
"=.=.=.=.=.=.=.=.=.=.=.=.=.=.=.=.H       4 =.D   X $ ; > 4 f f f f f f f 8 > ; $ +   i =.M       s =.=.=.=.=.=.=.=.=.=.=.=.=.=.=.",
"=.=.=.=.=.=.=.=.=.=.=.=.=.=.=.=.~ n n n K =.D   o ; ; ; < 4 4 4 4 4 4 4 1 ; ; ; @   i =.W n n n Y =.=.=.=.=.=.=.=.=.=.=.=.=.=.=.",
"=.=.=.=.=.=.=.=.=.=.=.=.=.=.=.=.=.=.=.=.=.=.D   o > ; $ $ $ $ $ $ $ $ $ $ $ ; > @   i =.=.=.=.=.=.=.=.=.=.=.=.=.=.=.=.=.=.=.=.=.",
"=.=.=.=.=.=.=.=.=.=.=.=.=.=.=.=.=.=.=.=.=.=.D   o > > < > ; # o o o @ ; > < > > @   i =.=.=.=.=.=.=.=.=.=.=.=.=.=.=.=.=.=.=.=.=.",
"=.=.=.=.=.=.=.=.=.=.=.=.=.=.=.=.=.=.=.=.=.=.D   o > < 2 1 > @       o > < 2 < > @   i =.=.=.=.=.=.=.=.=.=.=.=.=.=.=.=.=.=.=.=.=.",
"=.=.=.=.=.=.=.=.=.=.=.=.=.=.=.=.=.=.=.=.=.=.D   o > < 2 > + 1 M M M 8 + $ 2 < > @   i =.=.=.=.=.=.=.=.=.=.=.=.=.=.=.=.=.=.=.=.=.",
"=.=.=.=.=.=.=.=.=.=.=.=.=.=.=.=.=.=.=.=.=.=.D   o > < 2 $   8 =.=.=.Z   + 2 < > @   i =.=.=.=.=.=.=.=.=.=.=.=.=.=.=.=.=.=.=.=.=.",
"=.=.=.=.=.=.=.=.=.=.=.=.=.=.=.=.=.=.=.=.=.=.D   X ; ; > @   8 =.=.=.Z   o > ; ; +   i =.=.=.=.=.=.=.=.=.=.=.=.=.=.=.=.=.=.=.=.=.",
"=.=.=.=.=.=.=.=.=.=.=.=.=.=.=.=.=.=.=.=.=.=.D   X $ $ $ +   8 =.=.=.Z   X $ $ $ +   i =.=.=.=.=.=.=.=.=.=.=.=.=.=.=.=.=.=.=.=.=.",
"=.=.=.=.=.=.=.=.=.=.=.=.=.=.=.=.=.=.=.=.=.=.D   O q q q -   8 =.=.=.Z   % q q q =   i =.=.=.=.=.=.=.=.=.=.=.=.=.=.=.=.=.=.=.=.=.",
"=.=.=.=.=.=.=.=.=.=.=.=.=.=.=.=.=.=.=.=.=.=.D   & t t t 0   8 =.=.=.Z   * t t t 9   i =.=.=.=.=.=.=.=.=.=.=.=.=.=.=.=.=.=.=.=.=.",
"=.=.=.=.=.=.=.=.=.=.=.=.=.=.=.=.=.=.=.=.=.=.~ C g = = = w C U =.=.=.! C p = = = e C Y =.=.=.=.=.=.=.=.=.=.=.=.=.=.=.=.=.=.=.=.=.",
"=.=.=.=.=.=.=.=.=.=.=.=.=.=.=.=.=.=.=.=.=.=.=.=.D       8 =.=.=.=.=.=.=.Z       i =.=.=.=.=.=.=.=.=.=.=.=.=.=.=.=.=.=.=.=.=.=.=.",
"=.=.=.=.=.=.=.=.=.=.=.=.=.=.=.=.=.=.=.=.=.=.=.=.~ C C C U =.=.=.=.=.=.=.! C C C Y =.=.=.=.=.=.=.=.=.=.=.=.=.=.=.=.=.=.=.=.=.=.=.",
"=.=.=.=.=.=.=.=.=.=.=.=.=.=.=.=.=.=.=.=.=.=.=.=.=.=.=.=.=.=.=.=.=.=.=.=.=.=.=.=.=.=.=.=.=.=.=.=.=.=.=.=.=.=.=.=.=.=.=.=.=.=.=.=.",
"=.=.=.=.=.=.=.=.=.=.=.=.=.=.=.=.=.=.=.=.=.=.=.=.=.=.=.=.=.=.=.=.=.=.=.=.=.=.=.=.=.=.=.=.=.=.=.=.=.=.=.=.=.=.=.=.=.=.=.=.=.=.=.=.",
"=.=.=.=.=.=.=.=.=.=.=.=.=.=.=.=.=.=.=.=.=.=.=.=.=.=.=.=.=.=.=.=.=.=.=.=.=.=.=.=.=.=.=.=.=.=.=.=.=.=.=.=.=.=.=.=.=.=.=.=.=.=.=.=."
};
