/* XPM */
static char *result[] = {
/* columns rows colors chars-per-pixel */
"64 64 225 2 ",
"   c #281D1F",
".  c #261E21",
"X  c #2A1F20",
"o  c #2B2222",
"O  c #352523",
"+  c #392624",
"@  c #362826",
"#  c #3B2A26",
"$  c #362C2A",
"%  c #3B2E2B",
"&  c #3F3330",
"*  c #422B27",
"=  c #482E28",
"-  c #522F28",
";  c #44332B",
":  c #4C332B",
">  c #53322B",
",  c #5B352C",
"<  c #533A2E",
"1  c #5B3A2E",
"2  c #443531",
"3  c #463A37",
"4  c #4B3C35",
"5  c #4A3D39",
"6  c #543B33",
"7  c #533B34",
"8  c #5C3B31",
"9  c #643C2E",
"0  c #643E31",
"q  c #6A3D30",
"w  c #5B4233",
"e  c #57453C",
"r  c #644135",
"t  c #6B4334",
"y  c #6D4639",
"u  c #664B39",
"i  c #6C493D",
"p  c #744434",
"a  c #754A37",
"s  c #7A4836",
"d  c #744C3B",
"f  c #7C4B39",
"g  c #7B543B",
"h  c #584941",
"j  c #664D42",
"k  c #744F42",
"l  c #685449",
"z  c #7A5343",
"x  c #775949",
"c  c #6D5C51",
"v  c #7F634E",
"b  c #766153",
"n  c #7C6354",
"m  c #7D6658",
"M  c #804A37",
"N  c #834E3A",
"B  c #84533C",
"V  c #8C533D",
"C  c #80593A",
"Z  c #8C5C3F",
"A  c #92553E",
"S  c #93593F",
"D  c #875B47",
"F  c #965740",
"G  c #995A41",
"H  c #925E4A",
"J  c #89694B",
"K  c #9D6244",
"L  c #976B44",
"P  c #966847",
"I  c #9C6C44",
"U  c #9C634A",
"Y  c #9E7146",
"T  c #836554",
"R  c #8D6C56",
"E  c #846B5A",
"W  c #8C6A58",
"Q  c #976B54",
"!  c #97765C",
"~  c #9C745E",
"^  c #A16444",
"/  c #A86746",
"(  c #A56B46",
")  c #A86D47",
"_  c #A3674C",
"`  c #A3694C",
"'  c #AB6E49",
"]  c #AD734A",
"[  c #A87549",
"{  c #B1764A",
"}  c #B37B4C",
"|  c #B87F4D",
" . c #A66C52",
".. c #A87857",
"X. c #B17657",
"o. c #B37B53",
"O. c #B27D5C",
"+. c #8B7867",
"@. c #977964",
"#. c #A47B63",
"$. c #AA7F66",
"%. c #B5824C",
"&. c #BB834E",
"*. c #AA865D",
"=. c #BD8650",
"-. c #B9885A",
";. c #BF9057",
":. c #9D826C",
">. c #8F8273",
",. c #AA8665",
"<. c #A4846C",
"1. c #AB856C",
"2. c #B88A69",
"3. c #B7906A",
"4. c #BD936B",
"5. c #A58A72",
"6. c #AC8C73",
"7. c #B38D73",
"8. c #BE8F74",
"9. c #B69776",
"0. c #BC9174",
"q. c #BC957A",
"w. c #BAA379",
"e. c #C1884E",
"r. c #C58E52",
"t. c #C08956",
"y. c #C79155",
"u. c #C89254",
"i. c #C6935A",
"p. c #C9955A",
"a. c #CC9A5D",
"s. c #C08D6E",
"d. c #C49866",
"f. c #CB9C63",
"g. c #C69876",
"h. c #CB9C7C",
"j. c #D39F7D",
"k. c #CEA167",
"l. c #C7A26E",
"z. c #CDA36C",
"x. c #D0A166",
"c. c #D2A56B",
"v. c #D4A86C",
"b. c #C8A576",
"n. c #D4AC73",
"m. c #D6B077",
"M. c #DAB175",
"N. c #D6B27B",
"B. c #D9B57D",
"V. c #AB9589",
"C. c #BD9E83",
"Z. c #B69B91",
"A. c #C69F81",
"S. c #CA9F8B",
"D. c #C5A284",
"F. c #CBA282",
"G. c #CBA888",
"H. c #D5A887",
"J. c #DDA985",
"K. c #D4AD8B",
"L. c #DBAD8B",
"P. c #D4B684",
"I. c #DBBB85",
"U. c #DBB28E",
"Y. c #D6BC8A",
"T. c #DBBD89",
"R. c #C7A393",
"E. c #CEAE95",
"W. c #DBB492",
"Q. c #D9B697",
"!. c #E3AF8C",
"~. c #E4B487",
"^. c #E3B28D",
"/. c #E3B591",
"(. c #EBB692",
"). c #E3BA96",
"_. c #EEBB95",
"`. c #E2BD9A",
"'. c #ECBD98",
"]. c #F5BA94",
"[. c #F6BB95",
"{. c #F6BE99",
"}. c #F8BF98",
"|. c #CEB8AD",
" X c #E2BBA0",
".X c #DEC38C",
"XX c #DFC593",
"oX c #E0C58F",
"OX c #E1C791",
"+X c #E2C993",
"@X c #ECC39D",
"#X c #E5CC9A",
"$X c #E8CE9F",
"%X c #F4C39D",
"&X c #F9C49D",
"*X c #FBC89F",
"=X c #EBD19B",
"-X c #DBC8A4",
";X c #DFCFB2",
":X c #EAC6A6",
">X c #F4C6A1",
",X c #F9C7A1",
"<X c #F5C9A3",
"1X c #FCCDA4",
"2X c #F5CEA9",
"3X c #FACEA9",
"4X c #EBD3A5",
"5X c #EED6AA",
"6X c #EFD9AE",
"7X c #FDD0A7",
"8X c #F6D1AC",
"9X c #FED4AA",
"0X c #F0D9AE",
"qX c #FFD8AF",
"wX c #E7D5B7",
"eX c #FCD7B1",
"rX c #F3DCB3",
"tX c #FED9B1",
"yX c #F6DFB9",
"uX c #F6E1BC",
"iX c #F8E3BF",
"pX c #F4E4C4",
"aX c #FBE6C5",
"sX c #FCE8C7",
"dX c #FEE9C9",
/* pixels */
"9X9X9XtXtXtXqXqXqX9XqXqX9XqX9XqXqXqX9XqX9XqXqX9XqXqX9X9X9XqX9X9X9X9X9X9XqXtXtX8X2X8XqX9XqX9XqX9XqX9XqX9X9X9X9X7X7X7X9X7X7X9X9X9X",
"9X9X9X9X9X9XqXqXqXqX9XqX9XqXqX9XqX9XqX9X9XqXqX9X7X9XK.,.1.0.h.j.g.7.6.D.2X9X1X:XZ.|.9X9X9X9X9XqX9X9X9XqX9X9X9X9X7X9X9X1X7X7X9X9X",
"7X7X9X9X9X9X9X9XqXqXqXqXqXqXqXqXtXtXqXqXqXqX9X#XQ.@X,.r 0 f G ^ B r r P W.).).<X:X,X1X7X7X7X9X9X9X9X7X7X7X7X9X7X9X7X9X9X9XqXqX9X",
"7X7X7X7X9X7X9X7X7X9X9X7X9XqX9X9X9X9X9XqXqX9X9X:.h  .o.%.} =.t.e.&.} %.} ..k b ).1X7X1X7X1X7X9X9XqX9X9X7X7X7X7X1X7X7X7X7X7X7X9X9X",
"2X3X1X9X7X1X7X9X7X9X9X9X7X9X9X7X9X9X7X9X9X@X5.x r ( &.r.r.r.u.r.r.r.y.&.' f u @.K.1X3X7X9X9XqX9X9XqX9X7X7X7X7X7X7X7X1X1X7X7X1X7X",
"|.|.9X3X9X7X7X7X7X9X7X9X9X7X7X9X9X7X7X9X3XD.2 t ( r.r.r.u.r.r.r.r.y.r.r.r.' N % :.9X9XqXqXqXqXqXqXqXqXuXqXqX9X9X7X7X1X1X7X1X7X*X",
"2X3X9X3X1X1X1X7X7X7X9X7X7X7X9X7X7X1X1X7X7XG.0 D e.r.r.r.r.r.u.u.y.r.r.r.r.=.( 8 7.9X7X%X%X%X].].].].].].%X%X<X<X,X,X9X9X7X7X7X1X",
"3X9X3X9X9X9X9X1X7X7X7X7X7X7X1X7X1X7X1X*XD.! d ( u.r.r.r.r.r.r.r.r.y.r.r.y.y.} f R 6.(.&X1X1X1X1X*X1X1X*X*X7X*X<X,X<X&X%X,X7X9X9X",
"9X9X7X3X9X7X7X7X7X*X7X1X7X1X1X1X1X1X1X@Xn : V { u.r.r.r.r.r.r.u.r.r.y.r.r.r.&.G 0 e L.,X*X1X1X1X1X7X,X*X*X*X*X,X,X1X1X1X*X,X1X1X",
"9X9X9X3X7X7X7X7X7X7X1X7X7X7X7X7X7X1X1X%XR , F { u.r.r.r.u.u.r.r.y.r.r.r.r.r.&.G q k ^.,X,X1X*X7X1X7X7X1X1X*X1X*X,X,X*X*X1X1X1X1X",
">X>X2XrXqXqX9X7X7X7X7X9X9X9X9X9X9X9X7X<X! q F ( =.e.r.r.r.r.u.r.r.r.r.r.r.&.{ G p z /.,X,X1X1X7X7X7X1X1X1X1X1X*X1X*X*X1X1X1X1X1X",
"[.&X].].%X<X3X9X9X9X8X8X3X8X3X3X2X2X>X_.Q 0 F F ^ e.r.r.r.r.r.r.r.r.r.r.r./ G G p k /.,X1X*X1X1X7X7X1X7X7X1X1X1X1X1X7X1X1X1X7X1X",
"1X,X&X&X].].].].[.[.[.&X&X&X&X}.&X&X&X@Xn ; F F G / / ' e.r.r.r.r.r.{ / / G A G 0 e /.,X1X1X,X1X1X1X7X9X9X7X7X,X1X,X1X7X1X1X1X1X",
"1X1X1X1X1X1X*X*X*X*X*X*X&X&X*X,X1X1X@Xh.T 8 F F G F F G } &.&.| %.| / A G S G G y u 0.^.1X1X1X1X1X1X1X7X7X9X7X1X1X7X1X1X1X,X1X1X",
"1X1X7X1X9X7X7X7X7X1X*X7X7X7X7X7X7X1XF.z I %.G F F G F G G G G G S G G S G G S G ] %.a 1.1X1X7X7X7X1X7X1X1X9X9X1X1X<XQ.1X1X7X1X1X",
"9X9X9X7X9X9X7X7X1X7X7X7X7X7X7X7X9X7XF.y *.d.f N G F G F G F G F G G S G G F A q *.g.r ,.1X1X1X7X9X7X9X9X3X9X9X1X1XV.Z.7X1X1X1X7X",
"qX9X9X9X7X7X9X9X9X9X9X9X7X7X9X7X9X7XD.r ,.4.> a G G F F G G G G G G G F G G N - ! b.8 #.1X7X1X7X1X1X7X7X1X9X1X7X1XR.:X1X1X7X1X7X",
"7X9X9X9X9X9X9X7X7X7X7X7X1X7X7X9X7X7Xq.2 d D X 0 G F G G G F F G F F G S F G f   y H @ @.1X1X1X7X7X7X7X7X9X1X1X1X1X1X7X9X7X9X7X7X",
"9XqXqX9X9X9X9X9X9X9X9X9X7X9X7X7X7X7XY.@.k : . > M A S S F S S G F G S G F N 0 X * i +.F.7X1X2X1X7X9X7X9X9X7X7X9X9X9X9X7X7X7X7X7X",
"9X9X7X9X9XqX9XqXqX9X9X9XqX9X9XqXqXqX9X4X+.3 3 < 9 S ^ K _ _ _ _ _ _ K K G p > 4 3 l ).7X8X:X:X1X1X1X7X1X9X7X3X9X9X9X9X9X9X9X9X9X",
"7X9X9XqX9X9X9X7X1X1X<X<X<X,X{.{.{.{.]._.J.F.F.Q 9 | &.r.P.T.T.I.I.I.d.&.=.g z G.W.).<X3X7X1X7X1X1X1X1X9X1X1X1X9X9XqX9X9X9X9X9X9X",
"9X7X7X%X&X&X%X<X,X,X,X,X1X1X3X1X7X7X1X1XJ.8.$.U I z.v.m..X.X+X+XOXOXm.v.v...I #.3.j.&X3X7X7X7X7X7X1X1X1X1X9X9X7X9X9X9X9X9X9X9X9X",
"1X1X1X7X1X1X7X7X1X,X,X1X9X9X9XqX9X9X%XU.2.U k  .v.+X+X+X+XoX.X+XOXOX+X#X#Xn.%.a D O.H.@X1X1X1X7X9X9X7X9X9X3X9X9X9X9X9X7X7X7X9X7X",
"<X7X7X7X1X1X1X7X7X1X7X3X1X1X1X9X1X1XD.e V.wX;XwXrXiX5X.X+X.X+X+XOXoXoX#XuXyXwX;XwX|.h 5.9X9X9X9X1X1X1X9X9X9X9X9X9X9X9X7X9X9X7X7X",
"7X1X7X1X7X7X7X7X9X7X7X7X3X9X9X1X<X9.+.+.E.rX6XuXsXsXuX4X5X=XXX.X#X4X5XrXaXdXaXrX6X-X>.>.5.#XqX9X7X7X7X7X7X7X7X7X7X9X7X7X7X7X1X1X",
"7X7X7X7X7X9X7X7X7X9X9X9X9X9X9X3X@Xl c wX=X.XXX6XsXsXdXsXsX0X+X+X4XaXaXdXaXaXyX+X+X+XpX>.2 E.9X9X7X7X7X1X7X7X9X7X7X7X7X,X1X1X1X7X",
"7X7X9X7X9X9X7X9X9X7X9X9X9X9X9X9X>XJ b XX+X+XXX#X4XiXdXaX4X+XoX+X+X$XuXdXdX5X#XoX+XXX=X! r U.8X8X9X1X1X1X*X1X7X7X7X7X1X1X1X1X1X1X",
"7X9X9X9X9X9X7X7X7X7X7X9X9X9X9X).0.Q ! XXXXXXXXXX+X6XuX6X+XoX+XoXOX+X5XrXrX$XoXoXXXXX+X3.Z ,.J.7X8XqX9X7X7X7X*X7X,X1X1X,X1X,X1X7X",
"9X9X9X9X7X9X9X7X7X7X7X7X7X7X3Xg.d [ x..X+XXX.X.X+X+XXX+X.X+XoX+X+X.X+X.X+XoX.X.X+X+X+Xv.=.a ..&X1X1X7X7X9X7X9X7X1X7X*X7X1X1X1X7X",
"9X9X9X9X9X9X7X7X7X7X7X1X7X1X1Xb.H 4.I.OX+XP.O.;.c..X+X+X+X+X+X+X+X+X+X+X+Xn.d.X.b.+X+X.Xn.H 3.1X7X1X*X*X1X*X=X7X<X7X7XqX9X9X9X7X",
"*X7X9X9X9X9X7X7X7X7X1X7X1X7X1XJ.{ N.+XOXI.d.B ) p.m.I.XX.XoX+X+X.X+X+X.XB.a.} N *.~..X+XT.X.g.7X9X9X9X9X1X1X1X1X7X1X1X*X7X*X1X1X",
"9X7X9X7X7X7X7X7X1X7X7X9X7X1X%X~.p.P.OXOXc.{ 9 L u.r.v.+X.X+XoXoXoX.X+XB.u.r.[ 9 L a..XXX.Xa.M.$X7X9X9XqXqX7X7X7X7X7X7X7X7X7X9X7X",
"7X9X9X1X7X7X1X7X7X9X9X9X9X@X<...u.B.+XXX2.Z # a { r.p.k.k.k.k.k.k.k.k.a.r.} S # d %.T.+XT.a.o.@.).9X9X9X9XqX9X9X9XqX9X9X9X9X9XqX",
"1X1X3X7X1X1X7X1X7X7X9X9X9X@XD D k.B.XXXXX.f j i B &.r.r.r.r.r.r.r.r.r.r.r.Z d j d U Y.+XoXv.I y K.8X9XqXqX9X9XqX9X9XqX9XqX9X9X9X",
":X3X7X1X7X9X1X9X,X9X9XqX8X:XD J .X.X.X.XR g F.n * %.r.r.r.y.r.y.y.r.r.r.r.w h G.! d Y.+XOX+X,.a K.7X9XqX9X9X9X9X9X9X9X9X9XqX9X9X",
"3X1X1X7X1X7X9X9X9XqXeX9X<X(.Q ..XXXX.Xz.d j L.m + L | r.r.r.r.r.r.r.r.&.) < h Q.W : d.B.OX#X3.D U.7X7X9X7XqX9XqX9X9X9XqX9X9X9X9X",
"qX9X3X7X9X9X9XqX9X8X*X&X%X(.X.O.I.XXN.&.w e W.E * S %.a.y.r.y.r.r.y.a.-.^ 1 e L.m # [ c.+XoXs.` ^.9X9X9X7X7X1X X9X9X9X7X9X9X9X9X",
"3XqXqXtX8XqX9X,X*X%X,X,X*X@XX.[ u.B.b.L : h W.@.r } c..Xp.r.r.r.r.r.B.N.t.g z U.n O V 4.oXa.} ` ^.1X9X9X9X9X9X9X9X9X7X9X9X9X7X7X",
"7X1X,X1X1X*X&X*X*X1X1X7XD.E [ y.n.T.N.} B d ~ Q [ U.$X5XB.n.m.n.m.m.#X4X).2.I #.z d ) l.+XM.d.] R 6.3X7X7X7X9X9X9X9X9X9X9X9X7X9X",
"*X*X,X,X,X1X1X1X7X7X7X7X:.$ [ n.+XOXI.a.} S > L M.uXdXaX=X+X+X+X+X+XuXsXsXI.} , N ] u.m.+X+XB.;.; b @X,X7X7X7X9X7X7X7X7X7X7X7X7X",
"1X1X1X1X7X7X7X9X7X7X9X9X:.$ 9.XX+X+XXX.Xf.( o :.=XiXdXaX#X+X+X+X+X+XyXsXdX4X9.@ g a..XoX+XOX.XP.e x (.%X,X,X1X7X9X7X7X1X9X3X3X9X",
"9X7X9X9X9X9X9X7X9X9X1X1X1.6 w.+XXXN.n.v.n.*.o v B.4X5X5X+XI.n.v.B.+X4X5X5XT.*.o J M.n.v.n..XOXY.e T _.%X%X&X&X&X*X*X%X&X&X&X{.{.",
"7X7X9X9X9X9X7X7X7X1X9X9X7.r b.+XoXf.&.r.v.w.# g u.I.oXoX+Xv.e.&.f.+X.X.XT.f.( + ! I.y.=.r.T.+XY.d R %X1X1X,X*X*X*X*X&X&X}.}.}.&X",
"9X9X1X7X7X7X9X7X3X1X1X1X<.& w.XX.XO.) y.{ ^ Z Z ( y.M.#X=Xg.^ K -.+X#XI.a.{ S V P [ r.} ` Y.XXY.e n %X7X7X9X7X7X7X7X1X1X3X1X1X3X",
"1X9X9X9X9X9X9X9X1X3X1X,X:.$ ,.N.oXX.S { Z f A S G { -.s.,.P s s J ,.2.s.{ ^ S G N N ' / K P.I.l.w b #X1X7X7X1X7X7X7X1X1X1X1X9X9X",
"9X9XqXqXqXeX9X9X9X9X1X,X<.4 ( f.P...A A 9 9 S S K G S A 9 - - - - , N S S S G G t , A A G P.z.%.e m @X7X7X7X7X7X7X7X9X9X9X9X3X1X",
"9XqX9X,X&X&X&X[.].].&X,X).q.D D ' f p S > * A ' &.&.' F F 9     = V A ^ e.e.{ S , + S f q ` H g 7.Q.9X9X7X9X9X9X7X9X9X9X9X9X9XqX",
"9X1X}.}.}.&X&X&X&X&X}.&X&X(.7.D t : - f * # / | u.u.o./ G q O O , S / { r.u.e.' 1   s 9 * r D #.).9X9X9X9X9X7X9X9X9X9XqX9X9X9X9X",
"&X{.}.}.&X&X&X&X&X&X&X&X&X}.[.,.2 $ ; r % * &.r.r.r.r.=.S B t t f S | u.r.r.r.r.u . 0 7 $ @ +.%X7X9X9X9X9X9X9X9X9X9X9X9X9XqX9X9X",
"}.}.}.&X&X&X&X*X*X*X*X*X&X&X&X!.0.0.s.h.j % G } y.r.y.=.< v h.h.! : Y u.r.r.e./ 8 & q.D.C.C.W.qXqXqXqX9XqX9XqXqX9XqX9XqX9X9X9X9X",
"&X&X&X,X*X*X*X*X*X7X*X7X7X3X1X,X%X&X&X(.n = F ( %.r.&.[ # m %X&X1.$ Z &.r.&.{ K 8 e L.[.{.{.}.&X%X*X3X9XeXtXqX9X9XqX9XqX9X9XqX9X",
"*X,X1X9X9X7X7X7X7X*X7X7X7X1X1X1X*X*X%X_.Q 0 F G ^ r.' V + n %X%X5.@ p / r.) S S s k !.%X&X,X&X*X&X*X%X%X}.}.1X3XqXqX9XqXqXqX9XqX",
"1X1X1X7X7X1X7X9X9X9X7X7X7X7X7X1X1X*X*X%XQ t { } %.r.] V > ! %X2Xq.6 N / =.=.%.%.B k /.,X*X*X*X*X*X1X1X*X*X&X&X[.[.%X7X9XqX9X9X9X",
"1X7X9X9X9X7X9X9X7X9X7X7X7X9X9X9X7X7X7X@XR r =.y.r.u.} K 9 #.<X,X8.0 S ] r.r.r.r.C i ).1X1X7X1X1X1X7X9X7X9X7X1X*X*X&X&X&X&X&X<X7X",
"7X7X9X9X9X9XqX9X9X9X9XqXqX9X7X9X9XqX7X%Xb : &.y.r.u.r.&.t ..>X,Xg.r ) y.r.r.r.r.a 5 W.1X7X*X7X7X7X9X7X7X7X7X7X7X7X1X*X*X*X&X&X%X",
"qX9X9XqXqX9X9X9X9XqX9X9XqXqX9X9X9X9X9X=Xb ; =.r.u.m.f.&.: R >X<X6.; Y a.m.a.r.u.u 5 W.,X1X1X*X1X1X1X7X7X7X7X7X1X1X*X7X*X*X*X*X*X",
"9XqX9XqX7XqX9XqXqXqXqX9XqXqX9X9X9XqX@XC.x w =.p.k.+Xn.%.# m *X<X1.$ L k.XXv.a.u.g e 6.W.,X1X1X,X1X1X9X9X9X1X1X1X1X1X,X1X*X*X*X*X",
"qX9X9X9XqX9XqX9X9XqX9X9X9X9X9XqX9X9XC.5 i K t.n.XX+Xv.%.% E 4X3X6.$ L k..XoXB.u.( N ; @.,X,X,X1X7X9X1X1X7X9X9X3X1X1X7X1X1X1X1X,X",
"9XqX9X7X9X9X9X3X9X9X9X9X9X9X9XqX9X9XS.6 Z | e.n.+X+Xv.%.1 ! <X7X9.6 ( k..X.XI.y.&.( : #.7X1X9X7X7X1X,X1X1X1X1X1X*XR.,X1X1X1X1X1X",
"9X9X9X9X9X7X9X9X7X9X9X9X7X7X7X1X1X,XA.0 I t.r.v..X.Xk.} r @.2X7Xq.0 Y a.I..XN.y.t.[ 0 1.7X7X7X7X9X7X7X9X1X9X9X1X1X2X1X7X1X7X1X1X",
"9X9X7X7X7X7X9X9X7X1X7X7X7X7X1X1X,X,X8.% a ' r.u.u.p.| S # E 2X7X6.% f ] i.a.u.u.{ F O +.9X9X9X9X9X9X9X7X9X9X9XqX9X3X9X3X9X9X3X9X",
"7X7X7X7X9X9X1X1X,X1X,X1X1X*X*X*X,X}.H.@.k p ' { ) L a r T C.1X1XK.@.i y Z ( { [ g i E G.9X9XqX9X9XqXqXqXqXtX9X1X,X,X,X&X&X&X&X1X",
"9X7X9XqX9X7X7X1X*X1X1X*X*X*X*X*X*XK.R._.E 7 _ _ _ d w h Q.9X1X1X7X@Xm 4 y H  . .j l OX9X9XqXtXtXqXqXqX7X1X,X*X*X,X*X&X}.}.}.}.}.",
"9XqX9X9X9X7X7X7X1X*X*X*X7X*X7X*X3X1X3X1X/.H.!.!.!.L.K.K.%X1X9X8X9X8X`.W.W.'.@X@X`.Q.2XqX9X7X7X7X7X1X*X*X*X&X&X,X1X,X*X,X,X&X}.}."
};
