/* XPM */
static char *f3d436bb115c45f5ff3aca39c27435965btnIKif8U1Pp3jI[] = {
/* columns rows colors chars-per-pixel */
"64 64 105 2 ",
"   c #020202",
".  c #0B0B0B",
"X  c #100A06",
"o  c #10100F",
"O  c #141414",
"+  c #1D1D1D",
"@  c #241C17",
"#  c #291F1A",
"$  c #2C211C",
"%  c #30241F",
"&  c #232323",
"*  c #2A2A25",
"=  c #2C2C2B",
"-  c #352822",
";  c #31312E",
":  c #313131",
">  c #3D3D35",
",  c #3C3C3A",
"<  c #462A1C",
"1  c #452E22",
"2  c #453228",
"3  c #523121",
"4  c #5E3825",
"5  c #643C28",
"6  c #414135",
"7  c #44423F",
"8  c #6C412B",
"9  c #784830",
"0  c #434342",
"q  c #4A4A45",
"w  c #4D4D4C",
"e  c #525243",
"r  c #53534D",
"t  c #5C5D4E",
"y  c #545453",
"u  c #5A5A54",
"i  c #5C5C5B",
"p  c #666757",
"a  c #64645D",
"s  c #6A6B5C",
"d  c #636363",
"f  c #6E6E64",
"g  c #6B6A6A",
"h  c #717263",
"j  c #72726C",
"k  c #7B7A6F",
"l  c #747474",
"z  c #7A7A71",
"x  c #7D7D7D",
"c  c #84837A",
"v  c #8A897C",
"b  c #838381",
"n  c #8D8D8D",
"m  c #908E82",
"M  c #949287",
"N  c #96958B",
"B  c #98978B",
"V  c #9A998C",
"C  c #939393",
"Z  c #989790",
"A  c #9C9B94",
"S  c #9C9C9B",
"D  c #A09E90",
"F  c #A2A296",
"G  c #A3A39C",
"H  c #ABAA9C",
"J  c #B1AF9E",
"K  c #A6A6A6",
"L  c #ADADA4",
"P  c #B0AFA4",
"I  c #B4B2A3",
"U  c #B9B7A6",
"Y  c #BAB8A7",
"T  c #B6B6AA",
"R  c #B7B7AC",
"E  c #BBB9A8",
"W  c #BCBAA8",
"Q  c #BBBAAC",
"!  c #BCBBAC",
"~  c #BDBCAE",
"^  c #B6B6B1",
"/  c #BFBEB0",
"(  c #C0BFB1",
")  c #C0C0B3",
"_  c #C2C2B4",
"`  c #C4C4B6",
"'  c #C7C7B9",
"]  c #C8C8BB",
"[  c #C9C9BC",
"{  c #CDCDC1",
"}  c #C8C8C8",
"|  c #D4D4C9",
" . c #D3D3CF",
".. c #D4D4CF",
"X. c #D2D2D1",
"o. c #DBDBD3",
"O. c #E6E6E2",
"+. c #E7E7E4",
"@. c #E8E8E5",
"#. c #ECECE7",
"$. c gray91",
"%. c #EDEDE9",
"&. c #F1F1EE",
"*. c #F3F3F0",
"=. c #FBFBFB",
/* pixels */
"K K K K K K K K K K K K K K K K K K K K K K K K K K K K K K K K K K K K K K K K K K K K K K K K K K K K K K K K K K K K K K K K ",
"K K K K K K K K K K K K K K K K K K K K K K K K K K K K K K K K K K K K K K K K K K K K K K K K K K K K K K K K K K K K K K K K ",
"K K K K K K K K K K K K K K K K K K K K K K K K K K K K K K K K K K K K K K K K K K K K K K K K K K K K K K K K K K K K K K K K ",
"K K K K K K K K K K K K K K K K K K K K K K K K K K K K K K K K K K K K K K K K K K K K K K K K K K K K K K K K K K K K K K K K ",
"K K K K K K K K K K K K K K K K K K K K K K K K K K K K K K K K K K K K K K K K K K K K K K K K K K K K K K K K K K K K K K K K ",
"K K K K K K K K K K K K K K K K K K K K K K K K K K K K K K K K K K K K K K K K K K K K K K K K K K K K K K K K K K K K K K K K ",
"K K K K K K K K K K K K K K K K K K K K K K K K K K L L L L L L L L L L L K K K K K K K K K K K K K K K K K K K K K K K K K K K ",
"K K K K K K K K K K K K K K K K K K K K K K K K K K I I I I I I I I I I I K K K K K K K K K K K K K K K K K K K K K K K K K K K ",
"K K K K K K K K K K K K K K K K K K K K K K L L L I U U U U U U U U U U U P L L L K K K K K K K K K K K K K K K K K K K K K K K ",
"K K K K K K K K K K K K K K K K K K K K K K I I I I W W W W W W W W W W Y I I I L K K K K K K K K K K K K K K K K K K K K K K K ",
"K K K K K K K K K K K K K K K K K K K K Z N I Y Y Y W W W W W W W W W W Y Y Y Y H N A K K K K K K K K K K K K K K K K K K K K K ",
"K K K K K K K K K K K K K K K K K K K K B M I W W W W W W W W W W W W W W W W W H M Z K K K K K K K K K K K K K K K K K K K K K ",
"K K K K K K K K K K K K K K K K K K Z M H I Y W W W W W W W W W W W W W W W W W U I F M S K K K K K K K K K K K K K K K K K K K ",
"K K K K K K K K K K K K K K K K K K Z m J W W W W W W W W W W W W W W W W W W W W W F m S K K K K K K K K K K K K K K K K K K K ",
"K K K K K K K K K K K K K K K K K K Z m J W W W W W W W W W W W W W W W W W W W W W F m S K K K K K K K K K K K K K K K K K K K ",
"K K K K K K K K K K K K K K K K K G A V I W W Y Y Y Y Y W W W W W W W Y Y Y Y W W W H V A G K K K K K K K K K K K K K K K K K K ",
"K K K K K K K K K K K K K K K K A m H W W W W Y I I I U W W W W W W Y I I I I W W W W W D m D K K K K K K K K K K K K K K K K K ",
"K K K K K K K K K K K K K K K K A m H W W E U U E Q Q E U U U U U U U E Q Q E U Y W W W D m S K K K K K K K K K K K K K K K K K ",
"K K K K K K K K K K K K K K K K A m H W W Y I U ' [ [ _ I I I I I I I ' [ [ ` I U W W W D m G K K K K K K K K K K K K K K K K K ",
"K K K K K K K K K K K K K K K K A m f u D U ~ ( ] [ [ ' / / / / / / / ' [ [ ' / ! U v u k m G K K K K K K K K K K K K K K K K K ",
"K K K K K K K K K K K K K K K K A m :   c I ` [ [ [ [ [ [ [ [ [ [ [ [ [ [ [ [ [ _ I u   u m G K K K K K K K K K K K K K K K K K ",
"K K K K K K K K K K K K K K K K g = 7 r V I ` [ [ [ [ [ [ [ [ [ [ [ [ [ [ [ [ [ _ I c r > = n K K K K K K K K K K K K K K K K K ",
"K K K K K K K K K K K K K K K K i   q z F I ` [ [ [ ] ] [ [ [ [ [ [ [ ] ] [ [ [ _ I B z =   x K K K K K K K K K K K K K K K K K ",
"K K K K K K K K K K K K K K K K i   q z I ` ] [ [ _ H I [ [ [ [ [ [ ' L L ' [ [ ' ` F z =   x K K K K K K K K K K K K K K K K K ",
"K K K K K K K K K K K K K K K K d . q f L ' ' [ { _ V G ' ' [ [ [ ' _ A A [ { [ ] ' Z f ; . b K K K K K K K K K K K K K K K K K ",
"K K K K K K K K K K K K K K K K S n 0 o c H _ { *. .e s G T [ [ [ L F t p @.%.[ / G i o a n K K K K K K K K K K K K K K K K K K ",
"K K K K K K K K K K K K K K K K K K 0   z F _ { &...t h H T [ [ [ I F p f +.#.[ / F r   g K K K K K K K K K K K K K K K K K K K ",
"K K K K K K K K K K K K K K K K K K 0   z F _ [ [ [ _ _ ' ' [ [ [ ' ' _ _ [ [ [ / F r   g K K K K K K K K K K K K K K K K K K K ",
"K K K K K K K K K K K K K K K K K K i * a z H R ' ' / _ [ [ [ [ [ [ ] _ ) ] ' T F z r * x K K K K K K K K K K K K K K K K K K K ",
"K K K K K K K K K K K K K K K K K K K K * . a c _ _ F L [ [ [ [ [ [ ' H G ' T z r   w K K K K K K K K K K K K K K K K K K K K K ",
"K K K K K K K K K K K K K K K K K K K K i 0 q y F H F L [ _ Q Q Q ' ' H F H N q 0 0 l K K K K K K K K K K K K K K K K K K K K K ",
"K K K K K K K K K K K K K K K K K K K K K S + o f c F L [ T F F F / ' H Z z i   : K K K K K K K K K K K K K K K K K K K K K K K ",
"K K K K K K K K K K K K K K K K K K K K d q + O 7 q q w u b ^ ^ ^ j u q q 0 , O & w l K K K K K K K K K K K K K K K K K K K K K ",
"K K K K K K K K K K K K K K K K K K K K *   + + + O       i } } } :       + + + O   w K K K K K K K K K K K K K K K K K K K K K ",
"K K K K K K K K K K K K K K K K K K i : + O & * * & O + & , u u u = & O + & * * & O & : x K K K K K K K K K K K K K K K K K K K ",
"K K K K K K K K K K K K K K K K K K 0   O + = : = * + & = = * * = = = & + = = : * + O   g K K K K K K K K K K K K K K K K K K K ",
"K K K K K K K K K K K K K K K K K K 0   & = = = & & + + & = > A X.w & + + & & : = = O   g K K K K K K K K K K K K K K K K K K K ",
"K K K K K K K K K K K K K K K K S C , . & ; = * + + + + & = 6 K $.y + + + + + = = : + . i C K K K K K K K K K K K K K K K K K K ",
"K K K K K K K K K K K K K K K K d O & * = = & + . . & * = * & : , : = & & . . & & : = * + O b K K K K K K K K K K K K K K K K K ",
"K K K K K K K K K K K K K K K K i   + : : = + O   . & * : & + & & = = & &   . + & : : : O   x K K K K K K K K K K K K K K K K K ",
"K K K K K K K K K K K K K K K K i   + : : = .     . & * : & + * = = = & &       O : = = O   x K K K K K K K K K K K K K K K K K ",
"K K K K K K K K K K K K K K S x i : y d : & * & . . * * : & + * : : = * &   . * * & 0 d 0 : g x S K K K K K K K K K K K K K K K ",
"K K K K K K K K K K K K K K l   u [ O.=., . n n o . ; : : & + * : : : : *   & K l   l =.o.[ ; . n K K K K K K K K K K K K K K K ",
"K K K K K K K K K K K K K K l   u [ o.O., . y i O O ; = * * & * : : : : * O & d 0   g O.| [ ; . n K K K K K K K K K K K K K K K ",
"K K K K K K K K K K K K K K l   u [ [ [ ;     . & * : * + & ; : : : : : = & +       i [ [ [ ; . n K K K K K K K K K K K K K K K ",
"K K K K K K K K K K K K K K n i i u u u i y . . + & * & + & : : : : = = * & +   + i i u u u i d S K K K K K K K K K K K K K K K ",
"K K K K K K K K K K K K K K K K i       x S + . + + & & + & : : : : = & & + O   : K y       x K K K K K K K K K K K K K K K K K ",
"K K K K K K K K K K K K K K K K C l l l S S + . & & + + + + & & & & & & & & +   : K n l l l S K K K K K K K K K K K K K K K K K ",
"K K K K K K K K K K K K K K K K K K K K K S + . & & + + + + + + + + + + + & +   : K K K K K K K K K K K K K K K K K K K K K K K ",
"K K K K K K K K K K K K K K K K K K K K K S + . & & = * & O . . . + & * * & +   : K K K K K K K K K K K K K K K K K K K K K K K ",
"K K K K K K K K K K K K K K K K K K K K K S + . & * : * & + O O O + & = = * +   : K K K K K K K K K K K K K K K K K K K K K K K ",
"K K K K K K K K K K K K K K K K K K K K K S + . & * : & . 0 C C C & . * = * +   : K K K K K K K K K K K K K K K K K K K K K K K ",
"K K K K K K K K K K K K K K K K K K K K K S +   & & = +   w K K K *   & = & +   : K K K K K K K K K K K K K K K K K K K K K K K ",
"K K K K K K K K K K K K K K K K K K K K K S +   + + + O   w K K K *   + + + O   : K K K K K K K K K K K K K K K K K K K K K K K ",
"K K K K K K K K K K K K K K K K K K K K K S +   % - - @   w K K K *   $ - - #   : K K K K K K K K K K K K K K K K K K K K K K K ",
"K K K K K K K K K K K K K K K K K K K K K S + X 8 9 9 3   w K K K *   5 9 9 4   : K K K K K K K K K K K K K K K K K K K K K K K ",
"K K K K K K K K K K K K K K K K K K K K K K y 7 1 < < 2 0 l K K K i 0 1 < < 1 0 d K K K K K K K K K K K K K K K K K K K K K K K ",
"K K K K K K K K K K K K K K K K K K K K K K K n .     : K K K K K K S +     & K K K K K K K K K K K K K K K K K K K K K K K K K ",
"K K K K K K K K K K K K K K K K K K K K K K K S d i i l K K K K K K K g i i g K K K K K K K K K K K K K K K K K K K K K K K K K ",
"K K K K K K K K K K K K K K K K K K K K K K K K K K K K K K K K K K K K K K K K K K K K K K K K K K K K K K K K K K K K K K K K ",
"K K K K K K K K K K K K K K K K K K K K K K K K K K K K K K K K K K K K K K K K K K K K K K K K K K K K K K K K K K K K K K K K ",
"K K K K K K K K K K K K K K K K K K K K K K K K K K K K K K K K K K K K K K K K K K K K K K K K K K K K K K K K K K K K K K K K ",
"K K K K K K K K K K K K K K K K K K K K K K K K K K K K K K K K K K K K K K K K K K K K K K K K K K K K K K K K K K K K K K K K ",
"K K K K K K K K K K K K K K K K K K K K K K K K K K K K K K K K K K K K K K K K K K K K K K K K K K K K K K K K K K K K K K K K "
};
