/* XPM */
static char *result[] = {
/* columns rows colors chars-per-pixel */
"64 64 221 2 ",
"   c #1C171C",
".  c #251C1F",
"X  c #2D2324",
"o  c #322524",
"O  c #382825",
"+  c #3B2926",
"@  c #362C2A",
"#  c #3A2E2D",
"$  c #3F312D",
"%  c #3B3231",
"&  c #452A26",
"*  c #422D29",
"=  c #44332D",
"-  c #4D352B",
";  c #54342B",
":  c #59382D",
">  c #5B3B2D",
",  c #4C3630",
"<  c #473833",
"1  c #543C34",
"2  c #5A3E33",
"3  c #633C2E",
"4  c #633D31",
"5  c #693E31",
"6  c #5A463A",
"7  c #654233",
"8  c #6B4434",
"9  c #6C4639",
"0  c #66493A",
"q  c #6D4A3B",
"w  c #734533",
"e  c #784737",
"r  c #734B36",
"t  c #734B3B",
"y  c #7A4939",
"u  c #6F5136",
"i  c #7D523B",
"p  c #78563A",
"a  c #594A43",
"s  c #6C4D41",
"d  c #685448",
"f  c #735746",
"g  c #7B5544",
"h  c #735B4E",
"j  c #7B5C4E",
"k  c #715D50",
"l  c #6F6258",
"z  c #786355",
"x  c #834B37",
"c  c #834D3A",
"v  c #83533B",
"b  c #8B533D",
"n  c #845C3B",
"m  c #895C3E",
"M  c #93563F",
"N  c #935B3F",
"B  c #8D633F",
"V  c #91613E",
"C  c #885643",
"Z  c #845C45",
"A  c #855D4B",
"S  c #8A5E4C",
"D  c #965740",
"F  c #955A41",
"G  c #9B5D42",
"H  c #886548",
"J  c #936443",
"K  c #9C6143",
"L  c #966945",
"P  c #9D6D44",
"I  c #9C6248",
"U  c #936B4B",
"Y  c #9C704B",
"T  c #836353",
"R  c #896A57",
"E  c #946B54",
"W  c #946B57",
"Q  c #897257",
"!  c #987359",
"~  c #9C7D5E",
"^  c #A36545",
"/  c #A36A45",
"(  c #A96D47",
")  c #A66B4A",
"_  c #AA6E4C",
"`  c #A47146",
"'  c #AC7249",
"]  c #AA7749",
"[  c #B1764B",
"{  c #B47B4C",
"}  c #A46A50",
"|  c #AA6D52",
" . c #A67555",
".. c #AD7B5A",
"X. c #B27D58",
"o. c #8D7462",
"O. c #937562",
"+. c #987C66",
"@. c #A37B63",
"#. c #A97C64",
"$. c #B37E61",
"%. c #B5824D",
"&. c #BC844E",
"*. c #BD884F",
"=. c #A98155",
"-. c #BE8951",
";. c #B7875C",
":. c #9C8066",
">. c #A78666",
",. c #A4856D",
"<. c #B68866",
"1. c #BA8C64",
"2. c #BA9469",
"3. c #AD8C73",
"4. c #A88E79",
"5. c #B58C72",
"6. c #BC8F74",
"7. c #AF9674",
"8. c #BA9877",
"9. c #B5957A",
"0. c #C1884F",
"q. c #C58D52",
"w. c #C48C54",
"e. c #C69054",
"r. c #C99153",
"t. c #C4925B",
"y. c #C9955B",
"u. c #CC995D",
"i. c #C58D6D",
"p. c #CC9D63",
"a. c #C69969",
"s. c #D19E60",
"d. c #C6997A",
"f. c #CFA268",
"g. c #D4A66A",
"h. c #D1A56C",
"j. c #C8A677",
"k. c #CCAA7C",
"l. c #D5A877",
"z. c #D4AC74",
"x. c #D2AD7D",
"c. c #D6B27B",
"v. c #D9B47C",
"b. c #A59387",
"n. c #B79A81",
"m. c #B5978C",
"M. c #BAA68F",
"N. c #C39F81",
"B. c #C39E94",
"V. c #C5A484",
"C. c #CBA283",
"Z. c #CBAB88",
"A. c #D4AC83",
"S. c #D7A885",
"D. c #D3AC8B",
"F. c #DBAE8B",
"G. c #CDB283",
"H. c #CDB38F",
"J. c #D8B586",
"K. c #DBBB84",
"L. c #D6BC8A",
"P. c #DBBE89",
"I. c #CAAA93",
"U. c #D6B392",
"Y. c #DCB592",
"T. c #DAB893",
"R. c #E3B28E",
"E. c #EAB88E",
"W. c #E1B591",
"Q. c #E9B994",
"!. c #E4BE9A",
"~. c #ECBE99",
"^. c #F5BB95",
"/. c #F6BB94",
"(. c #F6BE99",
"). c #F8BF98",
"_. c #CBBAAD",
"`. c #DEC087",
"'. c #DEC28C",
"]. c #DCC398",
"[. c #E2C087",
"{. c #E0C58E",
"}. c #E1C791",
"|. c #E3C994",
" X c #EDC39D",
".X c #E7CE9B",
"XX c #E8C89C",
"oX c #F4C39C",
"OX c #F9C49D",
"+X c #F4C89F",
"@X c #FAC89F",
"#X c #EAD19B",
"$X c #CEC4AD",
"%X c #E9C7A6",
"&X c #F4C6A1",
"*X c #F9C7A1",
"=X c #F6CAA3",
"-X c #FCCDA4",
";X c #F5CEAA",
":X c #FACEA9",
">X c #EBD3A4",
",X c #EED6AB",
"<X c #EED8AB",
"1X c #FDD0A7",
"2X c #F4D4AD",
"3X c #FED4AA",
"4X c #FFD8AF",
"5X c #EEDBB9",
"6X c #FDD7B1",
"7X c #F2DCB5",
"8X c #FED9B1",
"9X c #F5DFB9",
"0X c #F6E1BC",
"qX c #F8E2BE",
"wX c #E9DDC1",
"eX c #EFE1C3",
"rX c #F4E2C0",
"tX c #FAE5C3",
"yX c #FDE8C7",
"uX c #FDEBCA",
"iX c #FEF2D2",
/* pixels */
"3X3X3X8X8X8X4X4X4X4X4X3X4X3X4X4X4X4X3X4X3X4X4X4X3X4X4X3X3X3X2X3X4X3X3X3X4X4X8X2X;X2X4X3X3X3X4X3X4X3X4X3X3X3X3X1X3X1X3X1X1X3X3X3X",
"3X3X3X3X3X3X4X4X4X4X3X4X3X4X4X3X3X4X4X3X4X4X3X3X3X3X=XXX XoX+X=X=X%X%X;X4X3X1X%Xm._.3X3X3X3X3X4X3X4X3X3X3X3X3X3X1X1X3X-X1X1X1X4X",
"1X1X3X3X3X3X3X3X3X3X4X4X4X4X4X4X8X8X4X4X4X4X3X3X2X3Xj.T T ! $.X. .A A 5.=X1X:X=X X:X-X:X1X1X3X3X3X3X1X3X1X1X1X1X3X3X3X3X3X3X4X3X",
"1X1X1X1X3X-X3X3X3X3X3X3X3X4X3X3X3X3X3X4X3X4X4XL.9.A.<.v v F _ _ J i v  .l.5.C.+X-X-X1X1X-X1X3X3X3X3X3X1X1X1X1X1X1X1X-X1X1X3X3X3X",
";X:X3X-X3X-X3X1X1X3X3X3X1X3X1X3X3X3X3X3X3X3X%XO.* C [ q.q.q.r.q.q.q.q.{ G , z W.*X:X1X3X3X3X4X3X4X3X3X1X1X1X1X:X1X-X-X-X1X1X-X1X",
"_._.-X3X-X3X-X3X1X3X1X3X3X1X1X3X1X3X1X1X1X!.z s c { 0.q.q.q.q.q.q.q.q.0.X.b q h Z.3X3X4X4X4X4X4X4X8X4X0X4X4X3X3X1X3X-X-X1X-X1X-X",
";X:X3X:X3X1X-X-X1X1X1X1X1X1X3X1X1X-X-X1X:XF.1 0 ' w.q.q.q.e.q.q.q.q.q.r.q.[ i , N.3X:X*X+XoX/./././././.^.oX+X=X*X:X3X1X1X1X1X@X",
":X:X3X:X3X-X3X1X1X1X1X1X1X1X1X1X-X1X-X-XoXD.q F e.q.q.q.q.q.e.e.e.e.q.e.q.q.P 9 6.E.(.@X-X*X-X-X@X-X-X@X;X1X-X@X@X+X+XoX*X1X3X3X",
"3X3X3X:X1X1X1X1X1X@X-X-X-X-X-X-X-X-X-X-X3.d x ^ r.e.q.e.q.e.q.e.e.r.q.q.q.r.' v f +.~.OX*X-X@X-X-X-X@X@X@X*X@X*X*X-X-X-X-X*X-X:X",
"3X3X:X3X1X1X1X1X1X1X-X:X3X1X1X1X3X-X-X-XO.* M ( &.0.q.q.e.q.e.e.e.q.e.q.q.&.( M - j ~.@X-X-X-X-X1X1X1X-X-X@X-X@X*X*X@X@X@X-X-X@X",
"&X&X;X6X8X4X3X1X1X1X1X3X3X3X3X3X3X3X3X3X>.: M D K *.e.e.e.e.e.e.e.q.e.q.w.^ D D 4 E ^.*X@X*X-X3X1X1X-X1X-X-X-X@X*X*X-X@X-X-X-X-X",
"^.OX^.^.oX=X;X1X3X3X2X3X;X3X:X:X;X=X*X+X#.3 M M N &.p.v.v.c.c.c.v.v.v.h.w.^ D M 5 W (.=X-X-X*X-X1X1X-X1X1X-X-X-X-X-X1X-X-X-X1X1X",
"-X*X@X)./././././.OX/.OX).).).OXOXOX@X+X@.; M D ^ t.J.>X#X>X>X>X>X>X>XP.p.I D M 3 T oX*X-X*X-X*X-X1X1X1X3X1X1X*X-X-X-X:X-X-X-X-X",
"-X:X-X-X@X1X@X@XOX@X@X@X@X@X*X*X-X-X-XoXQ o b D ^ c.>XtXtXtXtXtXtXtXyX,XK. .D D & h W.*X-X-X-X-X-X*X1X1X1X3X1X-X-X-X-X-X-X-X-X@X",
"-X1X1X-X1X3X1X1X1X1X@X1X1X1X1X1X1X1X X#.E B F F I c.2XyXtXyXyXuXyXyXyX7X'. .D D J U ! F.-X1X3X-X1X1X1X-X-X3X:X:X-X&XU.-X-X1X-X-X",
"3X3X3X-X1X1X1X1X1X1X1X1X1X1X1X1X1X:XY.9 L s.G K ` j.H._.7X0X0XqX9X7X$XH.k.[ K G t.] 8 N.-X-X-X1X1X1X1X3X:X3X3X:X-Xb.M.1X-X-X-X1X",
"3X4X3X1X1X1X3X3X3X3X3X3X1X1X1X1X3X1XW.9 @.`.I ` *./ 9 = G.|.|.|.].'.6 2 K { { K A.2.9 N.-X1X-X1X1X-X-X1X-X3X-X-X:XB. X1X1X1X-X1X",
"1X3X3X3X3X3X3X3X1X3X1X1X-X1X3X1X1X1XU.1 g ;.1 m y.U.O.- G.'.{.].'.L.0 j D.p.P ; ! H , d.-X-X1X:X1X1X1X3X3X-X-X-X1X1X1X3X3X1X3X1X",
"3X4X4X3X3X3X3X3X3X3X3X1X1X3X1X3X3X1XL.d 0 w . 0 t.5XM.t L.%X.X.X.X].Z ,.eXa.m . 5 t d N.-X3X:X-X1X1X1X3X3X1X1X:X1X3X1X1X3X1X1X1X",
"3X3X1X3X3X4X3X4X3X3X3X3X4X3X3X4X4X3X2XXXo.X X 3 _ 5XW.-.,XtXtXtXtX0Xa.l.eX<.9 X o h U.=X-X%X%X-X1X1X-X-X3X1X3X3X3X3X3X3X3X3X1X3X",
"3X3X3X3X3X4X3X1X:X=X-X=X=XOXoX(.(.(.^./.d.! O.S b ].}.c.qXyXyXyXuXqXK.[.%XU A :.+.N.=X-X1X-X1X-X-X-X-X1X-X3X-X3X3X3X3X3X3X3X3X3X",
"3X1X=X@XOXoX@X+X*X@X*X*X*X-X-X1X:X:X-X:X~.R.F.! > 8.P.XX9XqXqXqXqX0X.X`.k.s T A.W.~.:X3X-X1X1X1X-X-X-X-X:X-X3X1X3X3X3X3X3X3X3X3X",
"=X1X1X1X-X1X-X1X-X*X*X-X3X3X3X3X3X3X:X-Xd.G t & X b a..X}.|.|.|.|.|..Xj.G + + 9 F i.oX*X:X-X:X1X3X3X1X3X3X1X3X3X3X3X3X3X1X3X1X1X",
"@X1X1X1X-X-X@X1X1X1X1X-X-X3X1X1X-X-X~.O.3.D.n.+.p w Y z.{.}.}.}.|.'.c...w i Q n.Z.9.o.T.3X3X1X3X1X-X-X3X3X3X3X3X3X3X1X3X1X1X3X1X",
"1X1X1X1X1X1X1X1X3X1X1X3X3X1X1X1X:X!.9.a b.iXiX.Xy.f J -.k.x.G.G.G.k.t.P t ;.Q.uXiXM.a 4.].2X3X3X1X1X1X1X1X1X1X1X3X3X1X1X1X-X1X-X",
"1X1X1X1X3X1X1X1X1X3X1X3X3X3X3X3X3X+.a _.5XuXuXtX7X'.<.M 8 2 7 2 3 7 b =.L.,XtXyXyXeX$Xl z %X3X1X1X1X1X-X1X3X3X3X1X1X1X*X-X-X-X1X",
"1X1X1X3X1X3X1X3X3X3X3X3X3X3X3X3X3XO.1 ].<X<X<X0XtX.Xx.2.>.Y V B U =.2.k.|.0XqX<X<X<X%Xh z oX2X4X1X1X-X-X@X-X1X@X-X-X-X-X-X-X-X-X",
"1X3X3X3X3X3X3X1X1X1X1X3X3X3X3X;XW.@.p L.{.{.[.>XqX|.|.|.#Xv.u.u.z.#X|.|.|.7X7X'.'.'.'.H E S.oX3X3X4X3X1X1X1X1X@X-X-X-X*X-X*X-X1X",
"3X3X3X3X1X3X1X1X1X-X-X3X-X3X-XR.A J e.`.].|.{.|.|.|.|.{.|.'.`.`.{.{.{.|.|.|.|.|.|.|.'.p.P g j.@X-X1X1X1X1X3X3X<X-X1X@X1X-X-X-X3X",
"3X3X3X3X3X3X1X1X1X1X3X-X-X-X:XR.C ..v.'.K.z.{.].}.}.{.|.{.|.|.'.{.{.|.}.'.|.|.'.c.c.'.v.1.b A.1X1X@X@X@X@X1X-X-X=X1X1X4X3X3X3X-X",
"@X1X3X3X3X3X1X1X1X1X-X-X1X-X-XE._ d.|.|.h.0.c.P.'.{.|.|.|.'.|.|.|.{.|.{.|.{.P.G.t.p.}.|.k._ R.1X3X3X3X3X1X@X-X-X1X-X-X@X-X-X-X-X",
"3X1X1X1X1X1X1X1X-X1X3X3X3X-X3XoXt.z.|.|.2.N q Y g.[.|.|.|.|.|.|.|.|.|.|.|.g.] t M <.'.}.c.t.{.3X3X4X3X3X3X3X1X1X1X1X1X1X1X1X1X3X",
"3X3X3X-X3X-X-X-X1X1X3X3X3X1XZ.<.e.z.|.|.1.b = 2 B ~ <.a.h.z.z.z.c.z.a.<.:.H 7 & y X.}.}.v.t.<.j.:X3X3X3X3X3X3X4X3X4X3X4X3X3X3X4X",
"-X-X-X3X-X-X3X-X:X3X3X3X3X3X@.w -.x.|.|.1.c , o   & w K *.q.q.e.q.*./ y ; . X = y ..}.}.v.t.v T %X3X4X3X4X3X3X4X3X3X4X3X4X3X3X3X",
"%X-X-X-X-X3X-X3X*X3X3X4X6X2X@.9 c.'.'.#X>.e 8.j X y / 0.*.e.e.0.q.0.*.' b + d 8.Z W }.}.'.K.Z E  X1X3X4X4X3X4X3X3X3X3X3X3X3X3X3X",
":X:X-X1X1X1X3X3X3X4X6X3X=X(.>.C L.}.'.v.E 1 F.O.o J ;.h.h.h.h.g.g.h.g.t./ = l T.f f l.P.}.'.E ! +X1X1X3X:X3X3X3X3X3X3X3X4X3X3X3X",
"3X3X3X:X1X3X3X4X3X:X@X+XoX@Xi.) K.{.'.y.u % D.O.O { g.'.{.|.{.|.|.|.}.z.*.- h D.a 6 0.c.}.P.X.X.+X1X3X3X:X1X:X!.3X3X3X3X3X3X3X3X",
":X6X4X6X4X4X3X*X+X@X@X*X*X=Xi.K t.x.K._ 4 % U.>.> %.e.f.'.{.|.|.{.'.h.y.0.8 R F.a - ^ k.K.y._ <.=X1X3X3X3X3X3X3X3X1X3X1X3X3X1X1X",
"1X*X-X-X-X*X@X@X*X-X-X-X!.3...{ f.J.P.{ i 6 >.E y ( &.e.z.c.z.c.c.z.y.0.[ c H <.s r ' x.K.h.%...,.T.3X3X3X3X:X3X3X3X3X3X3X1X1X1X",
"@X*X@X*X*X*X-X1X1X-X3X-XH.% B s.'.|.'.u.[ D 5 y ^ F ' e.q.e.t.e.e.q.e.{ D G c 4 b _ y.K.|.}.g.Y $ 3.*X-X-X3X1X3X1X3X1X1X1X1X3X1X",
"-X-X-X-X1X1X3X1X-X3X3X3XZ.# Q }.7X0X7X[.p.] + u 0.0.0.r.q.f.K.K.g.q.e.0.*.*.m o V u.K.,X0X7X|.>.# >.(.+X*X*X-X-X3X1X-X:X3X:X:X:X",
"3X1X3X3X3X3X3X3X3X1X-X-XD., :.>XtXyXrX.XJ.1.X u r.{ ' P 0.z.>X,XK.w.` ` { r.B X =.c.'.0XyXyX>X7., 5.@XOXOXoXOXOXOX@X*XOXOXOXOX).",
"1X3X1X3X3X3X-X1X-X3X:X3XF.8 >.#X9XtXqX'.'.k.O u q.^ y 3 ' c.5X5XP.&.w w V 0.B o 7.'.'.0XyXqX>X8.8 d.-X-X-X*X@X-X@X@XOXOX).OX).).",
"3X3X-X1X1X1X3X1X-X3X-X-XD.< O.|.h.%X5X<.;.t.; n r.&./ v w i T T g e x V &.r.V - =.t...%X,Xz.'.7.= 9.-X1X1X3X1X1X1X1X-X-X-X-X-X-X",
"-X1X3X3X3X3X3X3X-X:X-X*XZ.# R v.q.K.%XC P { v ] g.f.2.=.m 3 + & > v  .1.f.f.;.p ] / v U.|.e.z.=.# 9.-X-X1X1X-X1X1X1X-X-X-X-X3X3X",
"3X4X4X4X8X4X3X3X6X3X-X*XC.< B e.0.z.H.7 e K *.h.|.|.'.`.s.i     0 y.`.].{.{.v.-./ c 3 8.v.q.q.Y < 9.:X:X1X1X1X1X1X1X1X3X3X3X-X:X",
"4X3X3X*X).OX).(././.).-X~.n.W c K a.`.J w p j.`.|.'.].'.E.Q     d v.'.'.{.{.`.c.Z w b k.x.) b H 9.XX3X3X1X3X3X3X1X3X3X3X3X4X4X3X",
"3X-X).).).@XOXOXOX).OXOX).).d.H y Q >.b 5 1 G.].|.'.|.'.x.H X X f k.'.|.|.|.'.'.s > b :.~ t A 5.oX3X3X3X3X3X1X3X3X3X4X3X3X3X3X3X",
"OX).).).OXOXOXOXOXOXOXOXOX)./.d.1 @ $ 4 * @ G.|.}.|.|.P.} i 4 4 t J c.}.|.].'.`.6 O 4 , # < 9.+X:X3X3X3X4X3X3X3X3X4X3X4X3X3X4X3X",
").(.).).OXOXOX@X@X@X@X@XOXOXOXE.5.5.5.d.h @ G.|.'.|.'.L.0 A d.d.Q 6 j.}.'.'.].'.6 a N.9.n.9.!.3X4X2X4X3X3X3X3X4X3X4X3X4X3X3X3X3X",
"OXOX*X*X@X@X@X@X@X1X@X1X3X-X*X@XOXoX).oX! = d.K.|.].`.j.= z (.+X,.@ 7.`.|.|.`.x.6 h Q.^.(.(.OXOXOX*X3X3X6X8X4X3X3X4X3X4X4X3X4X3X",
"@X*X-X3X3X1X1X1X1X@X1X1X1X1X-X-X@X@X@XOX#.4 %.z.|.|.z.%.= z (.@X+.@ ] g.|.'.c.e.t R Q.OX*XOXOX@X@X@XOXoX^.(.3X:X4X4X3X3X3X4X3X3X",
"-X-X1X1X1X-X1X3X3X3X1X1X1X3X-X1X-X*X*X*X#.3 %.u.f.f.u.*.> ! &X=X5.: ] u.f.f.u.*.y E oX@X@X@X@X@X*X*X-X*X@X@X).)./.@X1X3X4X4X3X3X",
"1X1X1X3X3X1X3X3X1X3X1X1X1X1X3X3X1X3X1X1X#.> %.q.q.q.*.{ 7  .=X-X5.5 / *.q.0.q.*.8 R oX-X-X1X-X-X-X-X3X1X1X1X-X@XOXOXOXOXOXOX=X1X",
"1X3X3X3X3X3X4X3X3X3X3X4X3X3X1X3X3X3X3X-Xo.@ %.q.q.r.] N 5 @.OX*X5.3 b ' e.e.e.*.- k  X-X1X@X1X1X3X1X3X1X1X1X1X3X1X-X@X@XOXOXOXoX",
"3X3X3X4X4X3X3X3X3X4X3X4X4X4X3X3X3X3X3X3XQ o %.q.q.r.V w + Q &X*X>.* 3 N q.q.0.*.- h  X=X-X-X@X-X-X-X-X3X1X1X-X-X@X-X1X@X@X@X@X@X",
"3X3X4X4X1X4X3X4X4X4X3X4X3X3X4X3X4X3X=XD.+.d a.h.h.z._ : o z =X=X:.o ; I f.h.f.a.z z C.oX*X*X@X*X-X-X3X3X3X-X1X-X-X-X*X-X@X@X@X@X",
"4X3X3X3X4X3X3X3X4X3X4X3X3X4X3X3X3X3X!.g b.wXrXrX9XyXV.v @ Q =X1X,.@ e 6.rXrXrXtX5XM.g C.-X*X-X-X1X3X-X-X1X3X3X-X-X1X-X1X-X-X-X*X",
"3X4X3X1X3X3X3X3X1X3X3X1X3X3X4X3X6X:X~.S 5.<X>X>X,X,Xk.( ; O.=X1X3.; L a.>X>X,X>X,XV.F S.-X-X1X1X-X-X*X-X-X-X-X-XoXB.-X-X-X-X-X-X",
"3X3X3X3X3X1X3X3X3X3X3X3X1X1X1X1X-X*XQ.G ;.'.'.'.'.K.f.{ 5 +.=X1X5.2 ` p.K.'.}.'.'.2.I S.1X1X3X1X3X3X3X-X3X1X3X-X1X:X-X-X1X-X1X-X",
"3X3X1X1X1X1X3X3X1X1X1X1X1X1X1X@X*X@XF.e L u.W.XX{.u.{ M * R ;X3X,.# C ' y.P.|.'.h.` r A.3X3X3X3X3X3X3X3X3X1X4X4X3X3X3X:X3X:X3X3X",
"1X1X1X1X3X3X-X-X*X@X*X-X@X@X-X@X*X).S.2 7 J ;.$.<.J r 2 o.C.:X:XD.O.0 7 F =.<.<.L 9 , n.3X3X4X3X3X3X4X4X6X4X3X-X*X*X*XOXOXOX@X*X",
"3X3X3X4X3X1X1X-X-X*X-X@X@X@X@X@X@XI.m.d 0 g } | } C s d U.:X-X-X:X!.z s C E  .| A s a V.3X4X8X8X4X4X4X1X-X*X@X@X*X@XOX).).).).).",
"3X4X3X3X3X1X1X1X-X@X@X@X-X1X@X-X-X-X+XW.R.R.E.E.E.R.R.U.&X-X3X6X;X3X!.W.!. X&XoX X!.XX;X3X1X1X1X1X-X@X@X@XOX@X*X*X*X@X*XOXOX).)."
};
