/* XPM */
static char *_43da60e27c843fdf9734a4ee37311f7QlxgI5osEVjMgKqm[] = {
/* columns rows colors chars-per-pixel */
"64 64 103 2 ",
"   c #010101",
".  c #0B0B0B",
"X  c #100F0F",
"o  c #10100D",
"O  c #131313",
"+  c #1A1512",
"@  c #1A1917",
"#  c #1D1C1C",
"$  c #23150F",
"%  c #21211D",
"&  c #252524",
"*  c #2F2520",
"=  c #2B2B26",
"-  c #2B2B2B",
";  c #362B25",
":  c #32312D",
">  c #313131",
",  c #3B3B35",
"<  c #3C3C39",
"1  c #40271A",
"2  c #442F25",
"3  c #5C3725",
"4  c #424236",
"5  c #43433B",
"6  c #48483B",
"7  c #74462F",
"8  c #414141",
"9  c #4F4F47",
"0  c #4C4C4B",
"q  c #504F48",
"w  c #515241",
"e  c #55554E",
"r  c #555554",
"t  c #5C5B53",
"y  c #5C5C5B",
"u  c #5F6050",
"i  c #626157",
"p  c #66655C",
"a  c #6A685F",
"s  c #626262",
"d  c #6E6E64",
"f  c #6B6B6B",
"g  c #706F65",
"h  c #717065",
"j  c #74746B",
"k  c #78776C",
"l  c #7B7C6F",
"z  c #737371",
"x  c #7D7C73",
"c  c #7C7C7B",
"v  c #817F73",
"b  c #828174",
"n  c #85857C",
"m  c #8A8A7F",
"M  c #848483",
"N  c #8E8D81",
"B  c #8B8B8B",
"V  c #908E82",
"C  c #959486",
"Z  c #94948B",
"A  c #9C9B8C",
"S  c #949494",
"D  c #9E9E94",
"F  c #9B9B9B",
"G  c #A4A395",
"H  c #A9A797",
"J  c #A3A39A",
"K  c #AAAA9D",
"L  c #B1AF9F",
"P  c #B2B09F",
"I  c #A6A6A6",
"U  c #ADADA2",
"Y  c #B4B2A3",
"T  c #B5B3A4",
"R  c #B6B4A4",
"E  c #B7B5A5",
"W  c #B9B7A5",
"Q  c #BBB9A7",
"!  c #B6B6AA",
"~  c #B8B7A8",
"^  c #BBB9A8",
"/  c #BCBAA8",
"(  c #BBBBAE",
")  c #BDBCAE",
"_  c #BEBEB1",
"`  c #C0BFB1",
"'  c #C1C0B2",
"]  c #C3C2B5",
"[  c #C4C3B6",
"{  c #C5C5B7",
"}  c #C5C5B8",
"|  c #C8C8BB",
" . c #C9C9BC",
".. c #CCCCBF",
"X. c #C6C6C6",
"o. c #CECEC3",
"O. c #D4D4CA",
"+. c #DBDBD3",
"@. c #EAEAE5",
"#. c #EDEDE9",
"$. c #F0F0ED",
"%. c #F4F4F2",
"&. c gray98",
/* pixels */
"I I I I I I I I I I I I I I I I I I I I I I I I I I I I I I I I I I I I I I I I I I I I I I I I I I I I I I I I I I I I I I I I ",
"I I I I I I I I I I I I I I I I I I I I I I I I I I I I I I I I I I I I I I I I I I I I I I I I I I I I I I I I I I I I I I I I ",
"I I I I I I I I I I I I I I I I I I I I I I I I I I I I I I I I I I I I I I I I I I I I I I I I I I I I I I I I I I I I I I I I ",
"I I I I I I I I I I I I I I I I I I I I I I I I I I I I I I I I I I I I I I I I I I I I I I I I I I I I I I I I I I I I I I I I ",
"I I I I I I I I I I I I I I I I I I I I I I I I I I I I I I I I I I I I I I I I I I I I I I I I I I I I I I I I I I I I I I I I ",
"I I I I I I I I I I I I I I I I I I I I I I I I I I I I I I I I I I I I I I I I I I I I I I I I I I I I I I I I I I I I I I I I ",
"I I I I I I I I I I I I I I I I I I I I I I I I I I F f f f f f f f f f f f B I I I I I I I I I I I I I I I I I I I I I I I I I ",
"I I I I I I I I I I I I I I I I I I I I I I I I I I M                       s I I I I I I I I I I I I I I I I I I I I I I I I I ",
"I I I I I I I I I I I I I I I I I I I I I I I I F s y q 9 9 9 9 9 9 9 9 9 9 t s s s S I I I I I I I I I I I I I I I I I I I I I ",
"I I I I I I I I I I I I I I I I I I I I I I I I B . & R / / / / / / / / / / 9       c I I I I I I I I I I I I I I I I I I I I I ",
"I I I I I I I I I I I I I I I I I I I I I I F y r t g W / / / / / / / / / / b t t t r r S I I I I I I I I I I I I I I I I I I I ",
"I I I I I I I I I I I I I I I I I I I I I I B O % K / / / / / / / / / / / / / / / / :   c I I I I I I I I I I I I I I I I I I I ",
"I I I I I I I I I I I I I I I I I I I I F r 0 p k R / / / / / / / / / / / / / / / / v a 0 0 S I I I I I I I I I I I I I I I I I ",
"I I I I I I I I I I I I I I I I I I I I S @ @ H / / / / / / / / / / / / / / / / / / / Q =   M I I I I I I I I I I I I I I I I I ",
"I I I I I I I I I I I I I I I I I I I I S @ @ H / / / / / / / / / / / / / / / / / / / Q =   M I I I I I I I I I I I I I I I I I ",
"I I I I I I I I I I I I I I I I I I I I S @ @ H / / / / / / / / / / / / / / / / / / / Q =   M I I I I I I I I I I I I I I I I I ",
"I I I I I I I I I I I I I I I I I I F 8 , j n L R Q / / / / / / / / / / / / / / / / / Q C b 5 < S I I I I I I I I I I I I I I I ",
"I I I I I I I I I I I I I I I I I I F # O A Y Y T Q / / / / / / / / / / / / / / / / / / / Y & . B I I I I I I I I I I I I I I I ",
"I I I I I I I I I I I I I I I I I I F # O K [ [ ' R R R R / / / / / / / / / / / / / / / / Y & . B I I I I I I I I I I I I I I I ",
"I I I I I I I I I I I I I I I I I I F # O U  . .{ R T T R ^ ^ / / / / / / / / / / / / / Q P & . B I I I I I I I I I I I I I I I ",
"I I I I I I I I I I I I I I I I I I F # O U  . .| { { { ' T R / / / / / / / / / / / / Q G C # . B I I I I I I I I I I I I I I I ",
"I I I I I I I I I I I I I I I I I I F # O U  . . . . . .[ T R Q Q / / / / / / / / / Q W A N # . B I I I I I I I I I I I I I I I ",
"I I I I I I I I I I I I I I I I I I F # O U  . . . . . .| } ` T R / / / / / / / / / G A C N # . B I I I I I I I I I I I I I I I ",
"I I I I I I I I I I I I I I I I I I F # O U  . .| } } |  . .] R W Q P H H H L W W W A C C N # . B I I I I I I I I I I I I I I I ",
"I I I I I I I I I I I I I I I I I I F # O U  . .] K U }  . .| } ` Y g @ @ @ p A A A C C C N # . B I I I I I I I I I I I I I I I ",
"I I I I I I I I I I I I I I I I I I F - & U | { ( Z G o.o. . . .' Y h # # # e v m C C C C N # . B I I I I I I I I I I I I I I I ",
"I I I I I I I I I I I I I I I I I I I z k _ { K Z w h %.#. . . .' Y T ! ! ! e . p C C C C N # . B I I I I I I I I I I I I I I I ",
"I I I I I I I I I I I I I I I I I I I n n _ { U A u l $.@. . . .' Y )  . . .e   i C C C b k : - S I I I I I I I I I I I I I I I ",
"I I I I I I I I I I I I I I I I I I I D G ] | } } ] ] .. . . . .' Y )  . . .e   i C C C = X c F I I I I I I I I I I I I I I I I ",
"I I I I I I I I I I I I I I I I I I I J J ]  . . . .} ] ]  . . .] ~ _  .T D e % d C x k > - B I I I I I I I I I I I I I I I I I ",
"I I I I I I I I I I I I I I I I I I I J J ]  . . . .] J U  . . .| | |  .p   e C C C =   c I I I I I I I I I I I I I I I I I I I ",
"I I I I I I I I I I I I I I I I I I I J J T ! _ ] | ] G K  . . . . .} ] h & p C l g < - B I I I I I I I I I I I I I I I I I I I ",
"I I I I I I I I I I I I I I I I I I I I I c x D K } ] G K  . . . . ._ Y G C C V :   c I I I I I I I I I I I I I I I I I I I I I ",
"I I I I I I I I I I I I I I I I I I I I I B n h h m n d k N N Z Z Z m x h p b Z r > M I I I I I I I I I I I I I I I I I I I I I ",
"I I I I I I I I I I I I I I I I I I I I I I B O             . # # # O       s I I I I I I I I I I I I I I I I I I I I I I I I I ",
"I I I I I I I I I I I I I I I I I I I I I I F 0 8 8 >     o @ & & # O   & 8 c I I I I I I I I I I I I I I I I I I I I I I I I I ",
"I I I I I I I I I I I I I I I I I I I I I I I I I I M   . = = > - # O   r I I I I I I I I I I I I I I I I I I I I I I I I I I I ",
"I I I I I I I I I I I I I I I I I I I I I I I I I I B % % & & & & & @   r I I I I I I I I I I I I I I I I I I I I I I I I I I I ",
"I I I I I I I I I I I I I I I I I I I I I I I I I I Z 6 , # # # & > @   r I I I I I I I I I I I I I I I I I I I I I I I I I I I ",
"I I I I I I I I I I I I I I I I I I I I I I I I S r 0 5 , & & # & > & @ > 0 M I I I I I I I I I I I I I I I I I I I I I I I I I ",
"I I I I I I I I I I I I I I I I I I I I I I I I B . . 4 4 > - # & > - & O   s I I I I I I I I I I I I I I I I I I I I I I I I I ",
"I I I I I I I I I I I I I I I I I I I I I I I I B . . = - > & . @ > - & O   s I I I I I I I I I I I I I I I I I I I I I I I I I ",
"I I I I I I I I I I I I I I I I I I I I I I I I B .   # & > &   O > - & O   s I I I I I I I I I I I I I I I I I I I I I I I I I ",
"I I I I I I I I I I I I I I I I I I I I I I I I B . . = - > &   O > - & O   s I I I I I I I I I I I I I I I I I I I I I I I I I ",
"I I I I I I I I I I I I I I I I I I I I I I I I B . . - > > &   O > - & O   s I I I I I I I I I I I I I I I I I I I I I I I I I ",
"I I I I I I I I I I I I I I I I I I I I I I I I B . . - & . > Z I X.c & O   s I I I I I I I I I I I I I I I I I I I I I I I I I ",
"I I I I I I I I I I I I I I I I I I I I I I I I B . . - &   <  .+.&.F & O   s I I I I I I I I I I I I I I I I I I I I I I I I I ",
"I I I I I I I I I I I I I I I I I I I I I I I I B . . - &   <  .o.O.M & O   s I I I I I I I I I I I I I I I I I I I I I I I I I ",
"I I I I I I I I I I I I I I I I I I I I I I I I B . . - &   < _ _ _ x & O   s I I I I I I I I I I I I I I I I I I I I I I I I I ",
"I I I I I I I I I I I I I I I I I I I I I I I I B . . & & # & & & & & & O   s I I I I I I I I I I I I I I I I I I I I I I I I I ",
"I I I I I I I I I I I I I I I I I I I I I I I I B @ O & & & @       O & @ . s I I I I I I I I I I I I I I I I I I I I I I I I I ",
"I I I I I I I I I I I I I I I I I I I I I I I I I B z . . & & - - - @   0 B F I I I I I I I I I I I I I I I I I I I I I I I I I ",
"I I I I I I I I I I I I I I I I I I I I I I I I I I M   . & - > > > @   r I I I I I I I I I I I I I I I I I I I I I I I I I I I ",
"I I I I I I I I I I I I I I I I I I I I I I I I I I M   . & - > > > @   r I I I I I I I I I I I I I I I I I I I I I I I I I I I ",
"I I I I I I I I I I I I I I I I I I I I I I I I I I M   . & & - - - @   r I I I I I I I I I I I I I I I I I I I I I I I I I I I ",
"I I I I I I I I I I I I I I I I I I I I I I I I I I M     # # # # # O   r I I I I I I I I I I I I I I I I I I I I I I I I I I I ",
"I I I I I I I I I I I I I I I I I I I I I I I I I I B & # @ # * * * +   r I I I I I I I I I I I I I I I I I I I I I I I I I I I ",
"I I I I I I I I I I I I I I I I I I I I I I I I I I I F c   $ 7 7 7 1   r I I I I I I I I I I I I I I I I I I I I I I I I I I I ",
"I I I I I I I I I I I I I I I I I I I I I I I I I I I I M & ; 3 3 3 2 & s I I I I I I I I I I I I I I I I I I I I I I I I I I I ",
"I I I I I I I I I I I I I I I I I I I I I I I I I I I I I I z       0 I I I I I I I I I I I I I I I I I I I I I I I I I I I I I ",
"I I I I I I I I I I I I I I I I I I I I I I I I I I I I I I M - - - s I I I I I I I I I I I I I I I I I I I I I I I I I I I I I ",
"I I I I I I I I I I I I I I I I I I I I I I I I I I I I I I I I I I I I I I I I I I I I I I I I I I I I I I I I I I I I I I I I ",
"I I I I I I I I I I I I I I I I I I I I I I I I I I I I I I I I I I I I I I I I I I I I I I I I I I I I I I I I I I I I I I I I ",
"I I I I I I I I I I I I I I I I I I I I I I I I I I I I I I I I I I I I I I I I I I I I I I I I I I I I I I I I I I I I I I I I "
};
