/* XPM */
static char *result[] = {
/* columns rows colors chars-per-pixel */
"64 64 228 2 ",
"   c #1F191D",
".  c #251C1E",
"X  c #2F211D",
"o  c #2B1F20",
"O  c #2F2424",
"+  c #322423",
"@  c #3B2624",
"#  c #372826",
"$  c #3B2E2B",
"%  c #3A302F",
"&  c #3D3331",
"*  c #442A26",
"=  c #492C26",
"-  c #462C28",
";  c #502E27",
":  c #433229",
">  c #4E342C",
",  c #54342B",
"<  c #5B352B",
"1  c #573B2D",
"2  c #5E392D",
"3  c #433632",
"4  c #4B3631",
"5  c #473934",
"6  c #4D3A33",
"7  c #4C3E39",
"8  c #573A30",
"9  c #5E3D31",
"0  c #60372C",
"q  c #633B2E",
"w  c #623D32",
"e  c #6C3E30",
"r  c #54433B",
"t  c #5C4239",
"y  c #644233",
"u  c #6A4334",
"i  c #67473A",
"p  c #6D4639",
"a  c #6D4A3D",
"s  c #734434",
"d  c #794835",
"f  c #7B4B36",
"g  c #734A3B",
"h  c #7D4B3A",
"j  c #6A513D",
"k  c #7B523B",
"l  c #7A5B3E",
"z  c #594941",
"x  c #784E40",
"c  c #685648",
"v  c #755343",
"b  c #795242",
"n  c #7E5B4A",
"m  c #725E51",
"M  c #7C624B",
"N  c #7D6656",
"B  c #834D3A",
"V  c #85523D",
"C  c #8D523D",
"Z  c #845A3B",
"A  c #8A5B3C",
"S  c #93553E",
"D  c #965B3F",
"F  c #8F603F",
"G  c #8A5D43",
"H  c #885946",
"J  c #835B4A",
"K  c #945740",
"L  c #965941",
"P  c #9A5B42",
"I  c #8C6743",
"U  c #946546",
"Y  c #9D6344",
"T  c #966846",
"R  c #9D634A",
"E  c #876B53",
"W  c #8C6D5A",
"Q  c #936C54",
"!  c #996C56",
"~  c #8A745D",
"^  c #947156",
"/  c #9A7654",
"(  c #9C7C5D",
")  c #A26544",
"_  c #A56A46",
"`  c #A2654A",
"'  c #A86B48",
"]  c #A47246",
"[  c #AC7349",
"{  c #AB7848",
"}  c #AD794A",
"|  c #B57B4C",
" . c #B47C4C",
".. c #AB7855",
"X. c #B37C55",
"o. c #877261",
"O. c #937966",
"+. c #9A7A65",
"@. c #A37B63",
"#. c #B47D62",
"$. c #98805E",
"%. c #B6844E",
"&. c #BB834E",
"*. c #AB8559",
"=. c #BB8551",
"-. c #B98657",
";. c #BC8C5B",
":. c #BB905F",
">. c #9D816B",
",. c #9A8C7A",
"<. c #AD8465",
"1. c #AA8C66",
"2. c #A4856D",
"3. c #AB836A",
"4. c #B38866",
"5. c #BB8C64",
"6. c #B2896F",
"7. c #BA8B6E",
"8. c #AA956E",
"9. c #BC9261",
"0. c #B2926B",
"q. c #BE946A",
"w. c #AB8B74",
"e. c #AA8C75",
"r. c #B68D71",
"t. c #B29177",
"y. c #BB9273",
"u. c #B79975",
"i. c #BB997E",
"p. c #BCA177",
"a. c #C2894F",
"s. c #C58E52",
"d. c #C08D5A",
"f. c #C69054",
"g. c #C99356",
"h. c #C7935B",
"j. c #C9965C",
"k. c #CB995D",
"l. c #C08A69",
"z. c #C39565",
"x. c #CD9D63",
"c. c #C69A69",
"v. c #D39F62",
"b. c #CB9675",
"n. c #C59C76",
"m. c #CA9D7E",
"M. c #CEA166",
"N. c #CCA26E",
"B. c #D2A56B",
"V. c #D2A66C",
"C. c #C8A579",
"Z. c #CCAA7B",
"A. c #D4AB73",
"S. c #D4AB74",
"D. c #D6B27B",
"F. c #DAB57B",
"G. c #D9B57E",
"H. c #B4998C",
"J. c #C59D81",
"K. c #C39E94",
"L. c #C6A285",
"P. c #CCA284",
"I. c #CAA88A",
"U. c #DBA282",
"Y. c #D4AA83",
"T. c #D2AB8A",
"R. c #DBAD8B",
"E. c #D2B584",
"W. c #DBBB85",
"Q. c #D8B688",
"!. c #DCBD89",
"~. c #C5A593",
"^. c #D0B197",
"/. c #DCB592",
"(. c #D8B694",
"). c #E0A884",
"_. c #E4B28E",
"`. c #E2B692",
"'. c #EAB791",
"]. c #E2BA96",
"[. c #EAB994",
"{. c #E5BE99",
"}. c #E9BE99",
"|. c #F4B792",
" X c #F6BB95",
".X c #F8BE97",
"XX c #F6BE99",
"oX c #F8BF98",
"OX c #CFB8B1",
"+X c #E2BBA0",
"@X c #DEC28C",
"#X c #E1C48E",
"$X c #E1C691",
"%X c #E3C993",
"&X c #E5C39A",
"*X c #EBC39D",
"=X c #E6CC9B",
"-X c #E9CD9A",
";X c #F5C39D",
":X c #F9C49D",
">X c #FBC89F",
",X c #EBD29C",
"<X c #DEC9AB",
"1X c #EAC7A6",
"2X c #F4C5A1",
"3X c #F9C6A1",
"4X c #F6CAA4",
"5X c #FCCDA4",
"6X c #F6CEAA",
"7X c #FACEA9",
"8X c #EDD4A3",
"9X c #EDD5AB",
"0X c #EFD8AB",
"qX c #FDD0A7",
"wX c #F5D3AA",
"eX c #FED4AA",
"rX c #FED8AF",
"tX c #E2CEB0",
"yX c #F1D7B2",
"uX c #FCD7B1",
"iX c #F2DBB3",
"pX c #FED9B1",
"aX c #F6E1BC",
"sX c #F8E2BE",
"dX c #F2E1C1",
"fX c #FAE5C3",
"gX c #FDE8C7",
"hX c #FDEBCA",
/* pixels */
"eXeXeXpXpXpXrXrXeXrXrXeXrXrXeXrXrXeXrXeXrXrXrXeXrXrXeXeXwXeXrXeXeXeXeXrXuXpXpXwX9XeXeXeXrXeXeXrXeXeXrXrXeXeXeXqXeXqXqXqXqXeXeXeX",
"eXeXeXeXeXeXrXrXrXrXrXeXeXeXeXrXeXeXrXrXeXeXeXeXeXeX6XE.m.m.Y.R.R.P.L.L.&XeXeX+XH.OXeXeXeXeXeXeXeXrXeXeXeXeXeXeXqXeXeX5XqXqXeXeX",
"qXqXqXeXeXqXeXeXeXrXrXrXrXrXrXrXpXrXrXpXrXrXrXeX4X1X/.E u p D _ ` h u g y.;X;X2X*X4XqXqXqXqXeXeXeXeXqXeXqXqXqXqXeXqXeXeXeXeXeXeX",
"qXqXqXeXeXqXeXqXeXeXeXeXeXeXrXeXeXeXrXeXrXrXeX-Xo.n Q G A ]  .| %.{ ] ] X.#.! J.5X5XqXqX7XqXeXeXeXeXeXqXqXqXqX7XqXqX7XqXeXeXeXeX",
"6X7XqXqXqXqXqXqXqXeXeXeXeXeXeXeXeXeXeXeXeXeX/.8.c y k D  .f.s.f.s.f.s.f. .Y s ! L.*XqXeXeXeXeXeXeXrXeXeXqXqXqXqXqXqX5X5XqXqX>XqX",
"OXOXqXqXqXqXqXqXqXqXqXeXeXeXeXqXqXqXqXqXqXeX>.5 { &.&.s.s.f.s.f.s.s.f.s.s. .P y r ^.qXeXrXrXrXrXpXpXpXrXiXrXeXqXqXqX5X7XqXqXqXqX",
"6X6X7X7XqXqXqX7XqXqXqXqXqXqXqXqXqX7XqX5X7XqX7.d %.f.;.s.s.s.s.f.f.s.s.f.s.=.P h g N t.;X;X;X X X|.|.:X;X XXX4X4X3X3XqXeXeXqXqX>X",
"7XeXqXeXqXqXqXqXqXqXqXeXqXqX5XqXqX5X5X5X;XR.l.' &.f.s.s.s.f.f.f.s.f.s.f.f.=.P P C @ W >X5X5X7X5X>X5X>X>XqX5X5X4X>X3X;X;X>XqXeXeX",
"eX7XeXeXqXqXqXqX5X5X7X5X5X5XqX5X5X5X5X5X_.J T s.s.f.s.s.f.s.f.f.f.s.f.f.s.a.P L C < @.:X>X5X3X3X5X5X5X>X>X>X>X>X3XqX5X>X5X>X5X4X",
"eXeXeXqXqXqXqXqXqX5XqXqXqXqXqXqX7X7X5X5X`.p F g.s.s.s.s.s.s.s.s.s.s.s.s.s.&.P L S B J #.'.5X5X5X5XqXqX>X5X5X3X>X>X3X>X>X3XqX5X5X",
"2X2XwXuXpXrXeXqXqXeXqXeXeXeXqXqXeXeXeXeX].x T k.g.k.g.j.j.j.j.j.s.s.s.s.a.| P L P P d i Y.5X5X7XqXqX5XqX5X5X5X>X5X>X5X5X5X5X5X5X",
"XX;X|.|.;X4X6XqXeXeXwXwX7XwXqXqX6X7X4X;X_.R 5.@X@X@X@X@X@X@X@XD.s.g.s.g.[ P D D L P w 3 T.>X>X5XqXqX5XqX7X5X5X5X5X5X5X5X5X5X7XqX",
"5X>X>X.X|.|. X:X|.:X X:X:X:XXX:X:X:X>X>X'.` n.aX8X0X0X=X$X$X%XG.s.| [ [ ) L S D L P 0 & T.3X>X5X5X5XqXeXqXqXqX5X5X>X5XqX5X5XqX5X",
"7X7X5X5X5X5X>X>X>X>X>X>X3X:X>X3X5X5X5XqX[.T m.hXgXgXgX=X$X$X$XE.j.' S S P P S S L P 2 3 T.3X5X5X5X5X5XqXeXqXqX5X5XqX5X5X5X>X5X>X",
"qXqX7X5XqXqXqXqXqX5X>X5XqXqXqXqXqXqXeXqX].g 8.hXhXhXhX8X%X%X%X@X`...D D [ { e B P L 0 % T.5X7XqXqXqXqX5XqXeXqXqX5X2X^.qXqX5XqX5X",
"qXeXqX7XeXeXqXqX5XqXqXqXqXqXqXqXeXqXqXeX`.p >.aX0X^.,.u.N.S.@X$X#Xh._ L d.5.0 e B B , 3 I.7X7X7XqXeXqXeXeXwXqX4X4XH.K.5X5XqX5X5X",
"eXeXeXeXqXeXeXeXeXeXeXeXqXqXqXeXeXeXeXqX`.p $.%X%X$.X k } f.G.%X#XB.-.P q.C.q , , < > r R.5X5XqXqX5X5XqX5XqXqX5X5X~.*XqXqXqX7XqX",
"eXeXeXeXeXeXeXeXeXeXqXqX>XqXeXqXqXqXqX8X`.g $.%X%X>., ~./.f.G.$X%X#XC.P ` U + * < 2 ^ I.*XqX5X7XqX7XqXqXqX7X7X5X7X5XqXeXeXqXqXqX",
"eXeXeXeXeXeXeXeXeXeXeXeXeXeXeXeXeXeX5X5X/.p *.0X0XC.G <X8XN.!.@XD.D.c.P h 2 @ = < * +.qXqXqX7X7XqXqXqXqXeXqXeXqXqXeXqXqXqXqXqXqX",
"eXeXeXeXeXeXeXeXeXeXeXeXeXeXeXrXeXrXrXrX].p e.hXgX&Xj.9XiX$X%XD.g.s.%.P , o ; , , $ +.5X7X1X1X5XqXqXqXqXeXqXqXeXeXeXeXeXeXeXqXeX",
"eXeXeXrXrXeXeXwX3X5X4X4X3X;XXX;XXXXXXX|.U.u w.hXhX9XQ.=X-X$XV.k.s.s.s.&.k @ X o 4 e.(.5X5XqX5X5X5X5X5XqXqX5XqXeXeXeXeXeXeXeXeXeX",
"eXqXwX>X:X:X>X>X3X>X3X3X5X5X7XqXqXqXqX5X/.t >.aXiX8X$X%X!.F.k.a.s.&.} _ d > . r W }.5X5XqXqXqXqX7X5X7XqXqXqXeXqXeXeXeXeXeXeXeXeX",
"4XqXqX>XqXeXqXqX5X>X5X5XeXeXeXeXqXqXqX5X(.r E %X@X$X#X$XF.s.s.s.s._ B q q , O O.2X7XqX5XqX7XqXqXqXqXqXqXqXqXeXqXeXeXeXeXeXeXeXqX",
">XqXqXeX>X>X>XqX7XqX5X5X7XqXqXqXqXqXqXqX*Xi.~ c :.F.$XA.d._ ' _ ) f d ] *.>.8 @.wXeXrXeXeXeXwXqXqXqX5XqXeXeXeXeXeXeXqXqXqXqXqXqX",
"qX5XqXqX5XqXqXqXqXqXqXeXeXqXqXqXqXqXqXqXqXqXt.c F *.8.*.F A S D ) I ^ V.$X(.O.7.).XXeXuXeXeXrXeXqXqXqXqXqXqXqXqXeXeXqXqXqX7X5X5X",
"qXqXqXqXeXeXqXeXqXeXqXeXeXeXeXeXwXeXeXeXeXeX4XI.z # O = 2 2 V _ s.S.=XaXfXfXdXm...'.>X3XuXuXeXeXqXqXqXqX5XeXeXqXqXqX5X>X5X5X5XqX",
"qXqXqXeXqXeXeXqXeXeXeXeXeXeXeXeXeXeXeXeXeXqXeX;Xi.m O l ..0.n.C.D.1XaXfXgXgXfX(.Z.;X5X3X>XqXiXeXeX5X>XqX>XqX5X5XqX5X5X5X>X5X5X5X",
"qXeXeXeXeXeXqXqXqXqXqXeXeXeXeXeXeXqXqXqXqXqXeXeXeXw.6 %.A.%X%X%X%XiXfXaXaXsXaX9X$XT.}.7X5X>X>XqXrXeXeXqXqX5X5X5X5X5X5X5X5X5X5XqX",
"eXqXeXeXeXeXqXqXqXqXqXqXqXqXqXqX7XqXqXqXqXqXeXqX>Xn.Y Z.@X$X$X$X%XiXaX=X%X%X%X%XE.b 6.eXeXqX>X>X>XqXqXeXwXeXeXqXeX>X5X5X5X5X7XqX",
"eXeXeXeXeXeXeXqXqX7XqX5XqX5X5X5X5XqXeXeXeXeXwX;X6.1.n.!.$X%X$X%X%X!.W.@X%X$X$X%XE.G q.qXeXeXrXeXeX>X5X>X5X5X>XqXqXqXqXeXeXeXeXqX",
">XqXeXeXeXeXqX5XqXqXqX7XqX7X5XqXqXqXeXrXeXeXeX&Xb ^ -X$X$X$X@XW.E.;.;.@X$X$X$X@XD.` M.eXeXrXeXrXrXeXwXqX5X5XqX>X>XqX5X5XqX>X3X5X",
"eXqXqXqXqXqXqXqX5X5XqXeXqXqXqXqXeXeXeXeXeXrXrX&Xb ^ %X%X%X%XM.=.` d J @X%X$X%XS.f.D n.eXeXeXrXeXeXeXeXeXeXeXwXqXqXqXqXqXqXqXeXeX",
"qXqXqX5XqX5X5X5XqXqXeXeXeXeXeXeXrXeXuXeXqX3X;XR.t v q.V.c.5.%.F 2 * t ;.Z.%X%XA.&.B 7.eXeXeXeXeXeXeXrXeXeXrXeXeXeXrXeXeXrXrXeXrX",
"qX5XqXqXqX7XqX7XqXqXeXeXeXrXrXpXwXqX3XoX;X.X;XR.7 ; S | | P P f .   @ B c.%X$XS.%.q 3.wXeXeXeXeXrXrXeXeXeXrXeXeXeXrXrXeXeXrXrXeX",
"1X7X5X7X5XqXqXeX5XqXeXrXrXrX5X;X;X:X:X>X>X3X>XR.7 @ q { s.a.a.F ; o O 0 0.=X$X@XZ.y 3.qXeXeXeXeXeXeXeXrXeXeXeXeXeXeXeXeXeXeXeXeX",
"5X7XqXqXqXqXqXeXeXeXpXwXqX;X:X:X>X3X5X5X>X5X>X/.r - h 9.A.V.A.:.F , @ @ / G.@X%XE.H 6.qXqXeXeXeXeXeXeXeXeXrXeXeXeXeXeXeXeXeXeXeX",
"eXeXeX7XeXeXeXeXrX4X3X>X:X>X5X>X5X5X7X5XeXqXqX/.7 8 R Z.@X%X%XE.s.h * . l j.@X#XE.R b.qXqX7XeXeXqXeXeXeXqXqX5X+XqXeXeXqXeXeXeXeX",
"eXeXeXpXeXrXeX7X3X>X3X3X>X5XqX5X7XqXqXqXeXeXqX/.7 , Y -.A.$X%XZ.Y s * . u X.!.$XE.p <.3XeXeXeXeXeXqXeXeXeXeXeXeXeXeXeXeXeXeXqX5X",
"5X7X5X5X3X3X>X>X>X5X7XqXqXqXeXqXeXeXeXeXeXeXeX&X+.J C  .x.S.F.z.P e , , V -.=X=XG.U Q 3.`.:X5X7XqXqXeXeXqXeXqXeXeXeXeXqXeXqXqXqX",
">X3X3X3X>X5X5X5XqXqXqXqXeXeXqXqXeXeXrXeXeXrXeXeXwXr.w } f.g.g.%.S e w P  .V.fX0X#XM.b 3 J. X X;X>XqX>X5X7XqXqXeXeXqXqXeXqXqXeXqX",
"5X5XqX5XqXqXqXqXqXeXeXqXqXqXeXeXeXeXqXqXeXeXqXqXqXy.y } x.W.W.9.u * , } N.$XdXsXyX#XE $ T.7X>XXX X|.XX>X3X3X5XqXqXqX7X7XqX7XqXeX",
"qXeXqXeXeXeXeXqXqXqXqX5XqXeXeXeXeXqXeXeXeXqXqXqXqXw.1 *.S.#X`.*.< X 6 c.W.=XfXgXsX,X~ 6 T.5X7X>X3X>X>X:X:X:X;X>X>X>X3X;X:X:XXXXX",
"qXqXeXeXeXeXqXqXqX7X7XeXqXeXqXeXeXeXqXqXqXqXqX>XqX>.$ u.#X@XM.] 2 X r E.@X=XfXfXiX,X*.i R.5X5X5X5X5X7X5X5X>X>X>X>X>X:X:X:XoXoX:X",
"eXeXqX7XqXqXeXeXqX5X7X7XqXeXeXeXeXeXeXeXeXeXqXeXqX>.O a / x.g.} B 1 i k.;.l.dX&XS.-X~ 3 Q.qXeXqX7X5XqXqXqXqXqX5XqXqX5X5X5X5X5X7X",
"qXeXeXeXeXeXeXeX5X7X5X5X5X5X5X7XqXeXeXeXeXqXqXqX7X2.@ 0 A s.j.z.X.A Z  .D Q tXE.s.G.N & T.eXeXeXqXqXqXqXqXqXqXqXqXqX5XqX5X7X7XqX",
"eXrXeXeXrXeXeXeXuXeX5X3X>X>X>X5X5X5X5X5XqXqXqXqX7Xr.w V ' s.G.$X@XM. .P s k !.A.s.k.l 5 T.eXeXeXeXqXqXqXqXqXqXqXqXqXeXeXeXqXqXqX",
"eXrXeX3XoX:X:XXX X XoX5X5X5X5X>X>X:X>X>X>X5X>X>X5X2.- B ' s.G.$X@XW.9.s d U @Xq.) V ^ r.&XqXqXeXeXeXeXeXeXqXqXeXeXeXeXeXeXeXeXeX",
"eX5X.X X:X>X:X:X:XoX:X:XoXoX3X3X5X>X:X>X>X>X>X>X3X>.+ h _ =.G.$X$X=Xp.8 s L u.^ B H y.5X5XqXqXqXeXeXeXeXeXeXqXeXeXeXeXeXrXeXeXeX",
":XoXoXoX:X:X:X:X:X:X:X:X:X:X:X:X:X3X5X3X5X3X5X5X5X@.# x P Y C.%X$X$Xu.+ = < % # r J.;X7XeXeXqXqXeXeXeXeXrXeXeXeXeXrXeXeXrXrXrXeX",
"oXXXoX:X:X>X:X>X>X>X>X>X:X:X:X:XoX.X.X3X5X5X3X3X3X3., B P P Z.%X$X$XZ.I 8 4 O.@.6.1XeXeXeXuXeXpXrXrXeXeXeXeXeXeXrXeXeXrXeXeXrXeX",
".X:X>X>X>X>X>X>X>X5X5X5XqXqX>X>X:X:X:X.X X:X5X3X3X7.p C D S n.!.$X$XW.v.j r /.4X3XXXXXoX:X:X.X:X>X3XqXeXuXpXeXeXrXeXrXeXeXeXrXeX",
":X5X7X7XeXqXqXqX5X5X5X5XqXqXqX>X>X5X>X>X:X:XoX3X3Xb.L P B 0 } B.$X$X#X#XE b _.>X3X:X:X>X>X:X:X>X>X>X:X;X.XXXeX7XrXrXeXeXeXeXeXrX",
"qX7XqXqXqX>XqXeXeXeXqXqXqXqXqXqX5X5X>X>X>X>Xi.W @.! P P C d ) ;.@X@X$X$X^ b _.;X5X5X5X>X>X>X>X>X3X5X5X5X>X:X:X X X;XqXqXrXrXrXeX",
"5X7XeXeXeXeXeXeXqXeXeXeXqXqXeXqXeXeXqXqX>X`.^ $ q f L L L P C ..@X@X$X$X/ J [.5X7XqXqXqXqX>X5X5X5X5XeXqXqXqX5X>X:X:X:X:X:X:X>X5X",
"qXeXeXeXeXeXeXeXeXeXeXeXrXeXqXeXeXeXqX7X`.E T %.&.[ L L L P e B h.E.%X%Xc.j.:X7XqXqXqX7X5XqXqXqXqXqXqXqXqXqXqXqXqXqX>X5X:X:X;X:X",
"eXeXeXeXeXrXrXeXrXeXrXeXeXeXeXeXeXqXeXqX/.p F g.s.} K L C e 0 B ;.M.G.@XG.N.4.Y.>X5X5X>X5XqX>X>X5X7XqXqXqXqXqX5X>X>X>X5X>X5X>X>X",
"rXeXeXeXeXeXeXeXrXeXeXrXeXrXeXrXeXuXeXeX].a Z =.=.[ K K d < 9 I g.g.M.@X%XZ.i <.>XqX>X>X>X>X>X5X5X5XeXeXqXqXqX5XqX>X>X>X>X>X>X>X",
"rXrXeXeXeXeXrXeXeXrXeXeXeXrXeXeXeXeXeXeX(.7 # : y e 0 @ , C ~.tXyXiX0X@XA.-.u 6.qXqXeXqXqX>X>XqXqXqX5X5XqXqXqX5X5XqXqX5XqX5X>X5X",
"eXeXeXeXeXeXeXeXeXeXeXeXeXeXeXeXuXeXeXeX&XO.N N +.( ^ 6 i 5.1XhXgXgXaX=Xc.T , 2.eXeXqXqXqX>XeXqX5XqX5X5X7XqX7X5X4XK.5X5X5X5X5X5X",
"eXeXeXeXeXeXeXqXeXeXeXeXeXqXqXqX5X5X5XeXqX6X6X6X4X7X{.J E $XyXgXfXfXiX@X*.h 5 2.eXqXeXeXeXeXqXqXeXqXqXqXqXqX7XeXqX4X5XqXqX5X7X5X",
"eXeXqXqXqXqXeXeXqXqXqXqXqXqXqX5X3X3X3X>X5X7XeXeX7X5X&XJ F M.@X8X8X8X#XB.l t t.].eXrXeXeXeXeXeXeXeXeXeXeXeXeXeXeXeXeXeX7XeX7XeXeX",
"eXqXqXqXeXeX7X5X5X>X>XqX>X>X>X>X3XoX:X:X:X3X3X3X7XeX}.v u R *.8.0.1.$.I M O.*XeXeXrXeXrXrXeXeXeXeXeXeXrXpXeXeX7X3X3X:X:X:X:X:X5X",
"eXeXeXrXeXqX5X5X>X5X>X>X>X>X>X>X>XR.~.:X:X:XoX:X:X:X].c 4 u p s u 5 $ & 2.2X5XeXeXeXeXeXeXrXpXpXrXrXrXeX7X>X>X>X3X>X:X:XoXoX.XoX",
"eXeXeXeXeXqXqXqX5X>X>X>XqX5X>X5XqX7X7X5X3X:X:X:X3X:X2XJ.n.J.J.P.Z.H.m.H.(.eXuXeXpXrXrXrXeXeXqXqXqX5X>X>X>X:X:X3X5X3X3X3X:X:XoX.X"
};
