/* XPM */
static char *result[] = {
/* columns rows colors chars-per-pixel */
"64 64 225 2 ",
"   c #231C1E",
".  c #2E1C1E",
"X  c #271F21",
"o  c #2E2223",
"O  c #2F2827",
"+  c #332423",
"@  c #3A2624",
"#  c #352B29",
"$  c #3B2D2A",
"%  c #3C302D",
"&  c #3B3230",
"*  c #452B26",
"=  c #492C27",
"-  c #432D29",
";  c #4B2E28",
":  c #522D26",
">  c #45342D",
",  c #4A352C",
"<  c #54332B",
"1  c #5B342B",
"2  c #53392E",
"3  c #5E382E",
"4  c #483933",
"5  c #5A3C32",
"6  c #633B2E",
"7  c #693C2F",
"8  c #633D31",
"9  c #703F31",
"0  c #4E4138",
"q  c #5E4134",
"w  c #52423C",
"e  c #5C483F",
"r  c #654333",
"t  c #6B4435",
"y  c #6C4639",
"u  c #68493A",
"i  c #724333",
"p  c #7A4736",
"a  c #744B35",
"s  c #7C4A37",
"d  c #734C3D",
"f  c #7E4D3C",
"g  c #6C503F",
"h  c #75543D",
"j  c #5C4C44",
"k  c #634C43",
"l  c #6C4E42",
"z  c #675347",
"x  c #6E5A4E",
"c  c #745244",
"v  c #7D5444",
"b  c #7B5945",
"n  c #75594C",
"m  c #78614C",
"M  c #7A6555",
"N  c #834C39",
"B  c #884F3B",
"V  c #86523A",
"C  c #8C533C",
"Z  c #86593C",
"A  c #8A5C3D",
"S  c #94563F",
"D  c #965A3F",
"F  c #92633F",
"G  c #825644",
"H  c #855A46",
"J  c #895D44",
"K  c #955740",
"L  c #965941",
"P  c #995B41",
"I  c #925E48",
"U  c #8E6445",
"Y  c #956342",
"T  c #9C6443",
"R  c #9A6A45",
"E  c #92644C",
"W  c #9D654B",
"Q  c #876956",
"!  c #926C53",
"~  c #956E59",
"^  c #907153",
"/  c #97735A",
"(  c #9D7C5B",
")  c #A26544",
"_  c #A56B46",
"`  c #A96D47",
"'  c #A1664B",
"]  c #A66B4B",
"[  c #A6754A",
"{  c #AD744B",
"}  c #AB7C4C",
"|  c #B1764B",
" . c #B37B4C",
".. c #B87F4C",
"X. c #A66D53",
"o. c #AC7355",
"O. c #A87858",
"+. c #B37D56",
"@. c #937662",
"#. c #957A66",
"$. c #977C67",
"%. c #9A7E6A",
"&. c #A87D64",
"*. c #AE814F",
"=. c #B8834E",
"-. c #BB844E",
";. c #AB835B",
":. c #B58554",
">. c #BC8651",
",. c #BE8850",
"<. c #B5845D",
"1. c #9B806B",
"2. c #AE8B66",
"3. c #A8866A",
"4. c #AC846A",
"5. c #B78968",
"6. c #AB966F",
"7. c #B79569",
"8. c #A68971",
"9. c #AB8B72",
"0. c #B78D72",
"q. c #B69777",
"w. c #BC9175",
"e. c #BB9B72",
"r. c #BD9A7E",
"t. c #BEA276",
"y. c #C58E52",
"u. c #C18D5A",
"i. c #C79054",
"p. c #C99255",
"a. c #C79358",
"s. c #C89459",
"d. c #CB995E",
"f. c #CC9E64",
"g. c #C79A6A",
"h. c #D09D6F",
"j. c #C69875",
"k. c #C0977B",
"l. c #CFA167",
"z. c #CEA269",
"x. c #D1A56B",
"c. c #D3A96F",
"v. c #D8AB6F",
"b. c #CAA273",
"n. c #C8A777",
"m. c #CBA679",
"M. c #C9AD7F",
"N. c #D3AC73",
"B. c #D1AD7A",
"V. c #D8AF7F",
"C. c #D5B077",
"Z. c #D5B27B",
"A. c #D9B47C",
"S. c #B1988F",
"D. c #B5A891",
"F. c #C29E8C",
"G. c #CCA484",
"H. c #CBAA88",
"J. c #D0A985",
"K. c #D8A987",
"L. c #D3AB8B",
"P. c #CAB182",
"I. c #D7B885",
"U. c #DCBC85",
"Y. c #DEB08D",
"T. c #DCBE89",
"R. c #C8A393",
"E. c #DDB591",
"W. c #D8B796",
"Q. c #D1B09A",
"!. c #E2AD88",
"~. c #E3B68D",
"^. c #E3B591",
"/. c #E4BA93",
"(. c #EABB95",
"). c #E4BE99",
"_. c #E9BE98",
"`. c #F4B792",
"'. c #F6BB95",
"]. c #F8BE97",
"[. c #F6BE99",
"{. c #F8BF98",
"}. c #D6BCA9",
"|. c #CDB7B2",
" X c #E2BBA0",
".X c #DEC38D",
"XX c #DFC590",
"oX c #DAC29E",
"OX c #E0C58E",
"+X c #E1C791",
"@X c #E3CA93",
"#X c #E5C29A",
"$X c #EBC19C",
"%X c #E6CC9A",
"&X c #EACF9C",
"*X c #F5C39D",
"=X c #F9C49D",
"-X c #FAC89F",
";X c #DCC9AA",
":X c #ECC5A1",
">X c #E8C6A8",
",X c #F4C6A1",
"<X c #F9C6A1",
"1X c #F5CAA4",
"2X c #FCCDA4",
"3X c #F6CEA9",
"4X c #FACEA9",
"5X c #EBD2A2",
"6X c #EED5AA",
"7X c #FDD0A7",
"8X c #F6D1AC",
"9X c #FED4AA",
"0X c #FED8AF",
"qX c #E0CFB1",
"wX c #EDD7B7",
"eX c #FCD7B1",
"rX c #F3DCB4",
"tX c #FED9B1",
"yX c #F4DFB9",
"uX c #F5E1BB",
"iX c #F9E3BF",
"pX c #F4E4C3",
"aX c #FAE5C3",
"sX c #FDE8C7",
"dX c #FDEAC9",
/* pixels */
"9X9X9XtXtXtX0X0X0X0X0X9X0X9X0X0X0X0X0X0X9X0X9X0X9X0X9X9X0X9X9X9X7X0X0X9X0XtXtX8X>XtX0X0X9X9X0X9X0X0X9X0X0X9X9X7X9X7X9X7X7X9X9X9X",
"9X9X9X9X9X9XtX0X0X0X9X0X9X0X0X9X9X9X0X9X0X9X0X9X9X7XY.P.J.Y.~.^.L.L.L.>X0X7X7X>XS.}.9X9X9X9X9X9X0X9X9X9X9X9X9X7X7X7X9X2X7X7X9X9X",
"9X2X7X9X9X9X9X9X9X9X0X0X0X0X0X0XtXtX0X0X0X0X9X3X7X:X/ y i I ' ] v t d w.1X1X1X1X:X2X2X7X2X7X9X9X9X9X7X7X9X2X7X9X9X9X9X9X9X9X0X9X",
"7X7X7X9X9X2X9X7X9X9X9X9X9X9X9X9X9X9X9X0X9X0X&X0.&.5.[ R R |  . ._ Y N E / M r.2X2X2X7X2X2X9X9X9X9X9X9X7X7X2X7X7X7X7X2X7X7X9X9X9X",
"3X4X2X7X7X7X7X9X9X9X9X9X9X9X9X7X9X2X9X9X9X).F.G f ) -.p.i.i.p.y.i.-.) N r , ^ L.,X4X4X9X9X9X9X9X9X0X9X9X7X7X7X2X7X2X2X2X7X7X2X7X",
"|.|.9X7X7X7X7X9X7X7X7X9X9X7X7X9X9X9X9X7X2X8.4 N _ y.y.y.i.i.y.y.y.y.y.y.-.,.c j /.9X9X0X0XtXtXtX0XtX0XuX0X0X9X9X7X9X2X2X7X2X7X2X",
"3X4X9X2X7X2X7X2X7X7X7X7X7X7X9X7X4X2X2X_.1.n 9 C ` y.y.y.y.y.i.y.y.y.y.y.y.p.U b  XtX2X,X=X*X'.`.`.`.'.`.'.*X,X1X1X2X9X9X9X7X7X-X",
"9X4X7X9X9X7X9X2X7X7X7X7X7X7X7X7X2X2X2XE.w 3 P S ` y.y.y.i.y.y.i.i.y.y.y.y.y. .o.h.!.*X-X2X2X2X2X-X7X2X2X7X2X2X1X<X*X*X[.2X7X9X9X",
"9X4X9X4X9X7X7X7X7X-X7X2X7X2X2X2X2X2X2X^.c i P S ` y.y.y.i.y.i.y.y.y.i.i.y.y.,.*.h 5.,X2X<X2X-X2X2X2X2X-X-X-X-X2X2X1X2X-X2X-X2X1X",
"9X9X9X4X7X7X7X7X7X7X2X7X7X7X7X7X2X2XL.&.G B P D ` y.y.y.y.y.y.y.i.y.y.y.y.y.i.=.r +.-X2X2X2X2X2X7X7X2X2X2X2X<X-X-X2X-X-X2X2X2X2X",
",X1X3XrXtX0X9X7X7X7X7X7X9X7X9X9X9X9X4.5 C K K K ` y.y.y.y.y.a.p.s.p.s.s.i.s.s.>.7 &.<X2X-X<X2X2X7X7X2X2X2X2X2X-X-X<X2X2X2X2X2X2X",
"[.{.'.'.[.1X3X7X7X9XeX8X8X7X4X3X4X1X#.@ B D P K D T -.i.i.y.f.U.U.U..XU..XA..XM.P j.2X-X2X2X2X2X7X7X2X2X2X2X2X2X2X2X2X2X2X2X2X2X",
"2X<X-X{.`.`.].].`.].].*X*X{.{.=X=X*X/ o B P D D D D ` .. .>.f..X+X+XXX5X6X6X6XXX' j.2X2X2X2X2X2X2X2X9X7X9X7X2X2X2X2X2X2X2X2X2X2X",
"2X4X2X2X7X-X-X-X-X-X-X-X-X-X-X2X2X2X@.o N K K S D P P S L =.x.OX+X+XXXrXsXsXsXwX' j.<X2X2X2X2X2X2X2X2X7X7X9X7X2X2X4X2X2X2X2X2X2X",
"2X7X7X2X7X7X7X7X7X7X2X2X2X7X2X7X2X9X#.o B P D 9 B ..) S P g..X+X+X@X@XyXdXsXdXqXf 5.2X2X4X4X7X2X9X2X2X2X2X9X4X2X2X,XW.2X7X2X2X2X",
"9X9X9X2X9X9X7X7X7X7X7X7X7X7X7X7X9X4X#.+ 9 N p 1 A h.` P { B.+X+XU.N.b.r.D.wXrXoXy &.2X<X2X2X2X9X7X9X9X9X9X9X4X4X1XS.D.2X2X2X2X2X",
"0X9X9X7X7X7X9X9X9X9X7X7X7X9X7X9X7X7X1.% < 1 1 : Q I.o._ a.A.+XXXz.>.W 2 0 I.@XP.t 4.2X2X2X7X2X7X2X2X2X9X2X4X2X7X2XR.:X2X7X2X2X7X",
"7X7X9X9X9X9X9X9X9X7X7X7X2X7X9X7X7X7XW.9.d 1 : + q o.P O.A..X+X+Xl.g.W.Q q .X+XM.t 4.9X2X7X7X2X7X7X7X2X9X9X2X2X2X7X2X7X9X9X7X9X9X",
"0X0X9X9X9X9X9X9X9X9X9X9X7X9X7X7X7X9X7X/.g < : @ = i C } A.A.I..XN.Z.pX8.U %X5XW.y 4.2X2X7X7X2X2X7X9X9X9X9X9X9X2X7X9X2X9X9X2X2X7X",
"9X9X9X9X9X9X0X9X9X9X9X9X0X9X0X0X0X9X8XXXj - 1 1 * o p ` i.y.l..XOX%XpXZ.z.uXpXqXy 4.9X2X7X>X;X2X2X2X2X2X9X2X9X9X0X9X9X9X9X9X9X9X",
"9X9X9X9X0X9X9X7X1X1X1X1X1X,X[.[.{.{.'.^.0.n @ + @ ; T ,.y.y.p.f.U.@X5XT..XiXsX;Xy 4.4X4X7X7X7X7X2X2X2X9X2X4X2X9X9X0X9X9X9X9X9X9X",
"9X7X3X-X=X*X-X-X<X=X2X<X2X2X2X7X9X2X2X2X2Xq.j o @ 3 F  ...y.i.y.c.U.+X+X@XuXuXoXq 4.2X7X7X7X7X2X7X2X2X2X7X7X9X9X9X9X9X9X9X9X9X9X",
"2X2X7X2X7X2X7X7X2X2X2X2X9X9X9X9X9X9X9X7X4X,XL.w @ < 1 i P ..i.i.p.f..X+XXXXXXXP.4 $.7X2X2X7X7X7X9X9X2X9X9X2X9X9X9X9X9X7X9X7X9X7X",
"2X2X2X7X2X2X2X2X9X2X2X2X2X4X9X7X2X2X2X7X2X1X(.l g 2.[ A i P ` ` ` +.f.U..Xc.1.M $.L.9X0X9X9X9X7X2X7X2X9X9X9X9X9X7X9X9X9X2X9X7X7X",
"7X7X7X2X7X7X7X7X7X7X7X7X7X9X7X7X9X4X9X2X7X*XK./ 4.&XA.<.c Y P D C D } 7.7.*.h x A.-X9X0X9X9X0X9X7X7X7X7X7X7X7X7X9X9X2X7X2X2X2X2X",
"2X7X7X8X7X9X7X9X7X9X9X9X9X9X9X9X9X9X9X9X2XK.o.}.yXaXiX6XI.f. .D 9 1 3 $ O $ @.T.=X&X-X-X9X0X9X7X7X7X7X2X7X9X7X9X7X2X2X2X2X2X2X9X",
"7X9X7X7X9X7X9X9X9X7X9X9X9X9X9X9X0X9X9X9X2X/.n.6XsXsXsXiX6XT.m.g.2.O.Y 2 & @.H.7X7X7X7X-X-X3X0X0X9X2X7X2X-X2X2X2X7X2X2X2X2X2X2X2X",
"7X9X9X9X9X9X7X7X7X7X7X9X9X9X9X9X9X2X2X2X^.+X%XuXiXiXiXaXdX5X+X@X@XOXf.h k ).9X9X9X9X7X9X7X-X-X7X0X0X9X7X2X7X7X-X2X2X2X2X2X2X2X2X",
"9X9X9X9X7X9X7X7X7X7X7X7X7X7X7X7X2X2X2X_.J %.+X@X@X%X@X6XdX5XOX+X+X.X.X;.X.$X9X0X9X9X9X9X9X7X2X-X2X2X7X7X9X9X9X9X7X2X2X7X2X2X2X9X",
"9X9X9X9X9X9X7X7X7X7X7X2X7X2X7X2X2X9X7X_.I ;.+XOX+X+X+X.XT.XX+X+X+X+X+Xm.0.3.Y.9X9X0X0X9X9X9X9X7X2X2X-X-X-X2X&X7X2X7X7X9X9X9X9X2X",
"-X7X9X9X9X9X7X7X7X7X2X7X7X2X2X2X2X9X9X$Xo.5.OXOX+X+X+XC.-.m..XT.+X+X+X@XM.y 2.9X9X9X0X9X9X0X9X0X0X9X9X7X2X2X2X2X2X2X2X-X2X2X1X2X",
"9X7X7X9X7X7X7X7X2X7X9X7X7X7X7X9X0X9X9X*Xo.o.d.~.+X+X%Xt.i Y +.d.A.@X@X@XM.y 0.9X9X0X9X9X9X0X9X9X0X0X9X9X9X9X7X7X7X7X7X7X7X7X9X9X",
"7X9X7X4X9X7X2X2X7X7X7X9X9X9X9X9X9X0XeX_.W R s.A.OXOXm.! * < s { 7.g.c.j.;.2 8.9X9X9X0X9X9X9X0X0X9X9X9X9X9X0X0X0X9X9X9X9X9X9X0X9X",
"7X2X7X2X2X2X7X2X7X7X9X0X9X0X0XtX9X4X,X!.c A d.A.OX.Xo.r     - D D _ y._ p + %.4X9X9X9X9X9X9X9X9X9X0X0X9X9X9X9X9X0X9X0X9X0X9X0X0X",
">X2X2X2X2X9X9X9X2X9X7X0X0X0X1X-X*X[.*X~.d ! OXOX+X.XU ;   @ t ..-.-.y.A < o %.9X9X9X9X9X9X9X9X9X9X9X9X0X0X9X9X9X9X9X9X9X9X9X9X9X",
"4X4X9X7X2X7X2X9X9X0XeX9X2X*X=X=X=X2X2X(.J O.@X+XI.N.u @ @ t R l.x.x.f.R 3 o 1.4X2X4X4X9X9X9X9X9X9X7X7X9X2X0X9X0X7X9X9X0X9X9X9X9X",
"9X9X2X9X9X9X9X0X0X3X,X-X-X-X-X2X2X2X2X[.X.5.@X+XZ.-., o 1 R f.OXOXOXOX2.f o $.<X4X9X2X9X4X9X9X9X9X9X9X9X2X7X2X X9X9X9X7X9X9X9X9X",
"9XeX9XtX9X0X4X1X=X=X-X2X2X2X2X2X4X2X2X).b / @X+Xb.T $ . 1 C <.OX+XU.f.{ N + $.2X=X=X1X2X9X9X9X9X9X7X9X9X9X9X9X9X9X9X7X9X9X7X9X2X",
"2X2X2X1X2X<X=X-X2X2X2X1X7X7X7X7X7X7XW.8.U ;.@X5XJ.T r ; 1 s [ A.A.N.i.T f n S.2X2X7X<X=X=X<X2X2X7X7X9X9X9X9X4X9X9X7X9X9X9X9X7X7X",
"-X<X<X2X<X2X2X2X2X9X2X9X9X9X9X7X9X9X1.> } c.@XiX#Xy._ N 1 N ] i.p.y.a.A b Y.-X2X7X9X2X<X=X'.'.*X-X7X-X2X2X9X7X9X7X9X7X7X7X7X7X7X",
"2X2X2X2X2X9X2X9X7X7X9X9X7X2X9X9X7X7X#.# e.+XuXaX6XC.u.A @ 1 U A.A.N.y.Z v $X7X7X7X9X7X7X2X2X-X=X'.`.[.<X<X2X2X2X7X7X2X7X7X4X4X4X",
"9X7X9X9X9X9X9X9X9X9X2X7X9X9X7X9X7X7X1.> M.6XsXdXrX.Xv.^ X * h C..XU.l.b c ).0X0X9X9X7X2X2X7X2X-X<X-X-X-X[.*X=X-X-X-X=X-X,X=X*X{.",
"7X9X7X0X9X7X2X7X7X2X9X9X7X9X7X9X9X7X3.t M.6XaXdXuX.XXX8.X = s y.A.OX.Xm w E.2X2X9X9X9X7X2X7X2X2X2X2X2X2X2X2X2X-X-X-X=X=X{.=X{.{.",
"9X9X2X2X7X7X9X9X4X2X2X2X7X9X9X9X8X9X1.4 M.OXA.uXoX<.z.[ * t F y.d.7.^ 4 w Y.-X<X2X2X2X9X9X9X7X7X2X2X7X2X7X7X7X2X7X7X2X2X2X2X2X4X",
"2X9X9X9X9X9X9X9X4X2X2X2X2X2X2X4X4X9X#.# t.c.i.5XL.B { _ a W +.d.p.{ 7 * e ^.<X-X-X2X7X7X9X9X9X9X9X7X2X9X7X7X2X7X7X7X-X2X2X2X4X9X",
"0X9X0X0XtX0X9X9XeX4X4X-X-X-X2X2X2X2X@.$ *.i.a.OX2.6 C _ ,.N..X.Xl.=.P t v /.-X2X2X2X2X2X7X9X0X9X9X9X9X2X7X7X7X7X7X7X9X9X0X9X7X2X",
"9X9X9X<X{.=X{.[.].'.{.2X2X2X<X=X=X-XG.@.U T | I.e.N i E N..X+X+Xl...D 6 k ^.2X2X-X2X2X2X2X7X7X7X9X9X9X9X7X9X9X9X7X9X9X9X9X9X0X9X",
"9X1X{.{.{.-X=X=X{.{.<X=X{.{.<X2X<X-X<X^.! N G e.2.C 3 m XX.X+XXXf. .P < w E.-X-X2X2X2X2X2X7X7X7X9X9X9X9X9X9X7X9X9X9X0X0X9X9X9X9X",
"-X{.{.{.=X].=X=X=X=X=X=X=X=X=X].{.<X2X=X(.@.# # = 1 . z .XXXXX+X+.K K < 4 Y.{.{.<X2X2X4X9X9X9X2X7X9X9X9X9X9X9X9X9X0X0X9X9X9X0X9X",
"{.{.{.{.=X=X=X-X-X-X-X-X=X=X=X=X=X{.].<X<XG.@.@.x - r ( .X+XXX+X&.K P 8 l !.=X=X<X4X9X9XtX9X0X0X0X0X0X9X0X9X9X0X0X9X9X9X0X9X9X9X",
"{.=X<X-X-X-X-X-X-X7X-X2X7X2X-X-X=X].{.].'.=X<X<X3.# [ v.OX+X.XT.+.K P p H (.<X4X<X{.{.{.{.{.].=X*X2X2X0XtXtX0X9X9X0X9X0X9X9X0X9X",
"=X2X2X9X9X7X7X7X7X2X7X7X7X7X2X2X2X2X-X-X<X=X<X<Xw.r e..X+X+XI.d.V 8 K K o. X*X=X<X-X=X-X-X<X=X-X-X=X=X*X'.[.9X4X0X0X9X9X0X0X9X0X",
"2X2X2X7X7X2X7X9X9X9X7X7X7X9X7X7X2X2X2X2X2X-X-X<Xw.t t.XXXX@XB. .G N S D ' &.&.3.(.2X2X2X2X-X-X-X-X2X2X2X-X=X].'.'.-X7X9X0X9X9X9X",
"2X9X9X9X9X9X9X9X9X9X7X9X7X7X9X7X7X9X2X7X2X2X-X-Xw.d n.@XXXXXb.S K P K D C t , w G.=X2X2X2X2X2X2X2X2X9X9X7X2X2X2X=X*X*X=X=X=X-X7X",
"9X7X9X9X9X9X9X9X9X9X9X9X0X9X7X9X9X9X9X2X2X7X4X1XV.=.I.+X+XN.} i B K K P P  .} [ H w.9X2X2X2X2X2X2X9X9X2X7X9X7X7X2X2X-X-X-X=X=X*X",
"9X0X9X9X9X0X0X9X0X9X9X9X0X9X0X9X7X9X9X9X9X7X,XG.g.c.U.T.Z.d.[ 1 9 B K S T y.y.=.8 &.2X2X2X2X2X-X2X2X2X9X7X7X2X2X2X2X7X-X-X-X-X-X",
"9X0X9X0X7X0X0X9X0X0X9X0X9X9X0X9X0X0X9X9X9X9X$XH ^ .X+XA.a.d.} r 6 7 C K T =.>.} 6 4.2X2X2X=X2X2X2X2X9X9X9X7X7X2X2X2X2X-X-X-X-X-X",
"0X9X9X9X0X9X9X0X9X9X0X9X9X0X9X9X9X9X9X9X0X9X$Xb J l.I.%X6X6X>XQ.o.9 - 1 t a q , + #.2X2X2X2X2X2X2X7X2X2X9X2X9X7X2X2X7X4X2X2X<X2X",
"9X0X9X9X9X9X9X4X9X9X9X7X7X9X0X9X9XeX9X0X0X9X#Xc a ..Z.5XsXsXdXsXG.E $ l / ~ M n x r.7X7X2X2X7X2X2X7X2X2X2X2X2X2X,XR.1X2X2X2X2X2X",
"9X9X9X7X9X7X9X9X9X9X9X9X7X7X7X7X2X2X2X9X9X0X).z q P n.5XpXsXaXaX5Xk.t w.,X&X1X$X&X-X9X9X7X7X9X7X9X9X9X9X2X7X7X2X2X2X2X2X7X2X2X2X",
"9X7X7X7X2X7X9X9X7X2X2X7X7X7X-X7X<X<X<X<X1X7X3XG.Q 4 ;.A.5X5X5X5XZ.:.r w.4X2X7X9X9X9X9X9X9X9X9X9X9X9X9X9X9X7X9X0X9X9X9X4X9X9X4X9X",
"7X7X9X7X9X0X2X2X2X-X2X2X7X-X-X-X<X{.=X=X-X-X=X2XG.x U O.6.q.t.e.;.Y 5 0.9X7X7X9X9X9X0X9X9X0X9X9X9X9X0X0XtXtX0X2X<X<X<X=X=X=X<X2X",
"9X9X9X0X9X2X2X2X-X2X-X2X-X-X-X-X-XL.R.=X*X=X=X].'.J.z % & 5 t t t 3 & 9.4X4X9X9X9X0X0X9X0X0XtXtX0X0X0X7X2X<X=X-X<X-X=X=X{.{.].].",
"9X0X9X7X9X9X7X2X2X-X-X2X2X2X2X-X9X2X2X2X-X-X=X=X=X$Xr.8.3.w.k.k.r.r.9.E.9X9X9X0X0X0X9X0X9X7X9X7X2X2X-X-X-X=X=X<X2X<X<X<X<X{.{.]."
};
