/* XPM */
static char *_3419a74b4ad43f4ae4720503125dd915lcQr5U9snQLs067[] = {
/* columns rows colors chars-per-pixel */
"64 64 233 2 ",
"   c #0B0402",
".  c #1A0801",
"X  c #1B1406",
"o  c #1C1711",
"O  c #290C03",
"+  c #320E02",
"@  c #291707",
"#  c #341203",
"$  c #391502",
"%  c #3D1904",
"&  c #371809",
"*  c #3D1A0A",
"=  c #2D1E13",
"-  c #3B220C",
";  c #302F15",
":  c #3D3115",
">  c #2F2D26",
",  c #431C04",
"<  c #431D0A",
"1  c #5A1902",
"2  c #691B01",
"3  c #721F00",
"4  c #452204",
"5  c #492504",
"6  c #4D2907",
"7  c #44210B",
"8  c #4C270C",
"9  c #4E2A0C",
"0  c #552D09",
"q  c #522D0C",
"w  c #4F320A",
"e  c #5A3506",
"r  c #55300C",
"t  c #59330E",
"y  c #442312",
"u  c #492613",
"i  c #472C16",
"p  c #4D2D12",
"a  c #522D12",
"s  c #483719",
"d  c #5A3515",
"f  c #772602",
"g  c #623D0C",
"h  c #653417",
"j  c #623A14",
"k  c #643D1A",
"l  c #733310",
"z  c #4D392A",
"x  c #5C3B23",
"c  c #613F26",
"v  c #50471B",
"b  c #6A4309",
"n  c #754D0A",
"m  c #7B530E",
"M  c #654218",
"N  c #7A461A",
"B  c #7C5412",
"V  c #795615",
"C  c #7B661B",
"Z  c #494523",
"A  c #4D4B25",
"S  c #584724",
"D  c #4F522D",
"F  c #56582B",
"G  c #664826",
"H  c #6C4926",
"J  c #64442A",
"K  c #6C4B2B",
"L  c #714E2C",
"P  c #73502E",
"I  c #7A5929",
"U  c #6B4D32",
"Y  c #755434",
"T  c #7A5A37",
"R  c #785738",
"E  c #5B6B2E",
"W  c #586431",
"Q  c #5C6A32",
"!  c #796E23",
"~  c #746C2F",
"^  c #7B6438",
"/  c #65793A",
"(  c #3C454C",
")  c #575153",
"_  c #6E5A4D",
"`  c #566E56",
"'  c #7A7946",
"]  c #70734B",
"[  c #4F5D65",
"{  c #576868",
"}  c #5E726A",
"|  c #5D6C78",
" . c #696C71",
".. c #63727B",
"X. c #842A01",
"o. c #8B2C00",
"O. c #853801",
"+. c #943200",
"@. c #9B3900",
"#. c #8A4E0B",
"$. c #885E16",
"%. c #A94900",
"&. c #A95800",
"*. c #B45600",
"=. c #896318",
"-. c #94681A",
";. c #9A6D1D",
":. c #BE6500",
">. c #865827",
",. c #8B6826",
"<. c #946C28",
"1. c #9C7225",
"2. c #83653D",
"3. c #8B6739",
"4. c #866A3D",
"5. c #8C703E",
"6. c #997835",
"7. c #A4782A",
"8. c #A87E32",
"9. c #C16D01",
"0. c #886945",
"q. c #8C7342",
"w. c #847A4C",
"e. c #967948",
"r. c #8C7351",
"t. c #A37E4A",
"y. c #768639",
"u. c #6C8643",
"i. c #778946",
"p. c #6E9A4C",
"a. c #7C9445",
"s. c #7A9B49",
"d. c #66865B",
"f. c #6E945A",
"g. c #769956",
"h. c #6EA64A",
"j. c #78A34B",
"k. c #73AF49",
"l. c #75B14B",
"z. c #79B34E",
"x. c #7EB94F",
"c. c #7CA352",
"v. c #79A858",
"b. c #7CB453",
"n. c #7FB555",
"m. c #6A8567",
"M. c #759665",
"N. c #718A76",
"B. c #7EAB60",
"V. c #829139",
"C. c #A98238",
"Z. c #AF853A",
"A. c #B2883E",
"S. c #81894E",
"D. c #8D8F56",
"F. c #839853",
"G. c #AA8748",
"H. c #B58D44",
"J. c #B48D4B",
"K. c #B0904D",
"L. c #BB934C",
"P. c #A58C51",
"I. c #B18E51",
"U. c #AA9555",
"Y. c #B99958",
"T. c #83A94D",
"R. c #83AC53",
"E. c #81B557",
"W. c #83BC54",
"Q. c #8EB952",
"!. c #8BBB56",
"~. c #82B759",
"^. c #84B95B",
"/. c #89BE5D",
"(. c #918B6B",
"). c #999763",
"_. c #AF9C67",
"`. c #88B963",
"'. c #8ABB63",
"]. c #8EBD69",
"[. c #94B967",
"{. c #90BE6B",
"}. c #92AB72",
"|. c #B4A16D",
" X c #A5A270",
".X c #A9A674",
"XX c #B7AA77",
"oX c #B6B27D",
"OX c #C19A55",
"+X c #C39E5A",
"@X c #C6A15E",
"#X c #C2A76A",
"$X c #C6AC72",
"%X c #CCB47B",
"&X c #8FC75A",
"*X c #8CC35C",
"=X c #90C75E",
"-X c #92C95C",
";X c #8EC161",
":X c #8FC068",
">X c #91C464",
",X c #94CB61",
"<X c #99CD67",
"1X c #93C36A",
"2X c #97C76A",
"3X c #9ACD6B",
"4X c #9DD06C",
"5X c #97C271",
"6X c #9DCC72",
"7X c #9FD170",
"8X c #A0CF74",
"9X c #A3D275",
"0X c #A4D377",
"qX c #A5D379",
"wX c #6A7A86",
"eX c #727D89",
"rX c #768792",
"tX c #778896",
"yX c #A59D8D",
"uX c #BAB683",
"iX c #B4B39B",
"pX c #899AA8",
"aX c #92A4B2",
"sX c #95A7B3",
"dX c #98AAB7",
"fX c #CFB681",
"gX c #CCC794",
"hX c #DAD7AE",
"jX c #E0DDAC",
"kX c #A6B8C7",
"lX c #B0C4D3",
"zX c #EEECD1",
"xX c #EBEAE3",
/* pixels */
"-X-X-X*X^.^.^.=X,X,X4X0XqXqXqXqX0X>Xz.k.l.;X9XqX8X1X{.].'.^.^.^.,X,X-XW.l.k.l.=X,X,X*X^.~.~.^.^.^.^.-X-X-X/.^.^.^.^.^.^.*X-X-X-X",
"-X-X-X*X^.^.^.=X,X,X4X0XqXqXqXqX0X>Xz.k.l.;X9XqX8X1X{.].'.^.^.^.,X,X-XW.l.k.l.=X,X,X*X^.~.~.^.^.^.^.-X-X-X/.^.^.^.^.^.^.*X-X-X-X",
"-X-X-X*X^.^.^.=X,X,X4X0XqXqX0X0X9X>Xz.k.z.;X9X0X8X1X{.{.'.^.^.^.,X,X-XW.l.l.z.=X,X,X*X^.~.~.^.^.^.^.-X-X-X/.^.^.^.^.^.^.*X-X-X-X",
"-X-X-X*X^.^.^.=X-X-X3X0XqX0X4X3X3X>Xn.b.b.*X3X4X3X6X6X6X:X^.^.^.,X,X,X*XW.W.W.-X-X-X&X^.~.~.^.^.^.'.3X3X3X;X^.^.^.*X*X*X&X-X-X-X",
"-X-X-X*X'.'.'.-X-X-X<X0XqX0X<X-X-X&X^.~.^.*X,X,X<X9XqX9X1X^.^.^.-X,X,X-X=X=X=X-X-X-X*X^.^.^.^.^.^.:X9X0X9X1X^.^.^.&X-X-X-X-X-X-X",
"-X-X-X*X'.'.'.-X-X-X<X0XqX0X,X&X!.&X^.^.^.*X,X,X<X0XqX0X1X^.^.^.-X,X,X-X=X!.-X-X-X-X*X^.^.^.^.^.^.>X9XqX9X1X^.^.^.-X-X-X-X-X-X-X",
"-X-X-X*X'.'.'.&X-X-X,X9X8X8X>XF.T.=X^.^.^.*X,X,X,X6X9X6X1X^.^.^.=X,X,X&X!.i.!.=X-X&X*X^.^.^.^.^.^.>X9X9X9X>X^.^./.-X-X-X-X-X-X-X",
"-X-X-X*X'.'.'.^.^.^.^./.^.^.F.S.{.3X].].'.'.^.^.^.^.^.^.^.'.'.'.'.'.'.^.^.c.' ^.^.^./.&X-X-X,X,X,X,X-X-X-X-X-X-X-X-X-X-X*X^.^.^.",
"-X-X-X*X'.'.'.^.^.^.^.^.^.c.' D.F.6X1X{.].'.^.^.^.^.^.^.^.'.'.'.'.'.'.^.^.c./ c.^.^./.-X-X-X,X,X,X,X-X-X-X-X-X-X-X-X-X-X*X^.^.^.",
"-X-X&X*X'.'.'.^.^.^.^.^.E.i.D.D.F.6X1X{.]./ W W W W W W u.'.'.'.'.'.'.^.~.c.' }.c.^./.=X-X-X,X,X,X,X-X-X-X-X-X-X-X-X-X-X*X^.^.^.",
"W.W.W.^.^.^.^.^.^.^.'.'.F.). X X).[.] F F - $ $ % 7 7 7 s F F F c.^.^.E.l.i..XiXa.*X*X*X*X*X*X*X*X>X3X3X3X3X3X3X<X-X-X-X*X^.^.^.",
"l.l.l.b.~.^.^.^.^.^.:X{.' oX XuX XF s d Y 7 + + # < q t t a Y ^ S Z D j.h.' uXhX.XR.*X^.^.^.^.^.^.>X9X0X0XqX0XM.d./.-X-X*X^.^.^.",
"k.k.k.b.~.^.^.^.^.^.>X5X' oX XuXhX(.d L 2.q.q.q.q.Y + % t k T P.e.2.& : A  XuXzXiXs.*X^.^.^.^.^.^.>X9XqXqXqXM...[ ^.-X-X*X^.^.^.",
"l.l.l.b.^.^.^.~.~.^.'.S..XoX XuXzXxX(.G Y 2.4.q.U.U.e.L % t k T 0.P.5.u ^ U oXjX.Xs.*X^.^.^.^.^.^.>X8X9X8XM...pX{ ~.-X=X*X^.^.^.",
"*X*X*X/.'.].'.n.z.z.b.' oXoX XuXjXzXhXw.M P R T 2.q.U.U.K < t k L 2.P.q.S ^ _ gX Xs.*X^.^.^.1X6X6X3X;X/.f...rXpX} B.'.'.*X&X&X&X",
"-X-X-X>X{.{.'.b.k.l.z.i..XuXoX.XgXjXzX(.M k P R R T q.U.P.G 7 t k P 2.P.5.d ^ r.).s.*X^.^.^.6XqXqX6X^.f.{ rXpX..M.'.'.'.*X-X-X-X",
"-X-X-X>X{.{.'.b.k.l.b.R.S.uXoX XuXhXjXD.M j k M Y Y T T e.P.G 7 t k P 4.e.u P ^ S a.*X^.^.^.6X0X9X6X^.d.| pXaX} '.'.'.'.*X-X-X-X",
"-X-X-X>X>X>X;XW.x.x.W.E.' uXoX X XuXgX' M j j j j M Y Y Y Y q.x 7 t k T P.5.y 4.G Q W.~.~.^.1X3X3X1Xf.{ rXaX..M.'.;X;X;X*X*X*X*X",
"-X-X-X-X-X-X-X&X&X&X-X!.i..XuXoX X Xw.d r j j j j j j j j j H q.y 7 j L 2.4.* k i E b.~.~.~.^.^.^.~.d.| pXkX..g.^.,X,X,X*X^.^.^.",
"-X-X-X-X-X-X-X-X-X-X-X*Xy.~ .XoX.X).^ w 5 r t j j j j j j j j j < % d k L H 9 * a A h.~.~.~.^.^.^.g.[ tXdXkXN.v.^.,X,X,X*X^.^.^.",
"-X-X-X-X-X-X-X-X-X-X-XT.& 9 ~ ).).R 7 4 5 5 5 r t t t t t t t t q + q t j j 9 $ k y / ~.~.~.^.^.n.d...aXlXrXf.^.^.,X,X,X*X^.^.^.",
"4X4X3X<X-X-X-X3X3X3X,Xc.& 5 r G G d i * $ $ 4 5 5 5 4 $ $ $ $ $ # + 4 5 r r 7 + % + Z c.^.^.1X{.m.| pXkXaXN.v.*X*X,X,X,X-X*X*X*X",
"0X0X0X3X-X-X,X9X0X9X3Xc.& 5 6 j j H R x d a $ # # # < t t t t t t + + # # # + % t 9 F c.'.'.6X{.[ tXaXkXtXf.-X-X-X,X,X,X,X,X,X,X",
"qXqX0X3X-X-X,X9XqX0X3Xc.& 5 5 r j H R R R R c x x p < ,.6.6.6.6.6.>.I I I I I 5.Y.3.a.'.'.'.5Xm...tXkXdXN.^.-X-X-X,X,X,X,X,X,X,X",
"9X9X9X,X*X*X*X3X9X8X2Xc.& 5 5 q j k L R R R R R K u V <.G.Y.#XK.<.s U.#X#X#X#Xr.r.e.a.'.'.'.].{ rXdXlXpXd.-X-X-X-X=X=X=X=X=X=X=X",
"-X-X-XW.b.b.W.-X-X-X-XT.& 5 5 q j j L R R R R R J % ,.C.Y.$X%X6.:   z fX%X$Xq.o ] e.a.^.~.n.} wXtXkXdXN./.-X,X,X=X/.^.^.^.^.^.^.",
"-X-X-XW.b.b.b.&X-X-X-XR.- 4 5 q j j H R R R R R J * ,.G.Y.%X%X6.yX> o fX%X#X_. .] e.a.~.~.v.{ rXdXkXm./.-X-X,X,X=X^.^.^.^.^.^.^.",
"-X-X-XW.b.b.n.&X-X-X-X&Xi.# 5 5 r j k L R R R R K 7 ,.C.Y.%X%X6.>   o |.%X#X^ o ] e.a.^.n.` wXtXkXdXd.-X-X-X,X,X=X^.^.^.^.^.^.^.",
"-X-X-X&X/./.*X-X-X-X&X*Xs.# 5 5 0 j j j L R R R R x 8 <.C.Y.%XK.= . o |.%X#XI   0.e.a.^.v.{ tXdXkX} ^.*X*X*X*X*X*X1X1X1X'.^.^.^.",
"-X-X-X-X,X,X,X-X-X-X*X^.s.: 4 5 q d j j j Y R R R J 8 V <.C.Y.K.= . o |.%X$X^   0.e.a.~.` wXdXkXsX} ^.^.^.^.^.^./.6X0X9X1X^.^.^.",
"-X-X-X-X,X,X,X-X-X-X*X^.~.p.i , 5 q d j j K R R R R J p V <.C.G.s O z XX%X%XP.= R q.a.v.{ tXkXkX{ '.^.^.^.^.^.^.^.9XqX0X1X^.^.^.",
"-X-X-X-X,X,X,X-X-X-X*X^.^.^.s.s , 5 q d j j H L R R R J a M ,.<.>.* q.P.|.|.#X^ J T ] [ wXdXkXaXm.'.^.^.^.^.^.^.^.6X9X8X1X/.^.^.",
"^.^.^.*X-X-X-X9X9X9X2X^.^.R.V.~ 5 , 5 q d j j k L R R R c u j f O.O.O.O.>.>.>.#.O.l D [ eXdXpXd.k.b.~.^.^.^.^.^.^.'.'.'.*X&X-X-X",
"^.^.^.*X-X-X-X9XqXqX3X^.R.! $.=.,.a , 5 q d j j k H H H h h l @.*.:.9.*.O.f 2 %.:.O.z wXpXaX{ h.k.z.~.^.^.^.^.^.^.'.'.'.*X-X-X-X",
"^.^.^.*X-X-X-X9XqX0X3XE.! n $.-.H.t.a # 4 q d j j j j h 1 2 +.+.%.%.*.%.*.o.f *.%.X.) wXaXrXd.k.l.z.~.^.^.^.^.^.^.'.'.'.*X-X-X-X",
"'.'.'./.*X*X&X8XqX0X3X!.T.V.B 8.OXL.<.3.u # 6 q 0 j j j 0 1 2 2 +.+.@.o.f f #.X.X.x  .pXwXM.^.W.W.W.^.^.^.^.^.^.^.*X*X*X*X*X*X*X",
"].].].'.^.^./.6X0X9X3X-XQ.=.1.L.A.L.OX@XG.q.< # 5 6 0 j 0 1 3 +.f 2 2 f &.&.%.f 1 ) eXaX{ v.&X-X-X&X^.^.^.'.'.'.'.=X-X-X*X'.'.'.",
"{.{.].'.^.^.^.6XqX0X3XQ.! -.8.Z.H.+X@XH.OX+XG.5.* # % 5 5 1 f +.@.%.&.&.*.:.*.%.2 _ rX| f.~.&X,X,X=X^.^.^.'.'.'.'.-X-X-X*X'.'.'.",
"1X1X1X'.^.^./.6X9X9X<XT.B ;.7.7.H.L.Z.C.Z.H.+X+XG.G.3.* * * < f +.@.%.%.@.%.@.X.U eXpX{ v.^.&X,X,X=X/.^.^.'.'.'.'.-X-X-X*X'.'.'.",
"9X9X9X3X,X>X>X/.^.^.T.C =.=.-.7.C.8.8.8.C.L.+XOXH.@XOXI.I.I.I.N X.o.+.+.+.+.o.3 z tX..f.~.^.*X-X-X-X,X,X,X3X8X9X6X-X-X-X*X^.^.^.",
"qXqX0X4X,X,X,X^.^.E.! C ! y.$.8.1.-.-.<.<.<.8.Z.OX@XL.H.#X+XH.L.N l X.X.X.f 2 ,   ( [ g.^.^.*X-X-X-X,X,X,X4X0XqX9X-X-X-X*X^.~.^.",
"0X0X9X3X,X,X,X^.^.^.E.E.s.B ;.1.B b B 8 $ < V 7.Z.L.Z.L.+XH.L.@XZ.J.H l l l V c @   > ` b.^.*X-X-X-X,X,X,X3X0X0X9X-X-X-X*X^.^.^.",
"1X1X1X,X,X,X,X'.'.'.^.~.j.B -.m 5 0 5 q k T p B ;.8.H.+XH.Z.OXOXH.+XOX@X+XG.<.,.L @ ; ; p.^.>X3X3X3X>X>X>X2X3X4X3X-X-X-X*X^.^.^.",
"^.^.^.*X,X,X,X:X].].'.^.T.! =.v O q d 6 K e.4.a =.7.C.H.Z.L.L.Z.OXL.8.H.G.B =.$.x Q ~.^.^.^.6X9X0X6X'.'.'.>X,X,X,X-X-X-X*X'.'.'.",
"^.^.^.*X,X,X,X1X{.].'.^.^.T.! / < j q 5 H T P.T g $.1.7.Z.A.7.7.H.7.=.;.1.n b b % Q ~.^.^.^.6XqXqX8X'.'.'.>X,X,X,X-X-X-X*X'.'.'.",
"^.^.^.*X-X-X,X1X1X1X'.^.^.R.V./ < t 6 q K T P.Y % m -.-.;.7.1.;.1.$.m 1.$.b j 0 s p.^.^.^.'.6X9X9X6X'.'.'.>X,X,X,X-X-X=X*X/.'.'.",
"^.^.~.b.b.z.W.6X8X8X<X&X&X&X/./ < d 6 t Y R G J # g B $.;.;.=.$.1.m e B b * * s s.*X>X6X6X6X1X'.'.*X=X-X-X-X,X,X,X'.'./.W.b.z.z.",
"^.^.~.b.l.k.z.6XqX0X3X-X-X=X^.c.A 9 q 6 K u # * * - @ w =.$.g b B - X b V u.u.j.-X-X3X9XqX9X>X^.^./.-X-X-X-X,X,X,X'.'.'.b.l.k.k.",
"^.^.~.b.l.k.z.6X0X9X3X-X-X=X^.u.i < 8 6 d # # * - . . 5 n g u b t * O g 7 F '.-X-X-X3X0XqX9X>X^.^./.-X-X-X-X,X,X,X'.'.'.b.l.k.k.",
"^.^.~.b.z.z.b.1X3X3X1X>X>X;Xu.i k K u # q # + & &   . 5 e 7 u b p & c P Y ^ F &X-X-X3X0XqX9X'.^.~./.-X-X-X<X3X3X<X^.^.~.b.z.z.z.",
"^.^.^.~.~.~.~.^.^.^.'.].{.g.y q t H K K y J q.4.&   . $ $ # * u * c R R R T x E -X-X<X0XqX9X'.^.~.^.,X,X,X4X9X0X6XW.b.b.b.E.E.E.",
"^.^.^.^.^.^.^.^.^.^.'.].{.g.$ j r 6 t H K K R 2.2.O . # O O # # x K L H t k a F -X-X<X0XqX9X*X^.~.^.,X,X,X7XqXqX6XE.b.b.b.~.~.~.",
"^.^.^.^.^.^.^.^.^.^.'.].].g.i t t 6 5 6 6 6 6 j K x + @ X   O q q q q q q r p Q -X-X<X9X9X6X/.~.~.^.,X,X,X3X9X0X6XE.b.b.b.E.E.E.",
"*X*X*X/.'.'.'.^.^.^.^.'.'.'.s.i q q 6 6 6 6 6 6 9 q 8 A / : 8 q q q q a i : F 1X3X3X2X>X>X;Xn.z.z.n.:X1X1X2X<X<X>X^.n.n.b.z.z.z.",
"-X-X-X*X'.'.'.^.^.^.^.^.^.^.6XF.z s p q q q q q q q p Q b.l.F : s s s A n.^.^.6X0X9X1X^.^.^.z.l.l.n.].{.{.>X-X-X&X^.^.~.b.l.k.k.",
"-X-X-X*X'.'.'.^.^.^.^.^.^.^.6XqXqX8X] Z Z Z Z Z Z Z W ~.b.k.k.l.^.'.'.^.~.~.^.6XqX9X1X^.^.~.z.k.k.n.].{.{.>X-X-X&X^.^.~.b.k.k.k.",
"-X-X-X;X'.'.'.^.^.^.^.^.^.^.3X8X8X6X{.].].'.~.~.~.^.^.~.n.z.z.z.'.'.'.^.^.^./.1X6X6X>X^.~.~.z.k.k.b.'.].].>X-X-X&X^.^.~.b.l.l.l.",
"-X-X-X3X9X9X8X1X].].'.^.^.^.^.^.^.^.^.^.^.n.l.l.z.~.^.^.'.'.'.'.,X,X,X,X,X,X&Xb.z.z.b.b.b.b.z.k.k.z.^.^.^.*X-X-X=X^.^.^.~.~.~.~.",
"-X-X-X3X0XqX9X1X{.].'.^.^.^.^.^.^.^.^.^.~.b.k.k.z.~.^.^.'.].{.1X,X,X,X,X,X,X-Xz.k.k.z.b.b.b.z.k.k.z.~.^.^.*X-X-X-X^.^.^.^.^.^.^.",
"-X-X-X3X9X9X8X1X{.].'.^.^.^.^.^.^.^.^.^.^.b.k.k.z.^.^.^.'.].{.1X,X,X,X,X,X,X-Xb.l.l.z.b.b.b.z.l.l.z.~.^.^.*X-X-X-X^.^.^.^.^.^.^.",
"-X-X-X&X*X;X;X>X>X>X/.^.^.^.^.^.^.^.*X*X*Xb.k.k.z.*X*X*X;X>X>X>X;X;X;X>X-X-X-X*X*X*X/.n.b.b.W.W.W.^.'.'.'.1X3X3X,X^.^.^.^.'.'.'.",
"-X-X-XW.z.l.z.&X-X-X*X^.^.^.^.^.^.^.&X-X&Xx.l.k.z.=X,X,X,X,X,X,X'.'.'.*X-X-X-X6X9X9X1X^.~.^.*X&X=X;X].].{.6X9X0X6X^.^.^.'.].].].",
"-X-X-XW.l.k.l.&X-X-X*X^.^.^.^.^.^.^.-X-X&Xx.l.k.z.-X,X,X,X,X,X,X'.'.'.*X-X-X-X9XqX9X1X^.^.^.*X-X-X>X{.{.{.6XqXqX6X^.^.^.'.].{.{.",
"-X-X-XW.l.k.l.&X-X-X*X^.^.^.^.^.^.^.-X-X&Xx.l.k.z.-X,X,X,X,X,X,X'.'.'.*X-X-X-X9XqX9X1X^.^.^.*X-X-X>X{.{.{.6XqXqX6X^.^.^.'.].{.{."
};
