/* XPM */
static char *wall1705314563[] = {
/* columns rows colors chars-per-pixel */
"64 64 125 2 ",
"   c #731C07",
".  c #731C08",
"X  c #7C1F09",
"o  c #7F200A",
"O  c #81210B",
"+  c #82210B",
"@  c #84210B",
"#  c #85220B",
"$  c #8B2509",
"%  c #88240A",
"&  c #8D250D",
"*  c #8E250D",
"=  c #96270E",
"-  c #912808",
";  c #922809",
":  c #962A0A",
">  c #91280F",
",  c #982A0A",
"<  c #9E2C09",
"1  c #9A290F",
"2  c #9E2D0C",
"3  c #962B11",
"4  c #972E15",
"5  c #9C2910",
"6  c #982D12",
"7  c #9B2E12",
"8  c #993013",
"9  c #9A3317",
"0  c #9F381E",
"q  c #A22E0A",
"w  c #A42F0A",
"e  c #A12E0D",
"r  c #A32F0E",
"t  c #A7300A",
"y  c #A5300C",
"u  c #A5300F",
"i  c #AC320F",
"p  c #AE340E",
"a  c #AF340E",
"s  c #B43509",
"d  c #B2350F",
"f  c #B4360F",
"g  c #A42C11",
"h  c #A03114",
"j  c #AB3210",
"k  c #AB3416",
"l  c #AA3516",
"z  c #A1351A",
"x  c #A3361A",
"c  c #A3371B",
"v  c #A63619",
"b  c #A7381C",
"n  c #AE3B19",
"m  c #B53610",
"M  c #B43715",
"N  c #B83810",
"B  c #B13919",
"V  c #B63C1C",
"C  c #B53D1E",
"Z  c #B83A18",
"A  c #B93A19",
"S  c #BB3F1C",
"D  c #A43A20",
"F  c #A83C21",
"G  c #B13F23",
"H  c #B23F23",
"J  c #C13B0D",
"K  c #C03B0E",
"L  c #C53D0F",
"P  c #C63D0F",
"I  c #C13F18",
"U  c #C03F1C",
"Y  c #BB411D",
"T  c #BD421E",
"R  c #B34020",
"E  c #B54023",
"W  c #BB4322",
"Q  c #BF4325",
"!  c #BD4727",
"~  c #B8482B",
"^  c #BA492C",
"/  c #BE4B2D",
"(  c #CF4112",
")  c #C5421B",
"_  c #C5421E",
"`  c #D74A1C",
"'  c #C64724",
"]  c #CC4720",
"[  c #C54827",
"{  c #C74A27",
"}  c #C54B28",
"|  c #C04C2D",
" . c #C44D2E",
".. c #C64E2F",
"X. c #C94B2B",
"o. c #CE4C28",
"O. c #CA4F2F",
"+. c #CF4F2C",
"@. c #DB4E21",
"#. c #DA4F22",
"$. c #D15027",
"%. c #DD5226",
"&. c #D85229",
"*. c #DF562B",
"=. c #DF562C",
"-. c #CB5030",
";. c #CE5030",
":. c #D05535",
">. c #D75837",
",. c #DD5B34",
"<. c #E15528",
"1. c #E0562B",
"2. c #E0562C",
"3. c #E25A30",
"4. c #E55D33",
"5. c #E15D35",
"6. c #E35E36",
"7. c #E75E34",
"8. c #E65F37",
"9. c #E75F37",
"0. c #E66037",
"q. c #EA6137",
"w. c #EB633A",
"e. c #EC663E",
"r. c #F36F4A",
/* pixels */
"r.r.r.r.r.r.r.r.g g Z <.<.w.r.r.r.r.r.r.r.r.r.r.r.r.r.r.r.X.g g *.<.7.r.r.r.r.r.r.r.r.r.r.r.r.r.r.r.5.g g ] 1.<.r.r.r.r.r.r.r.r.",
"r.r.r.r.r.r.r.r.g g Z <.<.w.r.r.r.r.r.r.r.r.r.r.r.r.r.r.r.o.g g <.<.7.r.r.r.r.r.r.r.r.r.r.r.r.r.r.r.>.g g _ <.<.r.r.r.r.r.r.r.r.",
"8.8.8.8.8.5.,.,.5 5 V 8.7.8.9.9.9.9.9.0.9.0.9.6.0.0.5.,.,.H 5 5 8.7.7.8.7.0.8.7.9.9.9.9.9.e.9.e.,.,.X.5 e o.7.7.7.9.9.9.9.9.9.9.",
"( ( ( ( ( J s s & & H r.r.=.( ( ( ( ( ( ( ( ( ( ( ( P s s < > & r.r.7.( ( ( ( ( ( ( ( ( ( ( P P s s t > & :.r.r.P ( ( ( ( ( ( ( ",
"( ( ( ( ( J s s & & C r.r.<.( ( ( ( ( ( ( ( ( ( ( ( P s s < & & r.r.w.( ( ( ( ( ( ( ( ( ( ( ( ( s s q > * ;.r.r.( ( ( ( ( ( ( ( ",
"( ( ( ( ( J s s o o c w.q.@.( ( ( ( ( ( ( ( ( ( ( ( P s s : o o w.7.=.( ( ( ( ( ( ( ( ( ( ( ( ( s s q X + ' w.7.( ( ( ( ( ( ( ( ",
"( ( ( ( ( J s s     8 <.=.` ( ( ( ( ( ( ( ( ( ( ( ( P s s - . . <.<.@.( ( ( ( ( ( ( ( ( ( ( ( ( s s q   . S 2.<.( ( ( ( ( ( ( ( ",
"( ( ( ( ( J s s     7 <.<.` ( ( ( ( ( ( ( ( ( ( ( ( P s s - . . <.<.@.( ( ( ( ( ( ( ( ( ( ( P L s s q   . S <.<.( ( ( ( ( ( ( ( ",
"& & @ . . . . . & & = g g = & & & & @       . . . . . . . + * = g g 5 > & & & &     X & = X . .     X & & 5 g g > > * * * X     ",
"> & @ .   . . . & & = g g = & 3 & > @       . . . . . . . # * * g g 5 & & 3 & >     X & * X . .     X > & 5 g g * * * * * + .   ",
"k k x 0 x c b x R E F { ' H H H H H z # @ = 7 7 0 0 D D z D Q H G ' R E G G G G @ @ > k k b D F v 0 D H H H X.' H H H H H 4 + @ ",
"<.<.9.r.r.r.r.r.r.r.r.r.r.r.r.r.r.r.>.g g U <.<.r.r.r.r.r.r.r.r.r.r.r.r.r.r.r.r.g g A <.<.9.r.r.r.r.r.r.r.r.r.r.r.r.r.r.r.X.g g ",
"<.<.8.r.r.r.r.r.r.r.r.r.r.r.r.r.r.r.>.g g ] <.2.r.r.r.r.r.r.r.r.r.r.r.r.r.r.r.r.g g A <.<.9.r.r.r.r.r.r.r.r.r.r.r.r.r.r.r.X.g g ",
"w.w.8.*.<.4.2.2.2.2.2.4.=.=.=.=.$.$.S 5 = ] w.e.=.=.=.=.<.<.<.<.=.=.<.3.=.<.$.$.= = V 9.w.7.2.3.=.=.=.=.2.2.2.2.2.2.&.$.o.B = 2 ",
"r.r.8.P ( ( ( ( P ( ( ( ( ( L L s s r * &  .r.r.( ( P P ( ( ` P P ( ( ( P P N s > & H r.r.2.L ( ` P L P ( ( ( ( L P L s s r & & ",
"r.r.7.( ( ( ( ( ( ( ( ( ( ( ( P s s t & &  .r.r.( ( ( ( ( ( P ` ( ( ( ( P P s s ; & H r.r.2.P ( P P ` P ( ( ( ( ( ( L s s , > & ",
"1.1.@.P ( ( ( ( ( ( ( ( ( ( ( ( s s <     n <.<.P ` P P ( ( P P ( ( ( ( P J s s . . 9 <.<.` ` P P ( ( ( P ` P P P ` P s s -     ",
"<.<.@.L ( ( ( ( ( ( ( ( ( ( ( ( s s <     n <.<.P P P ` ( ( P P ( ( ( P ( J s s   . 7 <.<.@.P P ` P ( ( P L P ` ( P P s s -     ",
") ] _ f N N N N d i d N N d d i < < - X X k _ _ m m m m P s i i d d d d f t , q + + 5 U U ` M m m m P J m m N N J s t q < * X X ",
"i r g > & & = 5     X & & +         X * & 2 u i & ; > > g @         .   . .     & & 5 g g 5 * * * = @   . + * * O         + * * ",
"g g 5 > > & & & .   X & * X     . . X & > 5 g g & > & & & X             . . . . > & = g g g * * = * # . . + * * . . . .   + & & ",
";.;.+. . . . . .& & g S S Q ^ | ~ ~ /  . .O.;.;. . . . . .v > & n n H ~ ~ ~ ~ ~ | [ O.+.+.&.[  . .[ H * & k S A ~ ^ ~ ~ Q ^  . .",
"r.r.r.r.r.r.r.r.g g Z <.<.w.r.r.r.r.r.r.r.r.r.r.r.r.r.r.r.X.g g <.<.7.r.r.r.r.r.r.r.r.r.r.r.r.r.r.r.>.g g ] 2.<.r.r.r.r.r.r.r.r.",
"r.r.r.r.r.r.r.r.g g Z <.<.w.r.r.r.r.r.r.r.r.r.r.r.r.r.r.r.X.g r <.<.7.r.r.r.r.r.r.r.r.r.r.r.r.r.r.r.>.g g ] <.<.r.r.r.r.r.r.r.r.",
"L ( ( ( ( L s s > > H r.r.1.( ( P ( ( ( ( ( ( ( ( ( P s s , > > r.r.w.P ( ( ( ( ( ( ( ( ( ( ( ( s s t & * ;.r.r.P P ( ( ( ( ( ( ",
"P ( ( ( P L s s * * H r.r.1.( ( ( ( ( ( ( ( ( ( ( ( P s s q * * r.r.7.( ( ( ( ( ( P ( ( ( ( ( ( s s t & * ;.r.r.P ` ( ( ( ( ( ( ",
"( ( ( ( ( L s s @ + v e.e.<.( ( ( ( ( ( ( ( ( ( ( ( P s s : @ @ e.e.3.( ( ( ( ( P ` P ` ( ( ( ( s s r + @ ;.r.9.P ` P ( ( ( ( ( ",
"( ( ( ( P J s s   . 7 <.1.` ( ( ( ( ( ( ( ( ( ( ( ( P s s ;     <.<.@.( ( ( ( ( ` P P P ( ( ( ( s s q . X H <.<.` P ( ( ( ( ( ( ",
"( ( L P ( P s s     7 <.<.` L P ( ( P ( ( ( L P ( ( P s s ;     <.<.@.P ( ( ( ( L P P P P P P L s s q   . A <.<.P P P J ( P P ` ",
"j N r g r 2 - ; + + 3 U S M i i j m r 2 r r 2 2 r r , ; - $ + + U U Z t i j p d 2 < j N M t r 5 ; - @ + @ k U U K N d i s t q t ",
"* * # . .       & > = g g 5 & & & > @           .   .     + & & g g 5 * & & & &     X > 1 #     . . X ; * 5 g g * * * * * @     ",
"* * # .         & & = g g = > & & & @ .         .   .     + > & g g 5 > & > & &   . X & & +       . X ; * 5 g g * * * * * @     ",
"<.<.7.r.r.r.r.r.r.r.r.r.r.r.r.r.r.r.>.g g _ <.<.r.r.r.r.r.r.r.r.r.r.r.r.r.r.r.r.g g Z <.<.w.r.r.r.r.r.r.r.r.r.r.r.r.r.r.r.X.g g ",
"<.<.9.r.r.r.r.r.r.r.r.r.r.r.r.r.r.r.>.g g ] <.<.r.r.r.r.r.r.r.r.r.r.r.r.r.r.r.r.g g Z <.<.w.r.r.r.r.r.r.r.r.r.r.r.r.r.r.r.o.g g ",
"7.7.9.9.9.9.9.9.9.9.w.7.9.w.9.9.,.,.' 5 2 ' 9.7.7.7.q.q.7.7.w.q.9.9.9.9.7.5.8.5.5 5 A 4.7.9.9.w.9.w.9.9.q.q.q.q.7.7.7.2.3.H g 5 ",
"r.r.9.( ( ( ( ( ( ( ( ( ( P ( ( s s g & &  .r.r.` P ( P ` P ( ( P ( ( ( P J s s & > G r.r.<.L P P ( ( P P ` P ( P ` P s s g & & ",
"r.r.7.( ( ( ( ( ( ( ( ( ( ( ( ( s s t > ; [ r.r.P ( ( ( P ( ( ( ( ( ( ( ( P s s ; > H r.r.<.( ( ` P ( ( ( ( ( ( P P L s s q & & ",
"w.7.2.( ( ( ( ( ( ( ( ( ( ( ( ( s s r + + H 9.9.( ( ( ( ` P ( ( ( ( ( ( ( P s s X + z 8.w.<.( ( ` P ( ( ( ( ( ( ` L L s s = X + ",
"<.1.@.( ( ( ( ( ( ( ( ( ( ( ( P s s ,     M <.<.( ( ( ( P ` P P ( ( ( ( P J s s     7 <.<.` ( ( P ( ( ( ( ( ( ( P P L s s -     ",
"<.2.@.( ( ( ( ( ( ( ( ( ( ( ( L s s q   X A <.<.( ( ( ( P ` P P ( ( ( ( ( J s s     9 <.<.` P L ( ( ( ( ( ( ( ( P ` L s s -     ",
"r r g & & > * * . . X & & + .       X & & = g g & & & & & X .   X . . .         & > = g g 1 & > & & +     + & & $   . . . + & & ",
"g g g = & & * * . . X & > X . .     X & & 5 g g > = > & & + . . . . . . . .     & & = g g 1 & & > & #     + > &     . . . + > & ",
"' H H H H H H H + # = k k v 0 0 c 0 c H G G ' Q H H F H H 6 # # 7 7 9 x 0 0 0 0 H F H ' Q H H H H H b # + 5 k k k z D 0 z D H H ",
"r.r.r.r.r.r.r.r.g g A <.<.w.r.r.r.r.r.r.r.r.r.r.r.r.r.r.r.X.g g *.<.0.r.r.r.r.r.r.r.r.r.r.r.r.r.r.r.>.u g _ <.<.r.r.r.r.r.r.r.r.",
"r.r.r.r.r.r.r.r.r g A <.<.e.r.r.r.r.r.r.r.r.r.r.r.r.r.r.r.X.g e <.<.5.r.r.r.r.r.r.r.r.r.r.r.r.r.r.r.>.r g ] 2.<.r.r.r.r.r.r.r.r.",
"2.<.<.7.*.$.$.o.= 5 V 9.w.9.2.2.2.2.2.2.=.2.2.2.2.<.<.$.o.B 5 = w.w.9.=.=.<.=.=.2.2.2.2.=.*.=.=.o.$.H 2 5 ;.w.w.2.2.2.2.=.=.=.=.",
"P P ` P L J s s & > H r.r.2.( ( ( ( ( ( ( ( L P P ` L s s q * * r.r.9.( ( ( ( ( ( ( ( ( ( ( ( ( s s t > & :.r.r.( ( ( ( ( ( P ( ",
"P ` P P L L s s & > H r.r.1.( ( ( ( ( ( ( ( ( ( P L L s s q * * r.r.9.( ( ( ( ( ( ( ( ( ( ( ( ( s s t ; > ;.r.r.( ( ( ( ( ( ( ( ",
"P ( ( ( P P s s X   7 =.<.` L P ( ( ( ( ( ( ( ( ( ( P s s -     <.<.` ( ( ( ( P ( ( ( P ( ( ( P s s <   . S 2.<.L P ( ( ( ( ( ( ",
"` P ( ( L J s s     7 <.<.` ( ( P L ( ( ( ( P L ( ( P s s -     <.1.@.P ( ( ( L ( ( ( L ( ( ( L s s <   . S <.<.( ( ( P ( ( ( ( ",
"m m P J d r , q + X 3 ] _ U N N N N f d N d d d i d d q < $ X X ` ] U N N N N N N f d N N N d i < < ; X X B ] ] N N N N m m m m ",
"* = @ X       . ; & = g g 5 = 1 > > @                     + * * g g 5 > = 3 & >     X > = #         X & & 5 g g 3 = * * & + . . ",
"* * @       . . & & 3 g g = & > & & @                     + > * g g g * & & & >     X & > @         X & & 5 g g & & & & & +     ",
"A U H ^ ~ ' ~ ~  . .O.o.;.;. . . . .H & > 8 n n ~ ^ ^ ~ ~ |  . .;.;.;. . .X. . .> & 5 S H [ ~ ~ ^ ~ |  . .o.;.;. . .O. . .x & > ",
"<.<.7.r.r.r.r.r.r.r.r.r.r.r.r.r.r.r.>.g r _ <.<.r.r.r.r.r.r.r.r.r.r.r.r.r.r.r.r.g g Z <.<.w.r.r.r.r.r.r.r.r.r.r.r.r.r.r.r.X.g g ",
"<.<.7.r.r.r.r.r.r.r.r.r.r.r.r.r.r.r.>.g g _ <.<.r.r.r.r.r.r.r.r.r.r.r.r.r.r.r.r.g g Z <.<.w.r.r.r.r.r.r.r.r.r.r.r.r.r.r.r.[ g g ",
"r.r.w.( ( ( ( ( P ( ( ( ( ( ( ( s s t * *  .r.r.( ( ( ( ( ( ( ( P P ( ( ( P d s & > H r.r.*.( ( ( ( ( ( ( ( ( ( P ( P s s q & & ",
"r.r.7.( ( ( ( ( ( ( ( ( ( ( ( ( s s t * *  .r.r.( ( ( ( ( ( ( ( ( ( ( ( ( P s s & & H r.r.*.( ( ( ( ( ( ( ( ( ( ( ( P s s q > & ",
"r.w.7.P ( ( ( ( ( ( ( ( ( ( ( ( s s q + @ Q e.e.( ( ( ( ( ( ( ( ( ( ( ( P J s s @ @ v r.w.#.P ( ( ( ( ( ( ( ( ( ( ( P s s = + + ",
"<.%.@.( ( ( ( ( ( ( ( ( ( ( ( ( s s <     n <.<.( ( ( ( ( ( ( ( ( ( ( ( ( P s s     3 <.<.` ( ( ( ( ( ( ( ( ( P ( ( P N s -     ",
"<.<.` P P ( ( P ( ( ( ( ( ( ( ( s s ,     B <.<.( P ( ( P ( ( P ( P ( P ( P s s     3 <.<.` L L ( P P ` P P ( P ( P P s s -     ",
"U U ) m i i m u 2 2 q i m g , r ; ; > + + g U U m j j m i r 2 q r 2 r 2 y : - - + + 5 S U M f i m m g r q r m m r < , - - $ + + ",
"g g 2 > & & & & .   X & & + . . . . X & & 2 g g & & > & & +     . . .       .   * * = g g 5 > * & ; #     + & > . .       X > * ",
"g g 1 & & > & &     X & & +     . . X & & 1 g g & > & & > +         .           > & = g g 5 & & & > #     + & >           + * * "
};
