/* XPM */
static char *result[] = {
/* columns rows colors chars-per-pixel */
"64 64 103 2 ",
"   c #128216",
".  c #158318",
"X  c #1B851B",
"o  c #20871F",
"O  c #208720",
"+  c #258821",
"@  c #2D8A26",
"#  c #2F8C28",
"$  c #348C2A",
"%  c #3B8E2E",
"&  c #3B8E34",
"*  c #3E9131",
"=  c #449335",
"-  c #4A9237",
";  c #4C9539",
":  c #52963C",
">  c #54983F",
",  c #569A42",
"<  c #5C9B44",
"1  c #669C48",
"2  c #6A9E4B",
"3  c #63A14E",
"4  c #6BA04D",
"5  c #74A352",
"6  c #79A455",
"7  c #7DA759",
"8  c #85A55B",
"9  c #89A65E",
"0  c #83A85D",
"q  c #83AB60",
"w  c #8CAB61",
"e  c #94AB65",
"r  c #98AB66",
"t  c #9DAD6A",
"y  c #9CB26D",
"u  c #A4AD6C",
"i  c #A4B16F",
"p  c #A5B371",
"a  c #ABB474",
"s  c #ABB876",
"d  c #BAB77B",
"f  c #B4B97A",
"g  c #B8BA7D",
"h  c #C1B77E",
"j  c #C8B37F",
"k  c #C1B87F",
"l  c #A9918C",
"z  c #AF9790",
"x  c #BC9F92",
"c  c #BFBE82",
"v  c #C39E94",
"b  c #C3BC83",
"n  c #D9B385",
"m  c #DDBE8D",
"M  c #C1A393",
"N  c #CEA393",
"B  c #D4A895",
"V  c #D5B199",
"C  c #E3BE90",
"Z  c #EDBE94",
"A  c #F4B792",
"S  c #F6BB95",
"D  c #F8BE97",
"F  c #F6BE99",
"G  c #F8BF98",
"H  c #C7B4B3",
"J  c #D2BAB0",
"K  c #E2BBA0",
"L  c #C4C186",
"P  c #C7C288",
"I  c #CBC38C",
"U  c #D2C38D",
"Y  c #DBC08E",
"T  c #D6C691",
"R  c #DBC592",
"E  c #D4C893",
"W  c #DDC895",
"Q  c #E2C996",
"!  c #E6C598",
"~  c #EAC799",
"^  c #E3CA99",
"/  c #ECCA9C",
"(  c #F6C29C",
")  c #F9C49D",
"_  c #F5C99F",
"`  c #FBC89F",
"'  c #ECC3A1",
"]  c #E1CFA0",
"[  c #EACDA0",
"{  c #E8C5AA",
"}  c #F3C6A2",
"|  c #F9C6A1",
" . c #F5CAA3",
".. c #FCCDA4",
"X. c #F6CEAA",
"o. c #FACEA9",
"O. c #F5D2A5",
"+. c #FDD0A7",
"@. c #F6D2AB",
"#. c #FED4AA",
"$. c #FED8AF",
"%. c #FCD7B1",
"&. c #FED9B1",
/* pixels */
"#.#.#.&.&.&.$.$.$.$.$.#.$.#.$.$.$.$.#.#.$.$.$.#.#.#.$.#.#.#.I = o q $.$.#.$.$.$.X.@.#.#.$.#.$.#.$.$.$.#.#.#.#.#.+.#.#...#.#.#.#.",
"#.#.#.#.#.#.$.$.$.$.#.$.#.$.$.#.#.$.$.#.#.$.#.$.#.$.#.$.$.L o       3 $.$.#.#.^ z J #.#.#.#.#.#.$.#.#.#.#.#.#.#.+.+.#.....#.#.#.",
"#.+.+.#.#.#.#.#.#.#.$.$.$.$.$.$.$.&.$.$.$.$.#.#.$.$.$.$.] o           e #.+.O.+.~ .. .+.+.+.#.#.#.#.+.+.#...#.#.#.#.#.#.#.#.#.$.",
"+...+.#.#...#.#.#.#.#.#.#.#.#.#.#.#.$.#.$.$.$.$.$.#.#.$.5             o _ +.` +...+.+.a ~ #.#.#.#.#.#.+.+.+.......+...#.+.#.+.#.",
"X.o...#.+.+.#.+.+.#.#.#.#.#.+.#.#.+.#.#.#.#.#.#.#.#.#.+.+               a +.` +. .+.a   6 #.$.#.$.#.$.O.#.+.+.+.+.+.....+.+...+.",
"H J +.#.+.+...#.+.+.#.#.#.+.#.+.#.+.+.#.#.#.#.+.#.#.+.U                 6 +.+.+.#.#.=   + $.$.$.$.$.&.&.&.$.#.#.+.+...o.+...+...",
"X.o.+.......+...+.+.#.+.+.+.+.+.+.....+.+.+.+.+.+.+...p                 , +.+.#.$.$.      j S S A A S S S (  .| | | #.#.+.#.+...",
"o.#.#.+.#.#.+.+.+.+.+.+.+.+.+.+...+.......+...+.......0                 * #.+. .( n       e ....` +.+.` o. . ...| _ ( ( | +.#.+.",
"#.o.#.+.#.+.+.+...+.....o.......+.........+.o. .+. .+.4                 @ ) ` ` ) m       1 `  ...+.| ` ` ` ` | | ........|  ...",
"#.#.#.o...+.+.+.+.` ..#.#.+...+.+.+.+...+...+.+.+.+.+.4                 # ..| ) ` m       = | ....+.+.....` ..` ` ..` ` ` ......",
"} } X.%.&.&.#.+.+.+.+.#.#.#.#.#.#.#.#.#.#.+.o.+. . .` 4                 @ ) ) ` | m       @ ....+.+...+.......` ..` | ..........",
"F ( S F F  .O.+.#.#.@.@.@.o.@.o.O.O._ ` ` ) ` | ` ..` 4                 - ` ) ` ..h         ....+.+...+.+...................+.+.",
"..| ) ) S A A ( S D D ( G ) G ) ) ) ` ` ` ......+.+.+.5                 ;  .....` h         ........+.#.#.+.+.|  .` ..+.........",
"............` ` ` ` ` ` | ) ) ......+...+.+.+.+.#.+.#.8                 4 +.......h         ~ ........+.+.#.+.....+...........| ",
"+...+...+.+.+.+.+...` +...+.+.+.+.+.#.+.+.+.#.+.#.#.+.9                 6 +.+.+...h         / +.+.+.+...+.+.+.+.+._ V +.+...+...",
"#.#.#.+.#.#.+.+...+.+.+.+.+.+.+.#.#.+.T 5 W #.#.#.#.#.p                 w +.+.....b         ..#.+.#.+.#.+.#.#.+.| l x ....+.....",
"#.$.#.+.+.#.+.#.#.#.+.+.+.#.+.#.#.+.#.=   # / #.+.+.+.a                 i +.+.+.+.k          .+.+...+.+...o...+.o.M ' +.+.+...+.",
"+.+.#.#.#.#.#.#.#.#.+.+...+.#.+.+.+.Q       7 +.+.#.+.L                 p +...+...a       . +.+.+...+.+.#...........+.+.#.#.+.+.",
"$.#.$.#.#.#.#.#.#.#.#.#.+.+.#.#.+.+.f       o O.#.#.#.U                 0 #.+.+.+.t       # +.+.+.#.+.#.#.#.#...#.+.#.+.+.+.+.+.",
"#.#.+.#.#.$.#.$.#.#.#.#.#.$.#.$.$.$.0         U $.$.$.^                 = #.#.#.O.1       & [ +.....+...#...#.#.#.#.#.#.#.#.#.#.",
"#.#.$.#.#.$.#.O... . .|  .( ( F D ( >         u ( _ | /                   f #.#.L .       < +.........#.......#.#.#.#.#.#.#.#.#.",
"#.+. .` ) ( _ ` | | | ......o...+.` =         w ` ` ) (                   . 4 5 X         5 +.....+.......#.#.#.#.#.#.#.#.#.#.#.",
" ...+.+...+.+.+.........#.#.#.#.#.+.X         8 ` ..` ` @                                 i +.O.#.+.#.+.#.#.#.#.#.#.#.#.+.#.+.+.",
"..+.+.+.` +.` ....+.......o.+.+.+._           i #.#.+.+.#                               X O.#.#...+...#.#.#.#.o.#.#.+.+.#.+.#.+.",
"....+.+...#...+.#...#.+.#.#.+.+.+.~           i #.+.+.+.;                               s #.#.#.+.+.+.+.+.+.+.+.#.#...#.........",
"+.+.+.+...#.#.#.+.#.#.#.#.#.#.#.#.W           f +.#.+.#.;                           X e $.$.#.#.+.+.+.+.+.#.+.#.+.............#.",
"+.+.+.#.#.#.+.#.#.#.#.#.#.#.#.#.$.U           L #.#.#.#.-                     . ; e Q O._ +.#.#.+.+.+...........+...............",
"+.#.#.#.#.#.+.+...#...#.#.#.#.#.#.U           T #.#.#.#.#                 . a O.#.#.+.#.O.` ..#.#.$.#.O.........................",
"#.+.#.#.+.#.#.+...#.+.+.+.+.#...+.U           Q +.+.+.#..                 y #.$.#.#.$.#.#.+...` ` +.+.+.#.#.O.+. .+.` +.......o.",
"#.#.#.#.#.#.+.+.#...+.o.+.........U           #.#.#.$.E                 + $.#.#.#.$.#.#.#.#.#.#.+. .` ` ........+.+.+.#.#.#.#.+.",
"..+.#.#.#.#.+.+...+...............U         o $.$.$.#.w                 < #.#.$.#.#.$.#.#.#.#.#.$.#.#.#......... ...........| ..",
"+.+.+.+.+.+.+.+...+.#.#.#.+.#.#.#.U         o O.#.#./ +                 7 #.$.#.#.$.#.#.#.$.#.$.#.#.$.#.#.#.#.+.+.+.+.+.+.+.#.#.",
"#.#.#...#.+.....+.+.+.#.$.#.#.#.#.E           9 ( Z -                   y #.#.$.#.#.$.#.#.#.$.#.$.#.$.#.#.$.#.#.#.#.#.$.#.#.$.#.",
"......#.....+...+.+.#.$.#.#.$.$.#.^             % @                     g #.#.+.#.#.#.#.#.#.#.$.#.#.#.#.$.#.#.$.#.$.#.$.#.#.#.#.",
"{ ......+.+.+.#...+.+.$.$.$.o.) ) ( #                                   I O.+.#.#...#.#.#.#.#.#.#.#.$.#.#.#.#.#.#.$.#.#.#.$.#.#.",
"o.o...+.+.+.+.#.#.$.&.+. ._ ) ) ` | e                                   R +.$.#.#.+.o.#.#.#.#.#.#.#.+.#.#.$.#.#.+.#.#.#.#.#.#.#.",
"#.#.#.o.#.#.#.#.$.X.` ( ` ` | ...... .>                                 ` ` ` | o.#.+.+.#.+.#.#.+.#.#.+.+.+.o.K #.#.#.#.#.#.#.#.",
"#.#.#.&.&.#.o.o.} ` ` | ........+.+.+. .5 .                             ........) ( | o.#.#.#.#.#.#.#.#.#.#.#.#.#.#.+.#.#.#.+.+.",
"....o.....| ` | ........+.+.+.#.+.#.$.#.#.I $                         # +.+.+.+.#. .8 S ( | ..+.+.#.#.+.#.#.o.#.+.#.#.+.#.+.+.#.",
"..` | | ) ..........#.#.#.#.+.+.#.#.$.#.#.#.O.,                       $ #.#.+.+...8   a ) S S ( `  .......#.+.+.#.#.+.+.+.#.+.+.",
"........#.+.#...#.+.#.#.+.+.+.#.+.+.#.+.#.#.+.O.,                     = #.#.#.#.#.o . 4 ..` ` ) S A F ` | | | o.+.+.....#.o.o.#.",
"+.+.#.#.#.#.#.#.#.+.....+.#.+.#.#.#.#.+.+.+.#.+.^ X                   ; #.#.$.#.O.    % ..+.+.` | ` ` ` ) ) ` ` ` ` | ` ) ) F F ",
"+.#.+.#.#.#.+...+.+.#.#.#.#.#.#.#.#.+.+.+.#.+.+.+.<                   ; ........Q     X ..+.+.` | ......| ....` ` ` ) ) ) ) F F ",
"#.#.....+.+.#.#...o.......#.#.#.#.#.#.#.#.+.+.+.+.e                   ; ..) ..` Y       #.#.#.+.+...+.+.+.+.+...+... .........o.",
"#.#.#.#.#.#.#.#.o...............#.#.#.#.#.+.+.+.+.i                   = ......` h       #.#.#.#.+.#.+...+.+.+.+.+.+.........o.#.",
"#.#.#.#.$.&.#.#.%.#.o.) ) ) ......` ....+.+.+.+.+.d                   X _ ....` d     o +.#.#.#.#.#.+.#.+.+.+.+.+.+.+.#.#.#.#...",
"#.$.#.| F ) G F D A G | ......` ` ) ` ` ` ..` ` ..i                     9 ` ....4     # ` +.+.#.#.#.#.+.#.+.+.#.+.#.#.#.#.#.#.#.",
"#...D G ) ) ) ) ) G ) ) ) ) | | ..` ` ` ` ` ` ` ..i                     . 5 i 5       : +.+.+.+.+.$.#.#.#.#.+.#.#.#.$.$.#.#.#.#.",
"| G G G ( D ) ) ) ) ( ) ) ) ) D ) ) ..| ..) ......u                                   7 #.#.+.#.+.#.#.#.#.#.#.#.$.#.#.$.#.#.#.#.",
"F G G G ) ` ` ` ` ` ` ` ) ) ) ) ) S D | ....| ....u                                   b &.&.#.#.$.$.$.$.$.#.$.#.#.$.#.$.$.#.#.#.",
"G ) ` | ` ` ` ` ` +.` +.+.+.` ) ) ) ( ) D ) ..| ` u                                 - G G G ) ) ) ` o.#.&.&.$.#.$.#.$.#.$.#.$.#.",
") ....o.#.+.+...+.` +.+.+.+.......` ` ) ) ) | | ..9                               $ C | ) ` ) ` ` ) ) ( S G o.#.$.$.#.#.#.#.#.$.",
"+...+.+.+...+.#.#.#.+.+.+.+.+.+...` ..` ` ` ` ` ) 8                           % r _ ..| ` ` ` ) `  .....` ` S S D ` +.#.$.$.#.#.",
"..#.+.#.#.+.#.#.+.#.+.#.+.+.#.+.#.+.+.+.+.+...` ` 8                     X 2 b ..#...#.+.+.` ......+.+.#.+.......) ( ( ( ) ) ..O.",
"+.+.#.#.#.#.#.#.#.$.#.#.$.#.+.#.#.#.+.+.+.+.+.` | 9                   @ U ..+...+.+.+.+.+.+.+.#.+.+.+.+.+.#.+.+.......` ) ) ) ( ",
"#.$.#.$.$.#.$.#.$.#.#.#.$.#.$.#.#.#.#.#.+.+.+.+...p                 . h ..` ..| ........` +.` ` ....+.+.+.+.......` ` ..` ..` ) ",
"#.#.#.$.+.$.#.$.$.#.$.#.#.#.$.#.#.$.#.#.$.#.#.#.#.p                 # +.....` +.+.` ..` ..` ` ......#.#.#...+...........) ` ` ) ",
"$.$.#.#.$.#.$.#.$.#.$.#.#.$.#.#.#.#.#.$.$.$.#.#.#.c                 7 #.#.#.+.#.+.+.+.+.+.` ` ..+.#.....+.#.#.....+...+.........",
"#.$.#.+.#.#.#.o.#.#.+.+.#.#.$.#.#.&.#.#.#.$.#.$.#.P                 a $.#.#.#.+.#.#.+.+.+.+.+.+...............+._ v ............",
"#.#.#.#.#.+.#.#.#.#.#.#.+.+.+.+.....o.#.#.$.#.#.$.^                 L $.#.$.#.#.#.#.#.#.+.+.+.+.#.#...#...#.o.#...........+.....",
"#.+.+.+.#...#.#.+...+.+.+.+...` ..) ) | ..#.&.#.+.O..               ^ #.#.#.+.#.#.#.$.#.#.#.#.#.#.#.#.#.#.#.#.#.#.#.#.o.#.#.o.#.",
"+.+.#.+.#.#.........` ....` ` ` ) ) ) ) ) | | | #.#.>               #.#.#.+.+.#.#.$.#.#.#.#.$.#.#.#.$.&.&.$.#...| | ) ) ) ) | ..",
"#.+.#.$.#.+.....` ....` ` ` ` ` ) B N ) ) ) G ) ) ` ! %           # +.+.+.#.+.#.#.#.$.#.$.#.&.&.$.&.#.#...` ) ) | | ) ) G G D D ",
"#.$.$.+.#.+.+.+...) ` ` ..+.` +.#...+...) ) ) G ) ` | _ r ; O X , P #.+.#.#.#.$.$.$.$.$.#.#.#.+.....` ` ..) ) | | ..| | | G G D "
};
